<?xml version="1.0" encoding="UTF-8" standalone="no"?>
<!-- Created with Inkscape (http://www.inkscape.org/) -->

<svg
   xmlns:dc="http://purl.org/dc/elements/1.1/"
   xmlns:cc="http://creativecommons.org/ns#"
   xmlns:rdf="http://www.w3.org/1999/02/22-rdf-syntax-ns#"
   xmlns:svg="http://www.w3.org/2000/svg"
   xmlns="http://www.w3.org/2000/svg"
   xmlns:sodipodi="http://sodipodi.sourceforge.net/DTD/sodipodi-0.dtd"
   xmlns:inkscape="http://www.inkscape.org/namespaces/inkscape"
   id="svg2"
   version="1.1"
   inkscape:version="0.91 r13725"
   width="1000"
   height="1000"
   viewBox="0 0 1000 1000"
   sodipodi:docname="cherries.svg">
  <metadata
     id="metadata8">
    <rdf:RDF>
      <cc:Work
         rdf:about="">
        <dc:format>image/svg+xml</dc:format>
        <dc:type
           rdf:resource="http://purl.org/dc/dcmitype/StillImage" />
        <dc:title></dc:title>
      </cc:Work>
    </rdf:RDF>
  </metadata>
  <defs
     id="defs6" />
  <sodipodi:namedview
     pagecolor="#ffffff"
     bordercolor="#666666"
     borderopacity="1"
     objecttolerance="10"
     gridtolerance="10"
     guidetolerance="10"
     inkscape:pageopacity="0"
     inkscape:pageshadow="2"
     inkscape:window-width="1021"
     inkscape:window-height="758"
     id="namedview4"
     showgrid="false"
     inkscape:zoom="0.41077465"
     inkscape:cx="805.41768"
     inkscape:cy="401.51666"
     inkscape:window-x="394"
     inkscape:window-y="142"
     inkscape:window-maximized="0"
     inkscape:current-layer="svg2">
    <inkscape:grid
       type="xygrid"
       id="grid3357" />
  </sodipodi:namedview>
  <path
     style="fill:#000000"
     d="m 512.58911,810.15403 c -1.96766,-1.14605 -2.1875,-3.78032 -2.1875,-26.21199 0,-23.27122 -0.16709,-25.10497 -2.5,-27.43788 -2.32844,-2.32844 -4.16666,-2.5 -26.78571,-2.5 -20.41127,0 -24.59909,-0.31338 -26.25,-1.96429 -1.74598,-1.74596 -1.96429,-11.11884 -1.96429,-84.33101 0,-80.15427 -0.065,-82.4015 -2.41783,-83.66073 -2.57675,-1.37904 -44.6851,-1.84755 -48.10493,-0.53524 -1.76024,0.67547 -1.97724,6.61258 -1.97724,54.09687 0,46.25208 -0.25851,53.70721 -1.94588,56.11626 l -1.94588,2.77814 -84.67912,0 c -64.19487,0 -85.04198,-0.36287 -86.17912,-1.5 -1.04414,-1.04414 -1.54495,-8.35697 -1.64789,-24.0625 -0.0814,-12.40938 -0.50757,-24.25 -0.94717,-26.3125 l -0.79927,-3.75 -25.73758,-0.625 c -19.23367,-0.46707 -26.25948,-1.05853 -27.80284,-2.34055 -1.88367,-1.56473 -2.06525,-9.27173 -2.06525,-87.65945 0,-69.91903 0.30949,-86.20075 1.65987,-87.32147 1.06502,-0.88388 11.25617,-1.49868 28.4375,-1.71555 l 26.77763,-0.33798 0.33759,-27.44174 c 0.24652,-20.03956 0.75228,-27.70516 1.875,-28.41835 0.84557,-0.53715 39.32552,-0.98525 85.51098,-0.99578 l 83.97358,-0.0191 0.40142,-26.5625 c 0.22079,-14.60938 0.8565,-27.26563 1.4127,-28.125 0.75467,-1.16602 7.57418,-1.56737 26.875,-1.58164 14.22505,-0.01 26.52465,-0.43953 27.33245,-0.95333 1.02657,-0.65293 1.59105,-8.8321 1.875,-27.16835 0.22345,-14.4288 0.86135,-26.93731 1.41755,-27.79668 0.7834,-1.21043 13.22375,-1.5625 55.21027,-1.5625 29.80945,0 55.08875,-0.34143 56.17622,-0.75874 1.71488,-0.65806 1.97724,-4.19244 1.97724,-26.63609 0,-18.7432 0.43076,-26.45906 1.5625,-27.98737 1.41919,-1.9165 6.6643,-2.13905 57.1875,-2.42642 l 55.625,-0.31638 0.33799,-26.77763 c 0.21686,-17.18133 0.83166,-27.37248 1.71555,-28.4375 1.10803,-1.3351 12.44972,-1.65987 57.96578,-1.65987 50.44793,0 56.67054,0.21454 57.34694,1.97723 0.41731,1.08748 0.75874,27.41248 0.75874,58.5 0,42.29548 -0.37756,56.90033 -1.5,58.02277 -1.11914,1.11913 -14.85486,1.5 -54.09686,1.5 -45.58119,0 -52.96744,0.25955 -55.375,1.94587 l -2.77814,1.94589 0,53.58984 c 0,47.05136 -0.23966,53.82948 -1.96429,55.55411 -1.65301,1.65302 -5.87384,1.96429 -26.63609,1.96429 -17.768,0 -25.26788,0.43722 -26.802,1.5625 -1.95758,1.43588 -2.10355,5.81656 -1.80141,54.0625 l 0.32879,52.5 27.8125,0.33641 c 15.29687,0.18502 27.92594,0.46627 28.06459,0.625 0.13865,0.15872 0.56052,12.94484 0.9375,28.41359 l 0.68541,28.125 26.875,0.32568 c 23.47862,0.28453 27.07246,0.59117 28.4375,2.42642 1.21395,1.63211 1.5625,20.9888 1.5625,86.77252 0,75.3077 -0.21724,84.88904 -1.96429,86.63609 -1.65091,1.65091 -5.83874,1.96429 -26.25,1.96429 -22.61905,0 -24.45727,0.17156 -26.78571,2.5 -2.33304,2.33303 -2.5,4.16666 -2.5,27.45602 0,23.39396 -0.15134,25.03701 -2.41783,26.25 -3.30936,1.77111 -168.60028,1.71705 -171.64467,-0.0561 z m 170.13396,-5.30975 c 0.88389,-1.06501 1.49869,-11.25616 1.71555,-28.4375 l 0.33799,-26.77762 27.8125,-0.33642 27.8125,-0.33641 0,-84.95217 0,-84.95218 -27.8125,-0.33641 -27.8125,-0.33641 -0.75449,-28.125 c -0.41496,-15.46875 -0.83684,-28.27639 -0.9375,-28.46142 -0.10062,-0.18502 -12.69864,-0.18502 -27.99551,0 l -27.8125,0.33642 -0.625,56.25 -0.625,56.25 -27.5,0 -27.5,0 -0.625,-56.25 -0.625,-56.25 -27.8125,-0.33642 c -15.29688,-0.18502 -27.89486,-0.18502 -27.99551,0 -0.10063,0.18503 -0.52254,12.99267 -0.9375,28.46142 l -0.75449,28.125 -27.8125,0.33641 -27.8125,0.33641 0,84.97609 0,84.97609 26.875,0 26.875,0 0,-27.41072 c 0,-23.25216 0.29801,-27.70872 1.96429,-29.375 1.66096,-1.66096 6.01666,-1.96428 28.20717,-1.96428 15.69946,0 27.21429,0.51987 28.66071,1.29397 2.27968,1.22005 2.41783,2.88971 2.41783,29.22195 0,21.69638 -0.3705,28.23545 -1.66049,29.30604 -1.06917,0.88735 -11.4185,1.49826 -29.0625,1.71556 l -27.40201,0.33748 -0.33886,25.46515 c -0.23592,17.728 0.0954,25.98845 1.09055,27.1875 2.08451,2.51168 166.36153,2.57262 168.44477,0.0625 z m -167.32146,-26.46512 0,-25.625 27.25,0 c 19.52777,0 27.67507,-0.42508 28.75,-1.5 1.0807,-1.0807 1.5,-9.62912 1.5,-30.58103 0,-27.47222 -0.13375,-29.1526 -2.41783,-30.375 -1.45643,-0.77946 -13.3496,-1.29397 -29.91071,-1.29397 -23.32687,0 -27.79054,0.29765 -29.45717,1.96428 -1.66628,1.66628 -1.96429,6.12284 -1.96429,29.375 l 0,27.41072 -25.625,0 -25.625,0 0,-83.75 0,-83.75 27.45602,0 c 25.86564,0 27.53098,-0.14005 28.75,-2.41783 0.7745,-1.44717 1.29398,-12.98899 1.29398,-28.75 l 0,-26.33217 26.25,0 26.25,0 0,56.28093 0,56.28094 3.20637,1.21906 c 1.7635,0.67049 14.10189,1.21907 27.41863,1.21907 13.31674,0 25.65512,-0.54858 27.41862,-1.21907 l 3.20638,-1.21906 0,-56.28094 0,-56.28093 26.25,0 26.25,0 0,26.33217 c 0,15.76101 0.51947,27.30283 1.29397,28.75 1.21903,2.27778 2.88437,2.41783 28.75,2.41783 l 27.45603,0 0,83.75 0,83.75 -27.45603,0 c -25.86563,0 -27.53097,0.14005 -28.75,2.41782 -0.77165,1.44184 -1.29397,12.79483 -1.29397,28.125 l 0,25.70718 -83.125,0 -83.125,0 0,-25.625 z m 52.37331,-31.09735 c 0.99511,-1.19905 1.32646,-9.4595 1.09055,-27.1875 l -0.33886,-25.46515 -27.1875,-0.33688 -27.1875,-0.33687 0,26.69103 c 0,14.68008 0.375,27.06605 0.83334,27.52438 0.45832,0.45834 12.20195,0.83334 26.09693,0.83334 19.93647,0 25.56503,-0.36318 26.69304,-1.72235 z M 396.343,635.25416 c 0.28736,-50.5232 0.50991,-55.76832 2.42641,-57.1875 1.53294,-1.13517 9.3985,-1.5625 28.75897,-1.5625 l 26.64897,0 -0.32537,-55.9375 -0.32537,-55.9375 -27.5,0 -27.5,0 -0.625,27.5 -0.625,27.5 -28.125,0 -28.125,0 -0.625,-56.25 -0.625,-56.25 -56.25,0 -56.25,0 -0.625,28.125 -0.625,28.125 -27.42191,0.625 -27.42191,0.625 -1.02481,3.96016 c -0.56365,2.17809 -0.88004,40.14684 -0.70309,84.375 l 0.32172,80.41484 27.1875,0.33687 27.1875,0.33688 0.0191,-27.21188 c 0.01,-14.96652 0.47229,-27.92581 1.02614,-28.79841 0.7763,-1.22309 7.57298,-1.50945 29.66835,-1.25 l 28.66139,0.33654 0,29.375 0,29.375 -28.4375,0.33596 -28.4375,0.33597 0,26.6432 c 0,14.65377 0.37892,27.02213 0.84206,27.48527 0.46314,0.46312 38.57251,0.6975 84.6875,0.52082 l 83.84544,-0.32122 0.31639,-55.625 z m -167.60805,54.16666 c -0.45834,-0.45833 -0.83334,-12.26026 -0.83334,-26.22653 l 0,-25.3932 28.4375,-0.33597 28.4375,-0.33596 0,-30.625 0,-30.625 -29.91193,-0.33565 c -23.09616,-0.25918 -30.14123,0.0256 -30.91835,1.25 -0.55355,0.8721 -1.01506,13.82002 -1.02558,28.77315 l -0.0191,27.1875 -25.625,0 -25.625,0 0,-83.72609 0,-83.72609 27.8125,-0.33641 27.8125,-0.33641 0.625,-28.125 0.625,-28.125 54.65042,-0.32562 54.65042,-0.32561 0.34958,56.30936 c 0.30068,48.43307 0.61184,56.47507 2.22458,57.49398 2.44487,1.54465 55.05294,1.54569 57.5,0.001 1.55441,-0.98112 1.94,-5.8936 2.25516,-28.73086 l 0.38015,-27.54737 26.18235,0 26.18234,0 0,55 0,55 -27.25,0 c -19.52778,0 -27.67508,0.42507 -28.75,1.5 -1.12203,1.12202 -1.5,15.61111 -1.5,57.5 l 0,56 -82.91666,0 c -45.60418,0 -83.29168,-0.375 -83.75,-0.83334 z m 52.91666,-82.94104 0,-27.52437 -27.1875,0.33687 -27.1875,0.33688 -0.33928,25.59125 c -0.18658,14.07518 -0.0636,26.30956 0.27328,27.1875 0.4707,1.22661 6.845,1.59625 27.52677,1.59625 l 26.91423,0 0,-27.52438 z m 228.81041,-58.72562 c 0.37698,-15.46875 0.79885,-28.25487 0.9375,-28.41359 0.13865,-0.15873 12.76771,-0.43998 28.06459,-0.625 l 27.8125,-0.33641 0.625,-55.83455 c 0.34375,-30.709 1.09237,-56.30275 1.66362,-56.875 0.57124,-0.57225 13.22749,-1.3217 28.125,-1.66545 l 27.08638,-0.625 0.32619,-52.14972 0.32617,-52.14972 -3.04135,-1.99276 c -4.31329,-2.82619 -47.67905,-2.24184 -49.51462,0.6672 -0.65072,1.03125 -1.19173,13.19675 -1.20225,27.03445 -0.0146,19.24886 -0.40535,25.47996 -1.66312,26.52381 -1.11761,0.92755 -19.0941,1.47681 -56.14683,1.71555 -29.97658,0.19315 -54.97117,0.81867 -55.54353,1.39005 -0.57236,0.57137 -1.21454,12.64755 -1.42705,26.83595 -0.23676,15.8072 -0.90111,26.4173 -1.71556,27.39864 -0.99904,1.20377 -7.57806,1.6063 -26.4886,1.62068 -13.8377,0.01 -26.0032,0.55183 -27.03445,1.20288 -1.56094,0.98546 -1.875,5.22201 -1.875,25.29336 l 0,24.10963 28.114,0.625 28.11399,0.625 0.80061,3.75 c 0.44034,2.0625 0.86716,27.42187 0.94851,56.35416 0.0814,28.9323 0.5342,52.99049 1.00636,53.46264 0.47215,0.47216 12.14403,0.70653 25.9375,0.52083 l 25.07903,-0.33763 0.68541,-28.125 z"
     id="path3367"
     inkscape:connector-curvature="0" />
</svg>
