<?xml version="1.0" encoding="UTF-8" standalone="no"?>
<!-- Created with Inkscape (http://www.inkscape.org/) -->

<svg
   xmlns:dc="http://purl.org/dc/elements/1.1/"
   xmlns:cc="http://creativecommons.org/ns#"
   xmlns:rdf="http://www.w3.org/1999/02/22-rdf-syntax-ns#"
   xmlns:svg="http://www.w3.org/2000/svg"
   xmlns="http://www.w3.org/2000/svg"
   xmlns:sodipodi="http://sodipodi.sourceforge.net/DTD/sodipodi-0.dtd"
   xmlns:inkscape="http://www.inkscape.org/namespaces/inkscape"
   id="svg2"
   version="1.1"
   inkscape:version="0.91 r13725"
   width="1000"
   height="1000"
   viewBox="0 0 1000 1000"
   sodipodi:docname="edible-ghost.svg">
  <metadata
     id="metadata8">
    <rdf:RDF>
      <cc:Work
         rdf:about="">
        <dc:format>image/svg+xml</dc:format>
        <dc:type
           rdf:resource="http://purl.org/dc/dcmitype/StillImage" />
        <dc:title></dc:title>
      </cc:Work>
    </rdf:RDF>
  </metadata>
  <defs
     id="defs6" />
  <sodipodi:namedview
     pagecolor="#ffffff"
     bordercolor="#666666"
     borderopacity="1"
     objecttolerance="10"
     gridtolerance="10"
     guidetolerance="10"
     inkscape:pageopacity="0"
     inkscape:pageshadow="2"
     inkscape:window-width="960"
     inkscape:window-height="1028"
     id="namedview4"
     showgrid="false"
     inkscape:zoom="0.34911548"
     inkscape:cx="132.04508"
     inkscape:cy="260.31898"
     inkscape:window-x="470"
     inkscape:window-y="24"
     inkscape:window-maximized="0"
     inkscape:current-layer="svg2" />
  <path
     style="fill:#000000"
     d="m 255.45215,793.40533 0,-22.50029 -20.45849,0 -20.45851,0 0,-156.00198 0,-156.00199 20.45851,0 20.45849,0 0,-67.50086 0,-67.50086 20.45849,0 20.45849,0 0,-22.50028 0,-22.50029 21.8224,0 21.8224,0 0,-22.50029 0,-22.50028 40.91699,0 40.91699,0 0,-22.50029 0,-22.50029 84.56177,0 84.56178,0 0,22.50029 0,22.50029 42.2809,0 42.28088,0 0,22.50028 0,22.50029 20.45849,0 20.4585,0 0,22.50029 0,22.50028 20.45849,0 20.4585,0 0,67.50086 0,67.50086 21.8224,0 21.82239,0 0,156.00199 0,156.00198 -21.82239,0 -21.8224,0 0,22.50029 0,22.50029 -40.91699,0 -40.91699,0 0,-22.50029 0,-22.50029 -21.82239,0 -21.8224,0 0,-22.50028 0,-22.50029 -20.4585,0 -20.45849,0 0,22.50029 0,22.50028 -20.4585,0 -20.4585,0 0,22.50029 0,22.50029 -42.28088,0 -42.28088,0 0,-22.50029 0,-22.50029 -21.8224,0 -21.82239,0 0,-22.50028 0,-22.50029 -20.4585,0 -20.45849,0 0,22.50029 0,22.50028 -20.4585,0 -20.45849,0 0,22.50029 0,22.50029 -42.2809,0 -42.28088,0 0,-22.50029 z m 40.91698,-135.00172 0,-22.50029 42.28089,0 42.2809,0 0,22.50029 0,22.50029 42.28088,0 42.2809,0 0,-22.50029 0,-22.50029 42.28088,0 42.28088,0 0,22.50029 0,22.50029 40.917,0 40.91699,0 0,-22.50029 0,-22.50029 42.28089,0 42.28089,0 0,22.50029 0,22.50029 20.45849,0 20.4585,0 0,-22.50029 0,-22.50029 -20.4585,0 -20.45849,0 0,-22.50028 0,-22.50029 -42.28089,0 -42.28089,0 0,22.50029 0,22.50028 -40.91699,0 -40.917,0 0,-22.50028 0,-22.50029 -42.28088,0 -42.28088,0 0,22.50029 0,22.50028 -42.2809,0 -42.28088,0 0,-22.50028 0,-22.50029 -42.2809,0 -42.28089,0 0,22.50029 0,22.50028 -20.45849,0 -20.45849,0 0,22.50029 0,22.50029 20.45849,0 20.45849,0 0,-22.50029 z m 169.12357,-201.00256 0,-43.50055 -42.2809,0 -42.28088,0 0,43.50055 0,43.50055 42.28088,0 42.2809,0 0,-43.50055 z m 166.39575,0 0,-43.50055 -40.91699,0 -40.917,0 0,43.50055 0,43.50055 40.917,0 40.91699,0 0,-43.50055 z"
     id="path3357"
     inkscape:connector-curvature="0" />
</svg>
