<?xml version="1.0" encoding="UTF-8" standalone="no"?>
<!-- Created with Inkscape (http://www.inkscape.org/) -->

<svg
   xmlns:dc="http://purl.org/dc/elements/1.1/"
   xmlns:cc="http://creativecommons.org/ns#"
   xmlns:rdf="http://www.w3.org/1999/02/22-rdf-syntax-ns#"
   xmlns:svg="http://www.w3.org/2000/svg"
   xmlns="http://www.w3.org/2000/svg"
   xmlns:sodipodi="http://sodipodi.sourceforge.net/DTD/sodipodi-0.dtd"
   xmlns:inkscape="http://www.inkscape.org/namespaces/inkscape"
   width="1000"
   height="1000"
   id="svg3458"
   version="1.1"
   inkscape:version="0.91 r13725"
   viewBox="0 0 1000 1000"
   sodipodi:docname="ghost.svg">
  <defs
     id="defs5498">
    <inkscape:perspective
       sodipodi:type="inkscape:persp3d"
       inkscape:vp_x="123.34801 : 548.45815 : 1"
       inkscape:vp_y="0 : 1000 : 0"
       inkscape:vp_z="1211.4537 : 638.76652 : 1"
       inkscape:persp3d-origin="711.45374 : 472.09985 : 1"
       id="perspective3465" />
  </defs>
  <sodipodi:namedview
     inkscape:window-height="1028"
     inkscape:window-width="960"
     inkscape:pageshadow="2"
     inkscape:pageopacity="0.0"
     borderopacity="1.0"
     bordercolor="#666666"
     pagecolor="#ffffff"
     id="base"
     showgrid="false"
     showguides="true"
     inkscape:guide-bbox="true"
     inkscape:zoom="0.64205296"
     inkscape:cx="430.27593"
     inkscape:cy="634.9774"
     inkscape:window-x="170"
     inkscape:window-y="24"
     inkscape:current-layer="layer1"
     inkscape:window-maximized="0">
    <sodipodi:guide
       orientation="horizontal"
       position="200"
       id="guide5596" />
  </sodipodi:namedview>
  <metadata
     id="metadata5594">
    <rdf:RDF>
      <cc:Work
         rdf:about="">
        <dc:format>image/svg+xml</dc:format>
        <dc:type
           rdf:resource="http://purl.org/dc/dcmitype/StillImage" />
        <dc:title></dc:title>
      </cc:Work>
    </rdf:RDF>
  </metadata>
  <g
     inkscape:label="Layer 1"
     inkscape:groupmode="layer"
     id="layer1">
    <path
       style="fill:#000000"
       d="m 188.27094,633.4031 0,-163.75 20.625,0 20.625,0 0,-61.875 0,-61.875 20.625,0 20.625,0 0,-20 0,-20 20,0 20,0 0,-20.625 0,-20.625 41.25,0 41.25,0 0,-20.625 0,-20.625 81.875,0 81.875,0 0,20.625 0,20.625 41.25,0 41.25,0 0,20.625 0,20.625 20,0 20,0 0,20 0,20 -41.25,0 -41.25,0 0,19.96904 0,19.96904 -20.3125,0.34346 -20.3125,0.34346 0,61.875 0,61.875 20.28169,0.34331 20.28167,0.34333 0.34333,20.28167 0.34331,20.28169 41.875,0 41.875,0 0.34346,-20.3125 0.34346,-20.3125 20.59404,0 20.59404,0 0,-20.625 0,-20.625 19.375,0 19.375,0 0,163.75 0,163.75 -20,0 -20,0 0,-20.625 0,-20.625 -20.59404,0 -20.59404,0 -0.34346,-20.3125 -0.34346,-20.3125 -20.3125,-0.34346 -20.3125,-0.34346 0,20.65596 0,20.65596 -20.625,0 -20.625,0 0,20.625 0,20.625 -40.60792,0 -40.60792,0 -0.32958,-40.9375 -0.32958,-40.9375 -41.25,0 -41.25,0 -0.32958,40.9375 -0.32958,40.9375 -39.95195,0 -39.95196,0 -0.34347,-20.3125 -0.34346,-20.3125 -20.9375,-0.34272 -20.9375,-0.34273 0,-20.62574 0,-20.62573 -20.3125,0.34346 -20.3125,0.34346 -0.34331,20.28169 -0.34333,20.28167 -20.28167,0.34333 -20.28169,0.34331 -0.34346,20.3125 -0.34346,20.3125 -19.96904,0 -19.96904,0 0,-163.75 z m 246.25,-101.875 0,-20.625 20.625,0 20.625,0 0,-62.5 0,-62.5 -20.625,0 -20.625,0 0,-20 0,-20 -41.21904,0 -41.21904,0 -0.34346,20.3125 -0.34346,20.3125 -20.3125,0.34346 -20.3125,0.34346 0,61.84404 0,61.84404 20.68331,0 20.6833,0 -0.3708,20.62666 -0.37081,20.62668 41.5625,-10e-4 41.5625,-0.002 0,-20.625 z m -40,-61.875 0,-40 40,0 40,0 0,40 0,40 -40,0 -40,0 0,-40 z m 246.25,0 0,-40 40,0 40,0 0,40 0,40 -40,0 -40,0 0,-40 z m 41.25,-103.75 0,-20 19.375,0 19.375,0 0,20 0,20 -19.375,0 -19.375,0 0,-20 z"
       id="path3700"
       inkscape:connector-curvature="0" />
  </g>
</svg>
