<?xml version="1.0" encoding="UTF-8" standalone="no"?>
<svg
   xmlns:dc="http://purl.org/dc/elements/1.1/"
   xmlns:cc="http://creativecommons.org/ns#"
   xmlns:rdf="http://www.w3.org/1999/02/22-rdf-syntax-ns#"
   xmlns:svg="http://www.w3.org/2000/svg"
   xmlns="http://www.w3.org/2000/svg"
   viewBox="0 0 1000 1000"
   height="1000"
   width="1000"
   version="1.1"
   id="svg2">
  <metadata
     id="metadata8">
    <rdf:RDF>
      <cc:Work
         rdf:about="">
        <dc:format>image/svg+xml</dc:format>
        <dc:type
           rdf:resource="http://purl.org/dc/dcmitype/StillImage" />
        <dc:title></dc:title>
      </cc:Work>
    </rdf:RDF>
  </metadata>
  <defs
     id="defs6" />
  <path
     id="path3338"
     d="m 482.96089,795.14988 c 1.50265,-0.22817 4.20265,-0.23276 6,-0.0102 1.79735,0.22256 0.56791,0.40925 -2.73209,0.41486 -3.3,0.006 -4.77056,-0.17648 -3.26791,-0.40466 z m 46,0 c 1.50265,-0.22817 4.20265,-0.23276 6,-0.0102 1.79735,0.22256 0.56791,0.40925 -2.73209,0.41486 -3.3,0.006 -4.77056,-0.17648 -3.26791,-0.40466 z m -58.98209,-0.9748 c 0.9625,-0.25152 2.5375,-0.25152 3.5,0 0.9625,0.25153 0.175,0.45733 -1.75,0.45733 -1.925,0 -2.7125,-0.2058 -1.75,-0.45733 z m 75.48097,0.0334 c 0.67703,-0.27392 2.02703,-0.29059 3,-0.0371 0.97297,0.25354 0.41903,0.47766 -1.23097,0.49804 -1.65,0.0204 -2.44606,-0.18706 -1.76903,-0.46099 z m -82.98097,-1.00635 c 0.6875,-0.27741 1.8125,-0.27741 2.5,0 0.6875,0.27741 0.125,0.50439 -1.25,0.50439 -1.375,0 -1.9375,-0.22698 -1.25,-0.50439 z m 13.75,-0.0213 c -35.5447,-3.08659 -79.52483,-17.87674 -112.64165,-37.88042 -36.5231,-22.06119 -67.29384,-51.7412 -91.6738,-88.42425 -9.25753,-13.92925 -24.18086,-43.26011 -29.69914,-58.3718 -7.83631,-21.45954 -13.89099,-48.17618 -15.42349,-68.057 -0.59957,-7.7781 -0.80977,-8.73047 -0.91958,-4.16628 -0.0783,3.25416 -0.40328,5.65572 -0.72221,5.33679 -0.57565,-0.57565 -0.82903,-38.75538 -0.33351,-50.25346 l 0.25858,-6 0.6548,6.5 0.6548,6.5 0.1726,-6.14405 c 0.99202,-35.31321 11.54894,-74.47971 29.74528,-110.35595 14.02502,-27.65199 28.27799,-46.98626 52.36491,-71.03344 25.87643,-25.83374 44.34072,-39.15172 75.56241,-54.50187 47.7214,-23.46225 84.252,-30.50838 143.45201,-27.66945 26.43783,1.26782 38.54772,3.16225 59.04799,9.23726 28.21447,8.36103 47.29691,16.52139 69.5,29.72082 16.48175,9.79817 19.8389,12.17298 34,24.05129 20.09219,16.8533 40.47883,38.8934 52.67988,56.9525 5.97833,8.84869 18.82012,30.22885 18.82012,31.33343 0,1.63294 -35.96038,20.29172 -152,78.86831 -51.425,25.95925 -94.33772,48.01342 -95.3616,49.00927 -2.78482,2.70858 -1.09317,4.72664 9.03276,10.77571 4.85586,2.90081 60.46634,31.23311 123.57884,62.96067 63.1125,31.72755 114.74905,58.161 114.74788,58.74098 -0.008,3.97436 -14.52962,27.79821 -26.85309,44.05452 -10.75358,14.18541 -39.0032,42.14677 -53.64479,53.09739 -41.19249,30.80836 -90.56663,50.90924 -135.92368,55.33639 -9.86945,0.96332 -59.24004,1.23682 -69.07632,0.38266 z m 78.25,0.0213 c 0.6875,-0.27741 1.8125,-0.27741 2.5,0 0.6875,0.27741 0.125,0.50439 -1.25,0.50439 -1.375,0 -1.9375,-0.22698 -1.25,-0.50439 z m -98.47917,-0.94189 c 0.3323,-0.33229 1.19479,-0.36781 1.91667,-0.0789 0.79773,0.31922 0.56078,0.55618 -0.60417,0.60416 -1.05416,0.0434 -1.64479,-0.19293 -1.3125,-0.52522 z m 104,0 c 0.33229,-0.33229 1.19479,-0.36781 1.91667,-0.0789 0.79773,0.31922 0.56078,0.55618 -0.60417,0.60416 -1.05416,0.0434 -1.64479,-0.19293 -1.3125,-0.52522 z m 6,-1 c 0.33229,-0.33229 1.19479,-0.36781 1.91667,-0.0789 0.79773,0.31922 0.56078,0.55618 -0.60417,0.60416 -1.05416,0.0434 -1.64479,-0.19293 -1.3125,-0.52522 z M 679.7288,740.36441 c 0.68469,-0.825 1.46989,-1.5 1.74489,-1.5 0.275,0 -0.0602,0.675 -0.74489,1.5 -0.68469,0.825 -1.46989,1.5 -1.74489,1.5 -0.275,0 0.0602,-0.675 0.74489,-1.5 z m 4,-3 c 0.68469,-0.825 1.46989,-1.5 1.74489,-1.5 0.275,0 -0.0602,0.675 -0.74489,1.5 -0.68469,0.825 -1.46989,1.5 -1.74489,1.5 -0.275,0 0.0602,-0.675 0.74489,-1.5 z m -351.12756,-1.25 c -1.24387,-1.58606 -1.2085,-1.62143 0.37756,-0.37756 0.9625,0.75485 1.75,1.54235 1.75,1.75 0,0.82304 -0.82119,0.29331 -2.12756,-1.37244 z m 356.12756,-2.75 c 0.68469,-0.825 1.46989,-1.5 1.74489,-1.5 0.275,0 -0.0602,0.675 -0.74489,1.5 -0.68469,0.825 -1.46989,1.5 -1.74489,1.5 -0.275,0 0.0602,-0.675 0.74489,-1.5 z m -361.12756,-1.25 c -1.24387,-1.58606 -1.2085,-1.62143 0.37756,-0.37756 0.9625,0.75485 1.75,1.54235 1.75,1.75 0,0.82304 -0.82119,0.29331 -2.12756,-1.37244 z m 366.62756,-3.25 c 0.99549,-1.1 2.03498,-2 2.30998,-2 0.275,0 -0.31449,0.9 -1.30998,2 -0.99549,1.1 -2.03498,2 -2.30998,2 -0.275,0 0.31449,-0.9 1.30998,-2 z m -373.57569,-2.75 -2.42431,-2.75 2.75,2.42431 c 1.5125,1.33338 2.75,2.57088 2.75,2.75 0,0.78428 -0.8098,0.14598 -3.07569,-2.42431 z m 390.57569,-13.25 c 6.03124,-6.05 11.19089,-11 11.46589,-11 0.275,0 -4.43465,4.95 -10.46589,11 -6.03124,6.05 -11.19089,11 -11.46589,11 -0.275,0 4.43465,-4.95 10.46589,-11 z m -404,1 c -3.26557,-3.3 -5.71239,-6 -5.43739,-6 0.275,0 3.17182,2.7 6.43739,6 3.26557,3.3 5.71239,6 5.43739,6 -0.275,0 -3.17182,-2.7 -6.43739,-6 z m -12.57569,-13.75 -2.42431,-2.75 2.75,2.42431 c 2.57029,2.26589 3.20859,3.07569 2.42431,3.07569 -0.17912,0 -1.41662,-1.2375 -2.75,-2.75 z m 432.07569,-3.75 c 1.29175,-1.375 2.57363,-2.5 2.84863,-2.5 0.275,0 -0.55688,1.125 -1.84863,2.5 -1.29175,1.375 -2.57363,2.5 -2.84863,2.5 -0.275,0 0.55688,-1.125 1.84863,-2.5 z m -438.12756,-3.25 c -1.24387,-1.58606 -1.2085,-1.62143 0.37756,-0.37756 0.9625,0.75485 1.75,1.54235 1.75,1.75 0,0.82304 -0.82119,0.29331 -2.12756,-1.37244 z m 443.12756,-2.75 c 0.68469,-0.825 1.46989,-1.5 1.74489,-1.5 0.275,0 -0.0602,0.675 -0.74489,1.5 -0.68469,0.825 -1.46989,1.5 -1.74489,1.5 -0.275,0 0.0602,-0.675 0.74489,-1.5 z m -447.12756,-2.25 c -1.24387,-1.58606 -1.2085,-1.62143 0.37756,-0.37756 1.66575,1.30637 2.19548,2.12756 1.37244,2.12756 -0.20765,0 -0.99515,-0.7875 -1.75,-1.75 z m 451.12756,-2.75 c 0.68469,-0.825 1.46989,-1.5 1.74489,-1.5 0.275,0 -0.0602,0.675 -0.74489,1.5 -0.68469,0.825 -1.46989,1.5 -1.74489,1.5 -0.275,0 0.0602,-0.675 0.74489,-1.5 z m 3,-4 c 0.68469,-0.825 1.46989,-1.5 1.74489,-1.5 0.275,0 -0.0602,0.675 -0.74489,1.5 -0.68469,0.825 -1.46989,1.5 -1.74489,1.5 -0.275,0 0.0602,-0.675 0.74489,-1.5 z m 3,-4 c 0.68469,-0.825 1.46989,-1.5 1.74489,-1.5 0.275,0 -0.0602,0.675 -0.74489,1.5 -0.68469,0.825 -1.46989,1.5 -1.74489,1.5 -0.275,0 0.0602,-0.675 0.74489,-1.5 z m 20,-33.44098 c 0,-0.51754 0.44485,-1.21592 0.98855,-1.55194 0.56686,-0.35034 0.7345,0.0511 0.39301,0.94098 -0.66479,1.73242 -1.38156,2.04939 -1.38156,0.61096 z m -14.25,-13.12315 c -3.1625,-1.63236 -5.75,-3.1922 -5.75,-3.4663 0,-0.2741 2.7,0.8646 6,2.53043 3.3,1.66583 6,3.24731 6,3.5144 0,0.66669 0.18543,0.74319 -6.25,-2.57853 z M 226.80775,558.44774 c -0.0434,-1.05416 0.19292,-1.64479 0.52522,-1.3125 0.33229,0.33229 0.36781,1.19479 0.0789,1.91667 -0.31922,0.79773 -0.55618,0.56078 -0.60416,-0.60417 z m -0.92106,-6.58333 c 0,-1.375 0.22698,-1.9375 0.50439,-1.25 0.27741,0.6875 0.27741,1.8125 0,2.5 -0.27741,0.6875 -0.50439,0.125 -0.50439,-1.25 z m 322.28324,-21.55517 c -1.86402,-1.49339 -1.85176,-1.51185 0.30887,-0.46481 1.2375,0.59969 2.25,1.29951 2.25,1.55516 0,0.76522 -0.51861,0.54424 -2.55887,-1.09035 z m -33.10926,-19.02237 c -0.3442,-0.89696 0.18499,-2.29907 1.22662,-3.25 1.71995,-1.5702 1.75205,-1.56623 0.52487,0.0648 -0.71891,0.95549 -1.04589,2.41799 -0.72662,3.25 0.31927,0.832 0.35549,1.51273 0.0805,1.51273 -0.275,0 -0.77241,-0.70989 -1.10536,-1.57754 z M 564.7288,483.3981 c 0,-0.275 2.25,-1.64016 5,-3.03369 2.75,-1.39353 5,-2.30869 5,-2.03369 0,0.275 -2.25,1.64016 -5,3.03369 -2.75,1.39353 -5,2.30869 -5,2.03369 z m -338.80505,-9.03369 c -0.0204,-1.65 0.18706,-2.44606 0.46099,-1.76903 0.27392,0.67703 0.29059,2.02703 0.037,3 -0.25354,0.97297 -0.47766,0.41903 -0.49804,-1.23097 z m 0.96294,-8.5 c 0,-1.375 0.22698,-1.9375 0.50439,-1.25 0.27741,0.6875 0.27741,1.8125 0,2.5 -0.27741,0.6875 -0.50439,0.125 -0.50439,-1.25 z m 1,-7 c 0,-1.375 0.22698,-1.9375 0.50439,-1.25 0.27741,0.6875 0.27741,1.8125 0,2.5 -0.27741,0.6875 -0.50439,0.125 -0.50439,-1.25 z m 0.92106,-5.41667 c -0.0434,-1.05416 0.19292,-1.64479 0.52522,-1.3125 0.33229,0.3323 0.36781,1.19479 0.0789,1.91667 -0.31922,0.79773 -0.55618,0.56078 -0.60416,-0.60417 z M 673.7288,428.3981 c 0,-0.275 2.25,-1.64016 5,-3.03369 2.75,-1.39353 5,-2.30869 5,-2.03369 0,0.275 -2.25,1.64016 -5,3.03369 -2.75,1.39353 -5,2.30869 -5,2.03369 z m 45,-22.98233 c 0,-0.275 1.35,-1.19811 3,-2.05136 1.65,-0.85325 3,-1.32636 3,-1.05136 0,0.275 -1.35,1.19811 -3,2.05136 -1.65,0.85325 -3,1.32636 -3,1.05136 z m -466,-21.19356 c 0,-0.53655 0.69982,-1.84905 1.55517,-2.91667 1.46637,-1.83031 1.48719,-1.7984 0.36454,0.55887 -1.45781,3.06103 -1.91971,3.62834 -1.91971,2.3578 z m 509.56429,-2.65093 c 0.37553,-0.98622 0.93469,-1.54122 1.24258,-1.23333 0.30789,0.30789 6.4e-4,1.11479 -0.68278,1.79313 -0.98762,0.98026 -1.10248,0.8654 -0.5598,-0.5598 z M 278.7288,341.36441 c 0.68469,-0.825 1.46989,-1.5 1.74489,-1.5 0.275,0 -0.0602,0.675 -0.74489,1.5 -0.68469,0.825 -1.46989,1.5 -1.74489,1.5 -0.275,0 0.0602,-0.675 0.74489,-1.5 z m 455.87244,-6.25 c -1.24387,-1.58606 -1.2085,-1.62143 0.37756,-0.37756 1.66575,1.30637 2.19548,2.12756 1.37244,2.12756 -0.20765,0 -0.99515,-0.7875 -1.75,-1.75 z m -448.87244,-2.75 c 0.68469,-0.825 1.46989,-1.5 1.74489,-1.5 0.275,0 -0.0602,0.675 -0.74489,1.5 -0.68469,0.825 -1.46989,1.5 -1.74489,1.5 -0.275,0 0.0602,-0.675 0.74489,-1.5 z m 444.40499,-2.75 -1.90499,-2.25 2.25,1.90499 c 2.11444,1.79022 2.70524,2.59501 1.90499,2.59501 -0.18976,0 -1.20226,-1.0125 -2.25,-2.25 z m -439.40499,-3.25 c 1.29175,-1.375 2.57363,-2.5 2.84863,-2.5 0.275,0 -0.55688,1.125 -1.84863,2.5 -1.29175,1.375 -2.57363,2.5 -2.84863,2.5 -0.275,0 0.55688,-1.125 1.84863,-2.5 z m 433.92431,-3.25 -2.42431,-2.75 2.75,2.42431 c 1.5125,1.33338 2.75,2.57088 2.75,2.75 0,0.78428 -0.8098,0.14598 -3.07569,-2.42431 z M 295.7288,320.80663 c 0,-0.275 2.925,-3.399 6.5,-6.94222 3.575,-3.54322 6.5,-6.21722 6.5,-5.94222 0,0.275 -2.925,3.399 -6.5,6.94222 -3.575,3.54322 -6.5,6.21722 -6.5,5.94222 z m 414.5,-12.94222 c -4.92707,-4.95 -8.7333,-9 -8.4583,-9 0.275,0 4.53123,4.05 9.4583,9 4.92707,4.95 8.7333,9 8.4583,9 -0.275,0 -4.53123,-4.05 -9.4583,-9 z m -400.5,-1.07518 c 0,-0.275 2.25,-2.71617 5,-5.42482 2.75,-2.70865 5,-4.69982 5,-4.42482 0,0.275 -2.25,2.71617 -5,5.42482 -2.75,2.70865 -5,4.69982 -5,4.42482 z m 386.40499,-12.17482 -1.90499,-2.25 2.25,1.90499 c 2.11444,1.79022 2.70524,2.59501 1.90499,2.59501 -0.18976,0 -1.20226,-1.0125 -2.25,-2.25 z m -371.90499,-1.75 c 0.99549,-1.1 2.03498,-2 2.30998,-2 0.275,0 -0.31449,0.9 -1.30998,2 -0.99549,1.1 -2.03498,2 -2.30997,2 -0.27501,0 0.31448,-0.9 1.30997,-2 z m 365.37244,-3.75 c -1.24387,-1.58606 -1.2085,-1.62143 0.37756,-0.37756 1.66575,1.30637 2.19548,2.12756 1.37244,2.12756 -0.20765,0 -0.99515,-0.7875 -1.75,-1.75 z m -359.87244,-0.75 c 0.68469,-0.825 1.46989,-1.5 1.74489,-1.5 0.275,0 -0.0602,0.675 -0.74489,1.5 -0.68469,0.825 -1.46989,1.5 -1.74489,1.5 -0.275,0 0.0602,-0.675 0.74489,-1.5 z m 354.40499,-3.75 -1.90499,-2.25 2.25,1.90499 c 2.11444,1.79022 2.70524,2.59501 1.90499,2.59501 -0.18976,0 -1.20226,-1.0125 -2.25,-2.25 z m -349.40499,-0.25 c 0.68469,-0.825 1.46989,-1.5 1.74489,-1.5 0.275,0 -0.0602,0.675 -0.74489,1.5 -0.68469,0.825 -1.46989,1.5 -1.74489,1.5 -0.275,0 0.0602,-0.675 0.74489,-1.5 z m 4,-3 c 0.68469,-0.825 1.46989,-1.5 1.74489,-1.5 0.275,0 -0.0602,0.675 -0.74489,1.5 -0.68469,0.825 -1.46989,1.5 -1.74489,1.5 -0.275,0 0.0602,-0.675 0.74489,-1.5 z m 335.87244,-4.25 c -1.24387,-1.58606 -1.2085,-1.62143 0.37756,-0.37756 1.66575,1.30637 2.19548,2.12756 1.37244,2.12756 -0.20765,0 -0.99515,-0.7875 -1.75,-1.75 z M 443.99963,232.26024 c 0.3323,-0.33229 1.19479,-0.36781 1.91667,-0.0789 0.79773,0.31923 0.56078,0.55619 -0.60417,0.60417 -1.05416,0.0434 -1.64479,-0.19293 -1.3125,-0.52522 z m 127,0 c 0.33229,-0.33229 1.19479,-0.36781 1.91667,-0.0789 0.79773,0.31923 0.56078,0.55619 -0.60417,0.60417 -1.05416,0.0434 -1.64479,-0.19293 -1.3125,-0.52522 z m -118,-2 c 0.3323,-0.33229 1.19479,-0.36781 1.91667,-0.0789 0.79773,0.31923 0.56078,0.55619 -0.60417,0.60417 -1.05416,0.0434 -1.64479,-0.19293 -1.3125,-0.52522 z m 109,0 c 0.33229,-0.33229 1.19479,-0.36781 1.91667,-0.0789 0.79773,0.31923 0.56078,0.55619 -0.60417,0.60417 -1.05416,0.0434 -1.64479,-0.19293 -1.3125,-0.52522 z m -104,-1 c 0.3323,-0.33229 1.19479,-0.36781 1.91667,-0.0789 0.79773,0.31923 0.56078,0.55619 -0.60417,0.60417 -1.05416,0.0434 -1.64479,-0.19293 -1.3125,-0.52522 z m 99,0 c 0.33229,-0.33229 1.19479,-0.36781 1.91667,-0.0789 0.79773,0.31923 0.56078,0.55619 -0.60417,0.60417 -1.05416,0.0434 -1.64479,-0.19293 -1.3125,-0.52522 z m -93,-1 c 0.3323,-0.33229 1.19479,-0.36781 1.91667,-0.0789 0.79773,0.31923 0.56078,0.55619 -0.60417,0.60417 -1.05416,0.0434 -1.64479,-0.19293 -1.3125,-0.52522 z m 85.46014,-0.0518 c 0.67703,-0.27392 2.02703,-0.29059 3,-0.037 0.97297,0.25355 0.41903,0.47767 -1.23097,0.49805 -1.65,0.0204 -2.44606,-0.18707 -1.76903,-0.46099 z m -77.49263,-1.03114 c 0.95609,-0.25029 2.75609,-0.25937 4,-0.0202 1.24391,0.23919 0.46166,0.44398 -1.73834,0.45508 -2.2,0.0111 -3.21775,-0.18461 -2.26166,-0.4349 z m 64.51166,-0.0187 c 1.2375,-0.23836 3.2625,-0.23836 4.5,0 1.2375,0.23835 0.225,0.43337 -2.25,0.43337 -2.475,0 -3.4875,-0.19502 -2.25,-0.43337 z m -40.0491,-1.03746 c 4.51049,-0.18486 12.16049,-0.1858 17,-0.002 4.8395,0.1837 1.1491,0.33495 -8.2009,0.3361 -9.35,0.001 -13.3096,-0.14916 -8.7991,-0.33401 z"
     style="fill:#000000" />
</svg>
