<?xml version="1.0" encoding="UTF-8" standalone="no"?>
<svg
   xmlns:dc="http://purl.org/dc/elements/1.1/"
   xmlns:cc="http://creativecommons.org/ns#"
   xmlns:rdf="http://www.w3.org/1999/02/22-rdf-syntax-ns#"
   xmlns:svg="http://www.w3.org/2000/svg"
   xmlns="http://www.w3.org/2000/svg"
   viewBox="0 0 500 500"
   height="500"
   width="500"
   version="1.1"
   id="svg2">
  <metadata
     id="metadata8">
    <rdf:RDF>
      <cc:Work
         rdf:about="">
        <dc:format>image/svg+xml</dc:format>
        <dc:type
           rdf:resource="http://purl.org/dc/dcmitype/StillImage" />
        <dc:title></dc:title>
      </cc:Work>
    </rdf:RDF>
  </metadata>
  <defs
     id="defs6" />
  <path
     id="path3338"
     d="m 231.57457,403.78905 c -9.602,-0.69462 -11.43137,-0.95497 -23.4,-3.3302 -9.68457,-1.92194 -10.8,-2.50397 -10.8,-5.63543 0,-4.22006 -0.77801,-5.31491 -6.86184,-9.65624 -7.80612,-5.57033 -8.63611,-10.24513 -2.28598,-12.87544 2.51548,-1.04195 2.6188,-1.31596 2.56712,-6.80869 -0.0637,-6.77354 2.20934,-10.79805 8.93543,-15.82037 6.0259,-4.49951 7.92065,-7.59833 8.44527,-13.8121 0.42773,-5.06618 0.64264,-5.46702 4.34279,-8.1 5.68754,-4.0472 13.43424,-19.48054 17.32199,-34.50969 2.05354,-7.93851 3.23351,-27.18177 2.23721,-36.48506 -0.59966,-5.59949 -0.81592,-6.06083 -3.04872,-6.50353 -1.3218,-0.26207 -4.9958,-1.17294 -8.16446,-2.02414 -9.97815,-2.68046 -11.90452,-8.72132 -4.34436,-13.62343 2.56149,-1.66092 3.35555,-2.77413 3.35555,-4.70426 0,-2.71646 2.23435,-4.70191 6.45988,-5.74023 3.19686,-0.78556 3.72474,-2.52515 1.58983,-5.23925 -1.88278,-2.39356 -2.25979,-4.669 -0.91165,-5.5022 0.46094,-0.28487 -0.93692,-3.85457 -3.10634,-7.93266 -7.40448,-13.91897 -10.03507,-26.08471 -8.5242,-39.42202 1.05988,-9.35611 3.13605,-15.37449 7.64807,-22.17009 3.39801,-5.11777 16.29577,-18.48661 20.49271,-21.24119 2.31656,-1.52043 2.39009,-1.756 1.11584,-3.57525 -1.87688,-2.67962 -1.70928,-6.60193 0.37099,-8.6822 2.13853,-2.13853 8.67469,-3.21726 11.9428,-1.97104 1.33536,0.5092 3.11248,1.97058 3.94915,3.2475 1.39356,2.12685 1.40446,2.61891 0.1298,5.86387 l -1.39142,3.54221 4.2619,2.62238 c 5.20828,3.20468 16.46751,15.39697 20.84782,22.57548 5.25413,8.61054 6.64565,14.20952 6.61212,26.60473 -0.0163,6.01152 -0.54267,12.59568 -1.18727,14.85 -1.8096,6.32866 -5.57178,15.41122 -7.95707,19.20975 -1.71151,2.72556 -2.05204,4.17298 -1.6047,6.82077 0.41745,2.47084 0.19624,3.66943 -0.8352,4.52545 -0.77168,0.64043 -1.40306,2.04335 -1.40306,3.11757 0,1.55601 0.82822,2.17465 4.07334,3.04258 3.07389,0.82214 4.29744,1.67892 4.98673,3.49188 0.50237,1.32132 0.70119,2.9554 0.44183,3.63127 -0.25935,0.67588 0.23037,1.48194 1.08827,1.79125 9.71235,3.50172 8.26524,12.30051 -2.49017,15.14088 -2.7225,0.71898 -5.81402,1.31204 -6.87003,1.31792 -2.67935,0.0149 -3.08851,1.98231 -3.65211,17.56068 -0.37992,10.50137 -0.15199,15.28514 1.0262,21.5368 3.15231,16.72669 12.35367,38.4421 16.54803,39.0537 2.98555,0.43534 4.96538,4.03506 4.26693,7.75812 -0.87942,4.68776 1.23565,8.50246 7.47872,13.48843 8.14582,6.50557 10.62448,11.34394 9.15011,17.86114 -0.72826,3.2192 -0.61939,3.47471 2.0667,4.85058 3.45785,1.77119 4.15389,2.74992 4.17167,5.86598 0.0138,2.40452 -3.59334,5.97205 -10.217,10.10503 -1.41942,0.88569 -4.89896,3.7415 -7.73229,6.34627 -5.6616,5.20487 -7.29936,5.78762 -22.98693,8.17926 -10.70646,1.63224 -34.94517,2.31849 -48.15,1.36323 z"
     style="fill:#000000" />
</svg>
