<?xml version="1.0" encoding="UTF-8" standalone="no"?>
<svg
   xmlns:dc="http://purl.org/dc/elements/1.1/"
   xmlns:cc="http://creativecommons.org/ns#"
   xmlns:rdf="http://www.w3.org/1999/02/22-rdf-syntax-ns#"
   xmlns:svg="http://www.w3.org/2000/svg"
   xmlns="http://www.w3.org/2000/svg"
   viewBox="0 0 500 500"
   height="500"
   width="500"
   version="1.1"
   id="svg2">
  <metadata
     id="metadata8">
    <rdf:RDF>
      <cc:Work
         rdf:about="">
        <dc:format>image/svg+xml</dc:format>
        <dc:type
           rdf:resource="http://purl.org/dc/dcmitype/StillImage" />
        <dc:title></dc:title>
      </cc:Work>
    </rdf:RDF>
  </metadata>
  <defs
     id="defs6" />
  <path
     id="path3338"
     d="m 206.76271,453.84279 c -17.04822,-2.79783 -21.24997,-3.74493 -25.75,-5.80422 -3.64872,-1.66972 -5.25,-2.9821 -5.25,-4.30283 0,-2.24174 -1.81151,-3.90821 -8.23161,-7.57249 -7.71698,-4.40448 -9.05819,-9.70083 -3.5485,-14.0128 3.07737,-2.40841 3.16589,-2.66926 2,-5.89348 -2.83464,-7.83904 -0.66371,-12.6533 10.51332,-23.31443 l 8.72729,-8.32445 0.0289,-6.29633 c 0.0339,-7.37723 0.48393,-8.28505 5.24202,-10.57443 11.40155,-5.48591 24.26399,-54.36888 24.26771,-92.22803 0.001,-11.82429 -2.55244,-32.47026 -5.58658,-45.16763 l -2.55058,-10.67376 -4.181,-0.69449 c -5.19288,-0.86257 -9.24419,-2.8773 -10.05982,-5.00279 -1.30665,-3.40507 -0.56455,-6.35432 2.12882,-8.46041 1.5125,-1.1827 2.975,-3.35286 3.25,-4.82258 0.34615,-1.84997 1.65388,-3.23603 4.25,-4.50457 4.06643,-1.98697 5.05119,-5.34286 2.25,-7.66764 -1.68248,-1.39633 -2.04285,-5 -0.5,-5 1.71028,0 1.1442,-2.87451 -3.42982,-17.41648 -6.90631,-21.957 -9.57015,-31.73145 -9.57015,-35.11597 0,-6.24024 6.55765,-9.56193 22.63428,-11.46508 14.65231,-1.73454 14.58943,-1.71594 13.38775,-3.96131 -1.52911,-2.85716 -1.23422,-7.14922 0.63296,-9.21242 1.44887,-1.60098 1.46267,-1.82874 0.11078,-1.82874 -0.84931,0 -2.57259,-0.83274 -3.82951,-1.85053 l -2.28531,-1.85053 2.17452,-3.053848 c 2.86598,-4.024888 2.77648,-4.242638 -1.23745,-3.010728 -6.20072,1.903048 -6.58802,1.209138 -6.58802,-11.803679 l 0,-11.632078 4.55427,0.362215 c 4.18559,0.332894 4.50092,0.199382 3.89524,-1.649306 -0.36246,-1.106337 -0.72438,-3.136522 -0.80427,-4.511522 -0.12137,-2.08906 0.34789,-2.545073 2.85476,-2.774206 6.67017,-0.609668 7.19391,-0.951259 6.69285,-4.365182 -0.54178,-3.691354 1.60769,-5.860612 5.80715,-5.860612 4.75091,0 7.17145,3.257388 5.89141,7.928251 -0.27628,1.008128 0.93228,1.666965 4.10859,2.239782 7.25672,1.308678 7.21243,1.260568 5.37869,5.843553 -0.89598,2.239264 -1.41013,4.290309 -1.14256,4.557879 0.26757,0.267571 1.75151,0.0055 3.29763,-0.582301 5.0704,-1.927762 5.46624,-1.101207 5.46624,11.414064 0,10.416032 -0.17505,11.519552 -1.91496,12.07178 -1.05322,0.33428 -3.07822,0.31582 -4.5,-0.041 -3.03545,-0.761848 -3.17395,-0.260408 -0.89059,3.224434 1.60834,2.454644 1.59863,2.656114 -0.19113,3.964814 -1.03707,0.75833 -2.69957,1.37877 -3.69445,1.37877 -2.23314,0 -2.27986,0.67187 -0.19189,2.75983 1.21727,1.21728 1.4804,2.77013 1.06447,6.28199 l -0.5525,4.665 9.18553,0.61436 c 10.43975,0.69823 18.19877,2.7215 22.04799,5.7493 2.08328,1.63871 2.63753,2.93564 2.63753,6.17177 0,3.63034 -6.72895,30.80828 -10.56855,42.68589 -1.67582,5.18409 -1.83451,8.70472 -0.43145,9.57186 1.5548,0.96092 1.17693,4.21813 -0.56697,4.88733 -1.00998,0.38756 -1.4543,1.55136 -1.25,3.27405 0.23904,2.0156 1.13822,2.94772 3.65712,3.79109 3.61299,1.20968 5.65447,3.8162 4.77794,6.10038 -0.34501,0.8991 0.55354,2.00166 2.41632,2.96494 2.79822,1.44702 3.55196,3.32351 3.00542,7.48221 -0.34032,2.58963 -2.89688,4.44708 -8.30845,6.03647 l -5.23138,1.53647 -2.15936,10.72642 c -3.1153,15.4749 -4.69325,34.38682 -3.89658,46.70064 2.0233,31.27292 7.53785,55.81045 16.71226,74.36278 5.11696,10.34743 6.01497,11.58354 11.05276,15.21397 4.12663,2.97381 4.26983,3.25967 4.2802,8.54382 0.0135,6.90489 1.50204,9.20525 11.00146,17.00189 9.9631,8.17719 12.15049,13.86892 9.03068,23.49834 -0.54967,1.6966 -0.19581,2.24411 1.76915,2.73728 1.42025,0.35646 2.95392,1.81796 3.63618,3.46508 1.62322,3.9188 0.0548,7.00359 -5.4475,10.71401 -2.58721,1.74467 -5.46845,4.92252 -7.00778,7.72921 -3.11678,5.68288 -5.58377,6.90154 -19.69951,9.73132 -19.18905,3.84681 -33.09476,5.00863 -58.2421,4.86612 -13.21642,-0.0749 -25.15486,-0.32083 -26.52986,-0.54648 z"
     style="fill:#000000" />
</svg>
