<?xml version="1.0" encoding="UTF-8" standalone="no"?>
<svg
   xmlns:dc="http://purl.org/dc/elements/1.1/"
   xmlns:cc="http://creativecommons.org/ns#"
   xmlns:rdf="http://www.w3.org/1999/02/22-rdf-syntax-ns#"
   xmlns:svg="http://www.w3.org/2000/svg"
   xmlns="http://www.w3.org/2000/svg"
   viewBox="0 0 500.00001 500"
   height="500"
   width="500"
   version="1.1"
   id="svg2">
  <metadata
     id="metadata8">
    <rdf:RDF>
      <cc:Work
         rdf:about="">
        <dc:format>image/svg+xml</dc:format>
        <dc:type
           rdf:resource="http://purl.org/dc/dcmitype/StillImage" />
        <dc:title></dc:title>
      </cc:Work>
    </rdf:RDF>
  </metadata>
  <defs
     id="defs6" />
  <path
     id="path3338"
     d="m 210.97374,400.76066 c -11.12969,-1.20092 -21.08602,-3.19399 -26.85476,-5.37581 -4.11259,-1.55543 -5.44809,-2.54201 -6.14421,-4.53888 -0.48919,-1.40331 -2.17455,-3.55323 -3.74524,-4.77761 -9.87875,-7.70068 -11.07277,-11.0998 -5.50981,-15.68527 3.19088,-2.63019 3.19431,-2.641 2.1519,-6.78079 -1.69677,-6.73849 0.0845,-12.10778 6.47339,-19.51248 6.9486,-8.05342 8.28898,-11.25298 7.04313,-16.81222 -0.83389,-3.72098 -0.73106,-4.52937 0.84781,-6.66491 1.49484,-2.02187 1.65024,-2.96109 0.92472,-5.58873 -0.47965,-1.73714 -1.52236,-3.40796 -2.31714,-3.71295 -2.03744,-0.78184 -1.01171,-6.40522 2.40178,-13.16731 1.47314,-2.91826 2.67843,-5.93923 2.67843,-6.71326 0,-0.77403 0.58671,-2.30433 1.30379,-3.40066 0.71709,-1.09634 2.15055,-7.46084 3.18547,-14.14334 1.57458,-10.16712 1.78557,-14.3532 1.29282,-25.65 -0.32387,-7.425 -0.97925,-15.3225 -1.45641,-17.55 -0.92368,-4.31192 -3.31989,-21.15984 -3.96811,-27.9 -0.21422,-2.2275 -0.63098,-6.2775 -0.92613,-9 -0.947,-8.73534 -0.98036,-14.54998 -0.16418,-28.61088 l 0.79876,-13.76087 -3.18301,-5.15688 c -5.15987,-8.35965 -3.92839,-11.63016 4.02455,-10.68824 3.88813,0.46048 4.60449,0.28918 5.45771,-1.30507 1.29687,-2.42323 6.38591,-7.0183 7.80974,-7.05169 0.61875,-0.0145 1.125,-0.35343 1.125,-0.75317 0,-2.2085 17.33448,-6.57009 19.97635,-5.02632 0.7559,0.44171 3.92687,3.77464 7.0466,7.40651 3.11972,3.63186 6.55202,6.93788 7.62732,7.34671 1.07531,0.40883 5.16015,1.01216 9.07742,1.34074 3.91727,0.32857 11.98231,1.56045 17.92231,2.73749 5.94,1.17704 13.8375,2.41678 17.55,2.75497 9.38974,0.85537 10.34042,1.34096 11.58412,5.917 1.61505,5.94234 1.58667,18.7015 -0.0484,21.75666 -2.06161,3.85215 -2.52414,8.1141 -1.05656,9.73576 1.67304,1.84868 0.90765,4.94974 -1.40266,5.683 -0.89728,0.28478 -3.33067,2.533 -5.40753,4.99603 l -3.7761,4.47825 -5.87835,0 c -5.41717,0 -6.16709,-0.24714 -9.55843,-3.15 -4.43705,-3.79796 -5.93038,-3.91175 -8.8577,-0.675 -4.83352,5.34444 -4.80172,4.8786 -0.85487,12.52485 2.00153,3.87758 4.5543,8.53338 5.67282,10.34624 25.55217,41.41381 32.12308,54.8106 33.92586,69.16806 1.52635,12.15586 -3.42849,27.16395 -11.23732,34.03756 -3.18416,2.80281 -3.72498,3.66311 -2.57918,4.10279 1.21325,0.46557 1.3469,1.44294 0.81914,5.99019 -0.79454,6.84574 0.19514,9.35644 6.79269,17.23218 6.64539,7.93288 8.7621,15.12769 6.14219,20.87776 -0.9189,2.01676 -0.68917,2.55163 2.31155,5.38167 2.73611,2.58048 3.28061,3.66781 3.0453,6.0812 -0.24131,2.47484 -1.68422,4.11814 -9.13893,10.40803 -9.25063,7.8052 -10.56674,8.43062 -24.46574,11.62621 -7.34086,1.68778 -46.57,2.5078 -58.48188,1.22248 z"
     style="fill:#000000" />
</svg>
