<?xml version="1.0" encoding="UTF-8" standalone="no"?>
<svg
   xmlns:dc="http://purl.org/dc/elements/1.1/"
   xmlns:cc="http://creativecommons.org/ns#"
   xmlns:rdf="http://www.w3.org/1999/02/22-rdf-syntax-ns#"
   xmlns:svg="http://www.w3.org/2000/svg"
   xmlns="http://www.w3.org/2000/svg"
   viewBox="0 0 500 500"
   height="500"
   width="500"
   version="1.1"
   id="svg2">
  <metadata
     id="metadata8">
    <rdf:RDF>
      <cc:Work
         rdf:about="">
        <dc:format>image/svg+xml</dc:format>
        <dc:type
           rdf:resource="http://purl.org/dc/dcmitype/StillImage" />
        <dc:title></dc:title>
      </cc:Work>
    </rdf:RDF>
  </metadata>
  <defs
     id="defs6" />
  <path
     id="path3338"
     d="m 226.25353,357.24544 c -7.95019,-0.98153 -17.5168,-3.75429 -21.58438,-6.25598 -1.63853,-1.00775 -3.55101,-3.20091 -4.24993,-4.87368 -0.69893,-1.67277 -2.72908,-3.94268 -4.51144,-5.04423 -5.71495,-3.53204 -5.93599,-8.36708 -0.51077,-11.17258 2.37479,-1.22805 2.51706,-1.61069 2.12314,-5.71027 -0.5465,-5.68758 1.18262,-9.07186 7.91533,-15.49211 4.26022,-4.06249 5.30379,-5.65113 5.82044,-8.86055 0.51225,-3.18209 1.20291,-4.24888 3.7076,-5.72668 5.10903,-3.01439 11.09498,-15.51579 14.82275,-30.95662 2.05616,-8.51688 2.84575,-27.50212 1.21012,-29.09688 -0.46645,-0.45478 -2.6106,-1.08488 -4.7648,-1.40023 -6.29212,-0.92106 -8.22348,-2.01575 -9.67175,-5.48196 -1.80082,-4.30996 -1.14594,-4.94898 8.7162,-8.50511 4.46855,-1.61129 7.79785,-3.19565 7.39845,-3.52081 -0.3994,-0.32516 -2.62977,-2.10028 -4.95637,-3.94471 -11.0262,-8.74112 -14.05696,-29.68668 -6.16713,-42.62102 2.21886,-3.63753 9.88178,-9.72718 13.91531,-11.05837 4.93457,-1.62855 14.03939,-2.37598 19.75377,-1.62162 14.00903,1.84935 23.73944,11.39801 25.6675,25.18806 1.91623,13.70532 -2.45511,24.67128 -12.89894,32.35836 -3.08193,2.26842 -3.32351,2.68266 -1.8,3.0865 0.96782,0.25654 4.79718,1.80442 8.50968,3.43975 6.44011,2.83681 6.76267,3.12113 7.02609,6.19337 0.34748,4.05243 -1.85487,5.68317 -9.49205,7.02843 l -5.41034,0.95302 -0.56185,4.09915 c -2.0635,15.05488 1.56758,33.34208 9.92908,50.00579 1.99839,3.98259 3.81897,6.39461 5.23221,6.93192 2.4621,0.93609 3.56962,2.72434 4.40211,7.10778 0.39734,2.0922 2.55312,5.12604 6.87677,9.67772 5.88436,6.1947 6.40264,7.15025 6.52217,12.02471 0.006,0.2475 -0.22818,1.73581 -0.52055,3.30736 -0.47372,2.54636 -0.19266,3.05733 2.58239,4.69465 5.07225,2.9927 3.88464,8.0845 -2.70417,11.59394 -0.97248,0.51798 -2.21609,2.27219 -2.76358,3.89826 -1.31461,3.90443 -4.05445,5.81215 -11.66828,8.12451 -5.56997,1.69162 -8.90725,1.9441 -28.8,2.17882 -12.375,0.14602 -25.46765,-0.1009 -29.09478,-0.54869 z m 51.14478,-46.74885 c 0,-0.495 -0.4289,-0.9 -0.95312,-0.9 -0.52421,0 -0.70281,0.405 -0.39688,0.9 0.30593,0.495 0.73483,0.9 0.95312,0.9 0.21828,0 0.39688,-0.405 0.39688,-0.9 z"
     style="fill:#000000" />
</svg>
