<?xml version="1.0" encoding="UTF-8" standalone="no"?>
<svg
   xmlns:dc="http://purl.org/dc/elements/1.1/"
   xmlns:cc="http://creativecommons.org/ns#"
   xmlns:rdf="http://www.w3.org/1999/02/22-rdf-syntax-ns#"
   xmlns:svg="http://www.w3.org/2000/svg"
   xmlns="http://www.w3.org/2000/svg"
   viewBox="0 0 499.99999 500"
   height="500"
   width="500"
   version="1.1"
   id="svg2">
  <metadata
     id="metadata8">
    <rdf:RDF>
      <cc:Work
         rdf:about="">
        <dc:format>image/svg+xml</dc:format>
        <dc:type
           rdf:resource="http://purl.org/dc/dcmitype/StillImage" />
        <dc:title></dc:title>
      </cc:Work>
    </rdf:RDF>
  </metadata>
  <defs
     id="defs6" />
  <path
     id="path3338"
     d="m 227.80677,414.19301 c -18.34223,-1.28283 -25.56738,-2.59996 -39.15,-7.13699 -3.2551,-1.0873 -4.53221,-1.99048 -4.61642,-3.26476 -0.32428,-4.90696 -1.64353,-7.70825 -4.71612,-10.01423 -4.10908,-3.08385 -4.58668,-3.78483 -4.60368,-6.75685 -0.01,-1.66753 0.95303,-3.2064 3.12593,-4.99749 l 3.13972,-2.58802 -1.00694,-4.9025 c -1.63094,-7.94055 -0.10686,-11.71992 7.84177,-19.44577 9.6009,-9.33183 11.18333,-11.96862 11.19688,-18.65734 0.0108,-5.3159 0.11875,-5.56913 3.2362,-7.58918 7.80111,-5.05498 18.45903,-36.08186 22.00506,-64.06022 1.56908,-12.38011 1.60869,-47.57735 0.0618,-54.9 -1.78994,-8.47317 -5.59663,-21.8815 -6.55171,-23.07716 -0.45126,-0.56494 -2.72584,-1.31289 -5.05462,-1.66211 -6.05883,-0.90858 -8.95402,-2.65615 -9.64998,-5.82487 -0.83585,-3.80557 0.14647,-6.13675 3.26556,-7.7497 2.35981,-1.2203 2.62177,-1.73147 2.10143,-4.10057 -0.7187,-3.27223 1.21325,-5.80935 5.06845,-6.65608 1.43368,-0.3149 2.65151,-1.04661 2.7063,-1.62603 0.26308,-2.78199 -0.38997,-5.6924 -1.57552,-7.02152 -1.14993,-1.28918 -1.12896,-1.64853 0.17217,-2.94966 2.0868,-2.0868 2.53069,-7.01907 1.38436,-15.3823 -1.28133,-9.34814 -5.25326,-17.37936 -11.07441,-22.39237 -2.36794,-2.03919 -4.30553,-4.36679 -4.30578,-5.17244 -5.9e-4,-1.95344 2.34736,-3.81293 4.00928,-3.17519 0.73295,0.28126 1.57201,0.12408 1.86457,-0.34931 0.80498,-1.30248 3.93811,-0.99084 9.42571,0.93753 l 4.95,1.73947 1.34212,-1.99385 c 2.89721,-4.304057 10.5175,-11.718257 13.72672,-13.355487 3.87068,-1.97467 3.85298,-1.93159 1.97273,-4.80122 -0.82763,-1.26312 -1.29155,-3.5328 -1.125,-5.50393 0.40533,-4.79709 3.58026,-6.94034 10.28114,-6.94034 4.50441,0 5.4444,0.31432 7.26316,2.42875 2.20387,2.56216 2.99118,9.76466 1.18912,10.87839 -1.71758,1.06152 -0.8748,2.09239 3.92545,4.80149 2.654,1.49782 6.6563,4.81625 8.89402,7.37429 3.57069,4.081847 4.29456,4.530047 5.91538,3.662607 2.69758,-1.44371 6.18852,-1.20742 6.82923,0.46224 0.42512,1.10784 1.24538,1.31027 3.47129,0.85666 6.16668,-1.25668 7.39722,-1.08011 7.70724,1.10598 0.20588,1.45167 -0.81769,3.17358 -3.45304,5.80892 -6.83986,6.83986 -9.98669,15.73771 -10.12597,28.63177 -0.0647,5.99209 0.19884,7.50346 1.42852,8.19162 1.91291,1.07052 1.9053,2.61609 -0.0295,5.98728 -1.26622,2.20626 -1.349,3.09221 -0.4693,5.02294 0.63798,1.40023 1.80068,2.3442 2.88738,2.3442 2.88688,0 5.68896,3.37668 5.12831,6.17993 -0.39652,1.9826 0.05,2.73882 2.60625,4.41453 2.88928,1.89397 3.58402,3.5298 3.14513,7.40554 -0.30487,2.69224 -4.31228,5.1616 -9.41022,5.79854 -5.62553,0.70287 -5.13443,-0.0915 -8.09986,13.10146 -3.84929,17.1252 -4.1523,49.77836 -0.64318,69.31161 4.97601,27.69862 15.9767,56.9 22.99527,61.04106 2.98128,1.75899 3.19759,2.18913 3.19759,6.35839 0,6.63587 1.17719,8.77728 9.50671,17.29359 9.83522,10.05577 12.11768,15.67966 9.33453,22.9999 -0.87816,2.30975 -0.68902,2.73811 2.25,5.09589 2.51358,2.01645 3.20876,3.21954 3.20876,5.55305 0,2.46191 -0.76101,3.61605 -4.385,6.65023 -2.5597,2.1431 -4.61474,4.70677 -4.93691,6.1588 -0.67314,3.03393 -3.94008,6.80277 -7.48658,8.63673 -3.38861,1.75232 -19.84918,5.72524 -26.8415,6.47846 -2.97,0.31993 -6.4125,0.71954 -7.65,0.88801 -5.80393,0.79015 -37.55963,1.09388 -46.8,0.44762 z"
     style="fill:#000000" />
</svg>
