<?xml version="1.0" encoding="UTF-8" standalone="no"?>
<svg
   xmlns:dc="http://purl.org/dc/elements/1.1/"
   xmlns:cc="http://creativecommons.org/ns#"
   xmlns:rdf="http://www.w3.org/1999/02/22-rdf-syntax-ns#"
   xmlns:svg="http://www.w3.org/2000/svg"
   xmlns="http://www.w3.org/2000/svg"
   viewBox="0 0 500 499.99999"
   height="500"
   width="500"
   version="1.1"
   id="svg2">
  <metadata
     id="metadata8">
    <rdf:RDF>
      <cc:Work
         rdf:about="">
        <dc:format>image/svg+xml</dc:format>
        <dc:type
           rdf:resource="http://purl.org/dc/dcmitype/StillImage" />
        <dc:title></dc:title>
      </cc:Work>
    </rdf:RDF>
  </metadata>
  <defs
     id="defs6" />
  <path
     id="path3338"
     d="m 215.55,368.04182 c -2.475,-0.39742 -7.712,-1.74303 -11.63779,-2.99022 -3.92578,-1.24721 -7.47956,-2.0564 -7.89729,-1.79823 -0.41774,0.25817 -0.70568,0.13555 -0.63988,-0.27249 0.30965,-1.92025 -1.34222,-4.6207 -3.66626,-5.99355 -1.40963,-0.83269 -4.84532,-3.37318 -7.63487,-5.64552 -4.66142,-3.79718 -5.04974,-4.39514 -4.79791,-7.38824 0.20873,-2.48089 0.94387,-3.70647 3.08603,-5.14482 2.72723,-1.83119 2.77138,-1.96572 1.46401,-4.46092 -1.61821,-3.08847 -1.63563,-9.50249 -0.0341,-12.53568 0.6369,-1.20622 3.49503,-4.62273 6.3514,-7.59225 6.24127,-6.48852 8.05247,-10.41995 7.75536,-16.83403 -0.12163,-2.62569 0.20307,-5.30789 0.72156,-5.96044 0.51849,-0.65255 0.9703,-2.55046 1.00402,-4.21758 0.0338,-1.6703 0.84678,-3.89261 1.81087,-4.95 1.15007,-1.26136 2.3939,-5.31113 3.63001,-11.81887 4.73701,-24.93896 6.90143,-53.10953 5.94686,-77.4 -0.60895,-15.49569 -0.72957,-16.28616 -2.77435,-18.18202 -1.17575,-1.09012 -2.13772,-2.56163 -2.13772,-3.27003 0,-0.7084 -0.81,-1.49983 -1.8,-1.75872 -1.21633,-0.31808 -1.8,-1.22761 -1.8,-2.80497 0,-1.28384 -0.37607,-2.33426 -0.83571,-2.33426 -0.45965,0 -1.47215,-0.63642 -2.25,-1.41428 C 198.23728,162.0977 198,159.24122 198,146.24928 l 0,-15.61114 4.725,-1.04079 c 2.59875,-0.57245 11.07424,-1.27296 18.83443,-1.55672 l 14.10943,-0.51592 0.63243,3.37117 c 0.44149,2.35333 0.86472,3.00462 1.40179,2.15713 0.61726,-0.97401 0.77208,-0.98087 0.78314,-0.0347 0.009,0.81072 1.06865,1.09202 3.38878,0.9 3.21559,-0.26614 3.38854,-0.44462 3.66175,-3.77888 l 0.28676,-3.49955 16.81324,0.5782 c 19.53909,0.67194 32.58457,1.72161 34.25917,2.75657 0.92097,0.56919 1.06866,3.41961 0.67342,12.99672 -0.27845,6.74718 -0.52046,13.96157 -0.5378,16.03196 -0.0247,2.95793 -0.41714,3.88674 -1.83154,4.33565 -1.22972,0.3903 -1.8,1.36173 -1.8,3.06618 0,1.78784 -0.63765,2.78542 -2.25,3.52006 -1.2375,0.56385 -2.25,1.75384 -2.25,2.64445 0,0.8906 -0.81,2.31282 -1.8,3.16048 -1.71905,1.47191 -1.79928,2.64444 -1.78401,26.07502 0.009,13.4936 0.39778,27.97631 0.86442,32.18381 0.46664,4.2075 1.09464,9.8775 1.39555,12.6 0.87744,7.93838 4.88731,30.38622 5.90701,33.06824 0.51381,1.35142 1.75785,3.22448 2.76454,4.16234 1.33383,1.24265 1.69213,2.39618 1.32088,4.25242 -0.28018,1.40096 -0.1177,2.78931 0.36108,3.08521 0.4788,0.29591 0.87279,2.64037 0.87555,5.2099 0.008,7.71284 1.36869,10.77449 7.89265,17.76275 3.32879,3.56569 6.54422,7.34392 7.14543,8.3961 1.6411,2.87206 1.37498,7.85468 -0.62949,11.78634 -0.98251,1.92715 -1.69126,3.58128 -1.575,3.67584 0.11626,0.0946 1.52177,0.83831 3.12335,1.65276 4.57236,2.3252 4.72888,7.79822 0.31603,11.05055 -0.78539,0.57884 -1.4464,1.59134 -1.4689,2.25 -0.0225,0.65864 -0.56725,1.08346 -1.21055,0.94402 -1.50497,-0.32619 -9.09481,4.44754 -9.09693,5.72165 -0.004,2.25131 -4.43273,4.89484 -10.37841,6.19456 -3.45026,0.75422 -7.8932,1.77026 -9.8732,2.25784 -4.26909,1.0513 -60.93532,1.03646 -67.5,-0.0176 z"
     style="fill:#000000" />
</svg>
