<?xml version="1.0" encoding="UTF-8" standalone="no"?>
<!-- Created with Inkscape (http://www.inkscape.org/) -->

<svg
   xmlns:dc="http://purl.org/dc/elements/1.1/"
   xmlns:cc="http://creativecommons.org/ns#"
   xmlns:rdf="http://www.w3.org/1999/02/22-rdf-syntax-ns#"
   xmlns:svg="http://www.w3.org/2000/svg"
   xmlns="http://www.w3.org/2000/svg"
   xmlns:sodipodi="http://sodipodi.sourceforge.net/DTD/sodipodi-0.dtd"
   xmlns:inkscape="http://www.inkscape.org/namespaces/inkscape"
   id="svg2"
   version="1.1"
   inkscape:version="0.91 r13725"
   width="500"
   height="500"
   viewBox="0 0 500 500"
   sodipodi:docname="adidas.svg">
  <metadata
     id="metadata8">
    <rdf:RDF>
      <cc:Work
         rdf:about="">
        <dc:format>image/svg+xml</dc:format>
        <dc:type
           rdf:resource="http://purl.org/dc/dcmitype/StillImage" />
        <dc:title></dc:title>
      </cc:Work>
    </rdf:RDF>
  </metadata>
  <defs
     id="defs6" />
  <sodipodi:namedview
     pagecolor="#ffffff"
     bordercolor="#666666"
     borderopacity="1"
     objecttolerance="10"
     gridtolerance="10"
     guidetolerance="10"
     inkscape:pageopacity="0"
     inkscape:pageshadow="2"
     inkscape:window-width="863"
     inkscape:window-height="698"
     id="namedview4"
     showgrid="false"
     inkscape:zoom="0.72707182"
     inkscape:cx="400.57851"
     inkscape:cy="330.94373"
     inkscape:window-x="240"
     inkscape:window-y="178"
     inkscape:window-maximized="0"
     inkscape:current-layer="svg2" />
  <path
     style="fill:#000000"
     d="m 240.56398,352.03049 c -5.34286,-5.54818 -10.96869,-13.40476 -16.83732,-23.51367 -1.14589,-1.97383 -2.08344,-3.65599 -2.08344,-3.73813 0,-0.0821 9.51401,-0.14934 21.14225,-0.14934 l 21.14224,0 -1.74223,3.10455 c -3.31889,5.91404 -6.55074,10.89066 -10.49202,16.15631 -2.47721,3.30962 -6.43013,8.02131 -7.93022,9.45243 l -1.00882,0.96246 -2.19044,-2.27461 z m -24.56286,0.0449 c -3.30741,-0.35739 -9.84016,-1.57931 -13.97701,-2.61434 -16.56016,-4.1433 -33.91388,-12.1959 -49.09996,-22.78373 l -2.93734,-2.04794 34.01262,0 34.01261,0 0.15109,0.69694 c 0.68629,3.16575 1.40841,19.87289 1.05706,24.45622 l -0.18943,2.47096 -1.06601,-0.0405 c -0.58631,-0.0223 -1.46994,-0.0842 -1.96363,-0.13756 z m 50.09249,-6.98135 c 0.21105,-9.29958 1.30751,-20.07536 2.07192,-20.36254 0.1548,-0.0582 15.32373,-0.0764 33.70874,-0.0406 l 33.4273,0.0652 -3.16514,2.19411 c -19.74257,13.6858 -41.41052,22.4497 -61.63012,24.92716 -1.68842,0.20687 -3.40855,0.37613 -3.82252,0.37613 l -0.75266,0 0.16248,-7.15946 z M 129.70516,310.11425 c -2.35996,-1.87441 -7.66602,-7.00304 -9.11238,-8.80767 l -0.80687,-1.00673 122.86539,0 c 67.57597,0 122.8654,0.0868 122.8654,0.19292 0,0.42532 -3.9377,4.66177 -5.81819,6.25963 -1.1021,0.93645 -3.19291,2.49074 -4.64624,3.45398 l -2.6424,1.75136 -110.19953,-0.006 -110.19952,-0.006 -2.30566,-1.83128 z m -23.15852,-26.22414 c -2.71466,-3.60455 -4.80143,-6.70057 -5.72237,-8.48999 l -0.74998,-1.45723 142.7231,0 c 78.4977,0 142.7231,0.0903 142.7231,0.20071 0,0.36046 -2.59036,4.69355 -4.04641,6.76868 -0.7824,1.1151 -2.1216,2.85428 -2.97597,3.86484 l -1.5534,1.83738 -134.17313,0 -134.17314,0 -2.0518,-2.72439 z M 91.158103,256.89956 c -11.70478,-24.71745 -17.22005,-47.65337 -16.04039,-66.70584 l 0.16901,-2.72967 2.075,0.17208 c 2.71757,0.22537 6.55065,0.77964 9.897,1.43114 22.391157,4.35927 47.314027,16.12451 68.256347,32.22149 10.54831,8.10779 20.64946,18.25676 30.16547,30.30828 1.71973,2.17795 5.71782,7.8685 6.57438,9.35744 0.14553,0.25296 -9.81241,0.31679 -49.42219,0.31679 l -49.604437,0 -2.07019,-4.37171 z m 108.713027,2.40761 c -1.29712,-8.82939 -1.36299,-26.19923 -0.14441,-38.07821 2.70651,-26.38371 11.58518,-53.51695 24.64675,-75.32055 4.76377,-7.95213 10.24444,-15.17229 15.99413,-21.07043 l 2.43923,-2.50222 2.87918,2.93701 c 18.36752,18.73646 33.86015,53.098 39.15035,86.83263 1.52248,9.70857 1.80126,13.66927 1.81058,25.72338 0.007,8.57417 -0.0974,12.41017 -0.45018,16.59982 -0.25234,2.99684 -0.52117,5.76242 -0.59741,6.14573 l -0.1386,0.69694 -42.65054,0 -42.65054,0 -0.28854,-1.9641 z m 94.36793,1.01373 c 4.9664,-8.2415 14.69807,-19.73066 24.67556,-29.13184 24.83902,-23.4043 61.64332,-41.24648 89.84536,-43.5557 l 2.0816,-0.17045 0.17996,4.02134 c 0.83106,18.5701 -5.05683,41.79219 -16.75115,66.06723 l -1.79198,3.71979 -49.40603,0 -49.40603,0 0.57271,-0.95037 z"
     id="path3357"
     inkscape:connector-curvature="0" />
</svg>
