<?xml version="1.0" encoding="UTF-8" standalone="no"?>
<!-- Created with Inkscape (http://www.inkscape.org/) -->

<svg
   xmlns:dc="http://purl.org/dc/elements/1.1/"
   xmlns:cc="http://creativecommons.org/ns#"
   xmlns:rdf="http://www.w3.org/1999/02/22-rdf-syntax-ns#"
   xmlns:svg="http://www.w3.org/2000/svg"
   xmlns="http://www.w3.org/2000/svg"
   xmlns:sodipodi="http://sodipodi.sourceforge.net/DTD/sodipodi-0.dtd"
   xmlns:inkscape="http://www.inkscape.org/namespaces/inkscape"
   id="svg2"
   version="1.1"
   inkscape:version="0.91 r13725"
   width="500"
   height="500"
   viewBox="0 0 500 500"
   sodipodi:docname="android.svg">
  <metadata
     id="metadata8">
    <rdf:RDF>
      <cc:Work
         rdf:about="">
        <dc:format>image/svg+xml</dc:format>
        <dc:type
           rdf:resource="http://purl.org/dc/dcmitype/StillImage" />
        <dc:title></dc:title>
      </cc:Work>
    </rdf:RDF>
  </metadata>
  <defs
     id="defs6" />
  <sodipodi:namedview
     pagecolor="#ffffff"
     bordercolor="#666666"
     borderopacity="1"
     objecttolerance="10"
     gridtolerance="10"
     guidetolerance="10"
     inkscape:pageopacity="0"
     inkscape:pageshadow="2"
     inkscape:window-width="858"
     inkscape:window-height="742"
     id="namedview4"
     showgrid="false"
     inkscape:zoom="0.75399361"
     inkscape:cx="317.84491"
     inkscape:cy="239.87016"
     inkscape:window-x="184"
     inkscape:window-y="142"
     inkscape:window-maximized="0"
     inkscape:current-layer="svg2" />
  <path
     style="fill:#000000"
     d="m 215.56642,344.48425 c -4.46699,-1.56663 -7.35943,-4.73379 -8.60033,-9.4172 -0.59952,-2.26269 -0.75846,-6.07614 -0.75846,-18.19728 l 0,-15.3347 -7.375,-0.17763 c -6.40498,-0.15426 -7.64572,-0.31872 -9.43324,-1.2504 -3.22532,-1.68107 -5.00808,-3.39149 -6.40289,-6.14306 l -1.28887,-2.5426 0,-45.61535 0,-45.61536 61.25,0 61.25,0 0,44.95614 c 0,43.98694 -0.0219,45.01368 -1.01589,47.62531 -1.35374,3.55688 -4.89459,6.84206 -8.51314,7.89844 -1.8117,0.52889 -4.68406,0.77435 -9.06172,0.77435 l -6.40925,0 0,16.37854 c 0,18.02981 -0.15036,19.14381 -3.05076,22.60286 -0.83758,0.9989 -2.57505,2.42423 -3.86105,3.16739 -2.05854,1.1896 -2.84649,1.3505 -6.58819,1.34531 -4.79872,-0.007 -7.05557,-0.87095 -9.81903,-3.76035 -3.45715,-3.61471 -3.40508,-3.29949 -3.68097,-22.2846 l -0.25,-17.20339 -9.10054,-0.13388 -9.10054,-0.13387 -0.14946,16.84574 -0.14946,16.84574 -1.40148,2.80558 c -2.96308,5.93171 -10.14333,8.79003 -16.48973,6.56427 z m -58.10879,-65.30074 c -2.78922,-1.3138 -5.77159,-4.2889 -7.11364,-7.0963 -0.81915,-1.71356 -0.88636,-4.20249 -0.88636,-32.82027 0,-30.38666 0.0196,-31.00749 1.04592,-33.17797 3.05673,-6.46426 9.66137,-9.58101 16.28916,-7.68692 3.24836,0.92832 6.93047,3.89033 8.56082,6.88662 1.10038,2.02228 1.10457,2.13255 1.24376,32.72618 0.15422,33.89627 0.1592,33.83345 -2.97921,37.57636 -2.5067,2.98953 -5.4713,4.36869 -9.85205,4.58329 -3.23369,0.15842 -4.18567,0.009 -6.3084,-0.99099 z m 159.75,0.10415 c -2.90548,-1.29141 -5.28384,-3.55185 -6.79465,-6.45777 l -1.20535,-2.3184 0.011,-31.35109 c 0.0103,-29.27913 0.0712,-31.48103 0.92269,-33.31719 2.35227,-5.07268 6.68929,-7.83185 12.31633,-7.83552 5.83219,-0.004 10.15805,2.71183 12.58922,7.90314 l 1.18261,2.52525 -0.13592,31.14424 -0.13593,31.14425 -1.23677,2.3803 c -1.42496,2.74248 -3.82038,4.97587 -6.73054,6.27526 -2.81834,1.25839 -7.84036,1.21532 -10.78269,-0.0925 z M 181.87049,194.98367 c -0.53457,-1.36947 0.2667,-9.62957 1.3306,-13.71673 1.29994,-4.99397 5.16334,-12.7647 8.55306,-17.20339 4.65514,-6.0957 11.3158,-11.87476 17.8422,-15.48063 1.1612,-0.64157 2.10857,-1.40225 2.10525,-1.69039 -0.004,-0.28814 -0.58488,-1.51924 -1.29238,-2.73576 -4.10341,-7.05571 -7.75027,-14.39267 -7.61105,-15.31234 0.22196,-1.46623 1.65641,-2.28734 2.78446,-1.5939 0.48125,0.29584 3.03397,4.38666 5.67272,9.09071 2.91621,5.19868 5.07313,8.52244 5.5,8.47534 0.38625,-0.0426 2.27728,-0.63171 4.20228,-1.3091 12.95633,-4.55926 29.52853,-4.62981 43.25,-0.18412 2.6125,0.84644 4.93452,1.54612 5.16006,1.55484 0.22553,0.009 2.59141,-3.9655 5.25751,-8.8316 4.60444,-8.40391 4.92168,-8.84746 6.3279,-8.84746 1.13217,0 1.5807,0.28908 1.90659,1.22881 0.35706,1.02963 -0.30964,2.56323 -4.11296,9.4609 -2.49651,4.52764 -4.53718,8.50899 -4.53482,8.84745 0.002,0.33846 1.59616,1.58085 3.54179,2.76087 15.911,9.64998 25.97472,25.47104 26.14911,41.10875 l 0.0548,4.91526 -60.88993,0.12484 c -55.45208,0.11369 -60.91737,0.0545 -61.19721,-0.66235 z m 35.87691,-21.68242 c 1.44889,-0.84138 2.96023,-3.28239 2.96023,-4.78116 0,-4.49608 -5.79961,-7.17534 -9.30159,-4.29708 -5.35509,4.40131 0.34442,12.56068 6.34136,9.07824 z m 56.78976,-0.73653 c 2.63978,-2.59504 2.27878,-6.58627 -0.77847,-8.60703 -1.96397,-1.29813 -3.52661,-1.41481 -5.50164,-0.41079 -2.69616,1.3706 -3.9223,5.12201 -2.51751,7.70238 1.58781,2.91657 6.43207,3.64089 8.79762,1.31544 z"
     id="path3357"
     inkscape:connector-curvature="0" />
</svg>
