<?xml version="1.0" encoding="UTF-8" standalone="no"?>
<!-- Created with Inkscape (http://www.inkscape.org/) -->

<svg
   xmlns:dc="http://purl.org/dc/elements/1.1/"
   xmlns:cc="http://creativecommons.org/ns#"
   xmlns:rdf="http://www.w3.org/1999/02/22-rdf-syntax-ns#"
   xmlns:svg="http://www.w3.org/2000/svg"
   xmlns="http://www.w3.org/2000/svg"
   xmlns:sodipodi="http://sodipodi.sourceforge.net/DTD/sodipodi-0.dtd"
   xmlns:inkscape="http://www.inkscape.org/namespaces/inkscape"
   id="svg2"
   version="1.1"
   inkscape:version="0.91 r13725"
   width="500"
   height="500"
   viewBox="0 0 500 500"
   sodipodi:docname="att.svg">
  <metadata
     id="metadata8">
    <rdf:RDF>
      <cc:Work
         rdf:about="">
        <dc:format>image/svg+xml</dc:format>
        <dc:type
           rdf:resource="http://purl.org/dc/dcmitype/StillImage" />
        <dc:title></dc:title>
      </cc:Work>
    </rdf:RDF>
  </metadata>
  <defs
     id="defs6" />
  <sodipodi:namedview
     pagecolor="#ffffff"
     bordercolor="#666666"
     borderopacity="1"
     objecttolerance="10"
     gridtolerance="10"
     guidetolerance="10"
     inkscape:pageopacity="0"
     inkscape:pageshadow="2"
     inkscape:window-width="843"
     inkscape:window-height="702"
     id="namedview4"
     showgrid="false"
     inkscape:zoom="0.96326531"
     inkscape:cx="254.76695"
     inkscape:cy="234.61864"
     inkscape:window-x="255"
     inkscape:window-y="114"
     inkscape:window-maximized="0"
     inkscape:current-layer="svg2" />
  <path
     style="fill:#000000"
     d="m 221,334.12152 c -24.3987,-3.22204 -46.78377,-12.82507 -58.2926,-25.0071 -5.46446,-5.78409 -16.81542,-21.84862 -16.00254,-22.64771 0.22697,-0.22314 2.13675,1.62189 4.24395,4.10005 5.03228,5.91819 17.95297,15.26708 26.90341,19.46624 13.42761,6.29965 32.53986,12.08971 51.14778,15.49523 10.64879,1.94888 42.96888,1.67623 53.06076,-0.44762 26.96171,-5.67415 51.4649,-19.1173 64.58363,-35.43245 4.88475,-6.07494 4.94858,-5.11635 0.13957,2.09627 -12.99877,19.49578 -38.16371,34.15079 -69.65551,40.56445 -11.61086,2.36469 -44.02209,3.41139 -56.12845,1.81264 z m -15.5,-23.03685 c -31.62558,-5.2081 -55.11848,-19.90541 -65.08752,-40.71917 -2.22909,-4.654 -5.25687,-15.48317 -6.34449,-22.69176 l -0.66745,-4.42373 2.79973,5.17198 c 11.03158,20.37877 38.20481,35.095 80.29973,43.488 21.35035,4.25688 32.31865,5.27215 50,4.62818 16.96883,-0.61802 30.32312,-2.8614 44.89068,-7.54118 11.83616,-3.80231 19.18117,-7.54547 28.82766,-14.69112 10.21956,-7.57014 16.85632,-16.03689 21.64652,-27.61518 0.33553,-0.81102 0.36156,0.5161 0.0578,2.94915 -0.91431,7.32435 -5.85603,15.95657 -14.01664,24.48431 -16.59092,17.33733 -42.32977,28.41043 -82.90606,35.66696 -14.59819,2.61069 -47.19813,3.31943 -59.5,1.29356 z m 4,-31.91948 c -16.56021,-2.12179 -36.83815,-8.26252 -47.35359,-14.34 -10.68166,-6.17355 -19.85038,-15.35835 -24.16358,-24.20596 -4.32443,-8.87062 -5.02296,-13.63954 -3.47058,-23.69384 1.34434,-8.70691 2.90423,-13.07893 2.95734,-8.28876 0.0455,4.10445 3.41231,9.82738 9.03074,15.35059 15.5613,15.29755 49.98523,26.392 91.49967,29.48935 35.93233,2.68086 47.62857,2.35013 66.06459,-1.86808 19.56486,-4.4765 31.60175,-10.14175 41.81857,-19.68225 8.1912,-7.64896 12.86757,-15.99157 13.02641,-23.23902 0.16006,-7.30327 1.91467,-1.60169 2.00646,6.51998 0.0742,6.56829 -0.31439,8.22597 -3.3514,14.29564 -11.32228,22.6283 -44.66717,38.12632 -102.56463,47.66995 -13.6617,2.25194 -35.88061,3.22489 -45.5,1.9924 z m -9.90464,-44.39041 C 164.96273,228.4497 142.5,212.67533 142.5,194.67978 c 0,-4.41596 0.78611,-6.95978 4.23847,-13.71555 l 4.23847,-8.29408 0.81243,4.03857 c 2.24142,11.14196 26.84593,22.71094 57.71063,27.13538 22.0469,3.16042 38.81405,4.5076 56.10196,4.5076 34.40111,0 57.25563,-5.67345 69.97717,-17.37128 7.22994,-6.64814 9.20717,-13.25271 6.42431,-21.45923 -0.66671,-1.9661 -0.66671,-1.9661 0.99469,0 0.91377,1.08136 2.75051,4.05267 4.08164,6.60292 7.22558,13.84315 -2.07436,27.00527 -28.2054,39.91883 -7.01564,3.46702 -35.01015,12.90298 -46.87437,15.7997 -21.61577,5.27762 -52.67513,6.53541 -72.40464,2.93214 z M 206,189.04405 c -16.94719,-3.40312 -25.91992,-6.9145 -32.41959,-12.68704 -5.31722,-4.72236 -7.08617,-8.08627 -7.05845,-13.42259 0.0402,-7.7326 4.05947,-13.57856 14.46104,-21.03324 l 3.98301,-2.85456 -2.23301,2.83596 c -3.08636,3.91975 -2.84701,7.71324 0.74008,11.72947 6.02994,6.75131 22.12604,11.47053 46.29874,13.57433 32.07275,2.79137 70.43567,-4.93313 80.47818,-16.20454 3.64174,-4.08738 4.05958,-6.92083 1.54172,-10.45465 l -1.70827,-2.39756 3.45827,2.36077 c 1.90206,1.29843 5.59578,4.08959 8.20828,6.20258 4.25566,3.44198 4.75,4.26031 4.75,7.86319 0,3.51074 -0.60355,4.59326 -4.75306,8.52507 -11.50652,10.90283 -38.02616,20.73024 -67.52721,25.02361 -9.90642,1.44171 -42.55091,2.07754 -48.21973,0.9392 z"
     id="path3357"
     inkscape:connector-curvature="0" />
</svg>
