<?xml version="1.0" encoding="UTF-8" standalone="no"?>
<!-- Created with Inkscape (http://www.inkscape.org/) -->

<svg
   xmlns:dc="http://purl.org/dc/elements/1.1/"
   xmlns:cc="http://creativecommons.org/ns#"
   xmlns:rdf="http://www.w3.org/1999/02/22-rdf-syntax-ns#"
   xmlns:svg="http://www.w3.org/2000/svg"
   xmlns="http://www.w3.org/2000/svg"
   xmlns:sodipodi="http://sodipodi.sourceforge.net/DTD/sodipodi-0.dtd"
   xmlns:inkscape="http://www.inkscape.org/namespaces/inkscape"
   id="svg2"
   version="1.1"
   inkscape:version="0.91 r13725"
   width="500"
   height="500"
   viewBox="0 0 500.00001 500"
   sodipodi:docname="beats.svg">
  <metadata
     id="metadata8">
    <rdf:RDF>
      <cc:Work
         rdf:about="">
        <dc:format>image/svg+xml</dc:format>
        <dc:type
           rdf:resource="http://purl.org/dc/dcmitype/StillImage" />
        <dc:title></dc:title>
      </cc:Work>
    </rdf:RDF>
  </metadata>
  <defs
     id="defs6" />
  <sodipodi:namedview
     pagecolor="#ffffff"
     bordercolor="#666666"
     borderopacity="1"
     objecttolerance="10"
     gridtolerance="10"
     guidetolerance="10"
     inkscape:pageopacity="0"
     inkscape:pageshadow="2"
     inkscape:window-width="827"
     inkscape:window-height="692"
     id="namedview4"
     showgrid="false"
     inkscape:zoom="0.85756342"
     inkscape:cx="211.59917"
     inkscape:cy="237.49219"
     inkscape:window-x="263"
     inkscape:window-y="187"
     inkscape:window-maximized="0"
     inkscape:current-layer="svg2" />
  <path
     style="fill:#000000"
     d="M 225.24732,348.06652 C 198.20923,344.5256 176.45838,334.13609 157.76878,315.83471 145.77861,304.0936 137.951,292.00038 132.61102,276.96733 c -9.65928,-27.19268 -7.58701,-54.7582 6.07237,-80.77532 7.79876,-14.85436 19.02412,-27.47572 33.54972,-37.72203 3.79452,-2.67664 7.15282,-4.86662 7.46289,-4.86662 0.31006,0 0.6826,21.96331 0.82786,48.80735 0.25853,47.77689 0.30183,48.93467 2.05113,54.8376 5.61419,18.94489 17.65732,31.74417 35.37761,37.59886 6.55241,2.16488 7.52905,2.27857 19.7256,2.29621 11.85085,0.0172 13.32239,-0.13703 19.24781,-2.01665 17.06013,-5.4117 30.57292,-17.56288 36.44535,-32.77294 5.99655,-15.53152 5.14087,-28.52222 -2.89219,-43.90884 -6.4756,-12.40345 -18.81356,-22.31233 -33.55316,-26.94727 -5.70319,-1.79339 -7.66324,-2.02153 -17.64382,-2.05361 -10.22525,-0.0329 -11.84777,0.1549 -18.16946,2.10264 -3.81786,1.1763 -8.78019,3.27681 -11.0274,4.6678 l -4.08582,2.52908 0,-28.19442 0,-28.19443 3.40847,-0.86632 c 32.83985,-8.34685 69.38727,-1.87652 96.18882,17.0292 8.59336,6.06172 20.69018,17.91228 26.16698,25.63429 8.48165,11.95868 14.83463,26.64356 17.5816,40.63977 1.85815,9.4675 1.78417,27.82169 -0.15056,37.35621 -4.47778,22.06689 -14.52988,39.77607 -31.66177,55.77983 -16.25711,15.18658 -34.08011,24.32349 -55.82178,28.61687 -9.14395,1.80568 -28.21819,2.6018 -36.46395,1.52193 z m 1.86772,-74.562 c -8.61626,-2.91541 -14.88827,-8.38619 -19.02823,-16.59739 -2.33441,-4.63007 -2.48829,-5.47137 -2.48829,-13.60377 0,-8.19349 0.141,-8.94828 2.57328,-13.77448 3.19711,-6.34381 9.38606,-12.30655 15.87254,-15.29242 4.47573,-2.06027 5.45637,-2.21504 14.03486,-2.21504 8.70341,0 9.52663,0.13523 14.61496,2.40078 12.6395,5.62766 18.99836,15.43082 19.0491,29.36709 0.067,18.39712 -13.91996,31.22908 -33.94904,31.14569 -4.28552,-0.0179 -7.95824,-0.50979 -10.67918,-1.43046 z"
     id="path3357"
     inkscape:connector-curvature="0" />
</svg>
