<?xml version="1.0" encoding="UTF-8" standalone="no"?>
<!-- Created with Inkscape (http://www.inkscape.org/) -->

<svg
   xmlns:dc="http://purl.org/dc/elements/1.1/"
   xmlns:cc="http://creativecommons.org/ns#"
   xmlns:rdf="http://www.w3.org/1999/02/22-rdf-syntax-ns#"
   xmlns:svg="http://www.w3.org/2000/svg"
   xmlns="http://www.w3.org/2000/svg"
   xmlns:sodipodi="http://sodipodi.sourceforge.net/DTD/sodipodi-0.dtd"
   xmlns:inkscape="http://www.inkscape.org/namespaces/inkscape"
   id="svg2"
   version="1.1"
   inkscape:version="0.91 r13725"
   width="500"
   height="500"
   viewBox="0 0 500 500.00001"
   sodipodi:docname="cisco.svg">
  <metadata
     id="metadata8">
    <rdf:RDF>
      <cc:Work
         rdf:about="">
        <dc:format>image/svg+xml</dc:format>
        <dc:type
           rdf:resource="http://purl.org/dc/dcmitype/StillImage" />
        <dc:title></dc:title>
      </cc:Work>
    </rdf:RDF>
  </metadata>
  <defs
     id="defs6" />
  <sodipodi:namedview
     pagecolor="#ffffff"
     bordercolor="#666666"
     borderopacity="1"
     objecttolerance="10"
     gridtolerance="10"
     guidetolerance="10"
     inkscape:pageopacity="0"
     inkscape:pageshadow="2"
     inkscape:window-width="988"
     inkscape:window-height="742"
     id="namedview4"
     showgrid="false"
     inkscape:zoom="0.79124581"
     inkscape:cx="373.80072"
     inkscape:cy="158.28693"
     inkscape:window-x="83"
     inkscape:window-y="260"
     inkscape:window-maximized="0"
     inkscape:current-layer="svg2" />
  <path
     style="fill:#000000"
     d="m 164.55683,301.27874 c -2.10904,-0.57235 -4.23899,-2.66398 -5.12728,-5.03505 -0.90401,-2.41305 -0.83006,2.53046 -0.82799,-55.34794 0.002,-58.20747 -0.0792,-53.18544 0.89926,-55.55327 0.98521,-2.38413 2.95975,-4.25226 5.13995,-4.86293 3.31473,-0.92846 6.94833,1.27012 8.39444,5.07921 0.27451,0.72306 0.56409,1.70961 0.64352,2.19232 0.10681,0.64915 0.13437,14.60931 0.10586,53.61703 l -0.0385,52.73936 -0.29565,0.993 c -1.35913,4.56484 -5.14571,7.19534 -8.89356,6.17827 z m 168.06748,0 c -2.72473,-0.73943 -5.12557,-3.70829 -5.76652,-7.1308 -0.28241,-1.50798 -0.28266,-105.00778 0,-106.51569 0.46689,-2.493 1.99739,-5.0212 3.73607,-6.17148 3.10832,-2.0564 6.58003,-1.42319 9.01606,1.64447 0.95683,1.20494 1.39891,2.08305 1.93542,3.84438 l 0.26818,0.88125 0.035,52.5 c 0.039,58.42776 0.11022,53.59955 -0.8257,55.97132 -0.63602,1.61182 -2.04321,3.37254 -3.32864,4.16492 -1.62976,1.00464 -3.34615,1.27942 -5.0699,0.81163 z M 81.220211,282.27762 c -2.458352,-0.47634 -4.772514,-2.5435 -5.805046,-5.18543 -0.845728,-2.16396 -0.844556,-2.14388 -0.847008,-14.51505 -0.0021,-10.54154 0.0105,-11.1673 0.248182,-12.33733 0.366191,-1.80262 0.928931,-3.02676 2.026811,-4.40899 1.09788,-1.38222 2.070202,-2.09071 3.501996,-2.55174 3.993748,-1.28597 7.906251,1.54883 9.255482,6.70605 0.210924,0.80622 0.233073,1.7773 0.272114,11.93066 0.04853,12.6219 0.03343,12.89051 -0.851111,15.13791 -0.905066,2.29955 -2.694852,4.1734 -4.692093,4.91248 -0.719887,0.2664 -2.448312,0.43952 -3.109327,0.31144 z m 41.680569,-0.0633 c -2.64145,-0.59708 -4.99509,-3.11045 -5.87952,-6.27854 -0.14065,-0.50381 -0.31364,-1.46835 -0.38442,-2.14343 -0.0837,-0.79866 -0.11507,-9.6167 -0.0897,-25.24338 0.0364,-22.40468 0.054,-24.07921 0.26274,-24.9587 0.95947,-4.04265 3.66438,-6.80326 6.92676,-7.06936 3.41781,-0.27878 6.41659,2.2285 7.72346,6.4576 l 0.33244,1.07578 0.0357,24.81383 c 0.0397,27.63011 0.088,25.97624 -0.8253,28.27456 -0.5334,1.34236 -1.90963,3.18484 -2.88603,3.86381 -1.53006,1.06397 -3.66524,1.55839 -5.21609,1.20783 z m 84.30666,0.0633 c -3.01172,-0.58357 -5.44845,-3.26645 -6.3577,-6.99994 -0.22218,-0.91225 -0.23318,-2.13617 -0.23318,-25.93085 l 0,-24.97341 0.34572,-1.27659 c 1.07785,-3.98008 3.99422,-6.61555 7.32252,-6.61721 3.49854,-0.002 6.6876,3.26762 7.41745,7.60425 0.27598,1.63987 0.27353,48.8938 -0.003,50.55552 -0.57632,3.46786 -2.6753,6.32486 -5.38285,7.32679 -0.71989,0.2664 -2.44831,0.43952 -3.10933,0.31144 z m 41.4465,-0.15135 c -2.82176,-0.78763 -5.103,-3.55383 -5.82544,-7.06386 -0.17881,-0.86881 -0.19846,-2.38822 -0.16591,-12.83193 l 0.0369,-11.84642 0.2943,-0.99299 c 1.21845,-4.11121 4.37247,-6.68475 7.81741,-6.37867 3.30735,0.29385 6.1711,3.46755 6.8483,7.58949 0.16472,1.00257 0.18747,2.85502 0.15481,12.60638 l -0.0383,11.43112 -0.29466,1.03723 c -0.86532,3.04608 -2.47575,5.09439 -4.79748,6.10192 -1.32341,0.5743 -2.77082,0.69919 -4.02997,0.34773 z m 42.58724,0.15135 c -2.49477,-0.4834 -4.68703,-2.45675 -5.75297,-5.17849 -0.96318,-2.45938 -0.91078,-0.76124 -0.87231,-28.27711 l 0.0344,-24.60817 0.29652,-1.03723 c 0.46747,-1.63524 1.00785,-2.70404 1.98383,-3.92377 4.14407,-5.17905 11.17149,-2.71966 12.68523,4.43946 0.14885,0.704 0.178,4.87617 0.17926,25.66089 10e-4,21.70028 -0.0227,24.93975 -0.19135,25.77128 -0.62818,3.09778 -2.69119,5.83326 -5.11345,6.78025 -0.80488,0.31468 -2.52864,0.5125 -3.24916,0.37289 z m 83.63406,-0.0736 c -2.82237,-0.59365 -5.32027,-3.51459 -6.05896,-7.08508 -0.17226,-0.83266 -0.19562,-3.90064 -0.19562,-25.69235 0,-21.63032 0.0243,-24.86655 0.19286,-25.69786 1.31513,-6.48546 7.25429,-9.29107 11.74997,-5.55062 1.41873,1.18041 2.48082,3.00492 3.09549,5.31762 0.22181,0.83455 0.23502,2.07254 0.26885,25.19917 0.0394,26.93526 0.0661,25.95637 -0.76638,28.15162 -1.46745,3.86985 -4.87732,6.07453 -8.28621,5.3575 z m 42.35317,0.0736 c -2.49477,-0.4834 -4.68703,-2.45675 -5.75297,-5.17849 -0.9228,-2.35629 -0.91701,-2.25655 -0.87509,-15.04917 l 0.0372,-11.34675 0.33489,-1.15344 c 0.4857,-1.67281 0.92479,-2.53418 1.93616,-3.79822 4.14903,-5.18549 11.0967,-2.78332 12.70606,4.39315 0.21593,0.96287 0.23261,1.86675 0.23261,12.60639 l 0,11.56915 -0.34412,1.27659 c -0.84916,3.15015 -2.71615,5.45137 -5.1654,6.36679 -0.718,0.26836 -2.44487,0.44275 -3.10932,0.314 z"
     id="path3357"
     inkscape:connector-curvature="0" />
</svg>
