<?xml version="1.0" encoding="UTF-8" standalone="no"?>
<!-- Created with Inkscape (http://www.inkscape.org/) -->

<svg
   xmlns:dc="http://purl.org/dc/elements/1.1/"
   xmlns:cc="http://creativecommons.org/ns#"
   xmlns:rdf="http://www.w3.org/1999/02/22-rdf-syntax-ns#"
   xmlns:svg="http://www.w3.org/2000/svg"
   xmlns="http://www.w3.org/2000/svg"
   xmlns:sodipodi="http://sodipodi.sourceforge.net/DTD/sodipodi-0.dtd"
   xmlns:inkscape="http://www.inkscape.org/namespaces/inkscape"
   id="svg2"
   version="1.1"
   inkscape:version="0.91 r13725"
   width="500"
   height="500"
   viewBox="0 0 500 500"
   sodipodi:docname="coco-cola.svg">
  <metadata
     id="metadata8">
    <rdf:RDF>
      <cc:Work
         rdf:about="">
        <dc:format>image/svg+xml</dc:format>
        <dc:type
           rdf:resource="http://purl.org/dc/dcmitype/StillImage" />
        <dc:title></dc:title>
      </cc:Work>
    </rdf:RDF>
  </metadata>
  <defs
     id="defs6" />
  <sodipodi:namedview
     pagecolor="#ffffff"
     bordercolor="#666666"
     borderopacity="1"
     objecttolerance="10"
     gridtolerance="10"
     guidetolerance="10"
     inkscape:pageopacity="0"
     inkscape:pageshadow="2"
     inkscape:window-width="889"
     inkscape:window-height="657"
     id="namedview4"
     showgrid="false"
     inkscape:zoom="0.8225"
     inkscape:cx="200"
     inkscape:cy="257.52888"
     inkscape:window-x="211"
     inkscape:window-y="179"
     inkscape:window-maximized="0"
     inkscape:current-layer="svg2" />
  <path
     style="fill:#000000"
     d="m 169.14634,300.84468 c -9.64968,-10.15327 -25.92387,-11.4292 -54.36451,-4.26228 -29.664131,7.47524 -39.369492,8.41196 -49.293711,4.75763 -12.918227,-4.75679 -19.243377,-16.31759 -17.969036,-32.84292 2.262977,-29.34569 28.880723,-65.59677 59.181517,-80.60015 14.40515,-7.13269 24.94897,-7.90603 28.9969,-2.1268 4.54115,6.48341 -1.77771,20.70097 -9.20035,20.70097 -5.70957,0 -2.73854,-10.60139 3.491,-12.4568 3.51806,-1.04782 4.22163,-3.46076 1.63503,-5.60745 -2.03917,-1.69236 -8.69594,-0.0277 -15.29285,3.82422 -11.81635,6.89959 -32.26144,30.62028 -41.348021,47.97256 -12.354987,23.59384 -13.208414,44.46102 -2.110207,51.59679 10.022514,6.44413 19.192715,6.14807 51.328498,-1.65716 29.12709,-7.07447 35.40966,-8.0285 49.19307,-7.47018 9.13084,0.36986 12.51532,0.95173 17.58572,3.0234 8.55494,3.49539 16.37111,8.35097 22.55055,14.00892 l 5.17066,4.73429 -5.5,-2.43717 c -16.43365,-7.2821 -30.43746,-7.27431 -38.05426,0.0212 l -2.55426,2.44651 -3.44574,-3.62557 z m 71.43817,-0.28667 c -11.46999,-5.20873 -14.46802,-19.58896 -7.99718,-38.35883 8.2811,-24.02085 32.40591,-55.17067 53.71563,-69.35732 14.77673,-9.83741 28.87908,-14.07663 36.38913,-10.93873 3.6219,1.51333 4.39457,1.51226 10.45966,-0.0144 11.01678,-2.77317 17.18379,-1.63147 32.96435,6.10268 l 13.4155,6.57502 -4.87791,4.95237 c -2.68285,2.72381 -5.2086,4.95238 -5.61278,4.95238 -0.40418,0 -5.59069,-2.94458 -11.52558,-6.5435 -11.17088,-6.77404 -22.62571,-11.09723 -26.69641,-10.07555 -2.06827,0.5191 -2.40174,1.3201 -2.85322,6.85343 -0.74817,9.16951 -5.50275,18.49363 -13.66999,26.80797 -7.37751,7.51039 -12.98877,10.1553 -16.99551,8.01095 -9.12094,-4.88138 0.66904,-25.72622 18.1482,-38.64118 8.76494,-6.47621 1.78304,-6.67812 -8.90439,-0.2575 -13.60685,8.1745 -28.70945,23.82458 -41.85166,43.36883 -11.39964,16.9528 -18.49175,34.47474 -18.49175,45.68617 0,7.35278 4.57542,12.79038 10.76234,12.79038 12.65913,0 32.14162,-23.97549 32.21392,-39.64301 0.0277,-6.0092 -1.47012,-7.18721 -6.09661,-4.79476 -3.37832,1.747 -8.38352,9.05116 -10.07852,14.70773 -0.78219,2.61034 -2.23263,4.4351 -4.7154,5.93234 -1.97215,1.1893 -5.65976,3.86907 -8.19468,5.95505 l -4.60894,3.79269 0.9117,-5.22502 c 1.30232,-7.46371 6.93997,-18.8588 11.67083,-23.58966 7.53344,-7.53344 17.65551,-10.96401 21.99113,-7.45324 9.92997,8.04081 -2.55384,37.08663 -22.38752,52.08858 -10.49809,7.94062 -19.09331,9.94506 -27.08434,6.31618 z m 66.02217,-77.23247 c 5.38902,-3.56953 11.53537,-11.20715 14.60696,-18.15098 2.12031,-4.79331 3.84334,-14.70343 2.55643,-14.70343 -1.75409,0 -9.71407,6.38887 -14.78758,11.86887 -5.11299,5.52264 -11.78189,16.68442 -11.78189,19.71942 0,1.38085 2.6793,4.41171 3.89998,4.41171 0.41642,0 2.89417,-1.41551 5.5061,-3.14559 z m -14.05165,78.37956 c -6.16685,-0.99362 -7.76595,-11.36312 -3.46071,-22.44123 7.39719,-19.03418 27.33651,-38.79274 39.14764,-38.79274 8.64336,0 9.92192,8.48112 3.50502,23.25 -0.60724,1.3976 -0.26659,1.75 1.69164,1.75 3.08519,0 4.71466,-1.85439 8.78713,-10 8.84336,-17.68819 23.04829,-37.9153 36.37636,-51.79813 14.4401,-15.04114 25.54511,-22.57998 32.41877,-22.00805 3.54332,0.29483 3.69095,0.46022 3.9826,4.46173 0.3799,5.21224 -1.91018,10.87774 -4.69088,11.60491 -2.62379,0.68614 -2.62548,0.15458 -0.0182,-5.73956 1.2496,-2.82492 1.72883,-5.09829 1.18862,-5.6385 -2.70262,-2.70262 -20.35179,14.34238 -32.5902,31.4746 -7.89686,11.05458 -22.92561,35.74292 -22.19989,36.46864 1.46039,1.46039 29.35543,-25.03286 36.89024,-35.03643 2.59212,-3.44142 6.11674,-5.62325 7.25127,-4.48872 0.88685,0.88684 -14.21179,18.07055 -25.23954,28.72504 -5.99186,5.78904 -13.88065,12.70079 -17.53066,15.35944 -6.23602,4.5423 -6.82874,5.32502 -9.8249,12.97447 -4.03729,10.30753 -5.03512,17.32097 -2.59743,18.25641 2.89894,1.11242 6.6345,-2.7038 16.05871,-16.4055 11.15238,-16.21425 17.17039,-23.23568 24.60778,-28.71078 7.42258,-5.46419 12.10229,-6.45971 16.18308,-3.44265 2.68491,1.98504 3.07405,2.0424 3.8957,0.57421 0.68448,-1.22315 2.4011,-1.63113 6.86311,-1.63113 3.27267,0 5.95031,0.3506 5.95031,0.7791 0,0.42851 -4.9843,9.31601 -11.07623,19.75 -15.68924,26.87188 -16.45328,28.4709 -13.60377,28.4709 2.26029,0 9.49928,-6.88835 14.28083,-13.58909 2.8909,-4.05124 5.27856,-6.41091 6.48695,-6.41091 1.05172,0 1.91222,0.30971 1.91222,0.68824 0,1.54436 -14.49165,19.57727 -18.83137,23.43312 -4.79652,4.26171 -11.32272,7.81783 -14.41863,7.85668 -2.55511,0.0321 -5.75,-3.58535 -5.75,-6.51043 0,-2.51575 -0.0359,-2.50529 -5.45975,1.58975 -3.41084,2.57521 -6.91617,4.3175 -9.34066,4.6427 -3.35896,0.45053 -4.17132,0.15133 -6.04025,-2.22462 -1.26249,-1.60499 -2.15934,-4.17469 -2.15934,-6.18702 l 0,-3.44187 -2.52169,2.99685 c -4.2756,5.08127 -11.49885,9.28865 -15.36987,8.9526 -8.64113,-0.75014 -9.53,-11.89811 -2.42499,-30.41348 0.38824,-1.01172 -0.36984,-1.37158 -2.82646,-1.34171 -3.06263,0.0372 -3.74236,0.65975 -7.75188,7.0995 -9.83821,15.80126 -23.31541,26.45276 -31.75068,25.09366 z m 21.02368,-17.48397 c 2.88623,-2.8875 6.53083,-7.44073 8.09912,-10.11828 2.6711,-4.56037 2.73752,-4.93204 1.05015,-5.87634 -0.99071,-0.55442 -3.49227,-2.53574 -5.55901,-4.40292 l -3.75772,-3.39488 -4.56043,7.12799 c -5.24644,8.20025 -8.11525,15.92548 -7.22751,19.46252 0.48472,1.93125 1.26224,2.45191 3.66156,2.45191 2.3417,0 4.25976,-1.21413 8.29384,-5.25 z m 64.78288,1.5 c 5.58986,-5.87682 23.83901,-35.03741 23.83901,-38.09271 0,-0.63651 -1.03615,-1.15729 -2.30256,-1.15729 -4.66959,0 -17.94991,15.52599 -25.23446,29.50153 -6.11257,11.72709 -3.85205,17.68613 3.69801,9.74847 z m -47.17386,-34.39301 c 0.0142,-5.1062 -1.38805,-6.42534 -5.24581,-4.93504 -8.67753,3.35224 -9.46798,14.87621 -1.24132,18.09716 1.68902,0.66129 2.34785,0.0598 4.23713,-3.86803 1.31568,-2.73535 2.24244,-6.56349 2.25,-9.29409 z m 70.51324,47.78391 c -1.77005,-2.70143 -1.13836,-5.22909 1.68434,-6.73975 4.2506,-2.27485 9.04494,4.4692 5.61529,7.89885 -1.96655,1.96655 -5.63311,1.38434 -7.29963,-1.1591 z m 4.86126,-0.1409 c -0.70033,-1.82502 -2.0147,-1.94675 -2.69935,-0.25 -0.27741,0.6875 -0.53991,0.0125 -0.58333,-1.5 -0.0662,-2.30641 0.33518,-2.75 2.48844,-2.75 2.11231,0 2.45487,0.3545 1.93261,2 -0.3807,1.19947 -0.1797,2 0.50216,2 0.62532,0 0.99314,-1.0125 0.81739,-2.25 -0.24992,-1.7597 -0.97029,-2.25 -3.30585,-2.25 -2.0858,0 -3.09133,0.54532 -3.33458,1.80841 -0.5412,2.81025 0.56481,4.69159 2.75811,4.69159 1.36694,0 1.8178,-0.4748 1.4244,-1.5 z M 92.226042,271.49657 c -12.461365,-12.46137 15.148038,-55.99132 37.811798,-59.6154 3.45637,-0.5527 4.38165,-0.28206 6.59176,1.92805 2.08621,2.08621 2.571,3.52844 2.571,7.64857 0,2.79267 -0.68091,6.70722 -1.51312,8.699 -0.83222,1.99178 -1.26446,3.87009 -0.96053,4.17402 1.10945,1.10945 7.59573,-3.31432 16.13217,-11.00244 4.80738,-4.32965 10.59294,-8.76874 12.85681,-9.86466 8.75798,-4.23967 16.48467,-1.33649 16.48467,6.19385 0,7.63064 -6.97457,16.08619 -11.28089,13.67625 -3.63,-2.03145 -0.25349,-10.00978 4.76981,-11.27054 2.55681,-0.64172 3.36816,-2.9444 1.45424,-4.12727 -5.26504,-3.25397 -20.33252,12.78842 -27.56079,29.34407 -3.86931,8.86229 -4.18976,12.38367 -1.38237,15.19106 2.38482,2.38482 3.02842,2.43279 7.51095,0.55987 5.22992,-2.1852 12.59182,-9.62412 22.74432,-22.98226 18.44611,-24.27046 30.41849,-32.69698 38.45658,-27.06689 1.36525,0.95626 2.38612,1.13977 2.78152,0.5 0.74434,-1.20436 12.82236,-1.38169 12.33996,-0.18117 -0.18333,0.45625 -6.07083,10.50603 -13.08333,22.33286 -14.82439,25.00184 -15.92889,28.39886 -7.15004,21.99078 2.14502,-1.56575 6.10784,-5.61575 8.80625,-9 2.82163,-3.53878 5.68962,-6.15319 6.75,-6.15319 2.4939,0 2.35586,0.54774 -1.34981,5.3561 -7.01476,9.1021 -14.11022,16.69659 -18.85058,20.17633 -8.33682,6.11979 -15.95582,5.56017 -15.95582,-1.17195 l 0,-2.49667 -3.08788,2.3181 c -6.47001,4.85707 -8.53703,5.80772 -12.63907,5.81282 -5.55914,0.007 -7.75997,-2.98248 -7.02118,-9.53693 0.57348,-5.08789 0.73278,-5.12696 -6.90246,1.69282 -9.35397,8.35496 -20.46304,10.90382 -25.77806,5.91451 -5.54136,-5.20177 -5.20942,-14.95224 0.92087,-27.04978 2.53581,-5.00417 2.22971,-5.76183 -1.69481,-4.19506 -0.93642,0.37384 -4.41228,4.79392 -7.72413,9.8224 -12.14377,18.43825 -28.528487,28.9021 -35.047838,22.38275 z m 21.209698,-12.77544 c 3.91676,-2.99913 6.71344,-6.23971 11.59047,-13.43018 3.80364,-5.60791 3.89314,-6.42261 0.79111,-7.20117 -1.3108,-0.32899 -3.82928,-1.94893 -5.59662,-3.59987 l -3.21334,-3.00171 -1.8657,2.24147 c -1.02613,1.2328 -3.72493,5.8741 -5.99733,10.31399 -4.37138,8.54098 -5.47828,14.84448 -2.89382,16.47947 2.25172,1.42451 3.32208,1.15607 7.18523,-1.802 z m 78.56248,-2.02815 c 4.19278,-4.26034 22.53873,-33.45781 23.37307,-37.19811 0.57174,-2.56305 -3.71077,-2.28162 -6.96639,0.45781 -8.34404,7.02104 -24.2043,31.54402 -24.2043,37.42445 0,5.56697 1.80115,5.40894 7.79762,-0.68415 z m -57.29015,-31.39699 c 0.76274,-4.35928 -0.79087,-7.82486 -3.50786,-7.82486 -1.06151,0 -3.52067,1.39662 -5.46481,3.10359 -5.77389,5.06954 -4.38926,12.13551 2.73748,13.96978 1.75156,0.45081 2.58728,-0.0835 3.90994,-2.5 0.92522,-1.69035 1.97158,-4.72718 2.32525,-6.74851 z m 100.49253,-2.25993 c 0,-0.29419 1.3886,-2.79165 3.08577,-5.54991 l 3.08578,-5.01502 5.94354,0 5.94353,0 -3.34867,5.25 c -3.33553,5.22939 -3.37097,5.25118 -9.02931,5.5499 -3.12435,0.16495 -5.68064,0.0592 -5.68064,-0.23497 z m 155.02504,-11.31493 c 0.0138,-0.4125 1.55466,-2.76799 3.42419,-5.23443 3.2931,-4.34452 3.64265,-4.52208 11.20402,-5.69119 9.91139,-1.53246 23.58965,-8.17247 31.59675,-15.33841 3.1625,-2.83027 5.75,-4.82959 5.75,-4.44295 0,0.38665 -2.0072,3.51584 -4.46045,6.95376 -7.33821,10.28358 -19.1993,19.07908 -30.39489,22.53909 -6.22178,1.92286 -17.16921,2.69925 -17.11962,1.21413 z"
     id="path3357"
     inkscape:connector-curvature="0" />
</svg>
