<?xml version="1.0" encoding="UTF-8" standalone="no"?>
<!-- Created with Inkscape (http://www.inkscape.org/) -->

<svg
   xmlns:dc="http://purl.org/dc/elements/1.1/"
   xmlns:cc="http://creativecommons.org/ns#"
   xmlns:rdf="http://www.w3.org/1999/02/22-rdf-syntax-ns#"
   xmlns:svg="http://www.w3.org/2000/svg"
   xmlns="http://www.w3.org/2000/svg"
   xmlns:sodipodi="http://sodipodi.sourceforge.net/DTD/sodipodi-0.dtd"
   xmlns:inkscape="http://www.inkscape.org/namespaces/inkscape"
   id="svg2"
   version="1.1"
   inkscape:version="0.91 r13725"
   width="500"
   height="500"
   viewBox="0 0 500 500"
   sodipodi:docname="ford.svg">
  <metadata
     id="metadata8">
    <rdf:RDF>
      <cc:Work
         rdf:about="">
        <dc:format>image/svg+xml</dc:format>
        <dc:type
           rdf:resource="http://purl.org/dc/dcmitype/StillImage" />
        <dc:title></dc:title>
      </cc:Work>
    </rdf:RDF>
  </metadata>
  <defs
     id="defs6" />
  <sodipodi:namedview
     pagecolor="#ffffff"
     bordercolor="#666666"
     borderopacity="1"
     objecttolerance="10"
     gridtolerance="10"
     guidetolerance="10"
     inkscape:pageopacity="0"
     inkscape:pageshadow="2"
     inkscape:window-width="1002"
     inkscape:window-height="771"
     id="namedview4"
     showgrid="false"
     inkscape:zoom="0.67487179"
     inkscape:cx="478.82249"
     inkscape:cy="270.962"
     inkscape:window-x="112"
     inkscape:window-y="74"
     inkscape:window-maximized="0"
     inkscape:current-layer="svg2" />
  <path
     style="fill:#000000"
     d="m 218.43657,331.33488 c -47.2649,-4.51834 -86.6021,-17.39831 -113.26058,-37.08432 -34.117409,-25.19407 -41.92345,-56.67652 -21.270661,-85.78639 3.008329,-4.2402 7.347821,-9.48751 9.643319,-11.66068 26.452162,-25.0426 70.407322,-41.26518 125.198222,-46.20705 15.14553,-1.36606 53.69997,-0.57979 67.43097,1.37516 42.62182,6.06829 77.40243,18.6169 100.80927,36.37133 29.59858,22.45095 38.80151,50.16726 25.41938,76.55515 -12.18633,24.02991 -44.3635,45.18296 -86.69214,56.99081 -11.83271,3.30081 -24.04488,5.70967 -41.46281,8.17855 -11.78691,1.67072 -53.24474,2.46911 -65.81497,1.26744 z m 55.54142,-2.75457 c 10.80853,-0.98381 23.58704,-2.85335 33.7101,-4.93191 9.04641,-1.85748 21.55226,-5.17011 21.23001,-5.62354 -0.14892,-0.20956 -4.40872,0.66498 -9.4662,1.94342 -35.93113,9.08274 -82.4279,11.18952 -120.27825,5.44982 -70.42018,-10.67866 -118.757567,-41.64435 -123.636113,-79.20324 -1.080984,-8.32229 1.154671,-20.24391 5.176575,-27.60404 3.28183,-6.00578 9.771886,-14.3302 15.081879,-19.34463 6.027609,-5.6921 19.573679,-15.30594 26.501889,-18.80876 2.21567,-1.12022 3.88827,-2.23405 3.71689,-2.47519 -0.47401,-0.66698 -10.10173,4.91823 -18.01893,10.4531 -15.627842,10.92533 -26.239154,23.55118 -30.867032,36.72709 -2.431526,6.92273 -2.52203,7.50799 -2.52203,16.30908 0,8.79082 0.09273,9.39266 2.505425,16.2618 16.755343,47.7037 104.441457,79.25971 196.865787,70.847 z m -8.66832,-8.9747 c 21.61765,-1.41402 40.4026,-4.34515 57.92333,-9.03811 43.71581,-11.70933 73.36022,-31.53538 82.37493,-55.09195 2.14049,-5.59336 2.24731,-6.30217 2.24685,-14.90754 -4.5e-4,-8.10679 -0.1816,-9.51848 -1.7634,-13.74168 -2.22168,-5.93163 -8.55875,-15.51636 -13.61607,-20.59416 -38.09277,-38.24694 -129.63632,-55.39897 -209.35409,-39.22557 -51.15862,10.37923 -89.198993,33.75821 -98.141033,60.31585 -1.779129,5.28397 -2.026144,6.95386 -2.026144,13.69731 0,6.61221 0.254091,8.40782 1.827942,12.91781 2.094348,6.0015 7.380022,14.40023 12.578396,19.9866 29.003439,31.16817 98.954249,50.19447 167.949289,45.68144 z m -47.83624,-6.40652 c -68.0302,-5.82617 -121.028509,-32.42117 -128.4192,-64.44184 -6.21954,-26.94663 20.5743,-53.56505 69.0252,-68.57331 78.91181,-24.44389 186.57514,-11.11215 228.43916,28.28718 17.94125,16.88498 21.20865,36.3471 9.1008,54.20857 -17.82718,26.29863 -65.68402,45.85467 -123.79945,50.58894 -13.08506,1.06595 -41.51248,1.02958 -54.34651,-0.0696 z m 105.1625,-22.47477 c 1.51138,-0.96524 4.43335,-3.5798 6.49325,-5.81013 3.65279,-3.95502 12.26902,-16.35932 12.26902,-17.66302 0,-0.35941 -0.57352,-1.38381 -1.2745,-2.27643 -1.2453,-1.58578 -1.42624,-1.41729 -7.90005,7.35653 -6.92275,9.38228 -9.61816,11.74149 -12.32324,10.78616 -3.4501,-1.21843 -2.24708,-4.52943 16.44863,-45.27051 5.47013,-11.92031 10.16126,-22.1815 10.42476,-22.80266 0.36704,-0.86528 -0.71361,-1.12937 -4.6215,-1.12937 l -5.10057,0 -8.21174,17.71629 -8.21175,17.71628 -1.01225,-3.00227 c -1.51361,-4.48929 -4.7167,-7.13152 -8.65184,-7.1369 -6.3964,-0.009 -8.7381,1.92707 -23.27527,19.24075 -6.38413,7.60346 -11.53825,9.226 -14.11972,4.44497 -1.62989,-3.01867 -0.54218,-10.76063 1.91461,-13.62754 0.93837,-1.09502 1.06261,-0.98648 1.06261,0.92833 0,5.31101 4.04034,8.39931 7.59997,5.80918 1.26352,-0.91939 2.27917,-2.73572 2.986,-5.33996 0.97472,-3.59131 0.98205,-4.24673 0.0814,-7.27972 -2.30891,-7.77566 -11.02368,-7.11683 -16.00301,1.20982 -0.90451,1.51256 -1.77552,2.75011 -1.9356,2.75011 -0.16007,0 -0.49107,-1.52465 -0.73555,-3.38811 -0.67671,-5.15806 -2.55002,-7.45552 -6.07078,-7.44536 -3.95431,0.0114 -8.26403,3.60162 -13.42549,11.18407 -2.23656,3.28562 -4.18693,5.97386 -4.33415,5.97386 -0.14723,0 -0.26769,-1.0709 -0.26769,-2.37978 0,-3.70539 -1.35672,-9.17796 -2.69914,-10.8874 -1.15089,-1.46556 -1.33092,-1.46518 -3.27354,0.007 l -2.05568,1.55774 0.001,10.59462 c 0.001,10.03398 -0.0988,10.84821 -1.88546,15.38636 -6.20755,15.76613 -17.69765,16.90556 -17.69765,1.75466 0,-8.29043 5.28958,-18.01729 12.50641,-22.99768 3.67832,-2.53843 4.23603,-4.01152 2.66402,-7.03656 -0.80905,-1.55688 -1.17575,-1.60476 -4.43358,-0.57888 -9.4688,2.98168 -16.76971,12.38127 -20.74123,26.70339 -0.70767,2.552 -2.84114,6.88783 -5.01117,10.18413 -3.67823,5.58732 -3.74823,5.78771 -2.62939,7.52732 1.61272,2.50751 2.29718,2.28104 5.64752,-1.86862 l 2.95162,-3.65582 1.27459,3.51549 c 1.90352,5.25018 5.26426,8.98388 8.74823,9.71902 8.83411,1.86406 14.98905,-3.48538 24.53125,-21.32085 7.54992,-14.11168 15.24722,-23.61846 17.94403,-22.16232 2.02389,1.09282 0.68899,5.84386 -5.98394,21.29738 -3.75506,8.69614 -7.39337,17.13253 -8.08515,18.74753 l -1.25778,2.93636 4.71863,-0.009 4.71863,-0.008 6.42097,-13.99216 c 3.53154,-7.69569 6.60076,-13.99371 6.82048,-13.9956 0.21973,-0.002 0.57545,1.54476 0.79049,3.43702 0.967,8.50915 8.23904,11.18632 15.05966,5.54413 1.16794,-0.96614 2.25148,-1.75663 2.40787,-1.75663 0.15639,0 0.2848,2.54108 0.28534,5.64685 10e-4,6.79742 1.36584,11.10762 4.42812,13.98617 4.05949,3.81594 10.91516,2.22726 15.88964,-3.68215 2.42868,-2.88513 3.43885,-3.03845 3.43885,-0.52195 0,1.03207 0.8446,3.06494 1.8769,4.51748 1.56224,2.19823 2.3965,2.63766 4.97625,2.62115 1.70464,-0.0109 4.33594,-0.80959 5.84734,-1.77484 z m -25.54244,-10.85426 c -3.88318,-5.46402 1.68468,-22.9182 9.54974,-29.93663 3.30848,-2.95236 4.94258,-3.21235 7.06188,-1.12363 1.2849,1.26636 1.43256,1.97252 1.08626,5.1951 -0.22044,2.05124 -0.46412,4.94924 -0.54154,6.44001 -0.40419,7.78302 -9.83496,21.23214 -14.88838,21.23214 -0.54107,0 -1.56165,-0.81314 -2.26796,-1.80699 z m -128.34935,9.91974 c 11.34192,-3.0266 21.50714,-16.78513 34.87954,-47.2091 3.36269,-7.65058 5.52334,-11.6767 6.41097,-11.94613 0.73637,-0.22352 4.37276,-0.81439 8.08087,-1.31305 6.28177,-0.84475 6.85161,-0.7852 8.34727,0.87233 0.88288,0.97844 2.37078,2.38082 3.30642,3.11642 1.47938,1.16306 1.80124,1.16778 2.46865,0.0362 0.61955,-1.05041 0.42156,-1.7199 -1.0272,-3.47338 l -1.79468,-2.17217 2.08334,-1.51591 c 5.99695,-4.36362 6.10312,-17.08878 0.14258,-17.08878 -3.74362,0 -6.85808,4.56191 -7.2991,10.69136 -0.25731,3.57597 -0.29311,3.62028 -3.40418,4.21245 -5.48106,1.04329 -8.60197,0.87646 -8.60197,-0.45981 0,-1.9323 6.98946,-13.11225 11.55775,-18.48713 2.2955,-2.70079 5.16683,-6.11353 6.38075,-7.58385 l 2.20711,-2.67333 12.24008,4.52867 c 16.67411,6.1692 18.88404,6.72482 27.00831,6.79041 5.05245,0.0408 8.15977,-0.4068 10.91565,-1.57234 7.90776,-3.34439 13.16299,-8.97027 13.16299,-14.09134 0,-3.4059 -1.0796,-3.79821 -6.23787,-2.26671 -14.12914,4.19495 -27.90321,3.62247 -54.25915,-2.25515 -26.10849,-5.82243 -38.35108,-6.3751 -48.62594,-2.19513 -12.32976,5.01593 -20.74702,17.03236 -20.82441,29.72879 -0.14359,23.55593 21.44181,22.69011 30.04723,-1.20524 3.19337,-8.8673 1.6525,-11.66046 -2.63132,-4.7698 -3.75422,6.03874 -7.83794,9.39535 -11.56353,9.50463 -2.42441,0.0711 -3.13203,-0.33233 -4.4962,-2.56346 -1.33132,-2.17739 -1.55798,-3.28757 -1.27575,-6.2484 1.14281,-11.98893 11.99961,-20.05565 26.76284,-19.8851 5.66113,0.0654 20.54681,2.85076 23.69249,4.43327 0.5534,0.2784 -0.49978,1.63616 -2.74432,3.53799 -5.451,4.61869 -11.10764,12.11504 -16.13244,21.3792 l -4.49468,8.28678 -5.57697,1.58215 c -3.06733,0.87018 -7.10976,2.74004 -8.98318,4.15526 -5.96928,4.5093 -4.39164,8.76989 1.65371,4.46603 3.67843,-2.61877 8.09071,-4.03632 8.09071,-2.59932 0,2.05178 -8.43923,16.7716 -14.74882,25.72509 -7.9756,11.31761 -12.69783,15.18493 -18.5432,15.18615 -5.85776,9e-4 -9.06227,-3.14177 -10.42252,-10.22242 -1.2421,-6.46564 1.66152,-14.09094 7.2156,-18.94909 3.46265,-3.02879 4.01486,-5.52264 1.56996,-7.09011 -4.64169,-2.97587 -15.06025,8.11838 -17.34907,18.47425 -2.32723,10.52969 -0.31099,22.04957 4.89733,27.98113 4.63043,5.27341 10.79983,7.04618 17.91435,5.14766 z m 59.25924,-70.67667 c 0.78104,-5.49502 4.88038,-8.33287 4.88038,-3.37853 0,2.24903 -2.71934,6.31175 -4.22471,6.31175 -0.86742,0 -0.99284,-0.56109 -0.65567,-2.93322 z m 105.68965,97.80025 c 1.27109,-0.57279 1.33792,-0.72338 0.32105,-0.72338 -0.7063,0 -2.00655,0.32552 -2.88943,0.72338 -1.27109,0.57278 -1.33792,0.72337 -0.32105,0.72337 0.7063,0 2.00655,-0.32552 2.88943,-0.72337 z m 3.33088,-1.52069 c -0.46351,-0.26099 -1.01732,-0.2289 -1.23068,0.0713 -0.21337,0.30023 0.16588,0.51376 0.84275,0.47453 0.74801,-0.0434 0.90015,-0.25744 0.38793,-0.54585 z m 2.56839,-0.90349 c -0.46351,-0.261 -1.01732,-0.2289 -1.23069,0.0713 -0.21336,0.30023 0.16588,0.51377 0.84276,0.47454 0.74801,-0.0434 0.90015,-0.25744 0.38793,-0.54586 z m 2.56839,-0.9035 c -0.46351,-0.26099 -1.01732,-0.2289 -1.23069,0.0713 -0.21336,0.30023 0.16588,0.51376 0.84276,0.47453 0.74801,-0.0434 0.90015,-0.25744 0.38793,-0.54585 z m 2.56839,-0.90349 c -0.46351,-0.261 -1.01732,-0.2289 -1.23069,0.0713 -0.21336,0.30023 0.16588,0.51377 0.84276,0.47454 0.74801,-0.0434 0.90015,-0.25745 0.38793,-0.54586 z m 4.49468,-1.80699 c -0.46351,-0.261 -1.01732,-0.2289 -1.23069,0.0713 -0.21336,0.30023 0.16588,0.51377 0.84276,0.47454 0.74801,-0.0434 0.90015,-0.25745 0.38793,-0.54586 z m 2.56839,-0.9035 c -0.46351,-0.26099 -1.01732,-0.2289 -1.23069,0.0713 -0.21336,0.30023 0.16588,0.51376 0.84276,0.47453 0.74801,-0.0434 0.90015,-0.25744 0.38793,-0.54586 z m 22.99511,-11.12825 c 0.52973,-0.48171 0.6742,-0.87583 0.32105,-0.87583 -0.35315,0 -1.07551,0.39412 -1.60524,0.87583 -0.52973,0.4817 -0.67421,0.87582 -0.32105,0.87582 0.35315,0 1.07551,-0.39412 1.60524,-0.87582 z m 8.36558,-5.43399 c 2.10884,-1.49791 3.83427,-2.92677 3.83427,-3.17523 0,-0.40466 -7.63962,4.71135 -8.29376,5.55406 -0.79443,1.02346 1.06901,0.0295 4.45949,-2.37883 z m 23.1525,-22.70267 c 3.60273,-5.03261 5.57193,-8.70682 7.26347,-13.55243 4.38673,-12.56631 4.39196,-21.49463 0.0199,-34.01951 -7.13912,-20.45201 -31.07004,-40.44312 -63.84324,-53.33259 -64.7657,-25.47188 -154.45154,-23.66764 -216.60553,4.35754 -3.47527,1.567 -6.1954,3.02253 -6.04476,3.23451 0.15066,0.21198 1.98276,-0.44601 4.07133,-1.46222 6.31046,-3.07037 22.48831,-8.92952 32.37074,-11.72374 26.06208,-7.36894 52.32539,-10.82891 82.1775,-10.82617 82.55181,0.008 152.71217,30.18023 167.39721,71.98964 2.30274,6.55607 2.44682,7.45778 2.42064,15.14931 -0.0213,6.25878 -0.36007,9.34465 -1.44334,13.14754 -2.02798,7.11935 -7.08933,16.11633 -12.48561,22.19424 -6.10794,6.87947 -7.34965,8.63274 -3.4157,4.82288 1.74604,-1.69096 5.39886,-6.18152 8.11739,-9.979 z"
     id="path3357"
     inkscape:connector-curvature="0" />
</svg>
