<?xml version="1.0" encoding="UTF-8" standalone="no"?>
<!-- Created with Inkscape (http://www.inkscape.org/) -->

<svg
   xmlns:dc="http://purl.org/dc/elements/1.1/"
   xmlns:cc="http://creativecommons.org/ns#"
   xmlns:rdf="http://www.w3.org/1999/02/22-rdf-syntax-ns#"
   xmlns:svg="http://www.w3.org/2000/svg"
   xmlns="http://www.w3.org/2000/svg"
   xmlns:sodipodi="http://sodipodi.sourceforge.net/DTD/sodipodi-0.dtd"
   xmlns:inkscape="http://www.inkscape.org/namespaces/inkscape"
   id="svg2"
   version="1.1"
   inkscape:version="0.91 r13725"
   width="500"
   height="500"
   viewBox="0 0 500 500"
   sodipodi:docname="ge.svg">
  <metadata
     id="metadata8">
    <rdf:RDF>
      <cc:Work
         rdf:about="">
        <dc:format>image/svg+xml</dc:format>
        <dc:type
           rdf:resource="http://purl.org/dc/dcmitype/StillImage" />
        <dc:title></dc:title>
      </cc:Work>
    </rdf:RDF>
  </metadata>
  <defs
     id="defs6" />
  <sodipodi:namedview
     pagecolor="#ffffff"
     bordercolor="#666666"
     borderopacity="1"
     objecttolerance="10"
     gridtolerance="10"
     guidetolerance="10"
     inkscape:pageopacity="0"
     inkscape:pageshadow="2"
     inkscape:window-width="820"
     inkscape:window-height="724"
     id="namedview4"
     showgrid="false"
     inkscape:zoom="0.87407407"
     inkscape:cx="320.67989"
     inkscape:cy="265.25435"
     inkscape:window-x="209"
     inkscape:window-y="70"
     inkscape:window-maximized="0"
     inkscape:current-layer="svg2" />
  <path
     style="fill:#000000"
     d="m 243.94107,354.08544 c -3.80089,-0.15967 -7.34408,-0.47067 -10.03999,-0.88126 -0.81669,-0.12438 -2.10538,-0.30638 -2.86374,-0.40444 -3.26312,-0.42191 -4.58707,-0.64144 -4.98504,-0.82661 -0.23334,-0.10858 -0.80609,-0.244 -1.27277,-0.30091 -0.46669,-0.0569 -1.469,-0.26027 -2.22736,-0.45186 -0.75836,-0.19158 -1.76067,-0.41928 -2.22736,-0.50601 -0.79576,-0.14791 -1.67991,-0.39969 -3.18194,-0.90611 -0.35001,-0.11802 -0.97049,-0.29416 -1.37884,-0.39141 -1.68055,-0.40023 -3.07772,-0.84284 -4.40887,-1.39669 -0.38314,-0.15942 -0.87867,-0.28984 -1.10116,-0.28984 -0.2225,0 -0.46354,-0.0953 -0.53565,-0.21165 -0.0721,-0.11641 -0.34587,-0.21166 -0.60836,-0.21166 -0.2625,0 -0.66256,-0.13984 -0.88903,-0.31075 -0.22648,-0.1709 -0.58012,-0.31377 -0.78588,-0.31747 -0.20575,-0.004 -0.53986,-0.0974 -0.74245,-0.20814 -0.20259,-0.11076 -0.75018,-0.35469 -1.21686,-0.54207 -0.46669,-0.18737 -1.11877,-0.47772 -1.44907,-0.64522 -0.3303,-0.16748 -0.72718,-0.30453 -0.88197,-0.30453 -0.15478,0 -0.74366,-0.22481 -1.30862,-0.49958 -0.89387,-0.43473 -3.12727,-1.49181 -5.58797,-2.64479 -0.40834,-0.19135 -1.09852,-0.56219 -1.53372,-0.82411 -0.4352,-0.26192 -0.93635,-0.47622 -1.11368,-0.47622 -0.17732,0 -0.3224,-0.0849 -0.3224,-0.18871 0,-0.10379 -0.23865,-0.24846 -0.53033,-0.3215 -0.29168,-0.073 -0.53032,-0.22623 -0.53032,-0.34044 0,-0.11419 -0.19092,-0.20761 -0.42426,-0.20761 -0.23334,0 -0.42426,-0.0888 -0.42426,-0.19739 0,-0.10856 -0.20374,-0.26192 -0.45276,-0.34078 -0.24903,-0.0788 -1.51385,-0.80369 -2.81072,-1.61074 -1.29687,-0.80707 -2.54886,-1.5821 -2.7822,-1.72232 -0.23334,-0.14022 -0.72813,-0.46947 -1.09953,-0.73169 -0.37139,-0.26221 -0.7542,-0.47674 -0.85068,-0.47674 -0.0965,0 -0.43279,-0.23811 -0.74735,-0.52913 -0.31456,-0.29103 -0.62474,-0.52914 -0.6893,-0.52914 -0.096,0 -2.83595,-1.96242 -3.61341,-2.58802 -0.11667,-0.0939 -0.56259,-0.43099 -0.99093,-0.74912 -1.76474,-1.3107 -3.25814,-2.46194 -3.35771,-2.58845 -0.0583,-0.0741 -1.10812,-0.97834 -2.33284,-2.00943 -3.24594,-2.73267 -9.53332,-9.07475 -12.38174,-12.48945 -1.35946,-1.62972 -2.80498,-3.36028 -3.21227,-3.84568 -0.40729,-0.4854 -0.74053,-0.97749 -0.74053,-1.09354 0,-0.11604 -0.0796,-0.24274 -0.17685,-0.28154 -0.23259,-0.0928 -2.58083,-3.27808 -2.58083,-3.5008 0,-0.0947 -0.23864,-0.42896 -0.53032,-0.74281 -0.29168,-0.31386 -0.53032,-0.61431 -0.53032,-0.66768 0,-0.0534 -0.50116,-0.8444 -1.11368,-1.75785 -0.61252,-0.91345 -1.30244,-2.01687 -1.53314,-2.45204 -0.23071,-0.43517 -0.48209,-0.79121 -0.55862,-0.79121 -0.0765,0 -0.1971,-0.16668 -0.26793,-0.3704 -0.0708,-0.20371 -0.41877,-0.84661 -0.7732,-1.42865 -0.35443,-0.58204 -0.74046,-1.24875 -0.85786,-1.48157 -0.11739,-0.23282 -0.49358,-0.89952 -0.83599,-1.48157 -0.3424,-0.58204 -0.6801,-1.20112 -0.75044,-1.37574 -0.0703,-0.17461 -0.21008,-0.46034 -0.31053,-0.63496 -0.67248,-1.16894 -2.12469,-4.17359 -2.12265,-4.39179 0.001,-0.14551 -0.093,-0.26456 -0.20965,-0.26456 -0.11667,0 -0.21213,-0.15198 -0.21213,-0.33774 0,-0.18575 -0.13464,-0.59054 -0.2992,-0.89952 -0.47939,-0.90013 -0.97357,-2.08786 -0.97357,-2.33991 0,-0.12792 -0.0955,-0.23258 -0.21213,-0.23258 -0.11667,0 -0.21213,-0.22644 -0.21213,-0.50321 0,-0.27677 -0.14319,-0.62179 -0.3182,-0.7667 -0.175,-0.14492 -0.31819,-0.42768 -0.31819,-0.62836 0,-0.33386 -0.3631,-1.2491 -0.86216,-2.17317 -0.10917,-0.20213 -0.19849,-0.59526 -0.19849,-0.87361 0,-0.27834 -0.14318,-0.62465 -0.31819,-0.76957 -0.17501,-0.14491 -0.31819,-0.53193 -0.31819,-0.86003 0,-0.3281 -0.0955,-0.65542 -0.21213,-0.72736 -0.11667,-0.072 -0.21272,-0.29186 -0.21344,-0.48871 -6.4e-4,-0.19685 -0.14391,-0.63071 -0.31819,-0.96414 -0.17429,-0.33343 -0.31993,-0.80965 -0.32364,-1.05826 -0.004,-0.24862 -0.1469,-0.63691 -0.31819,-0.86287 -0.1713,-0.22597 -0.31145,-0.63204 -0.31145,-0.9024 0,-0.27035 -0.0899,-0.65693 -0.19969,-0.85907 -0.10983,-0.20213 -0.33801,-0.89136 -0.50706,-1.53161 -0.92327,-3.49664 -1.05568,-4.05977 -1.41377,-6.01263 -0.12612,-0.68775 -0.29434,-1.35445 -0.37384,-1.48157 -0.0795,-0.12711 -0.21618,-0.70733 -0.30372,-1.28938 -0.0875,-0.58204 -0.30714,-1.86783 -0.48798,-2.85731 -0.18083,-0.98947 -0.42277,-2.60271 -0.53763,-3.58496 -0.11486,-0.98226 -0.3033,-2.12518 -0.41875,-2.53983 -0.11545,-0.41465 -0.21044,-1.56411 -0.21109,-2.55436 -6.3e-4,-0.99024 -0.0982,-2.13316 -0.21686,-2.53983 -0.21201,-0.72683 -0.30152,-15.60585 -0.10312,-17.14246 0.0526,-0.40743 0.18047,-1.94307 0.28415,-3.41253 0.10368,-1.46946 0.25351,-2.77668 0.33296,-2.90494 0.0794,-0.12826 0.23254,-1.02134 0.3402,-1.98461 0.37136,-3.32257 0.60642,-4.79629 0.83211,-5.21705 0.12453,-0.23216 0.22641,-0.79771 0.22641,-1.25678 0,-0.45908 0.14319,-1.1766 0.3182,-1.59451 0.175,-0.41791 0.31819,-1.01806 0.31819,-1.33365 0,-0.57786 0.0952,-0.9696 0.71976,-2.96046 0.18749,-0.59767 0.34089,-1.27729 0.34089,-1.51029 0,-0.23299 0.1426,-0.69642 0.31688,-1.02985 0.17429,-0.33343 0.31748,-0.76844 0.3182,-0.96667 6.3e-4,-0.19824 0.0844,-0.57922 0.18598,-0.84661 0.10156,-0.2674 0.35279,-1.05764 0.55826,-1.7561 0.20548,-0.69845 0.50421,-1.57004 0.66385,-1.93686 0.15964,-0.36681 0.29025,-0.82051 0.29025,-1.00822 0,-0.1877 0.0838,-0.50666 0.18623,-0.70879 0.44147,-0.87123 0.87441,-1.99141 0.87441,-2.26243 0,-0.16123 0.13436,-0.56278 0.29858,-0.89234 0.16421,-0.32956 0.41169,-0.88493 0.54994,-1.23415 0.13826,-0.34923 0.38573,-0.9046 0.54995,-1.23416 0.16421,-0.32955 0.29857,-0.78196 0.29857,-1.00535 0,-0.22338 0.0955,-0.40615 0.21213,-0.40615 0.11667,0 0.21213,-0.15198 0.21213,-0.33773 0,-0.29888 0.31636,-1.01444 0.88,-1.99045 0.10084,-0.17461 0.2389,-0.46034 0.3068,-0.63495 0.19897,-0.51164 1.16418,-2.60824 1.41286,-3.06897 0.12567,-0.23281 0.55159,-1.04239 0.94648,-1.79904 0.3949,-0.75666 0.79504,-1.51861 0.88921,-1.69322 0.0942,-0.17462 0.3448,-0.65084 0.55696,-1.05827 0.66012,-1.26771 0.8376,-1.58387 0.95052,-1.69322 0.0601,-0.0582 0.29875,-0.50952 0.53032,-1.00292 0.23158,-0.4934 0.483,-0.89819 0.55872,-0.89952 0.0757,-0.001 0.34868,-0.40722 0.60656,-0.90195 0.25789,-0.49474 0.53095,-0.94715 0.60681,-1.00535 0.0759,-0.0582 0.32577,-0.46299 0.55536,-0.89953 0.22958,-0.43653 0.49118,-0.79369 0.58132,-0.79369 0.0901,0 0.16389,-0.10535 0.16389,-0.23411 0,-0.12876 0.28638,-0.59487 0.63639,-1.03581 0.35001,-0.44093 0.63639,-0.89314 0.63639,-1.0049 0,-0.11176 0.23864,-0.46013 0.53032,-0.77414 0.29168,-0.31402 0.53032,-0.61873 0.53032,-0.67713 0,-0.12435 2.33662,-3.31413 2.54195,-3.4701 0.0766,-0.0582 0.55554,-0.67729 1.06425,-1.37574 0.50871,-0.69845 0.98907,-1.31754 1.06748,-1.37574 0.0784,-0.0582 0.60299,-0.67729 1.16572,-1.37574 0.56274,-0.69846 1.2212,-1.46254 1.46324,-1.69797 0.24204,-0.23543 0.82191,-0.89967 1.2886,-1.47608 1.1656,-1.43967 9.23394,-9.41928 9.52401,-9.41928 0.0315,0 0.47886,-0.39343 0.99412,-0.87428 0.51526,-0.48086 1.31868,-1.15439 1.78536,-1.49673 0.46669,-0.34235 1.18262,-0.92686 1.59097,-1.29892 1.05903,-0.96492 7.16072,-5.43113 7.41995,-5.43113 0.11919,0 0.2167,-0.0952 0.2167,-0.21165 0,-0.11641 0.14319,-0.21166 0.3182,-0.21166 0.175,0 0.31819,-0.0908 0.31819,-0.20172 0,-0.11095 0.32971,-0.35783 0.7327,-0.54863 0.40298,-0.19079 0.84423,-0.48099 0.98055,-0.64488 0.13633,-0.16389 0.338,-0.29799 0.44817,-0.29799 0.11017,0 0.50418,-0.21453 0.87558,-0.47675 0.86084,-0.60777 1.30984,-0.87762 2.42533,-1.45766 0.49585,-0.25784 0.90155,-0.54716 0.90155,-0.64293 0,-0.0958 0.18528,-0.17414 0.41174,-0.17414 0.22645,0 0.467,-0.0892 0.53454,-0.19825 0.0675,-0.10904 0.38341,-0.32946 0.70194,-0.48984 0.31852,-0.16037 1.15188,-0.61152 1.85191,-1.00255 1.72432,-0.96318 4.75069,-2.43136 8.16698,-3.962 0.64169,-0.28751 1.43695,-0.65718 1.76725,-0.82149 0.3303,-0.16431 0.71214,-0.29962 0.84852,-0.30069 0.13638,-0.001 0.72526,-0.23619 1.30862,-0.52251 0.58335,-0.28632 1.26374,-0.52355 1.51196,-0.5272 0.24822,-0.004 0.57015,-0.14948 0.71539,-0.32409 0.14525,-0.17462 0.4324,-0.31748 0.63812,-0.31748 0.20572,0 0.64746,-0.14228 0.98164,-0.31618 0.33418,-0.17389 0.76902,-0.31676 0.96631,-0.31748 0.19729,-7.1e-4 0.41118,-0.086 0.47532,-0.18957 0.0641,-0.10354 0.42774,-0.23447 0.80801,-0.29094 0.38026,-0.0565 1.02549,-0.2241 1.43383,-0.37251 1.38825,-0.50456 1.59066,-0.57046 2.86375,-0.93242 0.70003,-0.19903 1.60688,-0.4665 2.01523,-0.59437 0.40835,-0.12786 1.07655,-0.30513 1.4849,-0.39391 0.40835,-0.0888 1.36293,-0.31503 2.12129,-0.50276 0.75837,-0.18774 1.87461,-0.4235 2.48054,-0.5239 0.60594,-0.10041 1.21209,-0.25063 1.34701,-0.33383 0.23755,-0.14648 1.31839,-0.33058 4.26896,-0.72714 0.77794,-0.10456 1.78025,-0.29146 2.22736,-0.41533 0.4471,-0.12387 1.29084,-0.22576 1.87497,-0.22641 0.58412,-6.5e-4 1.39551,-0.097 1.80309,-0.2142 0.40758,-0.11716 1.83882,-0.26697 3.18054,-0.3329 1.34172,-0.0659 3.25088,-0.2074 4.24259,-0.31437 3.86745,-0.41717 11.52136,-0.21684 17.92492,0.46914 1.16671,0.12498 2.93268,0.30116 3.92439,0.3915 0.9917,0.0903 2.37584,0.27777 3.07587,0.41652 0.70003,0.13874 1.7978,0.34287 2.43949,0.45362 0.64169,0.11075 1.78719,0.34197 2.54555,0.51382 0.75836,0.17186 1.63571,0.31167 1.94967,0.31069 0.31396,-9.7e-4 0.6247,0.0852 0.69054,0.19146 0.0658,0.10628 0.52489,0.2568 1.02013,0.33449 0.49524,0.0777 1.18681,0.22007 1.53682,0.31639 0.35002,0.0963 1.16141,0.31869 1.8031,0.49414 2.57937,0.70524 3.72978,1.05141 4.08061,1.22791 0.20259,0.10193 0.59005,0.18532 0.86101,0.18532 0.27096,0 0.67795,0.13983 0.90442,0.31075 0.22648,0.17091 0.65519,0.31377 0.9527,0.31747 0.29752,0.004 0.63162,0.0902 0.74246,0.19229 0.11083,0.10206 0.77427,0.38351 1.4743,0.62545 3.77329,1.30409 6.81248,2.56861 10.8265,4.50461 0.93774,0.45227 1.81277,0.82231 1.94452,0.82231 0.13176,0 0.27138,0.0797 0.31028,0.17703 0.0389,0.0974 0.78664,0.52813 1.66168,0.95726 0.87503,0.42913 2.06826,1.05825 2.65161,1.39804 0.58336,0.33979 1.30082,0.7478 1.59439,0.90668 1.89959,1.02819 8.72653,5.45313 10.33491,6.6987 0.32248,0.24974 1.36365,1.04728 2.31374,1.77232 2.00519,1.53023 4.75345,3.73414 5.06072,4.05832 0.11667,0.12309 1.40536,1.2843 2.86375,2.58045 2.54058,2.25798 5.87767,5.58492 7.40112,7.37864 0.39547,0.46563 1.20687,1.37951 1.8031,2.03084 1.88954,2.06418 7.00349,8.53586 7.42662,9.39839 0.17132,0.34923 0.50871,0.84528 0.74975,1.10233 0.24105,0.25705 0.43826,0.52908 0.43826,0.6045 0,0.0754 0.28638,0.4979 0.63639,0.93883 0.35001,0.44094 0.63639,0.86578 0.63639,0.94411 0,0.0783 0.23864,0.45457 0.53032,0.83612 0.29168,0.38155 0.53032,0.8038 0.53032,0.93832 0,0.13452 0.0936,0.24459 0.20808,0.24459 0.11447,0 0.26801,0.23811 0.34121,0.52913 0.0732,0.29102 0.1965,0.52913 0.27399,0.52913 0.0775,0 0.32772,0.35716 0.55605,0.7937 0.22834,0.43653 0.67298,1.22229 0.98808,1.74613 1.11597,1.8553 4.23654,7.93882 5.15697,10.0535 0.15201,0.34922 0.53547,1.20642 0.85216,1.90487 0.73333,1.61732 1.02736,2.30995 1.48255,3.49227 0.20167,0.52384 0.45232,1.11782 0.55703,1.31995 0.10469,0.20214 0.19338,0.53549 0.19709,0.74079 0.004,0.20529 0.1469,0.55814 0.31819,0.78411 0.1713,0.22596 0.31145,0.62512 0.31145,0.88703 0,0.2619 0.0955,0.53505 0.21213,0.60699 0.11667,0.0719 0.21213,0.3451 0.21213,0.607 0,0.2619 0.14016,0.66107 0.31145,0.88703 0.17129,0.22597 0.31448,0.58534 0.31819,0.7986 0.004,0.21326 0.23962,1.07046 0.52426,1.90487 0.28463,0.83442 0.58183,1.87534 0.66044,2.31316 0.0786,0.43782 0.22755,0.84822 0.33101,0.91201 0.10343,0.0638 0.18807,0.38446 0.18807,0.7126 0,0.32814 0.14319,0.93854 0.3182,1.35645 0.175,0.41791 0.31819,1.0023 0.31819,1.29864 0,0.29634 0.0848,0.70418 0.18846,0.90632 0.18803,0.36673 0.54619,1.96235 0.89009,3.96561 0.0999,0.58205 0.32965,1.86784 0.51047,2.85731 0.18084,0.98948 0.42239,2.60862 0.53677,3.5981 0.11438,0.98947 0.26699,1.94191 0.33913,2.11652 0.14132,0.342 0.38718,3.5315 0.70153,9.10106 0.21971,3.89232 0.0875,12.18877 -0.2124,13.33411 -0.1067,0.40743 -0.19688,1.55036 -0.20038,2.53983 -0.003,0.98948 -0.10761,2.22765 -0.23137,2.75149 -0.12375,0.52384 -0.30922,1.71438 -0.41214,2.64565 -0.10291,0.93127 -0.33665,2.55042 -0.51942,3.5981 -0.18277,1.04768 -0.41743,2.42871 -0.5215,3.06896 -0.10405,0.64025 -0.29176,1.54506 -0.41713,2.0107 -0.12537,0.46563 -0.42566,1.65618 -0.6673,2.64565 -0.88237,3.61305 -1.24267,4.98945 -1.46825,5.6088 -0.0848,0.23281 -0.32329,0.99476 -0.53001,1.69322 -0.57996,1.95965 -0.97543,3.13953 -1.1873,3.5423 -0.10632,0.20214 -0.19332,0.5411 -0.19332,0.75325 0,0.21215 -0.14015,0.5706 -0.31145,0.79657 -0.17129,0.22596 -0.31448,0.57881 -0.31819,0.78411 -0.007,0.37535 -0.0634,0.51934 -0.7133,1.81332 -0.19476,0.38777 -0.35409,0.83245 -0.35409,0.9882 0,0.15575 -0.13436,0.55281 -0.29857,0.88237 -0.16421,0.32956 -0.3885,0.83731 -0.49838,1.12833 -0.1099,0.29102 -0.48673,1.14822 -0.83738,1.90487 -0.35067,0.75666 -0.89849,1.94721 -1.21737,2.64566 -0.31887,0.69845 -0.66538,1.41278 -0.77003,1.58739 -0.10466,0.17462 -0.33384,0.65084 -0.50934,1.05827 -0.17549,0.40743 -0.41346,0.88365 -0.52879,1.05826 -0.11536,0.17461 -0.5515,0.98418 -0.96918,1.79905 -0.41768,0.81486 -1.04298,1.95778 -1.38953,2.53983 -0.34656,0.58204 -0.72262,1.24875 -0.83571,1.48156 -0.2718,0.55957 -0.70422,1.24379 -0.86947,1.37575 -0.0729,0.0582 -0.31153,0.43958 -0.53032,0.84749 -0.2188,0.40792 -0.61259,1.04171 -0.8751,1.40842 -0.26251,0.36671 -0.47729,0.72439 -0.47729,0.79485 0,0.0705 -0.52502,0.83645 -1.16671,1.7022 -0.64169,0.86574 -1.16671,1.62896 -1.16671,1.69603 0,0.13117 -3.16688,4.49723 -3.81547,5.26026 -0.21541,0.25342 -0.7812,0.93699 -1.25731,1.51903 -0.47612,0.58205 -1.25582,1.53448 -1.73269,2.11653 -1.00768,1.22996 -5.5996,6.10047 -6.95729,7.3794 -0.51091,0.48127 -1.56647,1.49413 -2.34566,2.25079 -1.48917,1.44607 -2.37886,2.2407 -4.26547,3.80974 -0.62986,0.52384 -1.31497,1.11912 -1.52245,1.32283 -0.20747,0.20372 -0.43587,0.37039 -0.50752,0.37039 -0.0717,0 -0.66827,0.46037 -1.32581,1.02303 -0.65754,0.56265 -1.50576,1.20227 -1.88494,1.42137 -0.37918,0.2191 -0.68942,0.46904 -0.68942,0.55546 0,0.0864 -0.41554,0.40007 -0.92342,0.69704 -0.50788,0.29697 -1.09541,0.72956 -1.30565,0.96134 -0.21022,0.23178 -0.46756,0.42142 -0.57184,0.42142 -0.16243,0 -2.62179,1.60078 -2.92658,1.90488 -0.0583,0.0582 -0.29698,0.22194 -0.53032,0.36385 -0.23334,0.14191 -1.11973,0.68956 -1.96973,1.217 -0.85,0.52744 -1.63753,0.95898 -1.75006,0.95898 -0.11254,0 -0.2046,0.0888 -0.2046,0.19739 0,0.10855 -0.21478,0.26426 -0.47729,0.34601 -0.26251,0.0817 -0.52502,0.2072 -0.58336,0.27883 -0.0583,0.0716 -0.63108,0.40298 -1.27277,0.73636 -2.40589,1.24995 -2.76273,1.45312 -2.87732,1.63812 -0.0646,0.10435 -0.29486,0.18973 -0.5116,0.18973 -0.21673,0 -0.42587,0.0714 -0.46477,0.15874 -0.0389,0.0873 -0.45254,0.33589 -0.91922,0.55243 -0.46669,0.21652 -0.99171,0.47906 -1.16671,0.58338 -0.17501,0.10435 -0.46138,0.24835 -0.63639,0.32004 -1.53626,0.6292 -1.90916,0.81789 -1.90916,0.96596 0,0.094 -0.18318,0.17093 -0.40708,0.17093 -0.22388,0 -0.67731,0.13444 -1.00761,0.29875 -1.61963,0.80572 -2.96438,1.39447 -3.18497,1.39447 -0.13471,0 -0.56291,0.15897 -0.95155,0.35329 -1.29689,0.64842 -1.44121,0.70493 -1.8174,0.71171 -0.20576,0.004 -0.55941,0.14657 -0.78588,0.31747 -0.22647,0.17091 -0.62654,0.31075 -0.88903,0.31075 -0.26249,0 -0.53626,0.0953 -0.60836,0.21166 -0.0721,0.1164 -0.31315,0.21165 -0.53565,0.21165 -0.2225,0 -0.71802,0.13042 -1.10116,0.28984 -1.33301,0.55461 -2.51593,0.92862 -4.51494,1.42753 -0.46668,0.11647 -0.9392,0.30156 -1.05004,0.41128 -0.11084,0.10974 -0.49267,0.20289 -0.84852,0.20702 -0.35584,0.004 -0.88564,0.14363 -1.17731,0.30999 -0.29168,0.16635 -0.7622,0.30585 -1.04559,0.30998 -0.28339,0.004 -0.80841,0.0945 -1.16671,0.20082 -1.23654,0.36694 -2.56407,0.688 -3.62126,0.87573 -0.58335,0.10358 -1.87204,0.34006 -2.86374,0.52551 -0.99171,0.18545 -2.51904,0.42034 -3.39407,0.52198 -0.87503,0.10166 -1.87734,0.27142 -2.22736,0.37727 -0.35001,0.10585 -1.29708,0.21269 -2.1046,0.23741 -0.80752,0.0247 -1.90683,0.12797 -2.44291,0.22939 -2.07625,0.39287 -11.08128,0.63629 -15.95911,0.43139 z m 11.5972,-6.43199 c 1.75006,-0.0802 3.80241,-0.24127 4.56077,-0.35799 0.75837,-0.11673 1.80841,-0.24467 2.33343,-0.28434 1.17318,-0.0886 3.98118,-0.49615 5.40929,-0.78504 0.58336,-0.11801 1.58567,-0.29457 2.22736,-0.39238 0.64169,-0.0978 1.78719,-0.33469 2.54555,-0.52642 0.75836,-0.19174 1.66521,-0.39566 2.01523,-0.45313 0.35001,-0.0575 1.11367,-0.23887 1.69703,-0.40307 0.58336,-0.16422 1.63339,-0.45158 2.33342,-0.6386 0.70003,-0.18703 1.43853,-0.42972 1.64112,-0.53929 0.2026,-0.10959 0.53351,-0.19925 0.73536,-0.19925 0.32986,0 1.57607,-0.39081 2.71462,-0.85133 0.23334,-0.0944 0.61518,-0.21899 0.84852,-0.27692 0.8262,-0.20514 3.12822,-1.07507 3.76241,-1.42182 0.2026,-0.11078 0.52197,-0.20141 0.70973,-0.20141 0.18775,0 0.59475,-0.13434 0.90443,-0.29854 0.49701,-0.2635 0.90341,-0.44136 2.68434,-1.17471 2.4069,-0.99113 8.56902,-4.08208 11.03072,-5.53306 0.58336,-0.34383 1.25156,-0.7218 1.48491,-0.83991 0.6483,-0.32816 1.21605,-0.67876 1.9463,-1.20193 0.36561,-0.26192 0.72567,-0.47622 0.80015,-0.47622 0.0745,0 0.63249,-0.36366 1.24003,-0.80815 0.60753,-0.44447 1.2478,-0.8643 1.42281,-0.93294 0.28637,-0.1123 6.06749,-4.33035 7.10633,-5.18496 6.47964,-5.33048 11.94086,-10.69521 16.43444,-16.14407 0.72001,-0.87307 1.49309,-1.80242 1.71799,-2.06523 0.22488,-0.2628 0.40888,-0.56441 0.40888,-0.67023 0,-0.10582 0.0716,-0.22415 0.15909,-0.26296 0.31292,-0.13876 1.93668,-2.22778 3.59186,-4.62108 1.55762,-2.25223 4.89618,-7.52169 5.22973,-8.25445 0.0795,-0.17461 0.34952,-0.65083 0.60009,-1.05826 0.78371,-1.27438 4.15199,-8.11497 4.96397,-10.08129 0.42632,-1.03239 0.84042,-1.97232 0.9202,-2.08873 0.0798,-0.11641 0.32129,-0.73549 0.53669,-1.37574 0.21537,-0.64025 0.4737,-1.25457 0.57408,-1.36516 0.10038,-0.11059 0.18309,-0.3487 0.18381,-0.52913 0,-0.18044 0.14389,-0.60087 0.3182,-0.9343 0.17428,-0.33343 0.31687,-0.73951 0.31687,-0.9024 0,-0.16288 0.087,-0.46154 0.19332,-0.66367 0.2431,-0.46212 0.72211,-1.8962 1.18323,-3.54231 0.19565,-0.69846 0.44327,-1.4353 0.55025,-1.63744 0.10697,-0.20213 0.1945,-0.50074 0.1945,-0.66356 0,-0.16283 0.13534,-0.75939 0.30073,-1.3257 0.73991,-2.53331 1.43001,-5.58593 2.33805,-10.34237 0.35531,-1.86119 0.33266,-1.69162 0.98994,-7.40784 0.39804,-3.46173 0.46087,-5.12601 0.4515,-11.95837 -0.008,-5.91176 -0.0892,-8.39602 -0.31777,-9.73602 -0.16875,-0.98947 -0.32596,-2.40197 -0.34936,-3.13889 -0.0234,-0.73691 -0.13266,-1.5765 -0.24289,-1.86574 -0.11022,-0.28924 -0.20039,-0.85034 -0.20039,-1.24688 0,-0.68831 -0.33097,-2.52965 -0.94966,-5.28355 -0.15692,-0.69845 -0.40014,-1.84138 -0.54049,-2.53983 -0.14034,-0.69845 -0.3761,-1.69851 -0.52391,-2.22235 -0.14782,-0.52384 -0.43406,-1.57152 -0.63612,-2.32818 -0.20207,-0.75666 -0.44231,-1.61385 -0.53388,-1.90487 -0.0916,-0.29103 -0.32624,-1.1006 -0.52152,-1.79905 -0.19527,-0.69845 -0.48816,-1.60327 -0.65084,-2.0107 -0.1627,-0.40743 -0.45376,-1.24226 -0.6468,-1.85517 -0.19302,-0.61292 -0.43495,-1.16619 -0.53762,-1.2295 -0.10265,-0.0633 -0.18638,-0.27616 -0.18604,-0.473 0,-0.4308 -0.74351,-2.3157 -2.21193,-5.60209 -0.30051,-0.67253 -0.54636,-1.26116 -0.54636,-1.30806 0,-0.099 -1.19556,-2.60788 -1.46675,-3.07794 -0.10072,-0.17462 -0.4471,-0.84132 -0.76971,-1.48157 -0.63588,-1.26199 -1.64148,-3.11579 -2.23881,-4.12722 -0.20626,-0.34923 -0.63278,-1.11118 -0.94784,-1.69322 -0.31505,-0.58205 -0.84654,-1.4564 -1.18107,-1.94301 -0.33451,-0.48661 -0.60822,-0.92868 -0.60822,-0.98238 0,-0.14198 -3.54998,-5.40704 -4.1579,-6.16667 -0.28343,-0.35418 -0.58789,-0.73921 -0.67659,-0.85561 -0.0887,-0.11641 -0.63027,-0.83074 -1.20351,-1.5874 -4.52824,-5.97713 -11.58705,-13.33122 -16.7625,-17.46374 -0.58148,-0.46431 -1.36997,-1.12228 -1.75214,-1.46215 -0.38219,-0.33986 -0.92268,-0.76846 -1.2011,-0.95243 -0.2784,-0.18397 -1.25591,-0.91419 -2.17222,-1.6227 -4.76315,-3.68289 -11.61658,-7.87587 -17.57576,-10.75296 -2.74041,-1.32307 -4.73826,-2.24538 -4.86384,-2.24538 -0.0597,0 -0.66034,-0.24354 -1.33466,-0.5412 -0.67431,-0.29766 -1.41694,-0.62387 -1.65028,-0.72491 -1.70932,-0.74015 -7.82888,-2.79867 -10.1822,-3.42512 -0.46669,-0.12423 -1.08716,-0.30551 -1.37884,-0.40285 -0.46301,-0.1545 -4.03237,-1.01507 -7.04247,-1.69792 -1.50217,-0.34077 -6.19405,-1.04658 -11.30671,-1.70089 -2.70056,-0.34561 -16.74722,-0.46918 -19.2091,-0.16898 -0.98543,0.12016 -2.60309,0.3011 -3.59479,0.40207 -2.9658,0.30199 -5.55568,0.6326 -6.68207,0.853 -0.58336,0.11414 -1.87204,0.35603 -2.86375,0.53754 -2.25738,0.41315 -5.94531,1.27224 -7.24086,1.68673 -0.54068,0.17299 -1.18632,0.31452 -1.43475,0.31452 -0.24844,0 -0.61746,0.0897 -0.82005,0.19924 -0.20259,0.10959 -0.9411,0.35665 -1.64112,0.54902 -0.70003,0.19238 -1.60688,0.48041 -2.01523,0.64008 -0.40835,0.15967 -1.26747,0.44498 -1.90916,0.63402 -0.64169,0.18905 -1.35763,0.41903 -1.59097,0.51108 -0.23334,0.0921 -0.85382,0.33303 -1.37884,0.53552 -0.52502,0.20248 -1.1455,0.44376 -1.37884,0.53617 -0.23334,0.0924 -1.18793,0.46867 -2.1213,0.83614 -2.59515,1.02171 -8.53987,3.87135 -11.03072,5.28764 -0.58335,0.3317 -1.39474,0.78461 -1.80309,1.00648 -1.92023,1.04331 -2.9179,1.63429 -3.53901,2.09636 -0.3714,0.2763 -0.72401,0.50236 -0.78358,0.50236 -0.14666,0 -6.05233,3.98878 -6.28388,4.24424 -0.0583,0.0644 -0.48789,0.39635 -0.95458,0.73777 -6.83518,5.0005 -16.61734,14.55835 -20.78712,20.31047 -0.33755,0.46563 -0.71784,0.94185 -0.84511,1.05826 -0.12726,0.11641 -0.77632,0.9736 -1.44235,1.90487 -0.66603,0.93127 -1.30715,1.80826 -1.42472,1.94886 -0.11756,0.14059 -0.21375,0.31134 -0.21375,0.37942 0,0.0681 -0.38183,0.63951 -0.84852,1.26982 -0.46668,0.6303 -0.84852,1.20405 -0.84852,1.275 0,0.0709 -0.21502,0.43217 -0.47782,0.80273 -0.5312,0.74902 -0.79905,1.1712 -1.43457,2.26114 -0.23755,0.40743 -0.63305,1.07414 -0.87887,1.48157 -1.81766,3.01266 -4.88614,9.16921 -6.32934,12.69915 -0.26177,0.64025 -0.59339,1.44982 -0.73695,1.79905 -0.14355,0.34923 -0.38198,0.96831 -0.52983,1.37574 -0.14785,0.40743 -0.39114,1.02652 -0.54065,1.37574 -0.14951,0.34923 -0.53137,1.44453 -0.84859,2.43401 -0.31722,0.98947 -0.6537,1.98953 -0.74774,2.22235 -0.094,0.23282 -0.33139,0.99477 -0.52745,1.69322 -0.19606,0.69845 -0.48773,1.69851 -0.64817,2.22235 -0.79076,2.58193 -2.27613,9.69519 -2.82858,13.54577 -0.85112,5.93221 -0.94767,7.54103 -0.9526,15.87394 -0.004,6.78208 0.0656,8.89966 0.36872,11.21758 0.48348,3.69701 1.52936,10.27645 1.93457,12.17002 0.57122,2.66931 1.18751,5.15482 1.70561,6.87871 0.19243,0.64025 0.44413,1.54507 0.55935,2.0107 0.11522,0.46564 0.29947,0.93709 0.40945,1.04768 0.10999,0.11059 0.19997,0.45188 0.19997,0.75842 0,0.30655 0.0603,0.61756 0.1341,0.69116 0.0738,0.0736 0.39287,0.87522 0.70914,1.7814 1.3672,3.91731 1.55215,4.40954 1.72846,4.60017 0.10229,0.11058 0.18598,0.31824 0.18598,0.46145 0,0.14321 0.29243,0.90992 0.64985,1.7038 0.35741,0.79388 0.72965,1.63391 0.8272,1.86673 0.30911,0.73779 3.81433,7.79474 4.31029,8.67775 0.42844,0.76281 1.62096,2.82271 2.1675,3.74403 1.13001,1.90489 3.40554,5.30422 4.71958,7.05041 0.0877,0.1165 0.72027,0.96276 1.40578,1.88058 0.68551,0.91782 1.37157,1.82256 1.52459,2.01054 0.99755,1.22542 2.0617,2.53182 3.15637,3.87489 1.45727,1.78796 10.63201,10.98648 11.89134,11.92216 0.46659,0.34667 1.03934,0.80717 1.27278,1.02333 1.28921,1.1938 8.60994,6.69735 8.9087,6.69735 0.0836,0 0.51355,0.28573 0.95548,0.63495 0.44192,0.34923 0.90113,0.63496 1.02046,0.63496 0.11933,0 0.24878,0.0818 0.28767,0.18166 0.0938,0.24097 3.88771,2.56982 4.18646,2.56982 0.12809,0 0.2329,0.0727 0.2329,0.16147 0,0.0888 0.18391,0.25549 0.40869,0.3704 1.70345,0.87082 2.46995,1.28168 2.56112,1.37282 0.0583,0.0583 0.48789,0.28374 0.95458,0.50098 0.93666,0.436 1.40864,0.67439 2.94837,1.48914 0.57156,0.30243 1.16818,0.5499 1.32581,0.5499 0.15763,0 0.2866,0.0952 0.2866,0.21165 0,0.11641 0.10157,0.21165 0.22572,0.21165 0.12414,0 0.72076,0.22541 1.32581,0.5009 2.15468,0.98107 3.46131,1.53973 5.02447,2.14817 0.52502,0.20435 1.24096,0.49052 1.59097,0.63593 0.35001,0.1454 1.01822,0.38273 1.48491,0.52737 0.46668,0.14465 1.10189,0.39372 1.41157,0.5535 0.30967,0.15977 0.71667,0.29049 0.90442,0.29049 0.18776,0 0.50713,0.0818 0.70973,0.18183 0.65824,0.32491 2.53528,0.87643 2.98288,0.87643 0.23996,0 0.49189,0.0897 0.55983,0.19942 0.0679,0.10968 0.55204,0.26355 1.07577,0.3419 0.52374,0.0784 1.00444,0.22675 1.06822,0.32972 0.0638,0.10297 0.40299,0.18722 0.75379,0.18722 0.3508,0 0.84632,0.1136 1.10116,0.25242 0.25484,0.13885 0.89291,0.3247 1.41793,0.413 0.52502,0.0883 1.57506,0.31138 2.33342,0.49575 0.75836,0.18435 1.99932,0.4282 2.75768,0.54185 0.75836,0.11366 1.65559,0.30083 1.99385,0.4159 0.33826,0.1151 1.02411,0.20926 1.52413,0.20926 0.50001,0 1.13011,0.0824 1.40021,0.1831 0.27011,0.10069 1.34726,0.24903 2.39368,0.32965 1.04641,0.0806 2.3351,0.23415 2.86374,0.34123 0.52865,0.10707 2.51918,0.2354 4.42342,0.28514 1.90423,0.0498 3.52589,0.15397 3.60367,0.23159 0.14498,0.14464 3.42497,0.0803 9.05591,-0.17764 z m -9.86496,-6.12828 c -0.12582,-0.1204 -3.53973,-0.35259 -5.62048,-0.38224 -0.8167,-0.0116 -2.2963,-0.15173 -3.288,-0.3113 -0.99171,-0.15956 -2.35328,-0.29178 -3.02572,-0.29381 -0.67244,-0.002 -1.38838,-0.0953 -1.59097,-0.20715 -0.20259,-0.1119 -1.13201,-0.31028 -2.06538,-0.44085 -2.89807,-0.40538 -3.78236,-0.55487 -4.87898,-0.82475 -2.52179,-0.62063 -4.78669,-1.27764 -5.57558,-1.61738 -0.38314,-0.16501 -0.8219,-0.30002 -0.97503,-0.30002 -0.26865,0 -0.89641,-0.26289 -2.46488,-1.03223 -0.93066,-0.45647 -0.99642,-1.1669 -0.16532,-1.78601 l 0.57712,-0.42993 1.38061,0.67166 c 0.75933,0.3694 1.54967,0.675 1.75629,0.67913 0.20663,0.004 0.61434,0.14363 0.90602,0.30999 0.29167,0.16636 0.7872,0.30586 1.10116,0.30998 0.31395,0.004 0.62983,0.10274 0.70193,0.21915 0.0721,0.11641 0.41812,0.21165 0.76892,0.21165 0.3508,0 0.84632,0.11497 1.10116,0.25549 0.25484,0.14053 0.98837,0.32759 1.63006,0.41568 0.64169,0.0881 1.9781,0.30946 2.96981,0.49188 0.9917,0.18243 2.28039,0.38038 2.86374,0.4399 0.58336,0.0595 2.43991,0.26008 4.12566,0.4457 3.13407,0.34508 9.20108,0.31214 9.79352,-0.0532 0.15567,-0.096 0.95359,-0.21286 1.77316,-0.2597 0.81957,-0.0469 1.63332,-0.16142 1.80832,-0.25462 0.17501,-0.0932 0.7728,-0.23745 1.32842,-0.32059 0.55562,-0.0831 1.06241,-0.2354 1.1262,-0.33836 0.0638,-0.10297 0.37285,-0.19026 0.68681,-0.19396 0.31396,-0.004 0.75613,-0.14657 0.9826,-0.31748 0.22648,-0.17091 0.57023,-0.31075 0.76389,-0.31075 0.31513,0 1.23671,-0.43274 2.75364,-1.29303 1.74591,-0.99015 4.22694,-3.1717 4.23429,-3.7232 0.002,-0.13973 0.12786,-0.33022 0.28,-0.4233 0.15213,-0.0931 0.44313,-0.55024 0.64666,-1.01587 0.20353,-0.46564 0.46089,-1.012 0.57191,-1.21413 0.26249,-0.47793 0.26249,-4.71331 0,-5.19123 -0.11102,-0.20214 -0.36626,-0.73671 -0.5672,-1.18794 -0.49762,-1.11744 -2.13034,-2.69944 -3.27416,-3.17244 -0.518,-0.21421 -1.11518,-0.47968 -1.32705,-0.58992 -0.21188,-0.11024 -1.16646,-0.20773 -2.12129,-0.21664 -1.72107,-0.0161 -2.98803,0.27391 -4.45722,1.02014 -0.64117,0.32566 -2.6762,1.71977 -2.90027,1.98686 -0.26062,0.31064 -3.53175,2.62051 -4.72592,3.33716 -1.99058,1.19457 -5.02183,2.58248 -5.64026,2.58248 -0.20993,0 -0.453,0.0714 -0.54014,0.15874 -0.21778,0.21819 -2.39174,0.6618 -4.68518,0.95603 -3.73563,0.47925 -12.43723,0.23028 -16.75821,-0.47947 -2.64963,-0.43525 -3.80056,-0.64825 -4.77291,-0.88338 -0.52502,-0.12695 -1.33641,-0.30727 -1.8031,-0.40076 -1.99776,-0.40013 -2.99296,-0.65096 -3.33815,-0.84128 -0.2026,-0.11171 -0.52389,-0.2031 -0.71399,-0.2031 -0.37492,0 -2.29607,-0.58217 -2.89221,-0.87643 -0.20259,-0.10001 -0.47454,-0.18183 -0.60433,-0.18183 -0.12979,0 -0.58451,-0.1508 -1.01049,-0.33513 -0.42598,-0.18433 -1.08799,-0.47006 -1.47113,-0.63496 -0.38314,-0.16491 -0.83657,-0.29983 -1.00761,-0.29983 -0.17105,0 -0.311,-0.0952 -0.311,-0.21165 0,-0.11641 -0.16078,-0.21165 -0.35729,-0.21165 -0.1965,0 -0.79311,-0.20299 -1.3258,-0.45108 -2.00455,-0.93359 -6.52365,-3.20582 -7.54453,-3.79343 -0.58336,-0.33577 -1.20384,-0.67386 -1.37884,-0.7513 -0.38098,-0.1686 -6.42393,-4.14335 -6.57601,-4.32537 -0.0583,-0.0698 -0.66245,-0.54889 -1.34249,-1.06459 -2.48314,-1.88309 -2.82398,-2.15916 -4.49106,-3.63761 -3.47735,-3.08388 -7.92442,-7.82885 -10.44782,-11.14771 -0.4048,-0.5324 -0.95971,-1.25373 -1.23313,-1.60296 -1.01504,-1.29644 -4.33481,-6.16022 -4.33481,-6.3509 0,-0.073 -0.23864,-0.44492 -0.53032,-0.82647 -0.29168,-0.38155 -0.53033,-0.7545 -0.53033,-0.82876 0,-0.0743 -0.36255,-0.73199 -0.80567,-1.46159 -0.8489,-1.39774 -2.61361,-4.9052 -4.07507,-8.09944 -0.95671,-2.09106 -1.06055,-2.33348 -1.5638,-3.65101 -0.18898,-0.49474 -0.49821,-1.30431 -0.68718,-1.79905 -0.18897,-0.49473 -0.41974,-1.09001 -0.51283,-1.32282 -0.29183,-0.72994 -1.2072,-3.54279 -1.58417,-4.86801 -0.19867,-0.69846 -0.49287,-1.69851 -0.65375,-2.22235 -0.32732,-1.06573 -1.13918,-4.26588 -1.28868,-5.07967 -0.0535,-0.29102 -0.22637,-1.14821 -0.38424,-1.90487 -0.70135,-3.3616 -1.24722,-6.77265 -1.49032,-9.31271 -0.0613,-0.64025 -0.2141,-2.21177 -0.33962,-3.49227 -0.27914,-2.84763 -0.11976,-16.45616 0.21937,-18.73125 1.00073,-6.71347 1.94802,-11.38311 3.09139,-15.23898 0.18986,-0.64025 0.39849,-1.44982 0.46363,-1.79905 0.0651,-0.34923 0.1911,-0.7302 0.27993,-0.84661 0.0888,-0.11641 0.2284,-0.61644 0.31018,-1.11117 0.0818,-0.49474 0.23577,-0.89953 0.34218,-0.89953 0.10642,0 0.19349,-0.26454 0.19349,-0.58786 0,-0.61023 0.51458,-1.52866 0.85648,-1.52866 0.3188,0 -0.15444,2.97643 -0.85813,5.39714 -0.10152,0.34922 -0.33827,1.44453 -0.52611,2.434 -0.18784,0.98948 -0.42612,2.22764 -0.52951,2.75148 -0.25838,1.30917 -0.78336,5.513 -1.07068,8.57361 -0.64632,6.88468 -0.0137,13.94239 1.65028,18.41209 1.59894,4.29492 4.15903,7.51184 7.05367,8.8634 1.28019,0.59775 1.54706,0.64335 3.72999,0.63739 2.31974,-0.006 2.37027,-0.0171 3.78142,-0.80447 1.53977,-0.85916 2.87917,-2.34024 3.47347,-3.8409 0.18166,-0.45871 0.36831,-1.71579 0.41479,-2.79352 0.0687,-1.59216 0.004,-2.17346 -0.34347,-3.10079 -0.50299,-1.34136 -1.5814,-3.07246 -3.03285,-4.86844 -1.94255,-2.40368 -3.74522,-5.28502 -4.71265,-7.5326 -0.76499,-1.77726 -1.73897,-5.32767 -1.94508,-7.09036 -0.12716,-1.08749 -0.13529,-13.20018 -0.009,-13.40406 0.0658,-0.10624 0.26297,-1.0864 0.43814,-2.17813 0.65773,-4.09911 1.50619,-7.27439 2.87745,-10.76856 0.25126,-0.64024 0.75079,-2.02128 1.11007,-3.06896 1.83083,-5.3388 1.83619,-5.35367 2.82076,-7.83114 0.54882,-1.38101 2.01001,-4.64942 2.42274,-5.4192 0.10012,-0.18675 0.60519,-1.13919 1.12238,-2.11653 2.21239,-4.18082 5.353,-8.84279 8.39754,-12.46544 1.68648,-2.00671 4.02852,-4.56165 5.10909,-5.57353 0.51795,-0.48503 1.66345,-1.56225 2.54555,-2.39382 0.8821,-0.83158 2.31975,-2.06539 3.19478,-2.74181 0.87504,-0.67641 1.6387,-1.28798 1.69704,-1.35904 0.26143,-0.31844 4.77146,-3.42838 6.78813,-4.68083 3.00241,-1.86464 7.71488,-4.37516 10.5004,-5.59396 0.70003,-0.30629 1.55915,-0.68243 1.90916,-0.83587 0.35002,-0.15343 1.3046,-0.53214 2.1213,-0.84158 0.81669,-0.30944 1.65066,-0.65081 1.85325,-0.75859 0.20259,-0.10778 0.47454,-0.19597 0.60433,-0.19597 0.12979,0 0.53678,-0.13133 0.90442,-0.29184 0.67318,-0.29391 5.75814,-1.90335 7.13839,-2.25938 0.40835,-0.10533 1.12429,-0.29495 1.59097,-0.42138 1.35475,-0.36703 3.52581,-0.86815 4.56078,-1.05272 0.52502,-0.0936 1.81371,-0.33256 2.86375,-0.53095 2.57326,-0.48619 5.80958,-0.91241 10.39433,-1.36892 2.94847,-0.29359 15.27666,-0.30432 18.17677,-0.0158 1.2032,0.11969 2.76038,0.26194 3.46041,0.31611 0.70003,0.0542 1.51142,0.14516 1.8031,0.20218 0.29168,0.057 1.00761,0.163 1.59097,0.23549 2.36284,0.29362 8.31761,1.47602 10.1822,2.02181 3.24363,0.94947 5.99638,2.06696 6.45766,2.62153 0.39176,0.47097 0.01,0.88078 -0.5483,0.58808 -0.2167,-0.11368 -0.82356,-0.27335 -1.34858,-0.35483 -0.52502,-0.0815 -1.28869,-0.22986 -1.69704,-0.32972 -5.66145,-1.38457 -11.94634,-2.32841 -18.27613,-2.74466 -8.63635,-0.56793 -16.17947,1.0562 -20.96777,4.51461 -1.40065,1.01164 -1.57553,1.18618 -2.68542,2.68016 -1.3198,1.77655 -1.66424,2.90395 -1.65749,5.42519 0.005,1.93743 0.0648,2.2611 0.6174,3.35079 0.78661,1.55122 2.1391,2.89204 3.67472,3.64303 1.10621,0.54098 1.42109,0.59443 3.44485,0.58478 1.97098,-0.009 2.36165,-0.0759 3.39407,-0.57741 1.67163,-0.81207 2.41251,-1.29718 5.15935,-3.37824 1.34446,-1.01857 2.50595,-1.85196 2.5811,-1.85196 0.0752,0 0.44051,-0.22665 0.81191,-0.50367 1.94203,-1.44856 5.93902,-2.8873 10.04388,-3.61535 3.64793,-0.64701 13.64709,-0.3564 17.88999,0.51996 0.52502,0.10844 1.43187,0.25597 2.01523,0.32785 0.58335,0.0719 1.34702,0.20942 1.69703,0.30565 0.35001,0.0962 1.40005,0.33973 2.33342,0.54114 0.93337,0.20141 2.36524,0.55162 3.18194,0.77825 0.8167,0.22664 1.77128,0.4863 2.12129,0.57704 0.73206,0.18979 3.18985,1.02796 5.19717,1.77239 3.1159,1.15555 8.83136,3.84519 11.38131,5.35593 0.36781,0.21792 1.45868,0.86094 2.42412,1.42894 4.45126,2.61878 11.90595,8.54024 15.25627,12.11847 2.43096,2.59633 4.58391,5.07253 5.29456,6.08955 0.17023,0.24362 0.40888,0.54524 0.53032,0.67026 1.16196,1.19622 6.23894,8.6577 6.97398,10.24949 0.0807,0.17461 0.43481,0.79369 0.78705,1.37574 0.35222,0.58204 0.69203,1.20113 0.75513,1.37574 0.0631,0.17461 0.21907,0.50796 0.3466,0.74078 2.2942,4.18816 4.78581,10.27032 6.41615,15.66229 1.24314,4.11141 1.7468,5.95565 2.02303,7.40784 0.13286,0.69845 0.34325,1.69851 0.46756,2.22235 0.24732,1.04233 0.54735,2.65184 0.71023,3.80975 0.0573,0.40743 0.23856,1.55035 0.40281,2.53983 0.70077,4.22153 0.85416,6.95821 0.85416,15.23898 0,7.89594 -0.20119,11.98307 -0.75013,15.23899 -0.10796,0.64025 -0.29474,1.97366 -0.41506,2.96313 -0.12032,0.98948 -0.36902,2.60862 -0.55264,3.5981 -0.18364,0.98947 -0.40711,2.22764 -0.49663,2.75148 -0.21985,1.2866 -0.96672,4.33323 -1.65071,6.73341 -0.61205,2.14786 -0.9276,2.51058 -1.87219,2.15225 -0.4558,-0.1729 -0.5409,-0.30875 -0.431,-0.6879 0.0753,-0.25984 0.22829,-0.94866 0.33992,-1.53071 0.11164,-0.58204 0.34723,-1.72496 0.52353,-2.53983 0.1763,-0.81486 0.40812,-2.02583 0.51516,-2.69105 0.10704,-0.66521 0.24526,-1.29126 0.30718,-1.3912 0.24185,-0.39044 1.07694,-5.99111 1.41106,-9.46351 0.39223,-4.07624 0.48871,-8.77787 0.2319,-11.30064 -0.26607,-2.61371 -0.8147,-5.98912 -1.08733,-6.68983 -0.46412,-1.19284 -0.84597,-2.372 -0.84597,-2.61238 0,-0.26581 -1.68354,-3.84837 -1.90539,-4.05467 -0.0626,-0.0582 -0.36526,-0.4868 -0.6726,-0.95244 -1.25461,-1.90091 -3.48006,-3.72038 -5.36871,-4.38937 -2.05326,-0.72729 -5.0102,-0.38634 -6.90353,0.79601 -1.7625,1.10066 -3.20755,3.39656 -3.47545,5.5218 -0.18546,1.47125 0.17972,3.83221 0.81416,5.26354 0.43478,0.98093 2.03682,3.53335 2.46023,3.91978 0.71462,0.65217 3.65013,5.03478 4.39477,6.56123 0.43089,0.88328 1.36944,3.44567 1.55047,4.23305 0.99696,4.336 1.05006,4.87409 1.06563,10.79739 0.0149,5.64527 -0.23943,9.09091 -0.87077,11.79956 -0.11569,0.4964 -0.21037,1.10186 -0.21037,1.34546 0,0.62681 -1.0049,5.01189 -1.81296,7.9113 -0.19467,0.69845 -0.42742,1.55565 -0.51723,1.90487 -0.0898,0.34923 -0.30443,1.01593 -0.47693,1.48157 -0.17253,0.46564 -0.52515,1.46569 -0.78365,2.22235 -0.2585,0.75666 -0.5522,1.56623 -0.65262,1.79905 -0.10044,0.23282 -0.31932,0.75666 -0.48637,1.16409 -0.16703,0.40743 -0.47964,1.16938 -0.69464,1.69322 -1.71712,4.18355 -6.51773,12.52926 -9.25823,16.09512 -0.73322,0.95405 -1.52404,1.9951 -1.75738,2.31345 -0.23335,0.31834 -0.80609,1.01695 -1.27278,1.55247 -0.46668,0.53552 -1.23035,1.42105 -1.69703,1.96784 -0.83571,0.97916 -5.40264,5.5253 -6.5045,6.47488 -0.31066,0.26775 -1.07433,0.93272 -1.69703,1.47773 -0.62269,0.54501 -1.44178,1.21171 -1.8202,1.48157 -0.37844,0.26985 -1.69759,1.23347 -2.93143,2.14137 -2.24711,1.65343 -7.17803,4.80468 -7.51816,4.80468 -0.0995,0 -0.30895,0.11905 -0.46537,0.26456 -0.39331,0.36589 -3.77219,2.12026 -6.21585,3.22739 -0.70003,0.31716 -1.41597,0.66188 -1.59097,0.76605 -0.17501,0.10416 -0.46138,0.24448 -0.63639,0.31181 -0.17501,0.0674 -0.70003,0.26863 -1.16671,0.44731 -1.48545,0.56873 -1.68133,0.64746 -2.47155,0.99339 -0.42598,0.18649 -0.8807,0.33907 -1.01049,0.33907 -0.12979,0 -0.40174,0.0855 -0.60433,0.18991 -0.57949,0.29881 -1.95149,0.78883 -3.33815,1.19228 -0.70003,0.20368 -1.4637,0.43889 -1.69704,0.52268 -0.44645,0.16033 -2.17493,0.65703 -3.6062,1.03631 -0.46668,0.12367 -1.23035,0.33187 -1.69703,0.4627 -0.46668,0.1308 -1.27808,0.31 -1.8031,0.39822 -0.52502,0.0882 -1.38414,0.26501 -1.90916,0.39287 -0.52502,0.12786 -1.4796,0.32305 -2.12129,0.43374 -0.64169,0.11069 -1.99069,0.35268 -2.99777,0.53775 -1.00708,0.18509 -2.20031,0.3368 -2.65161,0.33718 -0.45131,0 -1.63196,0.13842 -2.62366,0.30677 -0.99171,0.16837 -2.04175,0.29746 -2.33342,0.28689 -0.29168,-0.0106 -1.67583,0.0549 -3.07588,0.14541 -3.34708,0.21643 -9.73143,0.37909 -9.86496,0.25132 z m -39.48232,-45.12135 c 1.24002,-0.17502 2.58869,-0.40744 2.99704,-0.51648 1.5082,-0.40275 3.08781,-0.88001 3.50013,-1.05751 6.48832,-2.7933 10.90832,-6.37998 15.40444,-12.50017 0.64139,-0.87307 1.23379,-1.73026 1.31644,-1.90487 0.0827,-0.17462 0.43232,-0.74608 0.77705,-1.26992 0.54065,-0.82157 3.31083,-6.28656 3.80864,-7.51366 0.0944,-0.23282 0.28608,-0.70506 0.42585,-1.04943 0.42406,-1.04485 1.0013,-2.91107 1.24657,-4.03023 0.12756,-0.58205 0.37096,-1.67735 0.54089,-2.43401 1.20125,-5.34902 1.96427,-12.11433 2.17226,-19.26038 0.0762,-2.6192 0.22113,-4.92241 0.32199,-5.11824 0.10086,-0.19583 0.39826,-0.42405 0.6609,-0.50714 0.26263,-0.0831 0.81162,-0.36113 1.21996,-0.61786 0.40835,-0.25673 1.31521,-0.77162 2.01523,-1.14419 0.70003,-0.37258 1.41596,-0.76452 1.59097,-0.87099 2.33319,-1.41939 4.94867,-2.95917 5.02647,-2.95917 0.0543,0 0.6364,-0.35716 1.29347,-0.79369 0.65707,-0.43654 1.35978,-0.88894 1.56158,-1.00535 1.23797,-0.71413 3.69077,-2.33364 3.75023,-2.47617 0.0389,-0.0932 0.14307,-0.16949 0.23151,-0.16949 0.13108,0 2.74428,-1.64022 4.04643,-2.53983 0.83116,-0.57421 3.89398,-2.53983 3.95756,-2.53983 0.0396,0 0.52556,-0.31825 1.08002,-0.70722 2.13191,-1.49561 3.66712,-2.29995 4.15611,-2.1775 0.26323,0.0659 0.68325,0.48318 0.9334,0.92724 0.45906,0.81495 1.58932,1.95748 1.93647,1.95748 0.10339,0 0.29873,0.13313 0.43408,0.29585 0.19493,0.23435 0.12824,0.38834 -0.32083,0.74078 -0.3118,0.24472 -0.69723,0.44494 -0.8565,0.44494 -0.15927,0 -0.28959,0.0888 -0.28959,0.19739 0,0.10856 -0.21229,0.26461 -0.47175,0.34678 -0.58858,0.18639 -2.22084,1.24505 -4.83148,3.13363 -3.07822,2.22684 -7.4888,6.72822 -9.23419,9.42432 -0.12028,0.18579 -0.55998,0.86165 -0.97711,1.5019 -0.41712,0.64025 -1.16452,1.97366 -1.66086,2.96314 -0.49635,0.98947 -1.02501,2.03715 -1.1748,2.32818 -0.46355,0.90063 -1.73997,4.89182 -2.09833,6.56123 -0.85471,3.98159 -0.98866,5.23619 -0.99585,9.32668 -0.007,4.17794 0.26142,6.71214 0.98615,9.29874 0.17939,0.64025 0.42733,1.54506 0.55098,2.0107 0.58386,2.19865 3.01894,7.47147 4.12321,8.9282 0.2809,0.37056 0.51073,0.73783 0.51073,0.81615 0,0.29276 1.86151,2.53096 3.90915,4.70021 1.30129,1.37857 4.1263,3.71228 5.21946,4.31173 0.34354,0.18839 0.745,0.43994 0.89214,0.55899 0.58118,0.47025 5.04678,2.59076 5.45592,2.59076 0.12466,0 0.3924,0.0873 0.595,0.19406 0.20259,0.10674 0.94109,0.34796 1.64112,0.53604 0.70003,0.18808 1.55915,0.42819 1.90916,0.53357 0.35002,0.10538 2.16094,0.35665 4.02427,0.55839 2.94015,0.31832 3.75316,0.33235 6.15175,0.10611 3.44445,-0.32489 6.40419,-0.96677 8.59742,-1.86454 0.40835,-0.16715 0.9811,-0.40198 1.27278,-0.52183 3.07629,-1.26413 6.22815,-3.42083 8.91061,-6.0972 2.04698,-2.04235 3.18075,-3.27936 3.18075,-3.47038 0,-0.0412 0.46403,-0.77861 1.03118,-1.6387 1.02109,-1.54851 2.60143,-4.67024 2.88101,-5.69103 0.0797,-0.29102 0.22102,-0.71962 0.31402,-0.95244 0.33911,-0.84901 0.85197,-2.78679 1.12032,-4.23305 0.35529,-1.9149 0.35379,-7.1983 -0.003,-9.10106 -0.49566,-2.64632 -0.91014,-4.43689 -1.11391,-4.81222 -0.10976,-0.20214 -0.19955,-0.50845 -0.19955,-0.68069 0,-0.82148 -2.2481,-5.28536 -3.56337,-7.07549 -2.51229,-3.41932 -6.08304,-6.0438 -9.58864,-7.04757 -2.88651,-0.8265 -6.1218,-1.02001 -9.54582,-0.57095 -3.8458,0.50438 -7.84376,2.36429 -10.56696,4.91592 -4.13072,3.87046 -5.97361,8.92647 -5.26621,14.44793 0.16571,1.29344 0.4072,2.54916 0.53665,2.79048 0.12944,0.24132 0.23535,0.58529 0.23535,0.76437 0,0.44109 0.98846,2.53259 1.80983,3.82945 0.82558,1.30351 2.56842,3.00707 3.76039,3.67564 2.29746,1.28864 5.30149,1.6703 7.01533,0.89132 1.0931,-0.49685 1.57851,-1.00952 1.95616,-2.06603 0.6293,-1.76055 0.2849,-3.29719 -1.14729,-5.11887 -2.07606,-2.64067 -3.201,-5.47542 -3.20873,-8.08572 -0.009,-2.87886 1.77692,-5.49302 4.81192,-7.04539 0.9751,-0.49876 4.48584,-0.47955 5.90526,0.0323 2.1693,0.78227 3.65728,1.90879 5.06234,3.83257 0.74574,1.02106 1.88371,3.05926 2.09119,3.74548 1.02045,3.37506 1.61242,7.20787 1.34356,8.699 -0.0798,0.44261 -0.22857,1.34914 -0.3306,2.01451 -1.01447,6.61556 -5.67119,13.17859 -11.14444,15.70654 -2.73775,1.26449 -3.50533,1.51565 -5.51536,1.80469 -6.53901,0.94028 -12.54084,-1.11458 -17.31719,-5.92895 -1.57819,-1.59075 -2.92776,-3.26284 -3.77985,-4.68314 -0.70075,-1.16794 -2.34331,-4.5964 -2.34331,-4.89098 0,-0.15178 -0.088,-0.36644 -0.19557,-0.47703 -0.27696,-0.28473 -1.32188,-4.18872 -1.52671,-5.70403 -0.99693,-7.37499 0.0637,-14.92673 2.95764,-21.05943 1.37175,-2.9069 3.95673,-6.43932 6.434,-8.7922 1.30608,-1.2405 4.5143,-3.65236 5.80279,-4.3624 1.56088,-0.86015 2.64405,-1.39218 3.97426,-1.9521 1.5394,-0.64796 1.58213,-0.64816 4.50897,-0.021 5.17308,1.10854 11.07771,0.25204 13.12473,-1.90383 0.7909,-0.83296 1.3956,-2.14917 1.40145,-3.05052 0.0193,-2.95051 -5.09284,-4.82338 -11.60966,-4.25337 -1.33288,0.11658 -2.59968,0.30609 -2.81512,0.42113 -0.21544,0.11504 -0.73338,0.20917 -1.15098,0.20917 -0.4176,0 -0.94301,0.11448 -1.16757,0.25441 -0.52217,0.32536 -1.13461,0.0177 -2.35503,-1.18313 -1.42387,-1.40098 -2.95841,-3.86287 -2.95841,-4.74624 0,-0.23928 0.53252,-0.8178 1.32281,-1.43709 5.93862,-4.6536 12.36079,-11.06566 16.01352,-15.98831 2.62745,-3.54093 4.72511,-9.21823 4.72511,-12.78845 0,-3.07287 -1.35504,-6.49474 -3.39216,-8.56624 -2.72053,-2.76642 -8.31805,-3.72401 -12.6236,-2.15956 -4.52107,1.64276 -7.91115,4.37934 -11.20657,9.04629 -0.65759,0.93127 -1.26887,1.79331 -1.3584,1.91565 -0.23135,0.31612 -0.52283,0.85343 -1.31457,2.42322 -0.38163,0.75666 -0.78036,1.51861 -0.88607,1.69322 -0.10571,0.17462 -0.24797,0.46035 -0.31615,0.63496 -0.0682,0.17461 -0.19752,0.50797 -0.28744,0.74078 -0.0899,0.23282 -0.31991,0.78371 -0.51108,1.22419 -0.19118,0.44048 -0.3476,0.96908 -0.3476,1.17467 0,0.20559 -0.0882,0.46427 -0.19597,0.57486 -0.28687,0.29434 -1.40248,4.7653 -1.74015,6.97395 -0.60176,3.93593 -0.3538,9.63153 0.49887,11.45909 0.38501,0.82522 0.28934,0.90827 -5.56302,4.82954 -3.08018,2.06382 -4.96909,3.28937 -6.20058,4.02302 -0.20187,0.12026 -1.10872,0.67445 -2.01523,1.23153 -0.90651,0.55708 -1.8387,1.12854 -2.07154,1.26991 -0.23285,0.14137 -0.70816,0.44753 -1.05625,0.68035 -0.76196,0.50962 -1.37906,0.88177 -1.80841,1.09058 -0.17501,0.0851 -1.69407,0.99765 -3.37569,2.02786 -1.68163,1.03021 -3.20896,1.84436 -3.39407,1.80921 -0.43478,-0.0825 -0.5342,-1.8713 -0.25037,-4.50435 0.33134,-3.07371 0.64419,-4.27948 1.36847,-5.27419 1.26313,-1.73478 2.72446,-3.61328 3.5516,-4.56549 1.18551,-1.36477 1.10645,-1.25972 2.57742,-3.42443 2.25549,-3.3192 2.84005,-4.92862 2.64966,-7.29512 -0.19224,-2.38953 -1.64698,-3.67404 -4.16163,-3.67466 -2.07867,-4.2e-4 -4.33809,1.26063 -6.07502,3.39087 -0.75745,0.92896 -2.352,3.45688 -2.86736,4.54578 -1.04506,2.20806 -2.32353,6.06477 -2.32528,7.01455 -10e-4,0.85768 -1.28594,2.30512 -3.78375,4.26417 -3.37823,2.64957 -5.2823,3.76686 -7.85863,4.61135 -3.5052,1.14897 -6.15313,0.30315 -8.26673,-2.64063 -0.94524,-1.31651 -0.89195,-1.84033 0.2329,-2.28932 1.22983,-0.49089 4.69204,-2.17969 4.82461,-2.35335 0.0591,-0.0774 0.4415,-0.32596 0.84985,-0.55244 2.96777,-1.64592 7.60164,-5.55802 10.79293,-9.11184 1.91973,-2.1378 5.11676,-6.44949 5.11676,-6.90073 0,-0.10471 0.0839,-0.19039 0.18634,-0.19039 0.23956,0 2.81215,-5.15378 3.53925,-7.09036 0.30595,-0.81486 0.6412,-1.89271 0.745,-2.39523 0.1038,-0.50252 0.24258,-1.0006 0.3084,-1.10685 0.2305,-0.37213 0.73637,-4.30582 0.73637,-5.72614 0,-3.81307 -1.6044,-7.07513 -4.24207,-8.62496 -1.24567,-0.73193 -2.0963,-1.02969 -4.03097,-1.41102 -2.71395,-0.53493 -4.38309,-0.42645 -7.63665,0.49631 -3.81658,1.08244 -9.2578,5.49466 -12.57385,10.19596 -0.78003,1.10589 -1.49173,2.11115 -1.58156,2.23391 -0.29721,0.40619 -0.69154,1.04069 -0.91359,1.47001 -0.12042,0.23282 -0.49389,0.89953 -0.82994,1.48157 -0.97078,1.68142 -2.023,3.9082 -2.78781,5.89977 -0.22912,0.59662 -0.502,1.27525 -0.60639,1.50807 -0.36524,0.81456 -1.11328,3.2456 -1.56303,5.07966 -0.68817,2.80631 -0.79115,3.39329 -1.10452,6.29542 -0.17919,1.65951 -0.37054,3.14393 -0.42523,3.29872 -0.0702,0.19866 -0.30221,0.23903 -0.78903,0.13727 -2.67471,-0.55908 -4.85137,-2.8399 -5.9542,-6.23914 -0.49286,-1.51913 -0.61927,-3.37563 -0.36101,-5.30197 0.24592,-1.83433 0.30405,-2.07249 1.08219,-4.43405 1.06551,-3.23373 1.19269,-3.88564 0.89839,-4.60525 -0.47441,-1.16005 -2.37195,-1.75915 -4.15385,-1.31148 -2.47835,0.62266 -4.67102,4.31236 -5.277,8.87987 -0.86978,6.55572 -0.0876,10.98738 2.59618,14.70967 2.05084,2.84443 5.42231,5.20412 8.78267,6.14699 0.70003,0.19642 1.49205,0.44145 1.76005,0.54451 0.268,0.10306 0.76294,0.18739 1.09987,0.18739 1.33762,0 1.62667,0.28058 2.21708,2.15218 1.45318,4.60657 4.90933,8.12167 9.21305,9.37021 2.29216,0.66497 7.17125,0.2805 10.14085,-0.7991 1.47686,-0.5369 3.45614,-1.67993 4.37565,-2.52691 1.33634,-1.23092 1.51287,-1.0095 1.34733,1.68993 -0.13571,2.21301 -0.35165,3.26309 -0.87814,4.27024 -0.24448,0.46768 -1.34756,1.10401 -5.093,2.93799 -2.57145,1.25912 -11.27461,5.70878 -12.3035,6.2904 -0.58335,0.32976 -2.04163,1.2034 -3.24061,1.94142 -1.19898,0.73802 -2.27288,1.34186 -2.38645,1.34186 -0.11357,0 -0.20649,0.08 -0.20649,0.17768 0,0.0977 -0.21478,0.27542 -0.47729,0.39488 -1.25366,0.5705 -6.24504,4.51055 -9.56616,7.55125 -4.14838,3.79811 -5.86963,5.78429 -7.95988,9.18507 -1.11781,1.81865 -2.78534,5.17649 -2.78534,5.60874 0,0.15372 -0.0794,0.36998 -0.17637,0.48057 -0.20776,0.23686 -0.67092,1.75342 -0.90172,2.95255 -0.0896,0.46564 -0.27452,1.27521 -0.4109,1.79905 -0.45882,1.76245 -0.12099,6.15709 0.68336,8.88941 0.30508,1.03634 1.40288,3.5617 1.65614,3.80974 0.0594,0.0582 0.38632,0.53442 0.72643,1.05826 1.05728,1.62843 2.89992,3.37465 4.78278,4.53249 0.99399,0.61125 1.99817,1.16859 2.23152,1.23855 0.23334,0.0699 0.85382,0.29145 1.37884,0.49222 1.29363,0.4947 4.87049,1.09883 6.65484,1.12401 0.80173,0.0113 2.47225,-0.12262 3.71226,-0.29764 z m -5.5942,-8.75733 c -2.54204,-0.68777 -4.45843,-2.94154 -5.01767,-5.90105 -0.41399,-2.19085 0.0302,-6.47448 0.8722,-8.41101 1.07443,-2.47114 2.6131,-5.276 3.54127,-6.45541 2.59016,-3.29128 5.307,-6.12191 8.34692,-8.69654 2.00245,-1.69595 4.20273,-3.36765 4.43248,-3.36765 0.10946,0 0.23083,-0.0802 0.26972,-0.17815 0.0389,-0.098 1.12075,-0.88374 2.40413,-1.74613 1.28338,-0.86239 2.36524,-1.63942 2.40413,-1.72673 0.0389,-0.0873 0.15924,-0.15874 0.26743,-0.15874 0.10819,0 1.03096,-0.51328 2.05058,-1.14062 1.93923,-1.19313 4.78925,-2.7828 6.41464,-3.5779 0.52502,-0.25683 1.01655,-0.55228 1.09228,-0.65655 0.0757,-0.10426 0.29968,-0.12755 0.49768,-0.0517 0.29068,0.11129 0.33999,0.33118 0.25609,1.14201 -0.12816,1.23854 -0.64275,4.25044 -1.11176,6.50715 -0.19355,0.93128 -0.42551,2.0742 -0.51547,2.53984 -0.14196,0.73477 -0.62065,2.52859 -1.80738,6.77288 -0.16275,0.58204 -0.54483,1.72497 -0.84907,2.53983 -0.30425,0.81486 -0.70112,1.91016 -0.88195,2.434 -0.39288,1.13817 -0.8515,2.22842 -1.26019,2.99579 -0.16456,0.30899 -0.2992,0.64948 -0.2992,0.75667 0,0.1826 -1.77953,3.56456 -2.67286,5.07971 -1.66052,2.81637 -4.23117,5.90939 -6.47045,7.78529 -1.39185,1.16598 -4.08429,2.60366 -5.91786,3.15994 -1.30993,0.39741 -5.07247,0.61842 -6.04569,0.35511 z m 13.55504,-76.85541 c -0.23707,-0.23655 -0.0291,-3.02579 0.35502,-4.76216 0.57312,-2.59047 1.32493,-5.0675 2.1199,-6.98454 0.0966,-0.23282 0.48341,-1.18525 0.8597,-2.11652 0.37629,-0.93127 0.7393,-1.74085 0.80668,-1.79905 0.0674,-0.0582 0.44552,-0.72491 0.84029,-1.48157 0.88442,-1.69514 1.97693,-3.46831 2.19517,-3.56282 0.0896,-0.0388 0.16293,-0.18527 0.16293,-0.32548 0,-0.49161 3.5142,-4.36776 4.89483,-5.39898 2.11737,-1.5815 4.23208,-2.14832 5.75365,-1.54218 0.85495,0.34058 1.27829,1.91887 0.98794,3.68321 -0.22092,1.34243 -0.71065,3.30287 -1.01853,4.07729 -0.72004,1.81115 -2.37382,4.92479 -3.56608,6.71401 -0.78671,1.18062 -1.52584,2.29593 -1.64251,2.47847 -0.11667,0.18254 -0.2633,0.37951 -0.32585,0.43771 -0.0625,0.0582 -0.69666,0.82015 -1.40914,1.69322 -1.40805,1.72539 -4.00643,4.29152 -5.68953,5.61892 -0.58336,0.46006 -1.10838,0.8898 -1.16672,0.95496 -0.13787,0.15401 -3.77281,2.52718 -3.87083,2.52718 -0.0411,0 -0.17024,-0.0952 -0.28692,-0.21167 z m 60.6704,-4.73732 c -0.22839,-0.59382 0.26364,-5.19818 0.77164,-7.22103 0.14617,-0.58205 0.45021,-1.5821 0.67564,-2.22235 0.22543,-0.64025 0.48527,-1.44982 0.57743,-1.79905 0.13857,-0.52513 0.86766,-2.0823 2.23494,-4.77335 0.11517,-0.22668 0.28222,-0.41214 0.37123,-0.41214 0.089,0 0.16182,-0.10536 0.16182,-0.23415 0,-0.34757 2.59873,-3.60414 3.52043,-4.41159 1.21718,-1.0663 2.84945,-2.0342 3.84698,-2.28117 0.86966,-0.21531 1.77747,-0.0607 2.55285,0.43478 0.84463,0.53975 1.16775,3.36908 0.59846,5.24041 -0.61918,2.03536 -2.98732,5.9441 -4.79764,7.91878 -0.42688,0.46563 -1.29775,1.42124 -1.93526,2.12356 -1.69061,1.86248 -3.1981,3.34658 -5.58972,5.50301 -2.85035,2.57003 -2.8275,2.55371 -2.9888,2.13429 z"
     id="path3357"
     inkscape:connector-curvature="0" />
</svg>
