<?xml version="1.0" encoding="UTF-8" standalone="no"?>
<svg
   xmlns:dc="http://purl.org/dc/elements/1.1/"
   xmlns:cc="http://creativecommons.org/ns#"
   xmlns:rdf="http://www.w3.org/1999/02/22-rdf-syntax-ns#"
   xmlns:svg="http://www.w3.org/2000/svg"
   xmlns="http://www.w3.org/2000/svg"
   xmlns:sodipodi="http://sodipodi.sourceforge.net/DTD/sodipodi-0.dtd"
   xmlns:inkscape="http://www.inkscape.org/namespaces/inkscape"
   viewBox="0 0 500 500"
   height="500"
   width="500"
   version="1.1"
   id="svg2"
   inkscape:version="0.91 r13725"
   sodipodi:docname="git.svg">
  <sodipodi:namedview
     pagecolor="#ffffff"
     bordercolor="#666666"
     borderopacity="1"
     objecttolerance="10"
     gridtolerance="10"
     guidetolerance="10"
     inkscape:pageopacity="0"
     inkscape:pageshadow="2"
     inkscape:window-width="640"
     inkscape:window-height="480"
     id="namedview7"
     showgrid="false"
     inkscape:zoom="0.472"
     inkscape:cx="250"
     inkscape:cy="250"
     inkscape:window-x="0"
     inkscape:window-y="24"
     inkscape:window-maximized="0"
     inkscape:current-layer="svg2" />
  <metadata
     id="metadata8">
    <rdf:RDF>
      <cc:Work
         rdf:about="">
        <dc:format>image/svg+xml</dc:format>
        <dc:type
           rdf:resource="http://purl.org/dc/dcmitype/StillImage" />
        <dc:title />
      </cc:Work>
    </rdf:RDF>
  </metadata>
  <defs
     id="defs6" />
  <path
     id="path3338"
     d="m 239.65403,385.24952 c -1.89699,-1.16203 -32.8463,-29.86025 -68.77625,-63.77384 -50.49466,-47.66094 -65.68345,-62.40787 -66.89635,-64.95026 -2.19116,-4.59293 -2.0896,-10.34029 0.26478,-14.98411 1.46692,-2.89341 11.2416,-12.48431 46.92664,-46.04436 l 45.07376,-42.3897 16.68991,15.71067 c 11.50323,10.82831 16.54226,16.0514 16.2148,16.80707 -0.98034,2.26233 -1.23466,9.97456 -0.42217,12.80256 1.37271,4.77795 5.18412,9.71046 9.42066,12.19171 l 3.8737,2.26874 0,37.89005 0,37.89005 -2.94209,1.74984 c -3.36264,1.99994 -7.26147,5.97014 -9.25567,9.42508 -2.10011,3.63846 -1.90617,13.82482 0.33892,17.80037 2.60243,4.60831 5.14199,7.09561 9.55543,9.35876 14.88448,7.63254 32.90345,-2.57545 32.79804,-18.58054 -0.0484,-7.34386 -3.44459,-13.45837 -9.6106,-17.30281 l -3.04046,-1.89569 0,-37.54588 c 0,-20.65024 0.2652,-37.54588 0.58932,-37.54588 0.32413,0 7.34758,6.37363 15.60768,14.16362 l 15.01837,14.16364 -0.96455,2.75355 c -0.56366,1.60912 -0.80577,4.61725 -0.58251,7.23764 0.90117,10.57724 9.17222,18.39702 20.35309,19.24259 14.81641,1.12053 26.74271,-11.62813 23.63792,-25.26785 -2.44485,-10.74054 -14.18489,-18.29335 -25.43938,-16.3661 l -3.8612,0.6612 -16.31644,-15.42074 -16.31644,-15.42073 0.70966,-3.48031 c 2.75223,-13.49731 -10.6158,-26.42312 -25.0134,-24.18597 l -4.4319,0.68865 -16.89556,-15.93062 -16.89557,-15.93062 14.3452,-13.57379 c 7.88986,-7.46559 15.74165,-14.28117 17.44843,-15.14573 4.34577,-2.20133 12.72598,-2.20022 17.06776,0.002 3.90762,1.98224 135.45905,126.03557 137.41717,129.58472 2.06942,3.75091 1.93368,11.86751 -0.26283,15.71505 -2.157,3.77833 -134.04854,127.93252 -137.01089,128.97323 -1.20118,0.42198 -5.06036,0.76724 -8.57594,0.76724 -5.7357,0 -6.7461,-0.21693 -9.84104,-2.11277 z"
     style="fill:#000000"
     inkscape:connector-curvature="0" />
</svg>
