<?xml version="1.0" encoding="UTF-8" standalone="no"?>
<!-- Created with Inkscape (http://www.inkscape.org/) -->

<svg
   xmlns:dc="http://purl.org/dc/elements/1.1/"
   xmlns:cc="http://creativecommons.org/ns#"
   xmlns:rdf="http://www.w3.org/1999/02/22-rdf-syntax-ns#"
   xmlns:svg="http://www.w3.org/2000/svg"
   xmlns="http://www.w3.org/2000/svg"
   xmlns:sodipodi="http://sodipodi.sourceforge.net/DTD/sodipodi-0.dtd"
   xmlns:inkscape="http://www.inkscape.org/namespaces/inkscape"
   id="svg2"
   version="1.1"
   inkscape:version="0.91 r13725"
   width="500"
   height="500"
   viewBox="0 0 500 500"
   sodipodi:docname="marriott.svg">
  <metadata
     id="metadata8">
    <rdf:RDF>
      <cc:Work
         rdf:about="">
        <dc:format>image/svg+xml</dc:format>
        <dc:type
           rdf:resource="http://purl.org/dc/dcmitype/StillImage" />
        <dc:title></dc:title>
      </cc:Work>
    </rdf:RDF>
  </metadata>
  <defs
     id="defs6" />
  <sodipodi:namedview
     pagecolor="#ffffff"
     bordercolor="#666666"
     borderopacity="1"
     objecttolerance="10"
     gridtolerance="10"
     guidetolerance="10"
     inkscape:pageopacity="0"
     inkscape:pageshadow="2"
     inkscape:window-width="884"
     inkscape:window-height="678"
     id="namedview4"
     showgrid="false"
     inkscape:zoom="1.1125147"
     inkscape:cx="280.03309"
     inkscape:cy="301.54354"
     inkscape:window-x="229"
     inkscape:window-y="119"
     inkscape:window-maximized="0"
     inkscape:current-layer="svg2" />
  <path
     style="fill:#000000"
     d="m 213.6813,350.35881 c -6.37219,-1.41569 -19.0745,-6.24361 -28.22734,-10.72867 -13.34083,-6.53725 -19.35084,-10.86347 -30.30133,-21.81198 -7.51289,-7.51153 -15.0753,-16.13337 -16.80536,-19.15965 l -3.14555,-5.50233 9.5903,0.98125 c 5.27466,0.53969 14.99605,0.0481 21.60309,-1.0926 32.77974,-5.65903 47.29626,-16.1135 55.36053,-39.86943 l 3.73438,-11.00083 27.73445,52.31305 27.73445,52.31305 -7.34795,2.35716 c -11.14939,3.57662 -46.08544,4.27675 -59.92967,1.20098 z m 92.77181,-21.95382 c -1.86612,-3.45674 -31.03219,-64.47591 -75.19458,-157.31675 -13.6097,-28.61113 -24.13481,-52.61581 -23.38911,-53.34371 0.74569,-0.72791 5.36627,-1.82543 10.26796,-2.43892 l 8.91215,-1.11545 20.94753,45.62401 c 11.52114,25.09321 23.65785,51.98532 26.97049,59.76026 3.31263,7.77494 15.34227,33.96801 26.73251,58.20683 11.39025,24.23881 20.70955,44.69813 20.70955,45.46513 0,0.76702 -3.17936,3.00254 -7.06524,4.96783 -6.93524,3.50754 -7.09881,3.51104 -8.89126,0.19077 z m 59.75339,-22.37226 c -1.54054,-1.52721 -2.73764,-4.50907 -2.66024,-6.62636 0.09,-2.4613 0.46229,-2.89373 1.03243,-1.19906 2.51508,7.47587 3.05466,7.69793 4.29367,1.76703 1.29101,-6.17992 1.29187,-6.17891 1.12897,1.32528 -0.0897,4.13043 -0.34996,7.50988 -0.57845,7.50988 -0.22847,0 -1.67586,-1.24954 -3.21638,-2.77677 z m 12.12996,-5.1954 c 0.27902,-8.34596 -4.00058,-11.79426 -10.02307,-8.0761 -3.67721,2.27023 -3.80992,2.23182 -1.57036,-0.45463 6.77848,-8.13108 18.71116,3.62395 12.90295,12.71083 -0.99392,1.55499 -1.45235,0.0917 -1.30952,-4.1801 z m -5.11884,0.91804 c -0.60107,-0.96416 -0.26754,-3.15086 0.74119,-4.85934 1.5479,-2.62163 1.7804,-2.34811 1.49015,1.75304 -0.37861,5.34917 -0.62191,5.6879 -2.23134,3.1063 z M 343.14225,283.62931 C 329.20258,265.44699 280.27498,159.45172 270.08126,125.35221 l -2.81145,-9.40473 5.73512,1.15802 c 3.15431,0.63691 13.35501,4.77785 22.66821,9.20209 14.11671,6.70615 19.32598,10.42897 31.31994,22.38296 7.91277,7.88639 16.87731,18.71229 19.92122,24.05756 14.2592,25.03989 19.4418,55.92632 13.94553,83.11006 -2.73047,13.50442 -10.14325,33.51399 -12.41563,33.51399 -0.49452,0 -2.8804,-2.58429 -5.30195,-5.74285 z M 146.5303,264.46837 c -10.91617,-4.16106 -22.71062,-15.20427 -25.64154,-24.00831 -4.48068,-13.45929 2.09902,-44.6282 13.92087,-65.94492 6.61743,-11.93231 33.56458,-40.64172 38.14702,-40.64172 1.38162,0 3.40133,2.1867 4.48824,4.85934 1.08691,2.67263 8.9206,20.20008 17.40818,38.94988 l 15.43198,34.09053 -1.89489,13.6193 c -2.18097,15.6754 -8.83318,30.61277 -15.76248,35.39428 -11.7908,8.13615 -30.49286,9.62981 -46.09738,3.68162 z"
     id="path3357"
     inkscape:connector-curvature="0" />
</svg>
