<?xml version="1.0" encoding="UTF-8" standalone="no"?>
<!-- Created with Inkscape (http://www.inkscape.org/) -->

<svg
   xmlns:dc="http://purl.org/dc/elements/1.1/"
   xmlns:cc="http://creativecommons.org/ns#"
   xmlns:rdf="http://www.w3.org/1999/02/22-rdf-syntax-ns#"
   xmlns:svg="http://www.w3.org/2000/svg"
   xmlns="http://www.w3.org/2000/svg"
   xmlns:sodipodi="http://sodipodi.sourceforge.net/DTD/sodipodi-0.dtd"
   xmlns:inkscape="http://www.inkscape.org/namespaces/inkscape"
   id="svg2"
   version="1.1"
   inkscape:version="0.91 r13725"
   width="500"
   height="500"
   viewBox="0 0 500 500"
   sodipodi:docname="mcdonalds.svg">
  <metadata
     id="metadata8">
    <rdf:RDF>
      <cc:Work
         rdf:about="">
        <dc:format>image/svg+xml</dc:format>
        <dc:type
           rdf:resource="http://purl.org/dc/dcmitype/StillImage" />
        <dc:title></dc:title>
      </cc:Work>
    </rdf:RDF>
  </metadata>
  <defs
     id="defs6" />
  <sodipodi:namedview
     pagecolor="#ffffff"
     bordercolor="#666666"
     borderopacity="1"
     objecttolerance="10"
     gridtolerance="10"
     guidetolerance="10"
     inkscape:pageopacity="0"
     inkscape:pageshadow="2"
     inkscape:window-width="899"
     inkscape:window-height="701"
     id="namedview4"
     showgrid="false"
     inkscape:zoom="0.834386"
     inkscape:cx="323.2233"
     inkscape:cy="258.08221"
     inkscape:window-x="170"
     inkscape:window-y="147"
     inkscape:window-maximized="0"
     inkscape:current-layer="svg2" />
  <path
     style="fill:#000000"
     d="m 136.12158,317.07805 c 0.10686,-12.35527 0.57142,-24.09167 1.35897,-34.33257 4.65819,-60.57283 21.3201,-109.22679 42.93614,-125.37654 8.27406,-6.1817 17.07457,-7.34724 25.86981,-3.42619 3.31044,1.47585 5.97841,3.2539 9.27707,6.18267 6.94017,6.16196 13.00352,14.94457 18.7159,27.10952 2.78013,5.92051 6.19079,14.77337 8.15654,21.17148 0.18091,0.58881 0.1362,0.67972 1.05947,-2.154 3.5723,-10.96403 8.26281,-21.66558 12.87573,-29.37639 4.35859,-7.28569 8.44056,-12.43994 13.22813,-16.70302 3.33775,-2.97208 5.907,-4.68962 9.27618,-6.20108 3.74826,-1.68153 7.29351,-2.40653 11.10394,-2.27075 4.86293,0.17329 9.55884,1.89598 14.2343,5.22183 1.60522,1.14187 4.95721,4.11637 6.4506,5.72416 6.22274,6.69946 12.06722,16.25316 17.00243,27.79313 10.53393,24.63141 17.6146,57.77142 20.24942,94.7744 0.63381,8.90096 0.96328,17.1943 1.11765,28.13326 l 0.0567,4.01904 -13.26429,0 -13.26429,0 -0.0802,-7.22376 c -0.23415,-21.09441 -1.26233,-40.20544 -3.15296,-58.6044 -4.52204,-44.00703 -13.21282,-75.45973 -23.51642,-85.10806 -1.53896,-1.44109 -3.37378,-2.47365 -5.06441,-2.85005 -1.19097,-0.26515 -2.85172,-0.15853 -4.14903,0.26637 -3.99233,1.30761 -7.98629,5.79028 -11.553,12.96666 -11.19185,22.5185 -18.54879,69.28328 -19.10726,121.45624 l -0.0773,7.22376 -13.25097,0 -13.25098,0 -0.077,-7.22376 c -0.42363,-39.71709 -4.80851,-76.92992 -12.06837,-102.41979 -4.14619,-14.55757 -8.88165,-24.35376 -14.11378,-29.19704 -1.60665,-1.48726 -2.92437,-2.3021 -4.61016,-2.85081 -1.16181,-0.37815 -2.8866,-0.47331 -4.01707,-0.22163 -5.08905,1.13302 -9.85812,7.23551 -14.29731,18.29478 -8.67891,21.62164 -14.9074,60.51787 -16.82542,105.07289 -0.37077,8.61269 -0.64707,20.02233 -0.65076,26.87239 l -0.002,3.54621 -13.28929,0 -13.28928,0 0.002,-0.28895 z m 225.44282,0.17445 c -3.26636,-0.35671 -5.72566,-2.85743 -5.72566,-5.82212 0,-1.61384 0.61751,-2.91963 1.94201,-4.10655 3.53369,-3.16667 9.57942,-1.77578 10.99909,2.53046 0.29227,0.88653 0.26805,2.41185 -0.0526,3.3098 -0.98426,2.75662 -3.93511,4.4409 -7.16286,4.08841 z m 2.80439,-1.03256 c 2.01442,-0.69287 3.34001,-2.37602 3.48243,-4.4218 0.11396,-1.63682 -0.47734,-3.07692 -1.6781,-4.08706 -2.1658,-1.82197 -5.5542,-1.78159 -7.62096,0.0908 -2.99299,2.71154 -1.65206,7.56526 2.3654,8.56195 0.91982,0.2282 2.56938,0.15942 3.45123,-0.1439 z m -4.51723,-4.79996 0,-3.42526 2.03769,0.0374 c 1.74511,0.032 2.10531,0.0674 2.50864,0.24681 1.63008,0.72499 1.38554,3.0358 -0.3627,3.42736 -0.28693,0.0643 -0.5217,0.14172 -0.5217,0.17213 0,0.0304 0.45184,0.67856 1.00408,1.44035 0.55225,0.76178 1.00408,1.41948 1.00408,1.46155 0,0.0421 -0.25102,0.0621 -0.55782,0.0445 l -0.55783,-0.032 -1.00735,-1.44308 -1.00736,-1.44306 -0.67923,-0.002 -0.67923,-0.002 0,1.47102 0,1.47102 -0.59064,0 -0.59063,0 0,-3.42527 z m 4.204,-0.7047 c 0.40066,-0.41469 0.40227,-1.19905 0.003,-1.53258 -0.30953,-0.25865 -1.57234,-0.46908 -2.46822,-0.4113 l -0.49858,0.0322 -0.0336,1.13867 -0.0336,1.13866 1.37305,-0.0354 c 1.33628,-0.0344 1.38067,-0.0433 1.65788,-0.33021 z"
     id="path3357"
     inkscape:connector-curvature="0" />
</svg>
