<?xml version="1.0" encoding="UTF-8" standalone="no"?>
<!-- Created with Inkscape (http://www.inkscape.org/) -->

<svg
   xmlns:dc="http://purl.org/dc/elements/1.1/"
   xmlns:cc="http://creativecommons.org/ns#"
   xmlns:rdf="http://www.w3.org/1999/02/22-rdf-syntax-ns#"
   xmlns:svg="http://www.w3.org/2000/svg"
   xmlns="http://www.w3.org/2000/svg"
   xmlns:sodipodi="http://sodipodi.sourceforge.net/DTD/sodipodi-0.dtd"
   xmlns:inkscape="http://www.inkscape.org/namespaces/inkscape"
   id="svg2"
   version="1.1"
   inkscape:version="0.91 r13725"
   width="500"
   height="500"
   viewBox="0 0 500 500"
   sodipodi:docname="nbc.svg">
  <metadata
     id="metadata8">
    <rdf:RDF>
      <cc:Work
         rdf:about="">
        <dc:format>image/svg+xml</dc:format>
        <dc:type
           rdf:resource="http://purl.org/dc/dcmitype/StillImage" />
        <dc:title></dc:title>
      </cc:Work>
    </rdf:RDF>
  </metadata>
  <defs
     id="defs6" />
  <sodipodi:namedview
     pagecolor="#ffffff"
     bordercolor="#666666"
     borderopacity="1"
     objecttolerance="10"
     gridtolerance="10"
     guidetolerance="10"
     inkscape:pageopacity="0"
     inkscape:pageshadow="2"
     inkscape:window-width="888"
     inkscape:window-height="711"
     id="namedview4"
     showgrid="false"
     inkscape:zoom="0.82330401"
     inkscape:cx="224.67465"
     inkscape:cy="212.38745"
     inkscape:window-x="209"
     inkscape:window-y="168"
     inkscape:window-maximized="0"
     inkscape:current-layer="svg2" />
  <path
     style="fill:#000000"
     d="m 105.53766,341.01068 c -21.874876,-2.23753 -37.523064,-21.06267 -35.381494,-42.56481 0.549153,-5.5137 1.410345,-8.66413 3.48935,-12.7648 2.202429,-4.34411 4.522682,-7.51633 7.991452,-10.92582 5.564116,-5.46902 11.535617,-8.63175 19.116582,-10.12486 3.43753,-0.67703 10.1959,-0.73492 13.55466,-0.11609 5.35712,0.98701 10.84847,2.98974 15.23547,5.55647 1.96952,1.15233 103.32286,70.22341 104.17175,70.9918 0.28792,0.26061 -125.62093,0.20962 -128.17777,-0.0519 z m 166.9857,0.0627 c 0.43156,-0.3777 101.46003,-69.37066 103.18444,-70.4653 2.34927,-1.49131 7.01836,-3.65635 9.74201,-4.51734 9.68004,-3.06002 19.41419,-2.23616 28.60295,2.42087 7.18207,3.63998 13.54751,10.04368 17.23554,17.33909 5.35279,10.58854 5.32594,23.43649 -0.072,34.47468 -5.23467,10.70432 -14.02983,17.65208 -25.71457,20.31333 l -2.19526,0.49998 -65.50575,0.0673 c -36.64808,0.0376 -65.40514,-0.0206 -65.27736,-0.13259 z m -99.96172,-50.12872 c -30.51912,-20.51038 -56.00922,-37.70469 -56.64466,-38.20959 -6.35662,-5.05078 -10.78827,-10.80408 -13.32648,-17.30084 -1.98648,-5.08457 -2.829505,-12.0834 -2.12535,-17.64472 1.31509,-10.38626 6.77046,-20.22791 14.25417,-25.7149 7.83435,-5.74407 15.82538,-8.45072 24.8761,-8.42581 14.35333,0.0395 27.11813,8.19872 33.9322,21.68934 0.85955,1.70177 51.97464,116.16396 54.56012,122.17666 0.17839,0.41486 0.24309,0.7469 0.14378,0.73787 -0.0993,-0.009 -25.15075,-16.79763 -55.66988,-37.30801 z m 105.47757,36.68619 c 0.1205,-0.22339 11.89582,-27.03816 26.16742,-59.58838 14.27157,-32.55022 26.58711,-60.41474 27.36786,-61.92114 7.39486,-14.26798 19.59853,-22.21045 34.12655,-22.21045 10.12364,0 20.08298,3.76181 26.86109,10.14586 3.95195,3.72223 6.23512,6.76364 8.49944,11.3222 3.04344,6.12706 4.20665,11.55609 3.94663,18.41993 -0.22043,5.81867 -1.20406,9.54761 -3.95685,15.00062 -1.04916,2.07827 -2.31377,4.12744 -3.50913,5.68614 -1.94945,2.54203 -6.22542,6.79747 -8.66299,8.62142 -1.67975,1.2569 -110.7539,74.92995 -110.935,74.92995 -0.0683,0 -0.0255,-0.18277 0.095,-0.40615 z M 201.2712,250.92604 c -15.10969,-34.87979 -27.74583,-64.34803 -28.08033,-65.48496 -2.53924,-8.63084 -2.5395,-16.25277 -7.1e-4,-23.75366 3.53961,-10.45825 12.05107,-19.17224 23.05519,-23.60378 6.17583,-2.48711 15.41123,-3.11171 22.64167,-1.53129 11.13674,2.43425 20.54179,9.50862 25.47224,19.15994 3.28804,6.43631 4.79252,14.34826 4.19355,22.05347 -0.26707,3.43405 -19.44839,136.5781 -19.67617,136.5781 -0.0733,0 -12.49576,-28.53802 -27.60544,-63.41782 z m 67.0118,6.11798 -8.71882,-57.29983 0.12357,-3.33294 c 0.13657,-3.68369 0.47246,-5.23111 1.68182,-7.74808 1.45891,-3.03632 3.76305,-4.99959 8.79484,-7.49378 3.18674,-1.57962 3.31853,-1.68523 2.91108,-2.33275 -0.53446,-0.84936 -2.51261,-1.64348 -4.71196,-1.89159 -1.09868,-0.12394 -4.15281,-0.22614 -6.78697,-0.22711 l -4.78937,-0.002 0,-2.77316 c 0,-5.13655 1.11391,-10.96069 2.95409,-15.44569 5.15628,-12.56715 16.93836,-21.13998 31.44403,-22.87918 3.21105,-0.385 8.99777,-0.15655 12.18645,0.48111 14.39347,2.87832 26.82507,15.1737 30.06351,29.73407 1.39855,6.288 0.92415,13.73672 -1.28234,20.13526 -0.82782,2.40052 -54.82566,128.36634 -55.02928,128.37193 -0.067,0.002 -4.0453,-25.78159 -8.84065,-57.2965 z"
     id="path3357"
     inkscape:connector-curvature="0" />
</svg>
