<?xml version="1.0" encoding="UTF-8" standalone="no"?>
<!-- Created with Inkscape (http://www.inkscape.org/) -->

<svg
   xmlns:dc="http://purl.org/dc/elements/1.1/"
   xmlns:cc="http://creativecommons.org/ns#"
   xmlns:rdf="http://www.w3.org/1999/02/22-rdf-syntax-ns#"
   xmlns:svg="http://www.w3.org/2000/svg"
   xmlns="http://www.w3.org/2000/svg"
   xmlns:sodipodi="http://sodipodi.sourceforge.net/DTD/sodipodi-0.dtd"
   xmlns:inkscape="http://www.inkscape.org/namespaces/inkscape"
   id="svg2"
   version="1.1"
   inkscape:version="0.91 r13725"
   width="500"
   height="500"
   viewBox="0 0 500 500"
   sodipodi:docname="nike.svg">
  <metadata
     id="metadata8">
    <rdf:RDF>
      <cc:Work
         rdf:about="">
        <dc:format>image/svg+xml</dc:format>
        <dc:type
           rdf:resource="http://purl.org/dc/dcmitype/StillImage" />
        <dc:title></dc:title>
      </cc:Work>
    </rdf:RDF>
  </metadata>
  <defs
     id="defs6" />
  <sodipodi:namedview
     pagecolor="#ffffff"
     bordercolor="#666666"
     borderopacity="1"
     objecttolerance="10"
     gridtolerance="10"
     guidetolerance="10"
     inkscape:pageopacity="0"
     inkscape:pageshadow="2"
     inkscape:window-width="771"
     inkscape:window-height="636"
     id="namedview4"
     showgrid="false"
     inkscape:zoom="0.5264"
     inkscape:cx="312.5"
     inkscape:cy="121.25"
     inkscape:window-x="344"
     inkscape:window-y="271"
     inkscape:window-maximized="0"
     inkscape:current-layer="svg2" />
  <path
     style="fill:#000000"
     d="m 125.19282,307.17966 c -30.494549,-9.46446 -32.048133,-48.9306 -3.64087,-92.49021 3.61039,-5.53616 13.13804,-18.69889 19.71156,-27.23211 l 2.79275,-3.62534 -3.46743,8.67614 c -9.35706,23.41298 -9.14194,42.99384 0.5958,54.23256 5.51299,6.36276 10.23145,8.41939 20.67606,9.01209 13.45456,0.76348 -2.29798,5.1787 174.54509,-48.92263 27.74972,-8.48943 55.49944,-16.98617 61.66604,-18.88164 6.1666,-1.89546 11.30562,-3.33974 11.42004,-3.20951 0.11442,0.13024 -9.00611,4.74127 -20.26786,10.24673 -193.3422,94.51812 -210.27768,102.70677 -220.99831,106.85726 -17.05265,6.60192 -32.70283,8.54275 -43.03287,5.33666 z"
     id="path3357"
     inkscape:connector-curvature="0" />
</svg>
