<?xml version="1.0" encoding="UTF-8" standalone="no"?>
<!-- Created with Inkscape (http://www.inkscape.org/) -->

<svg
   xmlns:dc="http://purl.org/dc/elements/1.1/"
   xmlns:cc="http://creativecommons.org/ns#"
   xmlns:rdf="http://www.w3.org/1999/02/22-rdf-syntax-ns#"
   xmlns:svg="http://www.w3.org/2000/svg"
   xmlns="http://www.w3.org/2000/svg"
   xmlns:sodipodi="http://sodipodi.sourceforge.net/DTD/sodipodi-0.dtd"
   xmlns:inkscape="http://www.inkscape.org/namespaces/inkscape"
   id="svg2"
   version="1.1"
   inkscape:version="0.91 r13725"
   width="500"
   height="500"
   viewBox="0 0 500 500"
   sodipodi:docname="playstation.svg">
  <metadata
     id="metadata8">
    <rdf:RDF>
      <cc:Work
         rdf:about="">
        <dc:format>image/svg+xml</dc:format>
        <dc:type
           rdf:resource="http://purl.org/dc/dcmitype/StillImage" />
        <dc:title></dc:title>
      </cc:Work>
    </rdf:RDF>
  </metadata>
  <defs
     id="defs6" />
  <sodipodi:namedview
     pagecolor="#ffffff"
     bordercolor="#666666"
     borderopacity="1"
     objecttolerance="10"
     gridtolerance="10"
     guidetolerance="10"
     inkscape:pageopacity="0"
     inkscape:pageshadow="2"
     inkscape:window-width="923"
     inkscape:window-height="728"
     id="namedview4"
     showgrid="false"
     inkscape:zoom="0.62023653"
     inkscape:cx="431.6502"
     inkscape:cy="336.79326"
     inkscape:window-x="173"
     inkscape:window-y="154"
     inkscape:window-maximized="0"
     inkscape:current-layer="svg2" />
  <path
     style="fill:#000000"
     d="m 246.37168,359.04531 c -3.41863,-1.32495 -13.17657,-5.07725 -21.68431,-8.33844 l -15.46862,-5.92943 0,-7.76395 0,-7.76395 -0.98702,0.48553 c -3.17149,1.56009 -13.03775,4.3303 -18.93147,5.3155 -9.44954,1.57961 -19.99858,1.57957 -30.08963,-10e-5 -5.35608,-0.83845 -20.73056,-3.73308 -25.56912,-4.81403 -11.52199,-2.57404 -18.72122,-5.41219 -23.18855,-9.14161 -1.92643,-1.60822 -2.99049,-3.09377 -3.84498,-5.368 -0.85108,-2.26516 -0.63058,-7.94667 0.43491,-11.20564 1.15779,-3.54134 2.62437,-6.1111 5.25384,-9.20588 4.44998,-5.23745 9.41941,-8.45399 18.66072,-12.07842 7.55637,-2.9636 77.15256,-30.69243 77.76687,-30.98423 0.46861,-0.22259 0.49443,-3.75978 0.49443,-67.72258 0,-38.82623 0.10599,-67.48771 0.24957,-67.48771 0.47806,0 57.83514,17.9287 61.17434,19.12191 24.22159,8.65515 40.15063,22.44599 47.64547,41.24991 2.12421,5.32945 3.48509,10.65728 4.41805,17.29661 0.63431,4.51407 0.70784,18.55864 0.12713,24.28178 -2.29455,22.61329 -9.46575,35.98355 -21.92861,40.88456 -7.57085,2.97722 -18.24023,2.61322 -28.89326,-0.98573 l -1.48329,-0.5011 0,-45.40499 c 0,-37.77144 -0.0653,-45.58902 -0.38845,-46.49955 -1.11831,-3.15105 -4.14396,-5.22694 -7.97205,-5.4696 -4.01124,-0.25427 -6.86401,1.30949 -8.06449,4.42059 -0.4912,1.27296 -0.51479,3.92778 -0.52071,58.60161 l -0.006,57.26824 5.43874,-2.16458 c 15.15707,-6.0324 29.47305,-9.91906 42.87419,-11.63994 6.41656,-0.82396 20.17834,-0.82754 27.12305,-0.007 13.27997,1.56899 24.53446,4.1537 32.20863,7.39704 10.21796,4.31842 16.74742,10.97126 18.1102,18.45242 1.50068,8.23812 -4.4718,16.60976 -16.31178,22.86424 -4.83927,2.55635 -108.48627,45.33743 -109.70135,45.28006 -0.4018,-0.019 -3.5276,-1.11855 -6.94624,-2.4435 z m 45.20509,-45.74313 c 20.35641,-8.20118 37.87813,-15.29743 38.93716,-15.76946 4.37024,-1.94786 7.92813,-4.752 8.65668,-6.82273 0.7419,-2.10868 -1.03979,-3.95305 -4.70092,-4.86635 -2.59282,-0.64679 -9.45759,-0.62987 -14.07468,0.0347 -3.38673,0.48747 -4.59752,0.88965 -15.53925,5.16154 -6.52649,2.54808 -20.70252,8.20202 -31.50229,12.5643 l -19.63596,7.93143 -0.0755,8.56658 c -0.0711,8.07447 -0.0468,8.55351 0.4238,8.33892 0.27459,-0.12522 17.15451,-6.93772 37.51093,-15.13891 z m -125.10919,2.712 c 0.96116,-0.30786 10.97169,-4.22695 22.24561,-8.7091 l 20.49805,-8.14937 0.004,-9.39671 c 0.002,-5.1682 -0.071,-9.39672 -0.16241,-9.39672 -0.0914,0 -9.97647,4.12959 -21.96684,9.17686 -11.99038,5.04727 -24.27023,10.2124 -27.28855,11.47807 -3.01833,1.26568 -6.09785,2.76205 -6.84337,3.32528 -4.70359,3.55345 -2.46706,9.60107 4.3499,11.76219 2.07328,0.65727 6.98047,0.60881 9.16385,-0.0905 z"
     id="path3357"
     inkscape:connector-curvature="0" />
</svg>
