<?xml version="1.0" encoding="UTF-8" standalone="no"?>
<!-- Created with Inkscape (http://www.inkscape.org/) -->

<svg
   xmlns:dc="http://purl.org/dc/elements/1.1/"
   xmlns:cc="http://creativecommons.org/ns#"
   xmlns:rdf="http://www.w3.org/1999/02/22-rdf-syntax-ns#"
   xmlns:svg="http://www.w3.org/2000/svg"
   xmlns="http://www.w3.org/2000/svg"
   xmlns:sodipodi="http://sodipodi.sourceforge.net/DTD/sodipodi-0.dtd"
   xmlns:inkscape="http://www.inkscape.org/namespaces/inkscape"
   id="svg2"
   version="1.1"
   inkscape:version="0.91 r13725"
   width="500"
   height="500"
   viewBox="0 0 500 500"
   sodipodi:docname="sap.svg">
  <metadata
     id="metadata8">
    <rdf:RDF>
      <cc:Work
         rdf:about="">
        <dc:format>image/svg+xml</dc:format>
        <dc:type
           rdf:resource="http://purl.org/dc/dcmitype/StillImage" />
        <dc:title></dc:title>
      </cc:Work>
    </rdf:RDF>
  </metadata>
  <defs
     id="defs6" />
  <sodipodi:namedview
     pagecolor="#ffffff"
     bordercolor="#666666"
     borderopacity="1"
     objecttolerance="10"
     gridtolerance="10"
     guidetolerance="10"
     inkscape:pageopacity="0"
     inkscape:pageshadow="2"
     inkscape:window-width="930"
     inkscape:window-height="700"
     id="namedview4"
     showgrid="false"
     inkscape:zoom="0.77393553"
     inkscape:cx="212.55"
     inkscape:cy="322.98557"
     inkscape:window-x="186"
     inkscape:window-y="230"
     inkscape:window-maximized="0"
     inkscape:current-layer="svg2" />
  <path
     style="fill:#000000"
     d="m 88.437768,337.26546 -8.625,-0.0844 0,-21.44755 0,-21.44754 3.975,1.99306 c 7.48821,3.75458 14.93379,6.33498 22.830792,7.91241 7.20241,1.43869 9.41415,1.64017 18.04421,1.64381 7.08754,0.003 8.56027,-0.0802 11.78224,-0.66563 9.03138,-1.64096 16.81158,-4.93294 23.09471,-9.77189 1.91679,-1.47622 2.12191,-1.47648 1.53944,-0.002 -0.18349,0.46449 -0.98032,2.56578 -1.77073,4.66953 l -1.43711,3.825 18.05325,0 18.05324,0 2.93558,-9.03152 c 2.76205,-8.49762 2.97442,-9.02292 3.59248,-8.88619 0.3613,0.0799 2.0069,0.49437 3.6569,0.92099 5.20413,1.34556 8.38393,1.75058 15.02085,1.91325 4.89268,0.11991 7.21638,0.0409 10.28428,-0.34955 3.404,-0.43326 9.8969,-1.79956 11.49772,-2.41946 0.42786,-0.16568 0.84437,0.87127 2.7931,6.95388 1.25964,3.93173 2.56312,7.99235 2.89662,9.0236 l 0.60635,1.875 29.29954,0 29.29954,0 -16.79799,16.8 -16.79799,16.8 -87.60101,-0.0702 c -48.18055,-0.0385 -91.482262,-0.10808 -96.226012,-0.15449 z m 217.575012,-52.38651 0,-18.71132 10.125,-0.165 c 10.9402,-0.17829 13.69429,-0.45289 20.06847,-2.00096 6.27375,-1.52369 11.46,-3.84778 16.30653,-7.30738 0.9075,-0.64779 -9.14969,9.63879 -22.3493,22.85908 -13.19961,13.22029 -24.03336,24.0369 -24.075,24.0369 -0.0416,0 -0.0757,-8.42009 -0.0757,-18.71132 z M 79.840958,257.96527 c 0.0245,-30.88686 0.0817,-35.25574 0.43797,-33.46264 0.54017,2.71854 1.50843,5.61856 2.61686,7.83764 3.98083,7.96968 12.36128,14.58016 25.128082,19.82096 3.98061,1.63405 6.40284,2.48066 14.18429,4.95765 9.69248,3.08531 14.48311,5.50032 16.51604,8.32591 0.85599,1.18975 0.93857,1.5065 0.93857,3.6 0,1.8472 -0.14416,2.57768 -0.73818,3.74051 -1.31848,2.581 -3.7252,4.37764 -7.37085,5.50241 -1.53968,0.47503 -2.82223,0.55054 -9.14097,0.53815 -8.26421,-0.0162 -10.62371,-0.35987 -16.54433,-2.40969 -3.10821,-1.07612 -9.549552,-4.07067 -12.445392,-5.7858 l -1.53972,-0.91194 -5.92778,11.76092 c -3.26028,6.46851 -5.97615,11.81717 -6.03528,11.88592 -0.0591,0.0688 -0.0948,-15.86125 -0.0793,-35.4 z m 191.016072,11.65942 c -0.93816,-2.52143 -4.60361,-12.48192 -8.14544,-22.13442 -3.54182,-9.6525 -7.11404,-19.3725 -7.93826,-21.6 -0.82422,-2.2275 -3.25333,-8.8425 -5.39803,-14.7 -2.1447,-5.8575 -5.4999,-15.00264 -7.45599,-20.32254 l -3.55653,-9.67253 -17.25001,0.008 -17.25,0.008 -13.05,34.8475 c -7.1775,19.16613 -13.72154,36.63625 -14.54233,38.82249 -0.82077,2.18625 -1.55392,3.91339 -1.62921,3.8381 -0.0753,-0.0753 -0.37395,-1.07033 -0.66368,-2.21121 -2.14511,-8.44688 -9.03298,-15.93902 -19.45337,-21.15999 -4.70719,-2.35846 -7.71094,-3.53878 -16.81141,-6.60601 -9.62633,-3.24447 -12.01402,-4.17145 -15.95015,-6.19235 -3.56985,-1.83285 -6.41959,-3.95578 -7.60368,-5.66442 -1.24796,-1.80081 -1.26986,-4.1236 -0.0562,-5.95762 2.68291,-4.05415 9.88564,-5.77651 20.32707,-4.86072 7.39353,0.64846 13.96903,2.42819 21.57191,5.83867 2.05645,0.92247 3.82942,1.57777 3.93994,1.45621 0.11053,-0.12155 2.75655,-4.67601 5.88005,-10.12101 7.60248,-13.25293 7.59102,-13.23247 7.59102,-13.5536 0,-0.31671 -4.25921,-2.26622 -8.42079,-3.85433 -6.44806,-2.46068 -15.00462,-4.64621 -22.92921,-5.85664 -5.38462,-0.82246 -16.35056,-1.12875 -21.20793,-0.59236 -18.17355,2.00688 -32.106232,10.51785 -38.077472,23.26015 -1.00578,2.14628 -2.35452,6.47587 -2.75592,8.84678 -0.0698,0.4125 -0.14536,-13.52625 -0.16783,-30.975 l -0.0409,-31.725 190.500012,0 c 104.775,0 190.5,0.0339 190.5,0.0753 0,0.0414 -22.83606,22.89019 -50.7468,50.775 -27.91074,27.88482 -50.33944,50.15967 -49.84155,49.49967 4.824,-6.39461 7.58835,-15.63926 7.58835,-25.37719 0,-10.50533 -2.64402,-19.75017 -7.47282,-26.12888 -5.3719,-7.09611 -14.35916,-12.15516 -25.75891,-14.50002 -8.4801,-1.74431 -8.36321,-1.73829 -36.14233,-1.86249 l -25.72405,-0.11501 -0.0759,46.52621 -0.0759,46.52622 -1.70575,-4.58442 z m -53.32396,-8.36792 c -1.55633,-0.1383 -3.91883,-0.5386 -5.25,-0.88955 -1.33116,-0.35094 -2.72405,-0.70756 -3.0953,-0.79249 -0.37125,-0.0849 -0.675,-0.29905 -0.675,-0.47583 0,-0.17679 0.93578,-3.2323 2.07951,-6.79003 2.95669,-9.19719 9.64217,-30.27982 9.97995,-31.47173 0.15636,-0.55172 0.33134,-0.95607 0.38886,-0.89856 0.12897,0.12898 11.88393,37.95037 12.07368,38.84689 0.11899,0.56219 -0.0891,0.7113 -1.61772,1.15889 -4.16292,1.21899 -9.38283,1.71241 -13.88398,1.31241 z m 88.47971,-38.3665 0,-15.9 5.175,0.002 c 2.84625,0.002 6.39,0.1396 7.875,0.30721 9.9289,1.12065 15.10531,5.37433 16.09722,13.22779 0.64878,5.13675 -0.76081,9.95263 -3.80564,13.00191 -3.80933,3.81497 -9.3081,5.26069 -20.00871,5.26069 l -5.33287,0 0,-15.9 z"
     id="path3357"
     inkscape:connector-curvature="0" />
</svg>
