<?xml version="1.0" encoding="UTF-8" standalone="no"?>
<!-- Created with Inkscape (http://www.inkscape.org/) -->

<svg
   xmlns:dc="http://purl.org/dc/elements/1.1/"
   xmlns:cc="http://creativecommons.org/ns#"
   xmlns:rdf="http://www.w3.org/1999/02/22-rdf-syntax-ns#"
   xmlns:svg="http://www.w3.org/2000/svg"
   xmlns="http://www.w3.org/2000/svg"
   xmlns:sodipodi="http://sodipodi.sourceforge.net/DTD/sodipodi-0.dtd"
   xmlns:inkscape="http://www.inkscape.org/namespaces/inkscape"
   id="svg2"
   version="1.1"
   inkscape:version="0.91 r13725"
   width="500"
   height="500"
   viewBox="0 0 500 500"
   sodipodi:docname="shell.svg">
  <metadata
     id="metadata8">
    <rdf:RDF>
      <cc:Work
         rdf:about="">
        <dc:format>image/svg+xml</dc:format>
        <dc:type
           rdf:resource="http://purl.org/dc/dcmitype/StillImage" />
        <dc:title></dc:title>
      </cc:Work>
    </rdf:RDF>
  </metadata>
  <defs
     id="defs6" />
  <sodipodi:namedview
     pagecolor="#ffffff"
     bordercolor="#666666"
     borderopacity="1"
     objecttolerance="10"
     gridtolerance="10"
     guidetolerance="10"
     inkscape:pageopacity="0"
     inkscape:pageshadow="2"
     inkscape:window-width="877"
     inkscape:window-height="750"
     id="namedview4"
     showgrid="false"
     inkscape:zoom="0.921875"
     inkscape:cx="335.61459"
     inkscape:cy="214.7055"
     inkscape:window-x="251"
     inkscape:window-y="126"
     inkscape:window-maximized="0"
     inkscape:current-layer="svg2" />
  <path
     style="fill:#000000"
     d="m 235.64516,343.53096 c -3.23357,-0.67986 -6.98592,-2.70456 -8.70448,-4.6968 l -0.51558,-0.59768 -31.22453,-0.0311 -31.22453,-0.0311 -0.11592,-0.68326 c -0.0638,-0.3758 -1.2444,-10.26603 -2.62364,-21.97829 -1.37924,-11.71226 -2.56414,-21.62366 -2.6331,-22.02534 -0.11403,-0.66421 -1.13264,-1.44629 -11.25174,-8.63907 -13.24372,-9.4138 -22.15517,-15.89625 -24.23213,-17.62715 l -1.51228,-1.26031 -0.50633,-2.49763 c -0.56432,-2.78367 -1.08431,-6.14354 -1.58499,-10.24128 -0.4673,-3.82449 -0.66086,-16.18812 -0.32277,-20.61654 1.90638,-24.97041 11.71392,-48.61841 28.33498,-68.32149 3.23549,-3.83544 10.61421,-11.21206 14.39296,-14.38885 8.15635,-6.85703 15.92643,-11.91752 25.46739,-16.58637 14.1085,-6.90396 28.73233,-10.80826 44.42518,-11.86072 4.92823,-0.33051 15.2674,-0.14905 19.87142,0.34876 31.23453,3.37727 59.88149,18.74436 80.30645,43.07879 14.4252,17.18628 24.04825,38.63795 27.01366,60.21877 0.82955,6.03705 1.03484,9.16557 1.03868,15.82892 0.005,8.43137 -0.57018,14.64766 -2.05423,22.20604 -0.53463,2.72302 -0.59609,2.87899 -1.41206,3.58357 -1.51077,1.30458 -11.35994,8.47627 -23.39045,17.03184 -6.44803,4.58554 -11.95232,8.51041 -12.23175,8.72193 -0.48385,0.36626 -0.6336,1.44822 -3.14237,22.7045 -1.44888,12.27595 -2.65987,22.46976 -2.6911,22.65291 -0.0494,0.29001 -4.07379,0.33821 -31.18008,0.3735 l -31.12329,0.0405 -0.96644,0.8844 c -4.46048,4.08179 -10.259,5.65908 -16.20693,4.40855 z m 6.47329,-20.2445 c 2.51369,-0.86236 5.19669,-2.49699 8.33034,-5.07529 l 1.6188,-1.33192 22.26271,0 22.2627,0 1.4112,-11.10302 c 0.77616,-6.10666 1.79816,-14.15628 2.2711,-17.88804 l 0.8599,-6.78503 17.81576,-12.84297 c 9.79866,-7.06364 18.00174,-12.98129 18.22908,-13.15035 0.46323,-0.34448 1.03374,-2.64707 1.681,-6.78462 0.55331,-3.53696 0.56057,-11.89111 0.0131,-15.03178 -0.76258,-4.3743 -2.43245,-9.62636 -3.74279,-11.77171 l -0.44319,-0.72562 -31.94712,32.38346 c -27.59783,27.97479 -33.915,34.30325 -32.07472,32.13205 0.20132,-0.23751 8.88186,-10.83452 19.29011,-23.5489 10.40825,-12.71438 24.32483,-29.71226 30.92575,-37.77307 10.09988,-12.33365 12.01311,-14.7824 12.07393,-15.45357 0.19666,-2.16995 -2.96794,-9.24465 -7.15285,-15.99071 -3.54873,-5.72055 -7.95619,-10.52471 -8.73634,-9.52268 -0.11934,0.15328 -12.73377,21.93356 -28.03206,48.40061 -15.29828,26.46706 -27.85258,48.08451 -27.89844,48.03878 -0.0651,-0.0649 25.13613,-53.76916 46.98174,-100.11901 1.49842,-3.1792 2.72439,-5.90951 2.72439,-6.06737 0,-0.93733 -4.51467,-5.69184 -8.29864,-8.73948 -2.6315,-2.11944 -7.27804,-5.18584 -9.83163,-6.48821 -3.34569,-1.70636 -7.46617,-2.85515 -7.72981,-2.15507 -0.0633,0.16813 -7.74869,27.00418 -17.07861,59.63567 -9.32993,32.63149 -17.03933,59.41383 -17.13201,59.5163 -0.0927,0.10248 5.47514,-27.87713 12.37294,-62.1769 l 12.54145,-62.36323 -0.63731,-0.51573 c -1.23594,-1.00018 -5.15607,-2.83337 -8.18231,-3.82636 -3.28727,-1.07864 -7.28486,-1.95319 -10.95597,-2.39684 -2.56527,-0.31001 -8.9294,-0.39751 -10.18779,-0.14008 l -0.8231,0.16839 -0.134,2.10266 c -0.0737,1.15646 -1.24341,30.5656 -2.59936,65.35365 -1.35595,34.78804 -2.52656,63.1776 -2.60136,63.08792 -0.0748,-0.0897 -1.29717,-29.47503 -2.7164,-65.30077 -1.41923,-35.82575 -2.6064,-65.16809 -2.63816,-65.20521 -0.0318,-0.0371 -1.07225,-0.17792 -2.3122,-0.31287 -5.30705,-0.57761 -15.25656,0.88604 -21.21223,3.12049 -3.20457,1.20228 -7.01496,3.32909 -7.14175,3.98622 -0.0354,0.18372 5.54155,28.2059 12.39333,62.27151 6.85177,34.06562 12.42781,62.02709 12.3912,62.13662 -0.0366,0.10953 -7.76649,-26.71182 -17.17751,-59.60299 -15.95626,-55.76658 -17.1441,-59.80214 -17.60234,-59.80214 -1.17554,0 -4.29708,1.01083 -6.61727,2.14284 -2.90622,1.41793 -7.25369,4.25364 -10.51603,6.85925 -2.99825,2.39468 -6.92906,6.34664 -7.63561,7.67668 l -0.56429,1.06225 0.47347,1.09374 c 0.42354,0.97838 49.06479,104.39521 49.3622,104.94967 0.0672,0.12526 -0.0314,0.074 -0.21909,-0.11388 -0.18769,-0.1879 -6.97301,-11.82045 -15.07847,-25.85011 -8.10546,-14.02966 -20.56948,-35.60368 -27.69783,-47.94226 -7.12835,-12.33859 -13.04735,-22.52729 -13.15335,-22.64155 -0.11308,-0.12191 -0.57999,0.0598 -1.1299,0.43985 -2.9022,2.00548 -7.66832,8.81876 -11.38846,16.28009 -2.17742,4.36715 -3.22331,7.19412 -3.22331,8.71241 0,1.11564 -3.54105,-3.31694 32.34024,40.4825 9.80014,11.96279 20.61403,25.16391 24.03087,29.33582 3.41684,4.1719 6.21244,7.65608 6.21244,7.74261 0,0.19404 -0.99771,-0.81109 -27.64854,-27.85438 -11.85096,-12.02543 -24.97254,-25.31696 -29.15912,-29.53673 l -7.61197,-7.67233 -0.76877,1.52296 c -3.86437,7.65546 -4.84999,18.88404 -2.63266,29.99224 0.33862,1.6964 0.58496,2.39377 0.96541,2.73305 0.28093,0.25053 8.47481,6.18527 18.20861,13.18831 9.73381,7.00304 17.72774,12.75519 17.76431,12.78257 0.0484,0.0362 4.61056,35.4328 4.61516,35.80746 4.6e-4,0.0313 10.02965,0.0569 22.28725,0.0569 l 22.28655,0 1.49122,1.26147 c 2.74015,2.318 6.3953,4.53965 8.63918,5.25104 1.35339,0.42906 3.51394,0.38299 4.93723,-0.1053 z"
     id="path3357"
     inkscape:connector-curvature="0" />
</svg>
