<?xml version="1.0" encoding="UTF-8" standalone="no"?>
<!-- Created with Inkscape (http://www.inkscape.org/) -->

<svg
   xmlns:dc="http://purl.org/dc/elements/1.1/"
   xmlns:cc="http://creativecommons.org/ns#"
   xmlns:rdf="http://www.w3.org/1999/02/22-rdf-syntax-ns#"
   xmlns:svg="http://www.w3.org/2000/svg"
   xmlns="http://www.w3.org/2000/svg"
   xmlns:sodipodi="http://sodipodi.sourceforge.net/DTD/sodipodi-0.dtd"
   xmlns:inkscape="http://www.inkscape.org/namespaces/inkscape"
   id="svg2"
   version="1.1"
   inkscape:version="0.91 r13725"
   width="500"
   height="500"
   viewBox="0 0 500 500"
   sodipodi:docname="skype.svg">
  <metadata
     id="metadata8">
    <rdf:RDF>
      <cc:Work
         rdf:about="">
        <dc:format>image/svg+xml</dc:format>
        <dc:type
           rdf:resource="http://purl.org/dc/dcmitype/StillImage" />
        <dc:title></dc:title>
      </cc:Work>
    </rdf:RDF>
  </metadata>
  <defs
     id="defs6" />
  <sodipodi:namedview
     pagecolor="#ffffff"
     bordercolor="#666666"
     borderopacity="1"
     objecttolerance="10"
     gridtolerance="10"
     guidetolerance="10"
     inkscape:pageopacity="0"
     inkscape:pageshadow="2"
     inkscape:window-width="1027"
     inkscape:window-height="855"
     id="namedview4"
     showgrid="false"
     inkscape:zoom="0.36875"
     inkscape:cx="320"
     inkscape:cy="320"
     inkscape:window-x="175"
     inkscape:window-y="80"
     inkscape:window-maximized="0"
     inkscape:current-layer="svg2" />
  <path
     style="fill:#000000"
     d="m 311.86054,392.59599 c -8.84554,-0.80102 -18.31444,-3.52657 -26.4046,-7.60036 l -3.21283,-1.61781 -2.33051,0.15905 c -1.28178,0.0875 -3.77251,0.36004 -5.53496,0.60568 -11.30223,1.57528 -25.55405,1.29569 -37.43379,-0.73438 -20.22482,-3.4561 -39.65869,-11.92586 -56.01438,-24.41246 -9.98031,-7.61937 -19.59093,-17.42698 -26.62787,-27.17367 -13.93054,-19.29481 -21.76217,-39.65779 -24.75467,-64.3644 -0.39902,-3.29435 -0.52169,-6.4874 -0.52419,-13.64407 -0.003,-9.43013 0.22842,-13.05938 1.30545,-20.44789 l 0.54312,-3.72584 -1.84793,-3.85593 c -3.42791,-7.15274 -5.96209,-15.61766 -7.05939,-23.58051 -0.77076,-5.59328 -0.69558,-16.55424 0.15157,-22.09746 3.66143,-23.95799 17.29568,-44.18665 37.8393,-56.14086 8.17351,-4.75612 17.20037,-7.87747 27.37678,-9.46648 4.39007,-0.68549 16.17969,-0.68549 20.56976,0 9.01502,1.40767 17.43072,4.11898 24.71799,7.96347 l 2.23011,1.17652 3.88748,-0.59546 c 7.10317,-1.08801 11.02574,-1.36246 19.47276,-1.36246 8.38368,0 12.40716,0.27782 19.24996,1.32922 30.37524,4.66717 57.69389,19.91208 78.13104,43.60029 16.81532,19.49021 27.57642,43.7597 30.90653,69.70339 1.5229,11.86433 1.30138,27.09885 -0.55249,37.99668 l -0.43409,2.55176 2.02091,4.27027 c 14.11828,29.83255 8.21642,65.50616 -14.69182,88.80417 -6.22053,6.32638 -12.52768,10.91867 -20.39011,14.84621 -5.8354,2.91498 -9.30346,4.25417 -14.52393,5.60838 -8.72533,2.26341 -17.35672,2.99357 -26.0652,2.20495 z M 272.4841,335.83155 c 24.73837,-3.08909 41.42013,-14.02996 48.4384,-31.76872 2.70643,-6.84052 3.77001,-16.76632 2.68916,-25.09636 -1.93504,-14.91321 -9.86537,-25.64961 -24.18105,-32.73727 -6.41652,-3.17681 -10.62264,-4.39877 -31.0249,-9.01338 -23.38212,-5.2886 -26.83147,-6.23882 -31.6896,-8.72983 -6.79436,-3.48379 -9.60277,-8.42501 -8.51624,-14.98379 0.97696,-5.89738 5.03263,-10.57677 11.42307,-13.17984 8.92396,-3.63506 23.27049,-3.29305 32.75773,0.78092 5.02293,2.15692 8.67462,5.20999 15.83237,13.23699 4.73131,5.30589 7.34402,6.8131 12.23716,7.05935 5.29531,0.26649 9.99927,-1.43182 13.25886,-4.78696 2.74069,-2.82104 3.90793,-5.76823 3.92152,-9.90156 0.0206,-6.26645 -2.92198,-12.26926 -8.87736,-18.10961 -9.61638,-9.43064 -26.41565,-16.3985 -44.13458,-18.30577 -5.39802,-0.58104 -15.53471,-0.43806 -21.26589,0.29997 -26.62284,3.42833 -44.13799,16.06704 -48.94119,35.31533 -1.15706,4.63679 -1.57155,9.10452 -1.37253,14.79437 0.31479,8.99973 2.25615,15.6869 6.36107,21.91128 1.90342,2.8862 6.97203,7.84845 10.30593,10.08967 3.63511,2.44371 9.73101,5.45698 14.14772,6.99337 1.85301,0.64458 14.10856,3.93033 27.23454,7.30165 13.12598,3.37132 24.71245,6.4747 25.7477,6.8964 6.19471,2.52333 9.88003,6.71456 10.80299,12.28599 1.53105,9.24216 -4.70873,17.87836 -15.59312,21.58175 -8.92864,3.03795 -21.61709,2.67266 -30.5916,-0.88071 -6.26224,-2.47946 -10.62683,-6.16316 -17.09751,-14.43023 -4.43144,-5.66171 -6.85643,-8.02614 -9.67932,-9.43759 -2.62947,-1.31474 -4.85719,-1.72521 -8.32151,-1.53326 -8.50307,0.47113 -13.98723,6.3634 -13.981,15.0214 0.007,10.07065 6.69398,20.38204 18.08526,27.88864 9.91838,6.536 22.87595,10.53799 38.42752,11.86848 4.716,0.40347 19.00483,0.14268 23.5964,-0.43068 z"
     id="path3357"
     inkscape:connector-curvature="0" />
</svg>
