<?xml version="1.0" encoding="UTF-8" standalone="no"?>
<!-- Created with Inkscape (http://www.inkscape.org/) -->

<svg
   xmlns:dc="http://purl.org/dc/elements/1.1/"
   xmlns:cc="http://creativecommons.org/ns#"
   xmlns:rdf="http://www.w3.org/1999/02/22-rdf-syntax-ns#"
   xmlns:svg="http://www.w3.org/2000/svg"
   xmlns="http://www.w3.org/2000/svg"
   xmlns:sodipodi="http://sodipodi.sourceforge.net/DTD/sodipodi-0.dtd"
   xmlns:inkscape="http://www.inkscape.org/namespaces/inkscape"
   id="svg2"
   version="1.1"
   inkscape:version="0.91 r13725"
   width="500"
   height="500"
   viewBox="0 0 500 500"
   sodipodi:docname="starbucks.svg">
  <metadata
     id="metadata8">
    <rdf:RDF>
      <cc:Work
         rdf:about="">
        <dc:format>image/svg+xml</dc:format>
        <dc:type
           rdf:resource="http://purl.org/dc/dcmitype/StillImage" />
        <dc:title></dc:title>
      </cc:Work>
    </rdf:RDF>
  </metadata>
  <defs
     id="defs6" />
  <sodipodi:namedview
     pagecolor="#ffffff"
     bordercolor="#666666"
     borderopacity="1"
     objecttolerance="10"
     gridtolerance="10"
     guidetolerance="10"
     inkscape:pageopacity="0"
     inkscape:pageshadow="2"
     inkscape:window-width="851"
     inkscape:window-height="739"
     id="namedview4"
     showgrid="false"
     inkscape:zoom="0.99578059"
     inkscape:cx="261.15856"
     inkscape:cy="286.43311"
     inkscape:window-x="245"
     inkscape:window-y="107"
     inkscape:window-maximized="0"
     inkscape:current-layer="svg2" />
  <path
     style="fill:#000000"
     d="m 218.27582,366.5664 c -2.58162,-0.53191 -6.97337,-1.5583 -7.15913,-1.67313 -0.30225,-0.18686 -0.47612,-2.20657 -0.39024,-4.53311 0.10351,-2.80437 0.5356,-4.99835 1.63056,-8.27932 1.02734,-3.07836 2.17642,-5.66548 5.47771,-12.33297 3.66669,-7.4055 4.6644,-9.80307 5.47807,-13.16434 1.23418,-5.09834 0.64525,-9.57502 -1.97026,-14.97655 -1.16101,-2.39772 -2.44651,-4.51561 -5.81186,-9.57521 -3.57208,-5.37039 -4.49675,-6.88645 -5.66178,-9.28284 -1.78504,-3.67168 -2.44494,-6.21778 -2.44384,-9.42903 0.001,-3.7206 1.02463,-6.81714 3.47848,-10.52542 0.899,-1.35857 1.56271,-2.23927 4.80166,-6.37139 4.3608,-5.56333 6.31078,-9.65219 6.96579,-14.60636 0.2418,-1.82887 0.0881,-6.00517 -0.28915,-7.8584 -0.87698,-4.30774 -1.85922,-7.07156 -5.13009,-14.43504 -4.28209,-9.63995 -5.38141,-13.12564 -5.85006,-18.54914 -0.17741,-2.05309 -0.01,-6.00356 0.37338,-8.78772 0.96741,-7.03356 3.47559,-12.9492 8.08916,-19.07865 1.27578,-1.69495 1.44933,-2.1935 0.81871,-2.35182 -0.48577,-0.12195 -1.96641,1.0005 -4.35748,3.30335 -6.35534,6.12083 -10.37316,14.12682 -11.51814,22.95127 -0.23001,1.77273 -0.22613,7.00512 0.006,8.625 0.70167,4.888 1.82927,8.38577 5.07033,15.72791 3.60243,8.1608 4.62272,11.94353 4.64927,17.23713 0.0179,3.57555 -0.54308,5.91627 -2.18978,9.13666 -1.33136,2.60368 -2.70795,4.56388 -6.77573,9.6483 -3.48728,4.35884 -5.36553,7.43594 -6.36722,10.43124 -1.62743,4.86647 -1.13095,9.67084 1.60066,15.48933 0.89121,1.89832 2.61693,4.79469 5.24246,8.79871 5.34849,8.15663 6.80891,10.95302 7.8089,14.95233 0.34125,1.36475 0.39155,1.85886 0.3902,3.83263 -0.001,1.87164 -0.0607,2.50752 -0.34119,3.65466 -0.80979,3.31122 -2.27606,6.76166 -5.39157,12.68746 -3.59401,6.83596 -4.81234,9.40116 -6.02029,12.67589 -1.33957,3.63153 -1.96422,6.98019 -1.87483,10.05069 0.0275,0.94473 -0.002,1.71761 -0.0651,1.71751 -0.50995,-0.001 -8.73373,-3.28914 -8.90557,-3.56092 -0.23037,-0.36434 0.22428,-3.6253 0.84285,-6.04533 0.9608,-3.75892 2.48288,-7.12209 6.86672,-15.17255 2.78305,-5.11078 4.04478,-7.76783 4.87651,-10.26936 0.9345,-2.81062 1.11209,-3.87333 1.10548,-6.61517 -0.007,-2.92436 -0.35383,-4.63141 -1.54887,-7.62456 -1.13576,-2.84467 -2.64045,-5.47046 -6.87783,-12.0023 -3.86293,-5.95464 -5.77806,-9.89939 -6.58198,-13.55746 -0.3879,-1.76506 -0.41996,-4.95356 -0.0656,-6.52555 0.80657,-3.57829 2.73218,-7.04276 6.69209,-12.04013 3.56229,-4.49558 4.10971,-5.21769 5.32949,-7.03022 2.31335,-3.43752 3.56763,-6.34635 4.0892,-9.48337 0.46069,-2.77083 0.093,-7.39931 -0.89961,-11.32485 -0.5109,-2.02042 -1.41164,-4.67843 -3.11561,-9.19387 -3.17196,-8.40553 -3.97635,-12.01982 -3.97507,-17.8607 0.002,-10.28122 2.96127,-18.25863 10.1563,-27.38103 0.65331,-0.82832 1.28649,-1.64885 1.40706,-1.82341 0.21463,-0.31075 0.20699,-0.31009 -0.36537,0.0313 -6.22352,3.7116 -11.8513,11.00125 -14.73509,19.08633 -2.28917,6.41796 -2.84614,12.96961 -1.68968,19.8756 0.57832,3.4536 1.35603,6.06859 4.0015,13.45491 1.73895,4.85523 2.39714,7.85783 2.51697,11.48205 0.0926,2.8007 -0.0925,4.03843 -0.92809,6.20579 -1.127,2.92325 -2.69435,5.31798 -7.51125,11.47635 -5.2649,6.73113 -7.22485,10.2278 -8.11537,14.47838 -0.34008,1.62322 -0.34752,4.71922 -0.0155,6.43605 0.8523,4.40677 2.53187,8.00683 7.32711,15.70527 3.23745,5.19752 4.39706,7.26339 5.396,9.61314 1.77077,4.16529 2.08084,7.18424 1.1262,10.96516 -0.63168,2.50184 -1.74198,5.16575 -4.00506,9.6092 -4.49659,8.82883 -5.33176,10.54237 -6.19923,12.71896 -1.28925,3.23485 -2.23108,6.82184 -2.23254,8.50267 -8.8e-4,1.04808 -0.0512,1.05919 -1.43992,0.31829 -1.92409,-1.02649 -2.72439,-1.46916 -4.5161,-2.4979 -1.87465,-1.07638 -1.80382,-0.93169 -1.42519,-2.9111 0.54752,-2.86239 2.19248,-6.59583 4.78855,-10.8682 0.75726,-1.24624 2.01737,-3.31844 2.80024,-4.60488 1.69414,-2.78387 3.40476,-6.21908 4.00378,-8.04025 0.73278,-2.22785 0.96112,-3.6018 0.95965,-5.77437 -0.002,-2.28072 -0.28858,-3.69886 -1.19308,-5.89464 -0.58776,-1.42686 -1.91721,-3.9637 -2.02217,-3.8587 -0.0345,0.0345 0.0416,0.48343 0.16908,0.99757 0.36397,1.46752 0.44083,4.74937 0.15028,6.41679 -0.43359,2.48826 -1.63685,5.53238 -3.29364,8.33263 -0.69587,1.17613 -2.76662,4.17099 -4.44743,6.4322 -4.46615,6.00834 -6.73386,10.1145 -7.46791,13.52225 -0.13855,0.64322 -0.29578,1.29002 -0.3494,1.43733 -0.0837,0.22987 -0.46953,0.005 -2.72174,-1.58646 -3.17644,-2.24447 -6.79464,-5.02067 -6.79464,-5.21343 0,-0.41068 1.89353,-3.11744 3.33423,-4.76622 0.44168,-0.50547 1.22059,-1.25137 1.73092,-1.65755 l 0.92786,-0.73852 -0.37312,-0.46215 c -0.20521,-0.25419 -0.9069,-1.15289 -1.5593,-1.99711 -0.65241,-0.84423 -1.23872,-1.59515 -1.30292,-1.66871 -0.15804,-0.18106 -1.43403,0.69018 -2.64468,1.80579 -1.1906,1.09713 -2.90361,3.11796 -3.91947,4.6238 -0.74509,1.10447 -0.75012,1.10844 -1.06521,0.84388 -1.4673,-1.23203 -7.40478,-6.90459 -7.40478,-7.07439 0,-0.0693 0.66955,-0.96759 1.4879,-1.99613 1.74051,-2.18755 3.64987,-4.12803 4.83105,-4.90976 1.00031,-0.66204 2.49316,-1.41897 2.79851,-1.41897 0.4547,0 0.35941,-0.32104 -0.60193,-2.02808 -0.54389,-0.96575 -1.16972,-2.08864 -1.39075,-2.49528 -0.22102,-0.40665 -0.49807,-0.73936 -0.61565,-0.73936 -0.43248,0 -1.83355,0.6135 -2.99328,1.3107 -1.78734,1.07451 -3.49037,2.59943 -5.7605,5.15805 -1.12355,1.26634 -2.08598,2.30244 -2.13874,2.30244 -0.13195,0 -3.6361,-4.23354 -5.24887,-6.34142 l -1.32066,-1.72608 0.76317,-0.59625 c 0.41975,-0.32794 1.88121,-1.69072 3.2477,-3.02842 1.36649,-1.33768 2.91201,-2.7345 3.43449,-3.10405 1.90841,-1.34979 3.97901,-2.16775 5.598,-2.2114 l 0.85688,-0.0231 0.99066,2.28568 c 1.15843,2.6728 1.56492,3.26407 2.56385,3.72937 1.29882,0.60499 4.38768,0.45411 7.61851,-0.37214 5.73531,-1.46673 12.60126,-5.37086 17.47228,-9.9351 l 1.12065,-1.05009 -0.72906,-1.34898 c -2.72804,-5.04772 -4.34508,-8.91283 -5.24308,-12.53226 -0.45082,-1.81701 -0.56155,-5.47731 -0.21671,-7.16313 0.6708,-3.27929 2.57024,-6.88744 6.01506,-11.42618 6.83288,-9.00268 7.25683,-9.60223 8.60726,-12.17255 1.86753,-3.55454 2.37915,-6.28672 1.96317,-10.48377 -0.34208,-3.4515 -0.90245,-5.88409 -2.71469,-11.78462 -2.25826,-7.35276 -2.80306,-10.15491 -2.93434,-15.09263 -0.0857,-3.22336 0.10264,-5.54363 0.68643,-8.45652 1.33312,-6.6517 4.62497,-13.51785 9.65501,-20.1384 0.63494,-0.83572 1.09928,-1.51948 1.03186,-1.51948 -0.29465,0 -2.69657,1.94193 -3.97594,3.21452 -5.1579,5.13055 -9.16879,12.11926 -11.02885,19.21704 -0.95111,3.62931 -1.15354,5.27195 -1.15397,9.36399 -5.9e-4,5.58477 0.59057,9.19342 2.6205,15.9961 1.61568,5.41449 2.10661,7.87495 2.21902,11.12148 0.0931,2.68825 -0.0463,3.39547 -1.10946,5.62818 -1.15179,2.41892 -2.43495,4.26648 -6.9508,10.00817 -5.31145,6.75327 -7.41262,10.18279 -8.5568,13.96641 -0.48583,1.60655 -0.59962,2.47021 -0.56695,4.30321 l 0.0324,1.81804 -0.57241,0.50241 c -2.04844,1.79798 -5.01052,3.7493 -7.58753,4.99843 -4.06924,1.97247 -7.77082,2.95832 -12.36427,3.29303 l -1.25699,0.0916 0.17711,0.75616 c 0.30332,1.29506 1.36254,5.1016 1.65875,5.96106 l 0.28236,0.81931 -1.2261,0.18245 c -1.58982,0.23659 -3.65911,0.95629 -4.98659,1.73436 -1.54641,0.90637 -2.84302,1.92264 -5.18752,4.06594 -2.1664,1.98049 -3.96793,3.41573 -4.28745,3.41573 -0.23713,0 -3.23465,-4.77373 -5.29318,-8.42969 l -0.58967,-1.04727 1.00054,-0.22602 c 1.90759,-0.4309 3.49967,-1.42628 6.50815,-4.06898 4.05529,-3.56223 6.33964,-4.67794 10.016,-4.89195 l 1.55051,-0.0903 -0.27361,-1.22828 c -0.15049,-0.67555 -0.44232,-2.25945 -0.64851,-3.51976 -0.20619,-1.26031 -0.41241,-2.35219 -0.45827,-2.42641 -0.1149,-0.18598 -3.08668,-0.0104 -4.35358,0.25718 -3.00214,0.63413 -4.87575,1.65567 -8.93044,4.86905 -3.418,2.70882 -4.77732,3.48472 -6.85811,3.91462 -0.92235,0.19057 -1.16015,0.19928 -1.25755,0.046 -0.40413,-0.6358 -3.80019,-8.73476 -4.13098,-9.85158 -0.0867,-0.29264 -0.0255,-0.31088 1.33691,-0.39875 2.45432,-0.15832 4.67238,-0.8525 6.98138,-2.18495 0.56267,-0.32471 2.40414,-1.51187 4.09215,-2.63815 4.82583,-3.21989 7.53056,-4.35896 10.8729,-4.57899 l 1.40358,-0.0924 0.0278,-4.29252 0.0278,-4.29253 -0.97777,10e-4 c -1.31182,0.001 -3.47593,0.34155 -5.00836,0.78777 -2.46946,0.71905 -4.51481,1.76775 -8.67977,4.4503 -5.30801,3.41877 -7.86271,4.3915 -11.56707,4.40427 l -1.47826,0.005 -0.67704,-2.52171 c -0.76481,-2.84861 -1.84708,-7.43097 -1.84686,-7.81959 1.4e-4,-0.236 0.22006,-0.25741 2.66721,-0.25954 2.00722,-0.002 2.9744,-0.0676 3.90933,-0.26612 3.08,-0.65405 5.90587,-1.92156 10.81498,-4.85092 5.73382,-3.42146 8.7135,-4.57534 12.60644,-4.88185 0.78434,-0.0618 1.45303,-0.13923 1.48596,-0.17218 0.0329,-0.0329 0.29573,-1.23175 0.58397,-2.66401 0.48542,-2.41199 1.40804,-6.29465 1.63857,-6.89556 0.0928,-0.24179 -0.0445,-0.25382 -2.15238,-0.18871 -4.72093,0.14583 -8.12314,1.34739 -15.03945,5.31152 -4.94276,2.83298 -7.71452,4.03658 -10.81499,4.69629 -1.31832,0.2805 -5.81584,0.38108 -6.88115,0.15387 l -0.52368,-0.1117 -0.24642,-2.30037 c -0.28935,-2.70131 -0.52741,-5.56804 -0.53093,-6.39361 l -0.002,-0.58475 2.66739,0.0452 c 3.86473,0.0655 6.39171,-0.3609 10.04788,-1.69534 1.73513,-0.63329 4.06434,-1.76531 10.5227,-5.11413 5.84336,-3.02994 9.59397,-4.06673 14.30385,-3.95407 l 1.9543,0.0468 1.00012,-2.33898 c 0.55007,-1.28644 1.69291,-3.71502 2.53965,-5.39684 0.84673,-1.68182 1.52037,-3.07701 1.49696,-3.10042 -0.22441,-0.22447 -2.71973,-0.4136 -5.3647,-0.4066 -2.83399,0.007 -3.32636,0.047 -5.01981,0.40314 -4.01301,0.84386 -6.04958,1.66598 -13.61412,5.49576 -6.67784,3.38086 -9.30146,4.37781 -13.15337,4.99815 -1.29389,0.20837 -6.11764,0.26598 -6.97859,0.0833 l -0.54805,-0.11626 0.001,-1.05323 c 0.003,-2.40981 0.53534,-8.63841 1.1085,-12.96742 3.17794,-24.00366 13.49767,-47.47025 29.11058,-66.19686 5.32565,-6.38775 11.71743,-12.72741 18.08168,-17.93422 10.17786,-8.32687 22.19758,-15.41752 34.27182,-20.21756 22.52086,-8.95303 46.90028,-11.54972 70.80895,-7.54195 31.56106,5.29052 60.20917,22.09458 80.47234,47.20247 16.29332,20.18889 26.27135,44.89486 28.54609,70.68115 0.27377,3.10346 0.53504,7.92761 0.43478,8.0279 -0.23036,0.23043 -3.9067,0.34736 -5.81542,0.18497 -4.73226,-0.40261 -8.11011,-1.59697 -15.60288,-5.51701 -7.0897,-3.70917 -10.51388,-4.93441 -15.32603,-5.48396 -1.70217,-0.19439 -5.10637,-0.11523 -6.88449,0.16009 l -1.11161,0.17212 1.55495,3.09182 c 0.85522,1.7005 2.00478,4.1504 2.55457,5.44422 l 0.99965,2.3524 1.78102,-0.0686 c 4.90039,-0.18882 9.428,1.14935 16.08613,4.75439 5.25789,2.84689 7.09038,3.7049 9.93809,4.65325 3.35231,1.11639 4.47102,1.29005 8.36446,1.29845 l 3.3954,0.007 -0.0747,0.95021 c -0.36285,4.61268 -0.72274,8.16083 -0.8396,8.27774 -0.15784,0.15788 -2.01021,0.34149 -3.46502,0.34346 -2.86293,0.004 -5.67814,-0.59637 -8.51177,-1.81484 -1.80869,-0.77775 -3.04672,-1.42538 -6.35865,-3.32633 -6.63964,-3.81098 -10.80645,-5.23427 -15.32377,-5.23427 -0.91639,0 -1.66618,0.0358 -1.66618,0.0796 0,0.0438 0.32591,1.40879 0.72427,3.03337 0.39834,1.62458 0.87031,3.77608 1.04883,4.78111 0.17852,1.00503 0.34522,1.8541 0.37043,1.88681 0.0252,0.0327 0.74784,0.11428 1.60584,0.18126 3.89934,0.3044 6.73857,1.42406 12.91156,5.0917 3.68448,2.1891 5.73267,3.19923 7.98544,3.93827 2.4149,0.79222 4.40895,1.08002 7.01588,1.01258 1.15393,-0.0298 2.09805,-0.0364 2.09805,-0.0146 0,0.42929 -1.74043,7.51643 -2.35626,9.59482 l -0.29791,1.00542 -1.92472,-0.0721 c -2.12776,-0.0797 -3.5846,-0.39108 -5.37576,-1.14903 -1.5098,-0.63888 -2.55962,-1.2377 -5.82938,-3.32511 -1.56745,-1.00066 -3.57333,-2.20138 -4.45753,-2.66828 -2.84354,-1.50153 -6.4576,-2.47114 -9.21071,-2.47114 l -0.98888,0 0.0932,0.98676 c 0.0512,0.54272 0.0936,2.48334 0.0942,4.3125 l 0.001,3.32574 0.64709,0 c 1.04126,0 2.80457,0.28594 4.15944,0.67451 1.98307,0.56872 3.98142,1.63516 7.61906,4.06603 1.85629,1.24046 3.95307,2.554 4.65952,2.91896 2.24684,1.16076 4.4022,1.73495 7.05238,1.87877 l 0.68064,0.0369 -1.13002,2.85064 c -1.16069,2.92803 -3.00075,7.14116 -3.21046,7.35093 -0.20262,0.20267 -2.2218,-0.30757 -3.36372,-0.85 -1.36985,-0.6507 -2.39461,-1.34802 -4.63902,-3.1567 -4.26688,-3.43849 -6.72286,-4.65273 -10.31092,-5.09775 -0.74809,-0.0928 -1.75261,-0.14736 -2.23227,-0.12126 l -0.8721,0.0474 -0.24531,1.62169 c -0.22618,1.49527 -0.77755,4.5417 -0.95251,5.26278 -0.0707,0.29144 -0.002,0.3105 1.43388,0.39852 1.81414,0.11118 3.3715,0.48955 4.87521,1.18451 1.42435,0.65825 2.54723,1.46388 5.12661,3.67815 3.34113,2.86821 4.76853,3.75616 6.66713,4.14743 l 0.83825,0.17275 -0.28645,0.56166 c -0.90033,1.76523 -5.126,8.67247 -5.41483,8.85103 -0.31944,0.19747 -1.68034,-0.83341 -4.45741,-3.37644 -4.19033,-3.83719 -6.70664,-5.26867 -10.14549,-5.77164 -0.98128,-0.14351 -1.17197,-0.214 -1.11337,-0.41156 0.0389,-0.1311 0.30386,-1.01502 0.58882,-1.96425 0.60795,-2.02515 1.42993,-5.23194 1.35921,-5.30268 -0.0271,-0.0271 -0.93436,-0.12006 -2.01618,-0.20662 -6.60579,-0.52848 -13.07859,-3.21863 -18.47222,-7.6772 l -1.23625,-1.02194 0.0822,-1.38878 c 0.14834,-2.50664 -0.5398,-5.28624 -2.05152,-8.28668 -1.41428,-2.80705 -3.06194,-5.2422 -6.65131,-9.8302 -5.05801,-6.4653 -6.28783,-8.22935 -7.46481,-10.70741 -0.97737,-2.0578 -1.23077,-3.33919 -1.10798,-5.60261 0.17199,-3.16998 0.62989,-5.42769 2.18885,-10.79234 1.62055,-5.57658 2.20345,-8.28744 2.56279,-11.9186 0.21497,-2.17227 0.18131,-7.12402 -0.0608,-8.94275 -0.95188,-7.151 -4.1358,-14.46861 -8.96661,-20.60796 -1.4843,-1.88636 -4.66887,-5.01423 -6.09531,-5.98677 -0.64306,-0.43844 -1.09525,-0.70157 -1.0049,-0.58475 4.782,6.18238 7.73387,11.44349 9.54509,17.01215 2.50796,7.7109 2.6498,15.00943 0.4519,23.25534 -0.23574,0.88443 -0.89722,3.12108 -1.46996,4.97034 -1.24685,4.02579 -1.92057,6.59743 -2.36289,9.01944 -0.27617,1.51222 -0.32835,2.31007 -0.32798,5.01446 0,3.10166 0.0149,3.26291 0.40613,4.53178 1.02345,3.3191 2.96136,6.51175 7.49802,12.35275 2.73536,3.52181 3.95112,5.17336 5.04583,6.85451 2.10726,3.23608 3.44455,6.41695 3.78661,9.00672 0.44316,3.35539 -0.40726,7.6201 -2.45983,12.33545 -0.60245,1.38399 -2.91778,6.03274 -3.63481,7.29806 l -0.27377,0.48307 0.94997,0.87339 c 5.80681,5.33869 12.80109,9.14322 19.1864,10.43644 1.99388,0.40382 4.66163,0.50042 5.73192,0.20755 1.08816,-0.29777 1.77555,-1.21756 2.92381,-3.91236 l 1.01902,-2.39147 0.91171,0.0934 c 1.91966,0.19674 3.92191,1.04474 5.8143,2.46251 0.56267,0.42156 2.17395,1.88718 3.58063,3.25695 1.40668,1.36976 2.78333,2.66359 3.0592,2.87518 l 0.5016,0.3847 -0.6385,0.85258 c -1.82566,2.43773 -5.77704,7.21168 -5.96908,7.21168 -0.0542,0 -0.73966,-0.7471 -1.52316,-1.66024 -1.7575,-2.04825 -3.96237,-4.19798 -5.22201,-5.09142 -1.15825,-0.82153 -3.20078,-1.86565 -3.85845,-1.9724 l -0.48349,-0.0785 -0.87991,1.66028 c -0.48396,0.91314 -1.11827,2.05497 -1.40957,2.53739 l -0.52966,0.87712 0.32874,0.12727 c 2.81526,1.08996 4.70926,2.66274 7.76867,6.45112 l 1.53474,1.90042 -1.71051,1.72845 c -1.6017,1.61847 -5.7908,5.53889 -6.00033,5.61546 -0.0521,0.019 -0.25272,-0.21123 -0.44591,-0.51165 -1.38296,-2.15058 -4.20009,-5.26128 -5.80553,-6.41053 -0.49249,-0.35255 -0.93097,-0.64101 -0.97438,-0.64101 -0.0638,0 -2.69725,3.27651 -3.24361,4.03561 -0.10612,0.14743 -0.048,0.26674 0.21922,0.45 1.3219,0.90662 3.67753,3.62578 5.05207,5.83172 0.59001,0.94685 0.65421,1.12236 0.46622,1.27438 -1.06776,0.8634 -6.78027,5.09468 -7.92504,5.8701 l -1.45501,0.98557 -0.26223,-1.21925 c -0.14422,-0.67059 -0.40203,-1.64718 -0.57292,-2.1702 -0.37705,-1.15405 -1.71781,-4.02604 -2.35201,-5.03814 -1.15055,-1.83611 -3.10143,-4.66497 -5.41803,-7.85638 -3.64793,-5.02546 -5.30111,-7.90187 -6.30726,-10.97415 -0.9993,-3.05143 -1.17671,-6.07819 -0.52892,-9.02401 0.15028,-0.68342 0.25293,-1.26389 0.22812,-1.28994 -0.075,-0.0787 -1.41878,2.45723 -1.92295,3.62893 -0.91828,2.13414 -1.24614,3.54538 -1.32449,5.70127 -0.17206,4.73404 1.19277,8.33594 6.31477,16.66525 4.02271,6.54164 5.65107,10.07367 6.28741,13.63791 0.14056,0.78723 0.23085,1.45575 0.20067,1.48562 -0.13513,0.13366 -3.86958,2.23939 -5.3893,3.03885 -0.92439,0.48628 -1.74319,0.9404 -1.81955,1.00918 -0.27127,0.24433 -0.33186,0.11261 -0.42896,-0.93243 -0.15441,-1.66179 -0.63304,-3.78629 -1.32243,-5.86975 -1.1401,-3.44565 -1.99726,-5.28682 -6.8474,-14.70836 -3.6512,-7.09253 -4.79324,-10.44982 -4.79878,-14.10699 -0.003,-1.86354 0.25362,-3.26072 0.98734,-5.37936 1.00886,-2.91308 1.99215,-4.70726 7.34678,-13.4056 3.23045,-5.24773 5.17142,-9.53695 5.95371,-13.15678 0.2059,-0.95275 0.26642,-1.83929 0.25947,-3.80085 -0.008,-2.31604 -0.0468,-2.69603 -0.4076,-4.01328 -1.1809,-4.31126 -2.81269,-7.00496 -9.21411,-15.21023 -6.22775,-7.98269 -7.74293,-11.72742 -7.09797,-17.54238 0.38361,-3.45845 1.01039,-5.83399 3.02499,-11.46479 2.50843,-7.0111 3.26814,-9.8613 3.76819,-14.13721 0.28852,-2.46713 0.28646,-7.13159 -0.004,-9.34892 -0.80636,-6.15276 -2.98805,-11.97064 -6.4367,-17.16454 -2.38622,-3.59383 -6.08249,-7.45763 -8.99409,-9.40176 -0.91128,-0.60848 -1.68081,-1.08239 -1.71006,-1.05313 -0.0293,0.0293 0.58055,0.8641 1.35512,1.85521 6.53975,8.36806 9.45521,15.29904 10.15982,24.15322 0.36677,4.60881 0.0352,8.49063 -1.1001,12.87972 -0.661,2.55541 -1.10616,3.89423 -2.69766,8.11335 -3.1095,8.24341 -3.94994,11.45753 -4.22774,16.16842 -0.37178,6.30459 1.25451,10.51057 6.81558,17.62673 0.89985,1.15149 2.33282,2.9817 3.18439,4.06714 3.88442,4.95126 5.79576,8.60643 6.36566,12.17339 0.26901,1.68371 0.10622,4.63436 -0.35865,6.50105 -0.94251,3.78456 -2.48162,6.78812 -7.24805,14.14441 -4.56609,7.04709 -6.17069,10.18642 -7.07321,13.83826 -0.98033,3.96674 -0.80545,7.08529 0.63084,11.24916 1.01991,2.95681 1.99206,4.96954 5.49948,11.3861 3.71919,6.804 5.36568,10.52533 6.26474,14.15925 0.51524,2.08256 0.68202,3.16001 0.71495,4.61889 l 0.0296,1.30885 -1.60764,0.68103 c -1.94186,0.82262 -6.4794,2.57348 -7.02335,2.71003 l -0.39112,0.0982 0.10185,-1.15306 c 0.21969,-2.48704 -0.41125,-6.36059 -1.60026,-9.82443 -0.94336,-2.74822 -1.91635,-4.92599 -4.12675,-9.23647 -5.5022,-10.72982 -6.40867,-12.69423 -7.25229,-15.71645 -0.5655,-2.02581 -0.71789,-3.07008 -0.7145,-4.89584 0.005,-2.92114 0.65107,-5.41045 2.30015,-8.86865 1.21242,-2.54249 2.09279,-4.02678 5.18796,-8.74682 4.61254,-7.0339 6.33719,-10.19609 7.44599,-13.65232 0.76841,-2.39518 1.0302,-4.00497 1.0302,-6.33486 0,-5.01732 -1.76151,-8.97058 -6.89004,-15.46303 -0.98444,-1.24624 -2.30774,-2.92373 -2.94068,-3.72775 -3.16653,-4.02247 -5.00034,-7.39404 -5.96337,-10.96399 -0.44806,-1.66094 -0.55402,-5.59775 -0.21642,-8.04025 0.58958,-4.26546 1.45839,-6.83452 5.3353,-15.77648 3.28605,-7.57912 4.3866,-12.0904 4.38963,-17.99348 0.005,-10.00833 -3.97422,-19.53475 -11.177,-26.75741 -1.78652,-1.79144 -4.0565,-3.68306 -4.58167,-3.818 -0.21547,-0.0554 -0.427,-0.002 -0.57398,0.14517 -0.30924,0.30931 -0.16506,0.61147 1.03298,2.16501 2.50747,3.25151 4.99636,7.71025 6.20407,11.11434 1.66548,4.69431 2.5013,10.29304 2.33142,15.61682 -0.17598,5.51522 -1.41458,9.72667 -5.65368,19.22352 -4.59571,10.29576 -5.76262,14.32473 -5.75822,19.88136 0.003,3.65181 0.55285,6.32945 1.93752,9.43338 1.31003,2.93658 2.58387,4.82553 7.60222,11.27295 2.00758,2.57927 3.09164,4.23949 4.04317,6.19197 2.99996,6.15585 2.29026,12.31027 -2.3077,20.01209 -0.58107,0.97333 -2.36796,3.74321 -3.97084,6.15528 -1.6029,2.41208 -3.26502,4.9636 -3.69363,5.67005 -2.54799,4.19976 -4.05401,7.93712 -4.58776,11.3851 -0.25358,1.63814 -0.10876,5.26818 0.27662,6.93409 0.90715,3.92132 1.76278,5.96567 6.5711,15.70038 3.95784,8.01288 5.4466,12.0644 6.04315,16.44598 0.20608,1.51369 0.2424,4.37599 0.0736,5.80101 l -0.11572,0.97686 -2.4374,0.58864 c -2.43997,0.58925 -6.64714,1.47411 -7.0202,1.4765 -0.11539,10e-4 -0.16356,-0.0893 -0.1152,-0.21541 0.24347,-0.63465 0.39826,-4.73305 0.25277,-6.69297 -0.47838,-6.44432 -2.08595,-11.27206 -7.29999,-21.92268 -2.51836,-5.14419 -3.36371,-7.07171 -4.1822,-9.53607 -0.99138,-2.98493 -1.17025,-4.02669 -1.15561,-6.73012 0.0142,-2.60504 0.17629,-3.56332 1.02666,-6.06674 1.15453,-3.39885 2.91098,-6.50037 7.84195,-13.84735 5.02896,-7.49296 6.62202,-10.49753 7.65609,-14.43972 0.55687,-2.12295 0.64221,-5.36155 0.19814,-7.5189 -0.31693,-1.53957 -0.97198,-3.42461 -1.6664,-4.79535 -0.65087,-1.28476 -2.62347,-4.09999 -4.84127,-6.90927 -4.5074,-5.70953 -6.16127,-8.84868 -6.93946,-13.17146 -0.15725,-0.87358 -0.38074,-1.77173 -0.49664,-1.99589 -0.56093,-1.08503 -1.78934,-1.7449 -2.97913,-1.60037 -0.38126,0.0463 -1.4824,0.32044 -2.44698,0.60915 -6.76748,2.02556 -10.27902,2.0242 -16.99675,-0.007 -2.7187,-0.82187 -3.6999,-0.81303 -4.71642,0.0425 -0.64468,0.5426 -0.94346,1.25139 -1.21526,2.88293 -0.47482,2.85009 -1.85723,6.13924 -3.78705,9.01042 -0.46168,0.68689 -1.76677,2.42931 -2.9002,3.87204 -4.42532,5.63297 -5.74272,7.87679 -6.6373,11.30476 -1.08309,4.15033 -0.38479,8.6208 2.13213,13.64975 1.18978,2.37724 2.17434,3.97212 5.97784,9.68347 1.98114,2.9749 4.08316,6.25123 4.67115,7.28073 3.90965,6.84539 4.74606,11.874 2.96164,17.80589 -0.66292,2.20372 -1.6746,4.59455 -3.85958,9.12101 -4.51558,9.35459 -5.65405,12.08259 -6.74131,16.1536 -1.00017,3.74492 -1.33767,6.62242 -1.20603,10.28258 0.0525,1.4602 0.13464,2.90161 0.1825,3.20312 0.10497,0.66123 0.1854,0.65461 -2.13718,0.17605 z m 28.38792,-120.74078 c 7.22704,-1.26062 14.93905,-8.35037 19.56187,-17.98347 2.08091,-4.33625 3.14006,-7.99595 3.52196,-12.16951 0.3773,-4.12329 -0.33715,-6.67277 -2.11877,-7.56082 -0.88742,-0.44233 -1.12036,-0.4567 -1.57924,-0.0974 -1.31216,1.0274 -3.08913,1.53061 -5.39067,1.52655 -1.61651,-0.003 -1.75884,-0.0295 -3.72628,-0.69688 -3.12446,-1.05991 -3.53137,-0.92802 -4.71657,1.52878 -1.09119,2.26189 -1.60284,2.8882 -2.55008,3.12148 -0.39205,0.0966 -0.40281,0.0795 -0.83711,-1.3291 -0.74052,-2.40181 -0.94859,-3.9045 -0.94645,-6.83581 0.002,-2.67436 0.12434,-3.7935 0.67073,-6.13206 0.2799,-1.19795 0.3685,-1.37456 1.05394,-2.10082 1.78235,-1.88849 4.35075,-3.21935 7.57405,-3.9246 0.91644,-0.20051 1.83691,-0.26484 3.77006,-0.26347 2.88824,0.002 4.07834,0.19255 6.40898,1.02585 0.77548,0.27727 1.45699,0.50414 1.51444,0.50416 0.0575,3e-5 0.17105,-0.1244 0.25244,-0.2765 0.3222,-0.6022 -1.31393,-4.22772 -2.81263,-6.23254 -3.9318,-5.25958 -10.24898,-8.77978 -17.85892,-9.95175 -1.93588,-0.29813 -6.55164,-0.33862 -8.40354,-0.0737 -3.63371,0.51979 -6.38225,1.36547 -9.57273,2.94535 -5.49408,2.72058 -9.39046,6.7995 -11.27359,11.80174 -0.64031,1.7009 -0.39799,2.02602 1.06641,1.43082 3.68791,-1.49891 8.74807,-1.64876 12.5966,-0.37301 3.02972,1.00432 5.98235,3.12286 6.41604,4.60358 0.667,2.27727 0.92623,7.07229 0.5058,9.35593 -0.15689,0.8522 -0.57262,2.38271 -0.6854,2.52328 -0.0842,0.10492 -1.32838,-0.44667 -1.90925,-0.84642 -0.36338,-0.25008 -1.0281,-0.62293 -1.47716,-0.82857 -1.05743,-0.48424 -1.9868,-0.41595 -4.28948,0.31518 -1.94459,0.61742 -3.50655,0.85829 -4.74983,0.73248 -1.10244,-0.11157 -1.58149,-0.25867 -3.19596,-0.98137 -1.17277,-0.52498 -1.38852,-0.57493 -2.26857,-0.52519 -1.59295,0.09 -2.39237,0.95056 -2.79775,3.01158 -0.26701,1.35756 -0.10982,5.55805 0.28087,7.50548 2.13981,10.66596 9.42167,21.21194 17.537,25.39802 1.90752,0.98394 3.02867,1.39713 4.84004,1.78375 1.544,0.32955 3.92632,0.35896 5.58875,0.069 z M 242.1711,235.6489 c -0.40191,-0.0809 -1.28378,-0.41373 -1.95971,-0.73968 -1.27466,-0.61467 -2.02292,-1.28668 -5.48041,-4.92195 l -1.15574,-1.21517 0.37027,-0.37036 0.37027,-0.37037 2.17388,0.32797 c 1.73517,0.26178 3.0292,0.34189 6.41219,0.39697 4.3372,0.0706 6.61915,-0.0512 9.31401,-0.49708 1.31693,-0.21791 1.44922,-0.21746 1.79032,0.006 0.20258,0.13277 0.36832,0.31059 0.36832,0.39517 0,0.17375 -2.31856,2.74454 -3.88823,4.31123 -1.8988,1.89517 -3.64908,2.68804 -6.12294,2.77363 -0.80382,0.0278 -1.79032,-0.0156 -2.19223,-0.0965 z m -0.14615,-12.39202 c -0.48229,-0.14867 -1.37014,-0.47177 -1.973,-0.71798 -0.60286,-0.24622 -1.34452,-0.49349 -1.64813,-0.5495 -0.61596,-0.11362 -0.8785,-0.45825 -0.80887,-1.06179 0.038,-0.32909 0.22794,-0.48687 1.14166,-0.94822 1.42803,-0.72102 2.25508,-0.81694 3.56214,-0.41312 1.25187,0.38676 2.28898,0.39178 3.37992,0.0163 0.46726,-0.16081 1.06254,-0.29238 1.32282,-0.29238 0.7438,0 2.29542,0.53788 2.97767,1.03223 0.5411,0.39207 0.60916,0.50138 0.52387,0.84132 -0.14299,0.56987 -0.3157,0.72203 -0.99777,0.87906 -0.33623,0.0774 -1.33476,0.42011 -2.21896,0.76156 -1.40677,0.54325 -1.78111,0.62719 -2.99604,0.6718 -1.05082,0.0386 -1.60164,-0.0147 -2.26531,-0.21933 z m -118.70057,0.55322 c 3.00131,-0.45149 6.04268,-1.50876 11.42758,-3.97258 8.98028,-4.10887 12.43462,-5.24363 17.25934,-5.66976 2.89666,-0.25584 6.26167,0.1142 9.21964,1.01387 l 0.90299,0.27464 0.64574,-0.97019 c 2.09493,-3.14754 6.03281,-8.01744 9.42029,-11.64986 3.90727,-4.18982 9.19734,-8.85682 13.81704,-12.18968 0.70525,-0.5088 1.31285,-0.97458 1.35022,-1.03507 0.10794,-0.1747 -3.43957,-1.29793 -5.31152,-1.68177 -0.93798,-0.19232 -2.2627,-0.41822 -2.94384,-0.50198 -1.59735,-0.19645 -6.15865,-0.19625 -7.75354,2.9e-4 -4.6829,0.57722 -9.46376,2.17153 -13.55491,4.52028 -1.34669,0.77314 -1.72393,0.93385 -1.7612,0.75029 -1.49302,-7.35314 -4.02691,-12.59943 -8.55025,-17.70283 -1.19497,-1.3482 -2.23713,-2.30502 -4.17967,-3.83739 -1.04087,-0.8211 -1.34307,-0.98676 -1.79995,-0.98676 -0.34797,0 -0.6526,0.10355 -0.83174,0.28274 -0.26476,0.26483 -0.28214,0.5126 -0.27425,3.91049 0.009,3.87638 -0.13485,5.68095 -0.70286,8.81736 -1.98218,10.94492 -7.69565,21.78495 -17.74397,33.66521 -1.12654,1.33193 -2.86885,3.31185 -3.8718,4.39982 -1.00295,1.08798 -1.82355,2.00923 -1.82355,2.04722 0,0.0636 1.63029,0.44182 2.48453,0.57639 0.79684,0.12554 3.58332,0.0885 4.57568,-0.0607 z m 247.45129,-0.2028 c 0.47893,-0.12979 0.89943,-0.26463 0.93443,-0.29964 0.035,-0.035 -0.45549,-0.63326 -1.09,-1.32943 -5.36333,-5.88446 -9.13092,-10.63295 -12.53636,-15.80025 -7.32727,-11.11813 -10.72321,-21.71408 -10.42731,-32.53509 0.0702,-2.56642 0.0566,-2.76494 -0.21195,-3.10646 -0.21541,-0.27392 -0.42443,-0.36483 -0.83882,-0.36483 -0.70242,0 -2.2456,1.11997 -4.46925,3.24357 -5.08788,4.85895 -8.50966,11.25768 -10.00743,18.71391 l -0.16743,0.83355 -0.96212,-0.58904 c -2.22049,-1.35943 -5.44602,-2.82194 -7.82359,-3.54734 -3.63122,-1.10788 -6.58516,-1.55084 -10.34194,-1.55084 -3.87469,0 -6.62931,0.41839 -10.15732,1.54276 -1.5898,0.50666 -2.10254,0.72513 -1.96877,0.83886 0.0379,0.0322 0.95669,0.71423 2.04185,1.51564 8.11868,5.99587 15.7236,13.74988 21.67988,22.10495 l 1.55543,2.18183 0.91457,-0.28737 c 2.50157,-0.78603 6.01383,-1.23406 8.44123,-1.07679 5.00652,0.32438 8.54684,1.44624 17.53782,5.5574 5.60132,2.56123 8.10808,3.46688 11.18036,4.03931 1.80148,0.33565 5.32974,0.29116 6.71672,-0.0847 z M 221.47434,202.85555 c 2.5369,-1.70766 6.75413,-1.80039 11.54347,-0.25384 l 1.36941,0.4422 -0.0802,-0.49437 c -0.2288,-1.4103 -1.66902,-2.90549 -3.79513,-3.93998 -2.16445,-1.05314 -3.2855,-1.29909 -5.95167,-1.30576 -1.96359,-0.005 -2.37682,0.0359 -3.10258,0.30664 -1.13036,0.42161 -1.66818,0.83074 -2.03343,1.54689 -0.52379,1.02696 -0.19085,2.52623 0.83063,3.74051 0.21195,0.25194 0.40578,0.45808 0.43075,0.45808 0.025,0 0.37991,-0.22517 0.78876,-0.50037 z m 47.02055,-1.03459 c 0.69622,-1.47308 0.38497,-2.88261 -0.81517,-3.6916 -0.9811,-0.66133 -1.93736,-0.84132 -4.39016,-0.82633 -2.02069,0.0124 -2.40674,0.0567 -3.5752,0.41039 -1.74358,0.52782 -3.19479,1.30776 -4.15186,2.23138 l -0.78502,0.75758 0.0608,0.95569 c 0.0335,0.52563 0.0942,0.98903 0.13489,1.02978 0.0407,0.0407 0.49815,-0.0574 1.01648,-0.21807 4.59292,-1.42381 8.58685,-1.28386 10.68173,0.3743 l 0.63272,0.50083 0.42265,-0.39651 c 0.23245,-0.21808 0.57809,-0.72542 0.7681,-1.12744 z m -68.19533,-19.86772 c 0.4421,-0.1897 1.79032,-0.80343 2.99604,-1.36385 9.99356,-4.645 20.65331,-7.39122 33.17571,-8.54689 3.09966,-0.28606 12.60015,-0.23856 16.00326,0.08 12.26341,1.14801 22.44787,3.89177 33.60162,9.05252 l 2.54506,1.17758 0.59011,-0.2065 c 0.58688,-0.20537 0.60176,-0.22968 2.72184,-4.44591 3.40604,-6.77365 7.3805,-13.0858 12.03533,-19.11428 0.48131,-0.62334 0.8479,-1.15757 0.81462,-1.18717 -0.11831,-0.10527 -3.74448,0.35372 -5.61941,0.71128 -6.54865,1.24886 -12.7634,3.97296 -17.8055,7.80466 -0.55204,0.41952 -1.03344,0.73301 -1.06978,0.69666 -0.10317,-0.10319 1.47494,-4.13131 2.7574,-7.03827 2.05686,-4.66232 4.50526,-9.15556 7.63849,-14.01798 l 0.55494,-0.86121 -1.07726,0.10604 c -3.14552,0.30963 -8.02726,1.40281 -11.39154,2.55093 -6.60342,2.25355 -11.73,5.29656 -16.59989,9.85328 -0.90293,0.84487 -0.92596,0.85621 -1.05647,0.51993 -0.22803,-0.58755 -3.19849,-8.36659 -4.48518,-11.74577 -1.15253,-3.02679 -1.20959,-3.22936 -0.97214,-3.45091 0.13874,-0.12945 2.55409,-2.2645 5.36745,-4.74455 2.81336,-2.48005 5.59354,-4.93295 6.17818,-5.45088 0.58464,-0.51793 1.02948,-0.97519 0.98855,-1.01613 -0.0409,-0.0409 -3.91975,-0.34651 -8.61959,-0.67904 -4.69986,-0.33253 -8.56989,-0.63497 -8.60008,-0.67208 -0.0302,-0.0371 -1.5939,-3.66487 -3.47492,-8.06168 -1.881,-4.39682 -3.44885,-7.96535 -3.48413,-7.93007 -0.0353,0.0353 -1.59464,3.62339 -3.46526,7.97358 -1.87062,4.35018 -3.43603,7.94434 -3.4787,7.98701 -0.10413,0.10416 -1.74528,0.23617 -9.51206,0.76512 -3.61717,0.24635 -6.85291,0.49572 -7.19053,0.55417 l -0.61386,0.10626 6.36492,5.61808 c 3.5007,3.08994 6.39284,5.69088 6.42698,5.77987 0.0517,0.13476 -5.56041,15.0932 -5.72664,15.26372 -0.0299,0.0307 -0.6979,-0.55352 -1.48446,-1.29816 -5.23286,-4.95401 -12.34822,-8.65696 -20.49335,-10.66507 -3.00823,-0.74166 -7.90117,-1.52271 -7.90117,-1.26125 0,0.0336 0.5367,0.90525 1.19267,1.93697 3.56492,5.60695 6.98021,12.44578 9.11335,18.24872 0.266,0.72362 0.53377,1.44254 0.59503,1.5976 0.0701,0.17749 -0.31985,-0.0464 -1.05271,-0.60445 -5.70623,-4.34492 -12.58218,-7.16163 -20.05628,-8.21599 -2.75368,-0.38847 -3.5427,-0.44546 -3.4232,-0.24728 0.0533,0.0884 0.86304,1.18045 1.79934,2.42669 4.5645,6.07544 8.42918,12.35558 11.54612,18.76253 1.20522,2.47738 1.56316,3.08955 1.94126,3.32016 0.58707,0.35806 0.72574,0.35253 1.70584,-0.068 z m 29.8827,-19.39805 c -0.0536,-0.1689 -0.0416,-0.36088 0.0267,-0.42662 0.0683,-0.0657 3.20642,-2.46305 6.97367,-5.32735 l 6.84953,-5.20781 2.26044,1.72395 c 1.24324,0.94817 3.81975,2.90805 5.72556,4.3553 6.1068,4.63741 5.79085,4.37753 5.79085,4.76317 0,0.44457 -0.16741,0.44533 -3.43449,0.0155 -4.27356,-0.5622 -5.83726,-0.66293 -10.30347,-0.66374 -4.56341,-8.8e-4 -7.54629,0.20578 -11.38436,0.7885 -2.33917,0.35515 -2.3852,0.35476 -2.50441,-0.0209 z"
     id="path3357"
     inkscape:connector-curvature="0" />
</svg>
