<?xml version="1.0" encoding="UTF-8" standalone="no"?>
<svg
   xmlns:dc="http://purl.org/dc/elements/1.1/"
   xmlns:cc="http://creativecommons.org/ns#"
   xmlns:rdf="http://www.w3.org/1999/02/22-rdf-syntax-ns#"
   xmlns:svg="http://www.w3.org/2000/svg"
   xmlns="http://www.w3.org/2000/svg"
   viewBox="0 0 500 500"
   height="500"
   width="500"
   version="1.1"
   id="svg2">
  <metadata
     id="metadata8">
    <rdf:RDF>
      <cc:Work
         rdf:about="">
        <dc:format>image/svg+xml</dc:format>
        <dc:type
           rdf:resource="http://purl.org/dc/dcmitype/StillImage" />
        <dc:title></dc:title>
      </cc:Work>
    </rdf:RDF>
  </metadata>
  <defs
     id="defs6" />
  <path
     id="path3338"
     d="m 224.66637,366.37067 c -22.1986,-3.72135 -44.51146,-15.08244 -61.44543,-31.28633 -10.14698,-9.7095 -17.49917,-19.38853 -23.38718,-30.7888 -4.81944,-9.33132 -9.40369,-20.74785 -8.63846,-21.51307 0.93803,-0.93804 44.75539,17.85304 45.18922,19.37941 1.45488,5.11867 6.72899,13.72541 10.3803,16.93941 21.35325,18.79588 53.26822,6.27159 57.07114,-22.39625 l 0.63236,-4.76696 20.26981,-14.41024 20.26982,-14.41025 6.31832,-0.48077 c 11.71732,-0.89159 25.67283,-9.56607 32.41577,-20.14904 11.85305,-18.60326 8.448,-43.76499 -7.88766,-58.28589 -2.52803,-2.24719 -7.73503,-5.58871 -11.57111,-7.42559 -5.99695,-2.87161 -8.15035,-3.396 -15.36144,-3.74076 -10.07208,-0.48156 -16.91873,0.86978 -24.53888,4.84327 -12.59011,6.56505 -22.63823,21.00245 -23.68393,34.02964 l -0.5127,6.38714 -14.34643,20.75245 -14.34643,20.75245 -5.91727,0.47498 c -3.67055,0.29464 -7.69014,1.37238 -10.58651,2.83848 l -4.66923,2.36349 -31.40625,-12.98041 c -17.27344,-7.13924 -31.74956,-13.11243 -32.16917,-13.27376 -1.15002,-0.44216 1.81392,-17.31336 4.57982,-26.06898 9.65643,-30.568 31.05252,-56.02207 59.39581,-70.66081 46.01965,-23.76822 101.2472,-15.69414 138.4145,20.23573 48.47889,46.86485 49.10549,122.98756 1.40331,170.48208 -17.51411,17.43787 -39.82364,29.03806 -63.75061,33.14815 -10.78337,1.85232 -31.10665,1.85774 -42.12149,0.0113 z M 201.26365,317.34 c -2.8905,-0.99828 -6.5747,-3.25613 -8.74609,-5.36002 -6.86709,-6.65363 -6.29302,-7.13323 3.59363,-3.00223 7.75544,3.24051 9.80068,3.73007 14.09525,3.37393 9.71469,-0.80562 17.09987,-8.70988 17.12984,-18.33386 0.0348,-11.16579 -4.17881,-15.28886 -23.42208,-22.91895 -2.22937,-0.88396 -2.25225,-0.9668 -0.46875,-1.69767 3.04545,-1.24799 9.15103,-1.00479 14.47625,0.57663 6.44892,1.91512 13.16113,8.4212 15.367,14.89509 2.4585,7.21529 2.04745,13.2967 -1.35958,20.11476 -3.35486,6.71369 -7.9911,10.59655 -15.2135,12.74137 -6.08532,1.80715 -9.32938,1.72547 -15.45197,-0.38905 z m 77.12371,-70.28762 c -4.57726,-1.18379 -12.54934,-5.87887 -15.07139,-8.87617 -1.27497,-1.51522 -3.43781,-4.90964 -4.80631,-7.54318 -2.11433,-4.06879 -2.49125,-5.98552 -2.50862,-12.75697 -0.0188,-7.29736 0.24795,-8.46648 3.16515,-13.8763 3.54749,-6.57868 6.48889,-9.41963 13.55353,-13.09074 4.09009,-2.1254 5.95009,-2.48678 12.75698,-2.47857 6.50823,0.008 8.82788,0.42635 12.65625,2.28337 5.9676,2.89469 12.23394,9.1438 14.83143,14.79066 2.86372,6.22564 2.86372,18.51752 0,24.74317 -2.61461,5.68405 -8.90116,11.92918 -14.83143,14.73367 -5.03584,2.38151 -14.64725,3.38962 -19.74559,2.07106 z m 16.97141,-8.89526 c 8.27939,-3.85539 12.80543,-11.08494 12.80543,-20.45442 0,-6.80196 -2.72169,-12.70235 -7.90632,-17.14019 -4.95319,-4.23976 -8.94639,-5.47793 -16.18095,-5.01727 -22.80304,1.45199 -29.20144,32.2012 -8.81452,42.36042 6.49484,3.23653 13.4978,3.32414 20.09636,0.25146 z"
     style="fill:#000000" />
</svg>
