<?xml version="1.0" encoding="UTF-8" standalone="no"?>
<!-- Created with Inkscape (http://www.inkscape.org/) -->

<svg
   xmlns:dc="http://purl.org/dc/elements/1.1/"
   xmlns:cc="http://creativecommons.org/ns#"
   xmlns:rdf="http://www.w3.org/1999/02/22-rdf-syntax-ns#"
   xmlns:svg="http://www.w3.org/2000/svg"
   xmlns="http://www.w3.org/2000/svg"
   xmlns:sodipodi="http://sodipodi.sourceforge.net/DTD/sodipodi-0.dtd"
   xmlns:inkscape="http://www.inkscape.org/namespaces/inkscape"
   id="svg2"
   version="1.1"
   inkscape:version="0.91 r13725"
   width="500"
   height="500"
   viewBox="0 0 500 500"
   sodipodi:docname="target.svg">
  <metadata
     id="metadata8">
    <rdf:RDF>
      <cc:Work
         rdf:about="">
        <dc:format>image/svg+xml</dc:format>
        <dc:type
           rdf:resource="http://purl.org/dc/dcmitype/StillImage" />
        <dc:title></dc:title>
      </cc:Work>
    </rdf:RDF>
  </metadata>
  <defs
     id="defs6" />
  <sodipodi:namedview
     pagecolor="#ffffff"
     bordercolor="#666666"
     borderopacity="1"
     objecttolerance="10"
     gridtolerance="10"
     guidetolerance="10"
     inkscape:pageopacity="0"
     inkscape:pageshadow="2"
     inkscape:window-width="987"
     inkscape:window-height="801"
     id="namedview4"
     showgrid="false"
     inkscape:zoom="0.94105919"
     inkscape:cx="291.85566"
     inkscape:cy="250.8353"
     inkscape:window-x="135"
     inkscape:window-y="108"
     inkscape:window-maximized="0"
     inkscape:current-layer="svg2" />
  <path
     style="fill:#000000"
     d="m 243.21054,379.6994 c -23.18171,-1.00932 -46.69174,-7.50562 -67.03113,-18.52213 -29.84661,-16.16593 -53.27859,-42.60038 -64.30237,-72.54181 -5.04572,-13.70456 -7.39859,-26.26934 -7.67788,-41.00137 -0.16596,-8.75426 0.0943,-13.18051 1.23505,-21.00472 5.33477,-36.59027 27.20775,-69.75872 60.34871,-91.51351 20.72773,-13.60635 44.78696,-21.84654 70.89821,-24.28238 6.05212,-0.56458 20.93908,-0.64195 26.82624,-0.13942 39.63905,3.3836 74.78766,20.28994 100.12814,48.16121 17.1446,18.85687 27.95625,40.94351 32.27773,65.93882 1.79371,10.37483 2.02926,25.09942 0.58296,36.44333 -4.45213,34.92008 -24.23699,67.37071 -54.53978,89.45477 -28.03349,20.43024 -62.58994,30.58141 -98.74588,29.00721 z m 18.72721,-45.18688 c 16.1014,-1.68465 31.48738,-7.01805 44.74706,-15.51115 31.79816,-20.36734 47.48738,-55.54411 40.42939,-90.64664 -7.34477,-36.52885 -39.54527,-65.74939 -79.32605,-71.9849 -7.37471,-1.15597 -11.2004,-1.40181 -19.33977,-1.24282 -11.85073,0.2315 -21.23588,1.87121 -32.17231,5.62094 -6.56929,2.25239 -16.06872,6.76791 -20.75401,9.86535 -4.06131,2.68493 -9.50333,6.77265 -12.37406,9.29464 -28.53634,25.06975 -37.90544,62.79044 -24.08185,96.95528 12.79974,31.63441 45.70139,54.80125 82.03846,57.76525 1.96202,0.16005 4.08101,0.33704 4.70886,0.39334 2.26906,0.20343 12.35798,-0.11523 16.12428,-0.50929 z m -19.26352,-43.90169 c -9.73284,-1.42438 -19.0107,-5.65953 -26.52898,-12.10991 -7.4316,-6.37601 -12.92413,-15.75289 -14.89575,-25.43008 -0.71514,-3.51006 -0.70606,-12.44307 0.0164,-16.08528 1.2117,-6.1091 4.14904,-12.6708 8.07309,-18.03438 2.24666,-3.07084 7.22123,-7.93832 10.50272,-10.27661 19.66317,-14.01138 47.54506,-12.82461 65.33671,2.78099 4.80579,4.2153 7.7835,7.88854 10.58074,13.05219 3.84383,7.0956 5.48824,14.13801 5.17874,22.17856 -0.59291,15.40324 -9.14595,29.11539 -23.36358,37.45625 -4.66172,2.73482 -12.15599,5.42447 -17.63421,6.3288 -4.23868,0.69971 -12.95651,0.77013 -17.26583,0.13947 z"
     id="path3357"
     inkscape:connector-curvature="0" />
</svg>
