<?xml version="1.0" encoding="UTF-8" standalone="no"?>
<!-- Created with Inkscape (http://www.inkscape.org/) -->

<svg
   xmlns:dc="http://purl.org/dc/elements/1.1/"
   xmlns:cc="http://creativecommons.org/ns#"
   xmlns:rdf="http://www.w3.org/1999/02/22-rdf-syntax-ns#"
   xmlns:svg="http://www.w3.org/2000/svg"
   xmlns="http://www.w3.org/2000/svg"
   xmlns:sodipodi="http://sodipodi.sourceforge.net/DTD/sodipodi-0.dtd"
   xmlns:inkscape="http://www.inkscape.org/namespaces/inkscape"
   id="svg2"
   version="1.1"
   inkscape:version="0.91 r13725"
   width="500"
   height="500"
   viewBox="0 0 500 500"
   sodipodi:docname="twitter.svg">
  <metadata
     id="metadata8">
    <rdf:RDF>
      <cc:Work
         rdf:about="">
        <dc:format>image/svg+xml</dc:format>
        <dc:type
           rdf:resource="http://purl.org/dc/dcmitype/StillImage" />
        <dc:title></dc:title>
      </cc:Work>
    </rdf:RDF>
  </metadata>
  <defs
     id="defs6" />
  <sodipodi:namedview
     pagecolor="#ffffff"
     bordercolor="#666666"
     borderopacity="1"
     objecttolerance="10"
     gridtolerance="10"
     guidetolerance="10"
     inkscape:pageopacity="0"
     inkscape:pageshadow="2"
     inkscape:window-width="989"
     inkscape:window-height="752"
     id="namedview4"
     showgrid="false"
     inkscape:zoom="0.84953207"
     inkscape:cx="270.90509"
     inkscape:cy="248.37202"
     inkscape:window-x="100"
     inkscape:window-y="132"
     inkscape:window-maximized="0"
     inkscape:current-layer="svg2" />
  <path
     style="fill:#000000"
     d="m 196.5944,351.53075 c -26.64549,-0.97791 -52.88259,-8.4789 -75.67056,-21.63366 -1.74502,-1.00735 -3.2459,-1.94557 -3.33528,-2.08495 -0.11552,-0.18014 0.42006,-0.21193 1.85245,-0.10996 4.75543,0.33854 14.17345,0.43087 17.85884,0.17508 21.57473,-1.49742 41.39208,-8.3512 58.61009,-20.27015 1.68186,-1.16425 3.09678,-2.22916 3.14428,-2.36649 0.0541,-0.15649 -0.61279,-0.30586 -1.78688,-0.4002 -11.87905,-0.95454 -21.49599,-4.37843 -30.32021,-10.79482 -3.60793,-2.62345 -6.05819,-4.82855 -8.83603,-7.95195 -3.96667,-4.46011 -7.55984,-10.19992 -9.73891,-15.55714 -1.03961,-2.55588 -1.1077,-3.17332 -0.32971,-2.98969 3.42469,0.80828 13.26313,0.98686 17.60005,0.31947 3.40199,-0.52353 5.86571,-1.08972 5.86571,-1.34802 0,-0.25466 0.19055,-0.18984 -3.31069,-1.12616 -13.09837,-3.50281 -24.98383,-12.16533 -32.27266,-23.52141 -3.87674,-6.04 -6.63408,-13.24567 -7.73349,-20.20968 -0.4925,-3.11966 -0.77597,-8.56016 -0.44601,-8.56016 0.13309,0 1.47307,0.56359 2.97774,1.25242 3.21508,1.47184 7.32304,2.87334 10.80693,3.68695 4.0261,0.94023 10.38539,1.72523 10.64878,1.3145 0.0757,-0.11811 -0.47919,-0.65397 -1.2332,-1.19079 -8.65112,-6.15927 -15.33275,-14.57599 -19.17295,-24.15184 -2.30529,-5.74843 -3.45315,-11.31938 -3.64859,-17.70789 -0.21134,-6.90795 0.60206,-12.49511 2.73116,-18.76006 1.00742,-2.96437 4.05909,-9.45287 4.59639,-9.7729 0.13438,-0.08 1.30475,1.02603 2.60084,2.45793 14.61843,16.15026 30.32714,28.0112 49.41967,37.31458 14.73677,7.18091 29.31271,11.79397 45.6112,14.43525 5.72868,0.92838 17.4877,2.09568 17.82607,1.76958 0.0823,-0.0793 -0.0344,-1.26091 -0.25937,-2.62582 -1.35866,-8.2447 -1.06623,-15.63059 0.91339,-23.06996 3.99549,-15.01498 14.55609,-27.68143 28.91543,-34.68138 5.53242,-2.69696 10.35764,-4.22465 16.59475,-5.254 4.60457,-0.75991 13.08593,-0.76615 17.50974,-0.0129 11.98909,2.04148 21.6839,6.68782 30.21788,14.48226 l 2.13217,1.9474 2.00944,-0.4252 c 10.32301,-2.18433 20.56717,-5.84506 29.57403,-10.56823 1.82527,-0.95715 3.3875,-1.67394 3.47164,-1.59286 0.25689,0.24758 -0.93962,3.30929 -2.50288,6.40459 -4.30106,8.51613 -10.33641,15.357 -18.42186,20.88058 -1.27027,0.86778 -2.30958,1.67229 -2.30958,1.78779 0,0.24387 0.7758,0.15263 5.52135,-0.6494 8.31857,-1.40587 16.42539,-3.77021 25.41063,-7.41094 0.63718,-0.25818 -4.66099,6.59675 -7.98811,10.33528 -4.84746,5.44685 -10.73968,10.84123 -16.72987,15.31637 l -2.78824,2.08302 -0.13911,8.25303 c -0.18372,10.89927 -0.9975,18.61728 -2.95583,28.03396 -8.47749,40.76425 -32.78818,76.70177 -67.08848,99.17424 -11.85231,7.76526 -25.91842,14.26722 -39.95359,18.46828 -16.89697,5.05766 -37.13421,7.57817 -55.44856,6.90602 z"
     id="path3338"
     inkscape:connector-curvature="0" />
</svg>
