<?xml version="1.0" encoding="UTF-8" standalone="no"?>
<svg
   xmlns:dc="http://purl.org/dc/elements/1.1/"
   xmlns:cc="http://creativecommons.org/ns#"
   xmlns:rdf="http://www.w3.org/1999/02/22-rdf-syntax-ns#"
   xmlns:svg="http://www.w3.org/2000/svg"
   xmlns="http://www.w3.org/2000/svg"
   xmlns:sodipodi="http://sodipodi.sourceforge.net/DTD/sodipodi-0.dtd"
   xmlns:inkscape="http://www.inkscape.org/namespaces/inkscape"
   viewBox="0 0 500 500"
   height="500"
   width="500"
   version="1.1"
   id="svg2"
   inkscape:version="0.91 r13725"
   sodipodi:docname="ubuntu.svg">
  <sodipodi:namedview
     pagecolor="#ffffff"
     bordercolor="#666666"
     borderopacity="1"
     objecttolerance="10"
     gridtolerance="10"
     guidetolerance="10"
     inkscape:pageopacity="0"
     inkscape:pageshadow="2"
     inkscape:window-width="640"
     inkscape:window-height="480"
     id="namedview7"
     showgrid="false"
     inkscape:zoom="0.472"
     inkscape:cx="250"
     inkscape:cy="250"
     inkscape:window-x="10"
     inkscape:window-y="34"
     inkscape:window-maximized="0"
     inkscape:current-layer="svg2" />
  <metadata
     id="metadata8">
    <rdf:RDF>
      <cc:Work
         rdf:about="">
        <dc:format>image/svg+xml</dc:format>
        <dc:type
           rdf:resource="http://purl.org/dc/dcmitype/StillImage" />
        <dc:title></dc:title>
      </cc:Work>
    </rdf:RDF>
  </metadata>
  <defs
     id="defs6" />
  <path
     id="path3338"
     d="m 237.37687,366.22468 c -50.35154,-6.06382 -90.79821,-40.25323 -105.9246,-89.53764 -3.14188,-10.23681 -3.36915,-12.53723 -3.36915,-34.1023 0,-21.56894 0.22686,-23.8642 3.3715,-34.1104 10.62041,-34.60458 33.61469,-61.86784 65.05724,-77.13539 21.1203,-10.25538 28.77655,-11.89202 55.17245,-11.79399 20.77054,0.0771 23.35062,0.34375 33.56652,3.46859 92.50434,28.29519 120.89638,142.75617 51.84977,209.02956 -26.74921,25.67486 -64.08794,38.47317 -99.72373,34.18157 z m 63.60536,-35.92403 c 5.75374,-3.08576 9.12355,-9.4304 8.45743,-15.9235 -0.73101,-7.12556 -3.90855,-11.30998 -10.5001,-13.82732 -5.07025,-1.93635 -6.20695,-1.97606 -10.79535,-0.37716 -6.55983,2.28587 -10.83664,8.371 -10.83023,15.40942 0.0113,12.84891 12.58044,20.66502 23.66825,14.71856 z m -39.08968,-16.5939 c 7.61745,-1.32652 8.00038,-1.57163 10.25239,-6.5625 4.55296,-10.09026 13.51419,-15.39926 23.91387,-14.16757 6.03179,0.71437 6.2625,0.61662 10.66429,-4.51839 6.42496,-7.49517 12.8422,-21.26806 14.84213,-31.85466 l 1.72027,-9.10612 -11.91074,0.35612 -11.91074,0.35611 -1.74896,6.8447 c -2.40186,9.39994 -6.57915,16.067 -14.74011,23.52566 -11.4345,10.45049 -28.87919,15.02213 -42.54064,11.14839 -3.4375,-0.9747 -7.03933,-1.99642 -8.00407,-2.27048 -1.11452,-0.31659 -3.72019,2.91997 -7.14641,8.87673 -2.96579,5.15625 -5.41083,9.82557 -5.43343,10.37629 -0.10219,2.48998 19.74473,7.97827 29.85652,8.25625 2.34993,0.0646 7.83346,-0.50264 12.18563,-1.26053 z m -44.7391,-21.0055 c 2.83572,-4.77322 5.15586,-9.06387 5.15586,-9.53479 0,-0.47091 -2.72883,-3.84197 -6.06406,-7.49124 -7.27606,-7.96118 -11.22695,-15.93017 -12.82859,-25.87545 -2.35684,-14.63465 3.67542,-32.08755 14.55731,-42.11813 l 5.31355,-4.89787 -4.34593,-7.28701 c -2.39027,-4.00786 -5.17216,-8.57946 -6.18197,-10.15911 l -1.83602,-2.87208 -6.23159,5.21738 c -8.12178,6.79994 -17.08982,19.47373 -20.55875,29.05399 l -2.76316,7.63113 3.69547,4.59852 c 6.44369,8.01831 6.2821,20.35539 -0.36578,27.92691 l -3.73621,4.25531 3.05254,7.51236 c 1.67889,4.13178 5.13624,10.65157 7.68298,14.48841 4.74519,7.14892 17.7904,19.78036 19.40058,18.78521 0.49386,-0.30523 3.21805,-4.46031 6.05377,-9.23354 z M 175.82203,256.3027 c 4.17716,-2.54675 7.73728,-8.89712 7.73728,-13.8014 0,-4.50015 -3.97448,-11.33948 -8.02496,-13.80946 -4.59961,-2.80484 -12.01852,-3.04522 -16.85149,-0.54599 -10.74388,5.55588 -10.89972,23.0331 -0.25696,28.81775 4.73617,2.57425 12.57852,2.27632 17.39613,-0.6609 z m 144.15455,-18.70907 3.29229,-0.009 -1.70521,-8.94926 c -2.07763,-10.9038 -7.16023,-22.01745 -14.0067,-30.62717 -4.92906,-6.1985 -5.32543,-6.42525 -10.10975,-5.78354 -11.24969,1.50891 -20.76414,-3.83649 -25.37275,-14.25489 -2.11958,-4.79157 -2.8236,-5.32286 -8.22901,-6.21 -10.18573,-1.67167 -23.38121,-0.82164 -33.39553,2.15128 -5.21706,1.54877 -9.79086,3.30992 -10.16399,3.91367 -1.16437,1.88399 10.14979,20.43998 12.12084,19.87899 15.93043,-4.53404 27.66915,-4.19441 38.99241,1.12815 12.22041,5.74427 23.12384,18.58563 26.00563,30.62777 0.82264,3.4375 1.71326,7.03324 1.97919,7.99054 0.38072,1.3706 2.27062,1.57175 8.8919,0.94639 4.62462,-0.43679 9.88993,-0.79816 11.70068,-0.80304 z m -19.27111,-53.34635 c 12.3502,-5.86055 12.01045,-23.85858 -0.55531,-29.41702 -11.8699,-5.25062 -22.84085,2.26585 -22.84085,15.64883 0,11.92442 12.17859,19.09128 23.39616,13.76819 z"
     style="fill:#000000"
     inkscape:connector-curvature="0" />
</svg>
