<?xml version="1.0" encoding="UTF-8" standalone="no"?>
<!-- Created with Inkscape (http://www.inkscape.org/) -->

<svg
   xmlns:dc="http://purl.org/dc/elements/1.1/"
   xmlns:cc="http://creativecommons.org/ns#"
   xmlns:rdf="http://www.w3.org/1999/02/22-rdf-syntax-ns#"
   xmlns:svg="http://www.w3.org/2000/svg"
   xmlns="http://www.w3.org/2000/svg"
   xmlns:sodipodi="http://sodipodi.sourceforge.net/DTD/sodipodi-0.dtd"
   xmlns:inkscape="http://www.inkscape.org/namespaces/inkscape"
   id="svg2"
   version="1.1"
   inkscape:version="0.91 r13725"
   width="500"
   height="500"
   viewBox="0 0 500 500"
   sodipodi:docname="under-armour.svg">
  <metadata
     id="metadata8">
    <rdf:RDF>
      <cc:Work
         rdf:about="">
        <dc:format>image/svg+xml</dc:format>
        <dc:type
           rdf:resource="http://purl.org/dc/dcmitype/StillImage" />
        <dc:title></dc:title>
      </cc:Work>
    </rdf:RDF>
  </metadata>
  <defs
     id="defs6" />
  <sodipodi:namedview
     pagecolor="#ffffff"
     bordercolor="#666666"
     borderopacity="1"
     objecttolerance="10"
     gridtolerance="10"
     guidetolerance="10"
     inkscape:pageopacity="0"
     inkscape:pageshadow="2"
     inkscape:window-width="812"
     inkscape:window-height="681"
     id="namedview4"
     showgrid="false"
     inkscape:zoom="0.99258936"
     inkscape:cx="232.61997"
     inkscape:cy="228.18588"
     inkscape:window-x="206"
     inkscape:window-y="124"
     inkscape:window-maximized="0"
     inkscape:current-layer="svg2" />
  <path
     style="fill:#000000"
     d="m 155.03818,292.67893 c -24.67535,-3.49621 -57.788415,-12.25386 -78.531355,-20.76975 -7.99214,-3.28113 -7.86098,-3.18034 -7.49859,-5.76247 1.83064,-13.04379 13.48855,-26.51774 32.440445,-37.49398 6.05316,-3.50576 17.74801,-8.87951 25.89392,-11.89818 l 6.98977,-2.59023 -6.47845,-2.36244 c -7.67864,-2.8001 -18.85825,-7.8773 -25.34815,-11.51182 C 82.870975,189.29404 70.897615,175.62 68.938755,161.95523 l -0.30506,-2.12802 4.56048,-2.00605 c 20.04306,-8.81647 55.399225,-18.40555 81.019425,-21.97358 3.77394,-0.52558 7.46823,-1.04571 8.20954,-1.15584 l 1.34783,-0.20024 0.006,25.87301 c 0.006,28.11159 -0.01,27.91869 2.82186,33.45443 1.45935,2.85278 4.94768,7.41994 7.05315,9.23446 l 1.15039,0.99142 4.89947,-0.87738 c 2.6947,-0.48257 8.75917,-1.3746 13.47659,-1.9823 37.75311,-4.86334 76.54897,-4.55314 113.6444,0.90867 5.82883,0.85821 10.96086,1.66667 11.4045,1.79656 0.97933,0.28673 6.17088,-5.4718 8.10138,-8.98613 3.50869,-6.38732 3.31252,-4.48417 3.48303,-33.79098 l 0.15407,-26.48063 5.00201,0.59092 c 17.34666,2.04928 41.41266,7.51855 62.34625,14.16889 7.63606,2.42588 19.72566,6.87387 23.7709,8.74575 2.8425,1.31534 3.2026,1.6331 3.34184,2.94892 0.39577,3.74023 -2.59256,11.27471 -6.81908,17.19295 -6.9774,9.77017 -19.87517,19.30551 -36.69773,27.13066 -5.44525,2.53291 -16.49829,6.97715 -20.84517,8.3815 -0.74179,0.23965 0.51014,0.86343 5.14628,2.56421 13.07696,4.79729 25.54276,10.98164 34.79863,17.26381 5.60674,3.80542 14.26835,11.6936 17.07621,15.55141 4.17861,5.74113 7.10733,12.57076 7.52358,17.54458 l 0.15135,1.80851 -4.16604,1.90057 c -19.93373,9.09387 -62.67645,20.282 -87.83223,22.99056 l -2.79613,0.30106 -0.1446,-26.61205 -0.14459,-26.61205 -1.2855,-3.04804 c -1.69681,-4.02329 -4.03953,-7.54815 -7.06388,-10.62828 l -2.46792,-2.51344 -5.61908,0.9565 c -40.63849,6.91762 -86.83861,7.10324 -129.58444,0.52064 l -8.78677,-1.3531 -1.44008,1.25094 c -2.14795,1.86586 -4.94699,5.47511 -6.6271,8.5454 -3.01646,5.51234 -3.03139,5.67875 -3.03139,33.80139 l 0,25.59299 -1.34783,-0.0418 c -0.74131,-0.023 -4.06454,-0.42668 -7.38496,-0.89714 z M 269.5337,223.60036 c 11.5071,-1.6433 22.04082,-4.39977 30.00095,-7.85067 l 3.67591,-1.59359 -3.92097,-1.68913 c -28.36916,-12.22122 -76.44988,-12.18703 -105.13108,0.0748 l -3.67591,1.57153 2.38061,1.12866 c 6.46344,3.06437 19.25273,6.62243 28.98717,8.06442 9.03803,1.33883 12.6716,1.52399 26.95669,1.37369 11.29096,-0.1188 15.55274,-0.3408 20.72663,-1.07967 z m 158.92017,40.65889 c -0.70796,-1.2203 -0.63235,-2.86409 0.17881,-3.88743 0.61516,-0.77607 0.68617,-0.57447 0.68617,1.94816 0,1.54759 -0.0805,2.81381 -0.17881,2.81381 -0.0983,0 -0.40712,-0.39355 -0.68617,-0.87454 z"
     id="path3376"
     inkscape:connector-curvature="0" />
</svg>
