<?xml version="1.0" encoding="UTF-8" standalone="no"?>
<!-- Created with Inkscape (http://www.inkscape.org/) -->

<svg
   xmlns:dc="http://purl.org/dc/elements/1.1/"
   xmlns:cc="http://creativecommons.org/ns#"
   xmlns:rdf="http://www.w3.org/1999/02/22-rdf-syntax-ns#"
   xmlns:svg="http://www.w3.org/2000/svg"
   xmlns="http://www.w3.org/2000/svg"
   xmlns:sodipodi="http://sodipodi.sourceforge.net/DTD/sodipodi-0.dtd"
   xmlns:inkscape="http://www.inkscape.org/namespaces/inkscape"
   id="svg2"
   version="1.1"
   inkscape:version="0.91 r13725"
   width="500"
   height="500"
   viewBox="0 0 500 500.00001"
   sodipodi:docname="wm.svg">
  <metadata
     id="metadata8">
    <rdf:RDF>
      <cc:Work
         rdf:about="">
        <dc:format>image/svg+xml</dc:format>
        <dc:type
           rdf:resource="http://purl.org/dc/dcmitype/StillImage" />
        <dc:title></dc:title>
      </cc:Work>
    </rdf:RDF>
  </metadata>
  <defs
     id="defs6" />
  <sodipodi:namedview
     pagecolor="#ffffff"
     bordercolor="#666666"
     borderopacity="1"
     objecttolerance="10"
     gridtolerance="10"
     guidetolerance="10"
     inkscape:pageopacity="0"
     inkscape:pageshadow="2"
     inkscape:window-width="980"
     inkscape:window-height="783"
     id="namedview4"
     showgrid="false"
     inkscape:zoom="0.7850155"
     inkscape:cx="209.55"
     inkscape:cy="219.46322"
     inkscape:window-x="149"
     inkscape:window-y="78"
     inkscape:window-maximized="0"
     inkscape:current-layer="svg2" />
  <path
     style="fill:#000000"
     d="m 78.786248,300.40144 c -0.20625,-0.0836 -0.373866,-0.44457 -0.37248,-0.80207 0.0024,-0.62712 -0.361332,-2.33517 -1.512078,-7.1 -0.298869,-1.2375 -0.767067,-3.3975 -1.040442,-4.8 -0.273375,-1.4025 -0.743118,-3.5625 -1.043871,-4.8 -0.300753,-1.2375 -0.773208,-3.33 -1.049898,-4.65 -0.276693,-1.32 -0.751996,-3.48 -1.056231,-4.8 -0.304236,-1.32 -0.77954,-3.48 -1.05623,-4.8 -0.276691,-1.32 -0.746387,-3.4125 -1.04377,-4.65 -0.297383,-1.2375 -0.76708,-3.33 -1.043771,-4.65 -0.27669,-1.32 -0.756092,-3.48 -1.065337,-4.8 -0.309245,-1.32 -0.774365,-3.4125 -1.033601,-4.65 -0.652373,-3.1142 -1.604847,-7.31834 -2.122935,-9.37047 -0.238896,-0.94626 -0.434356,-2.00416 -0.434356,-2.3509 0,-0.34673 -0.25754,-1.59752 -0.57231,-2.77953 -0.314771,-1.182 -0.794488,-3.2291 -1.066039,-4.5491 -0.271551,-1.32 -0.756512,-3.3759 -1.07769,-4.56868 -0.321179,-1.19277 -0.582828,-2.40777 -0.581442,-2.7 0.0024,-0.50993 -0.342577,-2.10927 -1.50595,-6.98132 -0.295497,-1.2375 -0.762922,-3.33 -1.038723,-4.65 -0.275801,-1.32 -0.747967,-3.48 -1.049259,-4.8 -0.301291,-1.32 -0.77644,-3.48 -1.055885,-4.8 -0.279446,-1.32 -0.765622,-3.3671 -1.080393,-4.54911 -0.31477,-1.182 -0.571176,-2.397 -0.56979,-2.7 0.0024,-0.53157 -0.365957,-2.24074 -1.508945,-7.00089 -0.853142,-3.55304 -1.501605,-6.70351 -1.49742,-7.275 0.0036,-0.49542 1.304296,-0.525 23.082558,-0.525 l 23.078708,0 0.47129,1.62117 c 0.25921,0.89165 0.47129,1.8612 0.47129,2.15457 0,0.29337 0.25502,1.55509 0.56671,2.80383 0.311692,1.24874 0.795822,3.35043 1.075862,4.67043 0.28003,1.32 0.69532,3.2775 0.92287,4.35 0.68425,3.22506 1.65572,7.54256 2.10845,9.37047 0.23436,0.94626 0.42611,2.00416 0.42611,2.3509 0,0.34673 0.2603,1.59752 0.57844,2.77953 0.31814,1.182 0.80122,3.2966 1.07352,4.6991 0.2723,1.4025 0.74391,3.5625 1.04804,4.8 0.30412,1.2375 0.77662,3.3975 1.05,4.8 0.27337,1.4025 0.74312,3.5625 1.04387,4.8 0.30075,1.2375 0.77248,3.33 1.04828,4.65 0.2758,1.32 0.74574,3.48 1.04431,4.8 0.29857,1.32 0.77219,3.48 1.05248,4.8 0.87891,4.13905 1.7658,7.64525 1.89995,7.51111 0.0709,-0.0709 0.36857,-0.97993 0.66144,-2.02003 1.11276,-3.95185 2.17872,-7.66115 2.74187,-9.54108 0.32128,-1.0725 0.77779,-2.625 1.01448,-3.45 0.23669,-0.825 0.70618,-2.445 1.04332,-3.6 0.33713,-1.155 0.80662,-2.775 1.04331,-3.6 0.23669,-0.825 0.70919,-2.445 1.05,-3.6 0.34081,-1.155 0.80964,-2.775 1.04185,-3.6 0.23221,-0.825 0.70335,-2.445 1.04699,-3.6 0.34363,-1.155 0.83271,-2.8425 1.08682,-3.75 0.25412,-0.9075 0.67862,-2.325 0.94334,-3.15 0.26472,-0.825 0.582,-1.9725 0.70508,-2.55 0.12307,-0.5775 0.35988,-1.455 0.52624,-1.95 0.30992,-0.92217 1.3191,-4.34207 1.99186,-6.75 0.20745,-0.7425 0.67995,-2.3625 1.05,-3.6 0.37005,-1.2375 0.84255,-2.8575 1.05,-3.6 0.20745,-0.7425 0.65865,-2.295 1.00266,-3.45 0.34402,-1.155 0.8542,-2.91 1.13373,-3.9 0.27954,-0.99 0.77694,-2.57695 1.10535,-3.52656 l 0.59709,-1.72657 27.48018,0.0766 27.48018,0.0766 0.55298,1.95 c 0.30414,1.0725 0.73324,2.5575 0.95356,3.3 0.22032,0.7425 0.67458,2.295 1.00947,3.45 0.33488,1.155 0.89635,3.045 1.24771,4.2 0.35135,1.155 0.74984,2.5725 0.88552,3.15 0.13569,0.5775 0.45618,1.6575 0.7122,2.4 0.25602,0.7425 0.69466,2.16 0.97475,3.15 0.28009,0.99 0.74697,2.5425 1.03751,3.45 0.29053,0.9075 0.76357,2.5275 1.0512,3.6 0.28762,1.0725 0.76113,2.6925 1.05224,3.6 0.29111,0.9075 0.75929,2.5275 1.04042,3.6 0.28113,1.0725 0.74885,2.6925 1.03938,3.6 0.29054,0.9075 0.75742,2.46 1.03751,3.45 0.28009,0.99 0.71873,2.4075 0.97475,3.15 0.25602,0.7425 0.57651,1.8225 0.7122,2.4 0.13568,0.5775 0.51293,1.9275 0.83833,3 0.75705,2.49521 1.18293,3.94609 1.76118,6 0.25549,0.9075 0.70043,2.3925 0.98874,3.3 0.28831,0.9075 0.74685,2.46 1.01897,3.45 0.60488,2.20058 1.68227,5.78522 1.98368,6.6 0.17842,0.48233 0.26091,0.36466 0.42059,-0.6 0.10925,-0.66 0.44997,-2.28 0.75716,-3.6 0.30718,-1.32 0.77832,-3.48 1.04696,-4.8 0.26865,-1.32 0.742,-3.5475 1.05191,-4.95 0.30991,-1.4025 0.78992,-3.63 1.06669,-4.95 0.27677,-1.32 0.74803,-3.48 1.04725,-4.8 0.29921,-1.32 0.7697,-3.5475 1.04552,-4.95 0.27583,-1.4025 0.7487,-3.63 1.05084,-4.95 0.30214,-1.32 0.77313,-3.48 1.04664,-4.8 0.93114,-4.49378 1.71548,-8.09672 2.13787,-9.82047 0.23188,-0.94626 0.42159,-2.00416 0.42159,-2.3509 0,-0.34673 0.2603,-1.59752 0.57844,-2.77952 0.31814,-1.18201 0.80379,-3.29661 1.07922,-4.69911 0.27542,-1.4025 0.74833,-3.63 1.05089,-4.95 0.30256,-1.32 0.78376,-3.5475 1.06933,-4.95 0.28558,-1.4025 0.61474,-2.66061 0.73147,-2.7958 0.11674,-0.13519 22.97802,-0.14786 50.80286,-0.0281 l 50.5906,0.21765 0.46952,0.92815 c 0.25823,0.51048 0.7424,1.80564 1.07592,2.87814 0.33353,1.0725 0.84466,2.5575 1.13585,3.3 0.94527,2.41032 2.4872,7.03445 2.55092,7.65 0.0342,0.33 0.29874,1.05329 0.58795,1.60731 0.32669,0.62579 0.45635,1.30754 0.34233,1.8 -0.10093,0.43598 -0.076,0.63326 0.0555,0.43839 0.22865,-0.33892 0.47033,0.15832 1.55741,3.2043 0.2061,0.5775 0.50489,1.58468 0.66397,2.23819 0.15908,0.6535 0.4101,1.33382 0.55782,1.51181 0.14772,0.17799 0.39874,0.85831 0.55782,1.51181 0.29949,1.2303 0.56136,2.00187 1.74426,5.13936 0.38386,1.01814 0.69792,2.05642 0.69792,2.30729 0,0.25087 0.135,0.53956 0.3,0.64154 0.165,0.10198 0.3,0.45485 0.3,0.78416 0,0.32932 0.26044,1.17046 0.57876,1.8692 0.31831,0.69874 0.62206,1.67009 0.675,2.15854 0.0529,0.48846 0.24935,1.0231 0.43648,1.1881 0.18713,0.165 0.41528,0.6375 0.50702,1.05 0.21209,0.95375 1.89819,6.02642 2.59263,7.8 0.71187,1.81809 1.21305,3.26582 1.50591,4.35 0.13368,0.495 0.59517,1.845 1.02552,3 0.43035,1.155 0.71565,2.27576 0.63399,2.49058 -0.0816,0.21482 -0.015,0.30811 0.14814,0.2073 0.16311,-0.10081 0.29655,0.0911 0.29655,0.42639 0,0.33532 0.26244,1.18704 0.5832,1.89271 0.32073,0.70566 0.66753,1.68098 0.77061,2.16738 0.14448,0.68181 0.25035,0.78487 0.46221,0.45 0.15114,-0.2389 0.27687,-0.68396 0.27939,-0.98902 0.003,-0.30506 0.2052,-0.98006 0.45042,-1.5 0.24522,-0.51994 0.77085,-2.02534 1.16808,-3.34534 0.39723,-1.32 1.00464,-3.10875 1.34979,-3.975 0.34515,-0.86625 0.55725,-1.575 0.47136,-1.575 -0.0859,0 0.005,-0.30057 0.2013,-0.66794 0.19662,-0.36737 0.46401,-1.07612 0.59418,-1.575 0.1302,-0.49888 0.64533,-2.05456 1.14471,-3.45706 0.49938,-1.4025 0.91176,-2.7577 0.91638,-3.01157 0.005,-0.25386 0.27837,-0.99115 0.60837,-1.63843 0.33,-0.64728 0.6,-1.35508 0.6,-1.5729 0,-0.37491 0.7254,-2.6631 1.62129,-5.1141 0.22374,-0.61215 0.57813,-1.68227 0.7875,-2.37806 0.20937,-0.69578 0.48297,-1.20184 0.60798,-1.12458 0.12501,0.0773 0.16023,-0.11592 0.0783,-0.42928 -0.0819,-0.31336 0.0237,-0.88729 0.23487,-1.27541 0.21111,-0.38812 0.60414,-1.51567 0.87339,-2.50567 0.26922,-0.99 0.61488,-1.7775 0.76812,-1.75 0.15321,0.0275 0.29475,-0.3775 0.31452,-0.9 0.0198,-0.5225 0.45474,-2.0975 0.9666,-3.5 0.51189,-1.4025 0.93447,-2.79422 0.93909,-3.0927 0.005,-0.29849 0.12813,-0.4687 0.2745,-0.37823 0.14637,0.0905 0.24807,-0.003 0.22602,-0.2073 -0.0478,-0.44257 1.42557,-5.20698 2.20233,-7.12177 0.61149,-1.50747 1.50552,-4.40331 1.50552,-4.87659 0,-0.16923 0.25455,-0.86248 0.56565,-1.54055 0.3111,-0.67807 0.79875,-2.04286 1.08366,-3.03286 0.28491,-0.99 0.65439,-1.96875 0.8211,-2.175 0.23877,-0.29545 6.62524,-0.375 30.10579,-0.375 29.15802,0 29.80941,0.0126 30.11325,0.58028 0.17082,0.31915 0.31056,0.96965 0.31056,1.44555 0,0.4759 0.195,1.53102 0.43335,2.34472 0.23832,0.8137 0.48945,2.01945 0.558,2.67945 0.0686,0.66 0.29163,1.605 0.49569,2.1 0.20403,0.495 0.47919,1.575 0.61146,2.4 0.39438,2.46013 0.93978,4.97657 1.53807,7.09657 0.30987,1.09812 0.56343,2.33808 0.56343,2.75547 0,0.4174 0.14658,1.13894 0.32577,1.60343 0.17916,0.46449 0.4302,1.45203 0.55791,2.19453 0.12768,0.7425 0.44538,2.2275 0.70599,3.3 0.26061,1.0725 0.69474,3.03 0.96477,4.35 0.27003,1.32 0.75075,3.3671 1.06827,4.5491 0.31752,1.18201 0.57729,2.45265 0.57729,2.82364 0,0.37099 0.19008,1.36139 0.4224,2.20089 0.60171,2.17436 1.6845,7.0637 1.79964,8.12637 0.0536,0.495 0.25059,1.28004 0.43773,1.74453 0.18714,0.46449 0.34023,1.12325 0.34023,1.46391 0,0.34066 0.25848,1.64813 0.57441,2.90547 0.31596,1.25735 0.79536,3.29859 1.06539,4.53609 0.27003,1.2375 0.74037,3.33 1.0452,4.65 0.3048,1.32 0.78315,3.48 1.06299,4.8 0.27981,1.32 0.76119,3.48 1.06974,4.8 0.30852,1.32 0.78027,3.48 1.04829,4.8 0.26802,1.32 0.7347,3.4125 1.0371,4.65 0.3024,1.2375 0.77349,3.3975 1.04688,4.8 0.27339,1.4025 0.74313,3.5625 1.04388,4.8 0.30075,1.2375 0.77247,3.33 1.04826,4.65 0.27582,1.32 0.74799,3.48 1.04928,4.8 0.30129,1.32 0.7773,3.48 1.05783,4.8 0.28053,1.32 0.75552,3.4125 1.05558,4.65 0.69492,2.86631 1.19517,5.32519 1.19517,5.87475 0,0.36891 -3.22368,0.41821 -23.02236,0.35211 l -23.02236,-0.0769 -0.34512,-1.5 c -0.66447,-2.88809 -1.56168,-6.92082 -2.06904,-9.3 -0.28149,-1.32 -0.75609,-3.48 -1.05465,-4.8 -0.29859,-1.32 -0.77109,-3.48 -1.05,-4.8 -0.27894,-1.32 -0.75144,-3.48 -1.05,-4.8 -0.29859,-1.32 -0.76833,-3.48 -1.04388,-4.8 -0.75498,-3.61645 -1.64748,-7.59199 -2.14392,-9.54995 -0.24405,-0.96247 -0.36375,-1.95833 -0.26601,-2.21303 0.0977,-0.25469 0.0588,-0.61471 -0.0865,-0.80004 -0.25194,-0.32132 -0.75345,-2.31973 -1.74096,-6.93698 -0.24702,-1.155 -0.59232,-2.7075 -0.76734,-3.45 -0.17502,-0.7425 -0.4221,-2.025 -0.54903,-2.85 -0.12696,-0.825 -0.37683,-1.87465 -0.55527,-2.33257 -0.17847,-0.45791 -0.47397,-1.74041 -0.6567,-2.85 -0.1827,-1.10958 -0.36084,-2.18227 -0.39585,-2.38375 -0.035,-0.20147 -0.15756,-0.46022 -0.27234,-0.575 -0.11478,-0.11477 -0.20868,-0.55786 -0.20868,-0.98463 0,-0.42678 -0.27,-1.7201 -0.6,-2.87405 -0.33,-1.15395 -0.60411,-2.50352 -0.60912,-2.99905 -0.007,-0.73942 -0.0624,-0.80964 -0.30612,-0.39163 -0.16338,0.28012 -0.41397,1.09012 -0.55689,1.8 -0.14292,0.70987 -0.46902,1.89818 -0.72465,2.64068 -0.25566,0.7425 -0.6876,2.16 -0.95985,3.15 -0.27225,0.99 -0.62928,2.205 -0.79341,2.7 -0.1641,0.495 -0.42531,1.3725 -0.58047,1.95 -0.36576,1.36138 -1.09023,3.88571 -1.76499,6.15 -0.29502,0.99 -0.76752,2.61 -1.05,3.6 -0.28248,0.99 -0.75195,2.61 -1.04328,3.6 -0.2913,0.99 -0.7608,2.61 -1.04325,3.6 -0.28248,0.99 -0.75693,2.61 -1.05432,3.6 -0.68817,2.29088 -1.40034,4.86509 -1.63917,5.925 -0.10224,0.45375 -0.32631,0.825 -0.49791,0.825 -0.17157,0 -0.23814,0.11949 -0.14787,0.26554 0.0903,0.14605 0.046,0.6523 -0.0983,1.125 -0.1443,0.4727 -0.49479,1.73696 -0.77883,2.80946 -0.49797,1.88023 -1.2336,4.3692 -2.12799,7.2 -0.2346,0.7425 -0.42588,1.58625 -0.42504,1.875 0,0.28875 -0.14151,0.525 -0.31623,0.525 -0.17475,0 -0.2433,0.1204 -0.15234,0.26756 0.0909,0.14716 -0.0325,0.85591 -0.27423,1.575 -0.2418,0.71909 -0.66045,2.11744 -0.93036,3.10744 -0.26991,0.99 -0.73941,2.61 -1.04331,3.6 -0.3039,0.99 -0.77332,2.61 -1.04314,3.6 -0.50787,1.86347 -0.82665,2.8563 -1.49304,4.65 l -0.39009,1.05 -27.3336,0.0766 -27.33362,0.0766 -0.25427,-0.67658 c -0.36497,-0.97113 -1.7559,-5.55684 -3.48105,-11.47658 -0.57701,-1.98 -1.30402,-4.41 -1.61556,-5.4 -0.31155,-0.99 -0.79924,-2.6775 -1.08376,-3.75 -0.28452,-1.0725 -0.75879,-2.6925 -1.05394,-3.6 -0.29514,-0.9075 -0.76764,-2.5275 -1.05,-3.6 -0.28235,-1.0725 -0.7615,-2.6925 -1.06477,-3.6 -0.30327,-0.9075 -0.6421,-2.1225 -0.75296,-2.7 -0.11085,-0.5775 -0.304,-1.185 -0.42922,-1.35 -0.12522,-0.165 -0.29434,-0.705 -0.37583,-1.2 -0.0815,-0.495 -0.35981,-1.5075 -0.6185,-2.25 -0.25868,-0.7425 -0.69309,-2.16 -0.96535,-3.15 -0.27226,-0.99 -0.62682,-2.205 -0.78792,-2.7 -0.16109,-0.495 -0.62691,-2.115 -1.03513,-3.6 -0.40824,-1.485 -0.88026,-3.105 -1.04895,-3.6 -0.16869,-0.495 -0.356,-1.1025 -0.41625,-1.35 -0.14956,-0.61438 -1.23813,-4.25558 -1.92829,-6.45 -0.31136,-0.99 -0.86002,-2.88 -1.21923,-4.2 -0.35921,-1.32 -0.84298,-2.903 -1.07504,-3.51779 -0.23206,-0.61478 -0.45363,-1.53383 -0.49237,-2.04232 -0.0736,-0.96558 -0.80837,-1.93187 -0.87573,-1.15162 -0.0196,0.22645 -0.0122,0.58683 0.0164,0.80084 0.0286,0.21401 -0.22544,1.45918 -0.56446,2.76705 -0.33901,1.30787 -0.61842,2.68527 -0.62091,3.06089 -0.002,0.37562 -0.19906,1.22295 -0.43683,1.88295 -0.23777,0.66 -0.43824,1.68375 -0.44548,2.275 -0.007,0.59125 -0.1127,1.17453 -0.23434,1.29617 -0.12165,0.12165 -0.22502,0.3804 -0.22973,0.575 -0.005,0.19461 -0.16292,1.02883 -0.35159,1.85383 -0.18867,0.825 -0.57303,2.6475 -0.85413,4.05 -0.2811,1.4025 -0.70964,3.28459 -0.95231,4.18242 -0.24267,0.89783 -0.55989,2.31533 -0.70494,3.15 -0.51641,2.97161 -1.48923,7.42989 -1.69328,7.76005 -0.11404,0.18453 -0.24901,0.81297 -0.29992,1.39652 -0.0902,1.03436 -0.4505,2.78154 -1.45597,7.06101 -0.27137,1.155 -0.59852,2.7075 -0.727,3.45 -0.25073,1.44894 -0.63261,3.24195 -1.50154,7.05 -0.3012,1.32 -0.77454,3.48 -1.05188,4.8 -0.80428,3.82809 -1.68951,7.94893 -2.13993,9.96166 -0.22913,1.02391 -0.41661,2.18863 -0.41661,2.58826 0,0.39964 -0.17123,0.86872 -0.38052,1.04242 -0.26074,0.21639 -16.30865,0.38433 -50.98255,0.53351 l -50.60203,0.2177 -0.43683,-1.02177 c -0.46092,-1.07812 -1.52659,-4.22518 -2.78409,-8.22178 -0.41532,-1.32 -0.94778,-2.805 -1.18324,-3.3 -0.39604,-0.83258 -0.99948,-2.60571 -1.63356,-4.8 -0.14304,-0.495 -0.61659,-1.845 -1.05233,-3 -0.43575,-1.155 -0.90723,-2.505 -1.04773,-3 -0.14051,-0.495 -0.88046,-2.655 -1.64433,-4.8 -0.76388,-2.145 -1.50249,-4.305 -1.64136,-4.8 -0.23145,-0.82498 -0.93285,-2.83496 -1.77969,-5.1 -0.50906,-1.36157 -2.12935,-6.17936 -2.42147,-7.2 -0.31229,-1.09116 -0.81715,-2.54529 -1.51027,-4.35 -0.68997,-1.79649 -1.1965,-3.25443 -1.51132,-4.35 -0.14224,-0.495 -0.8784,-2.655 -1.6359,-4.8 -0.75751,-2.145 -1.49628,-4.35526 -1.64172,-4.91168 -0.33201,-1.27032 -0.91105,-1.9281 -0.91105,-1.03496 0,0.34285 -0.22154,1.1461 -0.4923,1.785 -0.27077,0.6389 -0.59641,1.56664 -0.72366,2.06164 -0.12724,0.495 -0.3986,1.3725 -0.60301,1.95 -0.20441,0.5775 -0.60088,1.725 -0.88103,2.55 -0.28016,0.825 -0.67662,1.9725 -0.88103,2.55 -0.20442,0.5775 -0.48267,1.455 -0.61836,1.95 -0.21808,0.7956 -1.09878,3.4157 -2.5714,7.65 -0.25823,0.7425 -0.74063,2.2275 -1.07199,3.3 -0.33137,1.0725 -0.85045,2.625 -1.15351,3.45 -0.30307,0.825 -0.77571,2.2425 -1.05032,3.15 -0.27461,0.9075 -0.74287,2.325 -1.04058,3.15 -0.29771,0.825 -0.77701,2.31 -1.06509,3.3 -0.28809,0.99 -0.75834,2.4075 -1.045,3.15 -0.68946,1.78581 -1.19794,3.24855 -1.51216,4.35 -0.47988,1.68212 -1.23375,3.89691 -1.66283,4.88518 -0.23525,0.54185 -0.43231,1.21685 -0.43791,1.5 -0.006,0.28315 -0.27102,1.05482 -0.58982,1.71482 -0.3188,0.66 -0.58505,1.47 -0.59167,1.8 -0.007,0.33 -0.2137,0.98668 -0.46018,1.45929 -0.24648,0.47261 -0.44815,1.02836 -0.44815,1.235 0,0.20663 -0.25052,1.03495 -0.5567,1.84071 -1.02947,2.70911 -1.30708,3.55998 -1.50574,4.615 l -0.19772,1.05 -29.99492,0.0521 c -16.497212,0.0287 -30.163672,-0.0163 -30.369922,-0.1 z"
     id="path3357"
     inkscape:connector-curvature="0" />
</svg>
