<?xml version="1.0" encoding="UTF-8" standalone="no"?>
<svg
   xmlns:dc="http://purl.org/dc/elements/1.1/"
   xmlns:cc="http://creativecommons.org/ns#"
   xmlns:rdf="http://www.w3.org/1999/02/22-rdf-syntax-ns#"
   xmlns:svg="http://www.w3.org/2000/svg"
   xmlns="http://www.w3.org/2000/svg"
   viewBox="0 0 500 500"
   height="500"
   width="500"
   version="1.1"
   id="svg2">
  <metadata
     id="metadata8">
    <rdf:RDF>
      <cc:Work
         rdf:about="">
        <dc:format>image/svg+xml</dc:format>
        <dc:type
           rdf:resource="http://purl.org/dc/dcmitype/StillImage" />
        <dc:title></dc:title>
      </cc:Work>
    </rdf:RDF>
  </metadata>
  <defs
     id="defs6" />
  <path
     id="path3338"
     d="M 234.48305,363.37134 C 217.8284,361.69075 198.47328,355.93173 184.30171,348.44013 132.69991,321.16156 106.97723,265.5042 121.26003,212.0339 137.80547,150.09299 202.472,110.5363 269.86147,121.134 c 42.63329,6.70454 79.51629,33.3542 97.35719,70.34502 13.6843,28.37267 15.14699,60.46958 4.12909,90.60768 -2.7625,7.55645 -8.84349,19.14377 -13.66595,26.04042 -20.46067,29.261 -51.94174,48.40727 -89.34513,54.33822 -7.58155,1.20219 -26.02658,1.69581 -33.85362,0.906 z m 30.35174,-6.06472 c 47.51419,-6.24289 86.7209,-36.83851 101.77626,-79.42283 4.22002,-11.93638 6.00818,-22.79862 5.98538,-36.35837 -0.0318,-18.88021 -3.80722,-34.23114 -12.51189,-50.87288 -14.14117,-27.0353 -38.73033,-47.92396 -68.82691,-58.46895 -20.41938,-7.15438 -44.99191,-9.04062 -66.86166,-5.13246 -49.51869,8.84907 -89.42433,46.18016 -98.88368,92.50409 -3.44209,16.85644 -2.7343,35.2286 2.01201,52.22598 8.96459,32.10382 33.45014,59.82926 65.9757,74.70552 14.89405,6.81212 29.41172,10.45176 46.76271,11.72363 4.72352,0.34624 19.07625,-0.18163 24.57208,-0.90373 z m -24.04665,-10.87983 c -9.10429,-0.82788 -21.64797,-2.94901 -23.57876,-3.98715 -0.59398,-0.31937 2.50387,-9.21558 15.79944,-45.37184 9.09606,-24.73602 16.69549,-45.12283 16.88762,-45.30403 0.19213,-0.1812 8.16674,19.72558 17.72136,44.23728 l 17.37204,44.56675 -2.66017,0.8775 c -4.46123,1.47161 -12.33598,3.19688 -18.39749,4.03069 -5.65332,0.77766 -19.01264,1.32649 -23.14404,0.9508 z m -47.92629,-13.43158 c -9.99159,-5.36918 -17.29869,-10.72292 -25.64879,-18.79225 -15.96514,-15.42831 -25.87711,-33.99496 -30.02027,-56.23254 -0.68221,-3.66164 -0.9165,-7.74115 -0.93035,-16.19923 -0.0206,-12.58943 0.88563,-19.16042 3.99129,-28.94001 1.61051,-5.07141 4.51259,-12.56498 5.10467,-13.18093 0.18042,-0.1877 11.90328,29.34069 26.0508,65.61864 14.14751,36.27796 26.14592,67.01056 26.66311,68.29467 0.5172,1.28411 0.76399,2.33046 0.54843,2.32522 -0.21556,-0.005 -2.80706,-1.30734 -5.75889,-2.89357 z m 112.01163,-1.88928 c 0.19733,-0.47309 7.8885,-21.20932 17.09148,-46.08051 9.20298,-24.87118 17.59697,-47.4322 18.65332,-50.13559 4.72744,-12.09845 6.8237,-23.60386 6.4395,-35.34359 -0.20101,-6.14213 -0.1279,-7.18352 0.45218,-6.44139 1.28538,1.64445 6.0289,12.69638 7.81426,18.20645 14.28278,44.08021 -4.0311,91.93684 -44.96741,117.50586 -2.77281,1.73192 -5.22163,3.14894 -5.4418,3.14894 -0.22018,0 -0.23887,-0.38707 -0.0415,-0.86017 z M 219.83222,304.9322 c -0.61685,-1.40565 -40.25595,-111.76529 -40.25595,-112.07702 0,-0.17228 3.07051,-0.56871 6.82335,-0.88094 3.75283,-0.31224 7.28262,-0.83602 7.84396,-1.16397 2.36437,-1.38131 2.8034,-4.74867 0.85657,-6.5699 -1.52635,-1.42788 -2.29475,-1.4603 -16.31201,-0.68829 -5.2017,0.28648 -12.83075,0.45298 -16.95345,0.36999 l -7.49583,-0.15088 4.33982,-5.40678 c 13.21614,-16.46538 32.41821,-29.42592 53.24011,-35.93472 13.92814,-4.35385 25.33137,-5.91309 39.86894,-5.45157 12.45251,0.39533 22.48546,2.11544 33.73632,5.78397 10.93507,3.56555 25.39234,11.29288 34.58419,18.48503 l 3.65909,2.86305 -3.44342,0.3204 c -8.98034,0.83558 -16.08531,8.1758 -16.6434,17.19446 -0.40869,6.60442 1.38738,11.22514 8.90154,22.9008 4.90811,7.62634 7.77034,13.47239 9.51185,19.42777 1.0024,3.42786 1.18487,5.27096 1.18,11.91928 -0.007,9.27881 -0.36259,10.83907 -7.34179,32.19492 -2.42957,7.43432 -5.98929,18.49364 -7.91047,24.57627 -1.9212,6.08263 -3.66571,11.2305 -3.8767,11.43972 -0.211,0.20921 -9.3318,-24.56367 -20.26846,-55.05085 -10.93665,-30.48718 -19.97713,-55.68043 -20.08996,-55.985 -0.13757,-0.37139 1.49232,-0.67 4.94909,-0.90674 7.37875,-0.50532 9.70509,-0.9878 10.78647,-2.23709 1.3246,-1.53028 1.19157,-4.07932 -0.29741,-5.69869 l -1.23297,-1.34092 -13.93404,0.65385 c -13.2449,0.62151 -26.96388,0.52502 -43.8185,-0.30819 -6.01396,-0.2973 -6.42342,-0.25758 -7.47392,0.72515 -2.16812,2.02824 -1.94115,5.45889 0.45372,6.85802 0.56963,0.33279 3.95303,0.86227 7.51869,1.17663 l 6.483,0.57157 8.7015,22.3074 8.70149,22.30741 -12.23394,34.25657 c -6.72866,18.84112 -12.37953,33.9248 -12.55748,33.51929 z"
     style="fill:#000000" />
</svg>
