<?xml version="1.0" encoding="UTF-8" standalone="no"?>
<!-- Created with Inkscape (http://www.inkscape.org/) -->

<svg
   xmlns:dc="http://purl.org/dc/elements/1.1/"
   xmlns:cc="http://creativecommons.org/ns#"
   xmlns:rdf="http://www.w3.org/1999/02/22-rdf-syntax-ns#"
   xmlns:svg="http://www.w3.org/2000/svg"
   xmlns="http://www.w3.org/2000/svg"
   xmlns:sodipodi="http://sodipodi.sourceforge.net/DTD/sodipodi-0.dtd"
   xmlns:inkscape="http://www.inkscape.org/namespaces/inkscape"
   id="svg2"
   version="1.1"
   inkscape:version="0.91 r13725"
   width="100"
   height="100"
   viewBox="0 0 100 99.999998"
   sodipodi:docname="battery-multi-cell.svg">
  <metadata
     id="metadata8">
    <rdf:RDF>
      <cc:Work
         rdf:about="">
        <dc:format>image/svg+xml</dc:format>
        <dc:type
           rdf:resource="http://purl.org/dc/dcmitype/StillImage" />
        <dc:title></dc:title>
      </cc:Work>
    </rdf:RDF>
  </metadata>
  <defs
     id="defs6" />
  <sodipodi:namedview
     pagecolor="#ffffff"
     bordercolor="#666666"
     borderopacity="1"
     objecttolerance="10"
     gridtolerance="10"
     guidetolerance="10"
     inkscape:pageopacity="0"
     inkscape:pageshadow="2"
     inkscape:window-width="640"
     inkscape:window-height="480"
     id="namedview4"
     showgrid="false"
     inkscape:zoom="2.8096392"
     inkscape:cx="17.326356"
     inkscape:cy="47.091416"
     inkscape:window-x="0"
     inkscape:window-y="24"
     inkscape:window-maximized="0"
     inkscape:current-layer="svg2" />
  <path
     style="fill:#000000"
     d="m 38.358314,61.605055 0,-10.168065 -10.979856,-0.417907 C 21.02419,50.77723 16.398602,49.986051 16.398602,49.14104 c 0,-0.84501 4.625588,-1.636189 10.979856,-1.878042 l 10.979856,-0.417908 0,-10.168065 c 0,-5.805287 0.483189,-10.168065 1.126139,-10.168065 0.702324,0 1.12614,8.51745 1.12614,22.63208 0,14.114631 -0.423816,22.63208 -1.12614,22.63208 -0.64295,0 -1.126139,-4.362777 -1.126139,-10.168065 z M 54.124262,49.14104 c 0,-14.11463 0.423815,-22.63208 1.126139,-22.63208 0.702323,0 1.126139,8.51745 1.126139,22.63208 0,14.114631 -0.423816,22.63208 -1.126139,22.63208 -0.702324,0 -1.126139,-8.517449 -1.126139,-22.63208 z m -7.882974,0 c 0,-7.300671 0.463705,-12.41114 1.126139,-12.41114 0.662435,0 1.126139,5.110469 1.126139,12.41114 0,7.300671 -0.463704,12.411141 -1.126139,12.411141 -0.662434,0 -1.126139,-5.11047 -1.126139,-12.411141 z M 62.85184,60.717101 c -1.266427,-1.667016 -1.017675,-22.216035 0.281535,-23.257134 0.669356,-0.536378 1.126139,1.183991 1.126139,4.241355 l 0,5.143768 10.979856,0.417908 c 14.395418,0.547908 14.441851,3.205942 0.0656,3.755058 l -10.91426,0.416883 -0.347132,5.196964 c -0.190923,2.858329 -0.727204,4.696669 -1.191736,4.085198 z M 25.970784,42.67199 c 0,-1.758204 -0.953318,-3.061862 -2.533813,-3.464973 l -2.533813,-0.646256 2.533813,-1.085728 c 1.393597,-0.597151 2.533813,-1.994685 2.533813,-3.105632 0,-1.110947 0.506763,-2.019904 1.126139,-2.019904 0.619377,0 1.126139,0.908957 1.126139,2.019904 0,1.110947 1.140216,2.508481 2.533813,3.105632 l 2.533813,1.085728 -2.533813,0.646256 c -1.580494,0.403111 -2.533813,1.706769 -2.533813,3.464973 0,1.550293 -0.506762,2.818715 -1.126139,2.818715 -0.619376,0 -1.126139,-1.268422 -1.126139,-2.818715 z m 43.919425,-4.481956 c 0,-0.803074 2.280432,-1.460134 5.067626,-1.460134 2.787194,0 5.067626,0.65706 5.067626,1.460134 0,0.803074 -2.280432,1.460134 -5.067626,1.460134 -2.787194,0 -5.067626,-0.65706 -5.067626,-1.460134 z"
     id="path3357"
     inkscape:connector-curvature="0" />
</svg>
