<?xml version="1.0" encoding="UTF-8" standalone="no"?>
<!-- Created with Inkscape (http://www.inkscape.org/) -->

<svg
   xmlns:dc="http://purl.org/dc/elements/1.1/"
   xmlns:cc="http://creativecommons.org/ns#"
   xmlns:rdf="http://www.w3.org/1999/02/22-rdf-syntax-ns#"
   xmlns:svg="http://www.w3.org/2000/svg"
   xmlns="http://www.w3.org/2000/svg"
   xmlns:sodipodi="http://sodipodi.sourceforge.net/DTD/sodipodi-0.dtd"
   xmlns:inkscape="http://www.inkscape.org/namespaces/inkscape"
   id="svg2"
   version="1.1"
   inkscape:version="0.91 r13725"
   width="100"
   height="100"
   viewBox="0 0 100 99.999998"
   sodipodi:docname="battery-single-cell.svg">
  <metadata
     id="metadata8">
    <rdf:RDF>
      <cc:Work
         rdf:about="">
        <dc:format>image/svg+xml</dc:format>
        <dc:type
           rdf:resource="http://purl.org/dc/dcmitype/StillImage" />
        <dc:title></dc:title>
      </cc:Work>
    </rdf:RDF>
  </metadata>
  <defs
     id="defs6" />
  <sodipodi:namedview
     pagecolor="#ffffff"
     bordercolor="#666666"
     borderopacity="1"
     objecttolerance="10"
     gridtolerance="10"
     guidetolerance="10"
     inkscape:pageopacity="0"
     inkscape:pageshadow="2"
     inkscape:window-width="640"
     inkscape:window-height="480"
     id="namedview4"
     showgrid="false"
     inkscape:zoom="1.6959065"
     inkscape:cx="-17.103729"
     inkscape:cy="79.545416"
     inkscape:window-x="170"
     inkscape:window-y="144"
     inkscape:window-maximized="0"
     inkscape:current-layer="svg2" />
  <path
     style="fill:#000000"
     d="m 49.28037,66.167329 0,-10.77456 -12.592341,-0.44346 c -7.15827,-0.252091 -12.59234,-1.105792 -12.59234,-1.978279 0,-0.872486 5.43407,-1.726188 12.59234,-1.978279 l 12.592341,-0.44346 0,-10.683979 c 0,-6.09944 0.617534,-10.683979 1.439124,-10.683979 0.895204,0 1.439125,8.667115 1.439125,22.931707 0,13.632212 -0.583608,23.316381 -1.439125,23.880278 -0.907214,0.597971 -1.439124,-3.033782 -1.439124,-9.825989 z m 4.956072,-2.123857 c -1.3038,-3.623575 -0.01968,-23.350995 1.519989,-23.350995 0.791518,0 1.642057,2.244673 1.890085,4.988162 l 0.450963,4.988162 12.141378,0 c 9.832921,0 12.141379,0.437726 12.141379,2.302229 0,1.865858 -2.31859,2.302229 -12.232559,2.302229 l -12.23256,0 0,4.513877 c 0,4.923658 -2.427832,7.732732 -3.678675,4.256336 z M 33.449999,46.064344 c 0,-1.705355 -0.959417,-3.069638 -2.158687,-3.069638 -1.187278,0 -2.158687,-0.690669 -2.158687,-1.53482 0,-0.84415 0.971409,-1.534819 2.158687,-1.534819 1.187278,0 2.158687,-1.036003 2.158687,-2.302229 0,-1.266225 0.647606,-2.302228 1.439125,-2.302228 0.791518,0 1.439124,1.036003 1.439124,2.302228 0,1.279016 1.279222,2.302229 2.878249,2.302229 1.583038,0 2.87825,0.690669 2.87825,1.534819 0,0.844151 -1.032038,1.53482 -2.293418,1.53482 -1.261378,0 -2.632123,1.381337 -3.046096,3.069638 -0.413973,1.688301 -1.324754,3.069638 -2.023956,3.069638 -0.699203,0 -1.271278,-1.381337 -1.271278,-3.069638 z m 30.941179,-4.604458 c 0.489186,-0.84415 3.403413,-1.534819 6.476061,-1.534819 3.072648,0 5.986875,0.690669 6.476061,1.534819 0.548699,0.946849 -1.932199,1.53482 -6.476061,1.53482 -4.543862,0 -7.02476,-0.587971 -6.476061,-1.53482 z"
     id="path3376"
     inkscape:connector-curvature="0" />
</svg>
