<?xml version="1.0" encoding="UTF-8" standalone="no"?>
<!-- Created with Inkscape (http://www.inkscape.org/) -->

<svg
   xmlns:dc="http://purl.org/dc/elements/1.1/"
   xmlns:cc="http://creativecommons.org/ns#"
   xmlns:rdf="http://www.w3.org/1999/02/22-rdf-syntax-ns#"
   xmlns:svg="http://www.w3.org/2000/svg"
   xmlns="http://www.w3.org/2000/svg"
   xmlns:sodipodi="http://sodipodi.sourceforge.net/DTD/sodipodi-0.dtd"
   xmlns:inkscape="http://www.inkscape.org/namespaces/inkscape"
   id="svg2"
   version="1.1"
   inkscape:version="0.91 r13725"
   width="100"
   height="100"
   viewBox="0 0 99.999999 100"
   sodipodi:docname="capacitor-split-stator.svg">
  <metadata
     id="metadata8">
    <rdf:RDF>
      <cc:Work
         rdf:about="">
        <dc:format>image/svg+xml</dc:format>
        <dc:type
           rdf:resource="http://purl.org/dc/dcmitype/StillImage" />
        <dc:title></dc:title>
      </cc:Work>
    </rdf:RDF>
  </metadata>
  <defs
     id="defs6" />
  <sodipodi:namedview
     pagecolor="#ffffff"
     bordercolor="#666666"
     borderopacity="1"
     objecttolerance="10"
     gridtolerance="10"
     guidetolerance="10"
     inkscape:pageopacity="0"
     inkscape:pageshadow="2"
     inkscape:window-width="953"
     inkscape:window-height="783"
     id="namedview4"
     showgrid="false"
     inkscape:zoom="3.025641"
     inkscape:cx="9.1031782"
     inkscape:cy="23.427876"
     inkscape:window-x="177"
     inkscape:window-y="87"
     inkscape:window-maximized="0"
     inkscape:current-layer="svg2" />
  <path
     style="fill:#000000"
     d="m 47.750493,66.260592 c 0,-8.360699 -0.319235,-15.193272 -0.709411,-15.183497 -0.390176,0.0098 -3.68027,3.293249 -7.31132,7.29661 -5.705422,6.290427 -9.005127,8.750236 -9.005127,6.712994 0,-0.311214 1.941168,-2.852811 4.313706,-5.647996 4.231353,-4.985129 4.29438,-5.161243 3.301401,-9.225073 -0.556769,-2.278607 -0.755452,-5.014023 -0.44152,-6.0787 1.706287,-5.786745 2.643496,-7.668828 3.818799,-7.668828 1.614467,0 1.615399,-0.03336 -0.127448,4.563379 -1.41284,3.726347 -1.402011,3.775604 0.830063,3.775604 1.243868,0 2.791461,-0.703602 3.439095,-1.56356 0.647634,-0.859957 2.042768,-1.563559 3.100297,-1.563559 2.227475,0 12.055212,-10.185465 11.469397,-11.886882 -0.404994,-1.176248 7.005674,-6.875829 8.940043,-6.875829 1.657823,0 1.329641,1.248299 -1.722578,6.552121 -1.696712,2.948365 -3.30365,4.664973 -4.065394,4.342845 -0.692806,-0.292974 -2.23339,0.609557 -3.423521,2.005626 -1.763163,2.068259 -1.973706,2.929886 -1.136951,4.652873 2.327905,4.79346 0.06108,15.802466 -3.253833,15.802466 -1.741601,0 -1.726562,-0.992134 0.05437,-3.586941 1.893853,-2.759325 1.744391,-4.752042 -0.356422,-4.752042 -3.986695,0 -4.805228,2.930592 -5.084527,18.204132 -0.190679,10.427319 -0.594143,14.58046 -1.44677,14.892632 -0.909788,0.333102 -1.182351,-3.071396 -1.182351,-14.768375 z M 43.494029,50.016949 c 1.669683,-2.033191 1.652107,-2.084746 -0.710729,-2.084746 -1.957063,0 -2.32766,0.400716 -1.928042,2.084746 0.272089,1.14661 0.591916,2.084745 0.710729,2.084745 0.118811,0 0.98643,-0.938135 1.928042,-2.084745 z m 13.715274,-6.601694 c 0,-2.163391 -1.119516,-2.876123 -2.514143,-1.600612 -1.833474,1.676876 -1.56009,2.990442 0.622381,2.990442 1.040469,0 1.891762,-0.625424 1.891762,-1.38983 z M 31.370987,56.636016 c -0.355493,-0.391758 -0.646352,-2.49065 -0.646352,-4.664203 l 0,-3.951916 -7.330577,-0.304441 c -4.072292,-0.169123 -7.330578,-0.767752 -7.330578,-1.346812 0,-0.578315 3.24016,-1.177444 7.27809,-1.345771 l 7.278089,-0.3034 0.288959,-4.387278 c 0.538965,-8.183147 2.175671,-4.568063 2.454692,5.421816 0.253555,9.078086 -0.398321,12.638615 -1.992323,10.882005 z M 64.776351,46.368644 c 0,-6.601694 0.375349,-10.944915 0.945881,-10.944915 0.520234,0 0.945881,2.110805 0.945881,4.690678 l 0,4.690678 7.567047,0 c 6.095677,0 7.567048,0.304025 7.567048,1.563559 0,1.259533 -1.471371,1.563559 -7.567048,1.563559 l -7.567047,0 0,4.690678 c 0,2.579873 -0.425647,4.690678 -0.945881,4.690678 -0.570532,0 -0.945881,-4.343221 -0.945881,-10.944915 z"
     id="path3357"
     inkscape:connector-curvature="0" />
</svg>
