<?xml version="1.0" encoding="UTF-8" standalone="no"?>
<!-- Created with Inkscape (http://www.inkscape.org/) -->

<svg
   xmlns:dc="http://purl.org/dc/elements/1.1/"
   xmlns:cc="http://creativecommons.org/ns#"
   xmlns:rdf="http://www.w3.org/1999/02/22-rdf-syntax-ns#"
   xmlns:svg="http://www.w3.org/2000/svg"
   xmlns="http://www.w3.org/2000/svg"
   xmlns:sodipodi="http://sodipodi.sourceforge.net/DTD/sodipodi-0.dtd"
   xmlns:inkscape="http://www.inkscape.org/namespaces/inkscape"
   id="svg2"
   version="1.1"
   inkscape:version="0.91 r13725"
   width="100"
   height="100"
   viewBox="0 0 99.999999 100"
   sodipodi:docname="capacitor-electrolytic.svg">
  <metadata
     id="metadata8">
    <rdf:RDF>
      <cc:Work
         rdf:about="">
        <dc:format>image/svg+xml</dc:format>
        <dc:type
           rdf:resource="http://purl.org/dc/dcmitype/StillImage" />
        <dc:title></dc:title>
      </cc:Work>
    </rdf:RDF>
  </metadata>
  <defs
     id="defs6" />
  <sodipodi:namedview
     pagecolor="#ffffff"
     bordercolor="#666666"
     borderopacity="1"
     objecttolerance="10"
     gridtolerance="10"
     guidetolerance="10"
     inkscape:pageopacity="0"
     inkscape:pageshadow="2"
     inkscape:window-width="876"
     inkscape:window-height="738"
     id="namedview4"
     showgrid="false"
     inkscape:zoom="2.7304946"
     inkscape:cx="14.227755"
     inkscape:cy="59.226446"
     inkscape:window-x="240"
     inkscape:window-y="125"
     inkscape:window-maximized="0"
     inkscape:current-layer="svg2" />
  <path
     style="fill:#000000"
     d="m 40.384786,69.663189 c 0.02436,-0.705031 0.848137,-3.204686 1.830613,-5.554789 3.312955,-7.924655 2.6694,-8.545829 -8.853716,-8.545829 -8.025474,0 -10.598295,-0.538295 -10.211369,-2.136457 0.343739,-1.419777 3.942682,-2.302982 10.728622,-2.632871 10.778692,-0.523995 11.959145,-1.672571 8.376215,-8.150035 -2.323769,-4.201068 -2.375818,-5.881461 -0.182171,-5.881461 0.952867,0 2.703835,2.799032 3.891042,6.220069 2.479585,7.145141 1.987648,17.176102 -1.165013,23.755451 -1.908311,3.982491 -4.510323,5.707209 -4.414223,2.925922 z M 51.589922,53.853405 c 0,-13.136086 0.38128,-17.205248 1.56242,-16.67468 0.859332,0.386012 1.735668,3.49622 1.947414,6.911574 l 0.384993,6.209733 10.13886,0.494812 c 6.728709,0.328386 10.312834,1.213399 10.656111,2.63127 0.386746,1.597413 -2.171522,2.136457 -10.1395,2.136457 l -10.656751,0 -0.384353,7.131117 c -0.211394,3.922115 -1.087442,7.44727 -1.946774,7.833678 -1.181173,0.531127 -1.56242,-3.537492 -1.56242,-16.673961 z m 13.7493,-10.967148 c 0,-3.570258 -0.598088,-4.415345 -3.124841,-4.415345 -1.944346,0 -3.124841,-0.968527 -3.124841,-2.563748 0,-1.595222 1.180495,-2.563749 3.124841,-2.563749 2.526753,0 3.124841,-0.845088 3.124841,-4.415345 0,-5.29579 2.931786,-4.796482 3.514187,0.598496 0.236567,2.191406 1.462749,3.815556 3.124841,4.139039 1.504523,0.292816 2.735495,1.301517 2.735495,2.241559 0,0.940041 -1.230972,1.948743 -2.735495,2.241559 -1.662092,0.323482 -2.888274,1.947632 -3.124841,4.139039 -0.582401,5.394977 -3.514187,5.894286 -3.514187,0.598495 z"
     id="path3357"
     inkscape:connector-curvature="0" />
</svg>
