<?xml version="1.0" encoding="UTF-8" standalone="no"?>
<!-- Created with Inkscape (http://www.inkscape.org/) -->

<svg
   xmlns:dc="http://purl.org/dc/elements/1.1/"
   xmlns:cc="http://creativecommons.org/ns#"
   xmlns:rdf="http://www.w3.org/1999/02/22-rdf-syntax-ns#"
   xmlns:svg="http://www.w3.org/2000/svg"
   xmlns="http://www.w3.org/2000/svg"
   xmlns:sodipodi="http://sodipodi.sourceforge.net/DTD/sodipodi-0.dtd"
   xmlns:inkscape="http://www.inkscape.org/namespaces/inkscape"
   id="svg2"
   version="1.1"
   inkscape:version="0.91 r13725"
   width="100"
   height="100"
   viewBox="0 0 100 99.999999"
   sodipodi:docname="capacitor-feed-through.svg">
  <metadata
     id="metadata8">
    <rdf:RDF>
      <cc:Work
         rdf:about="">
        <dc:format>image/svg+xml</dc:format>
        <dc:type
           rdf:resource="http://purl.org/dc/dcmitype/StillImage" />
        <dc:title></dc:title>
      </cc:Work>
    </rdf:RDF>
  </metadata>
  <defs
     id="defs6" />
  <sodipodi:namedview
     pagecolor="#ffffff"
     bordercolor="#666666"
     borderopacity="1"
     objecttolerance="10"
     gridtolerance="10"
     guidetolerance="10"
     inkscape:pageopacity="0"
     inkscape:pageshadow="2"
     inkscape:window-width="640"
     inkscape:window-height="480"
     id="namedview4"
     showgrid="false"
     inkscape:zoom="1.9986093"
     inkscape:cx="20.756857"
     inkscape:cy="75.563053"
     inkscape:window-x="314"
     inkscape:window-y="189"
     inkscape:window-maximized="0"
     inkscape:current-layer="svg2" />
  <path
     style="fill:#000000"
     d="m 50.186006,65.848283 0,-12.432179 -3.646123,0.815738 c -2.005368,0.448656 -4.539891,1.293441 -5.632274,1.877299 -2.588906,1.383725 -4.448184,1.350122 -4.448184,-0.08039 0,-2.159126 8.627216,-5.285931 14.584493,-5.285931 5.957276,0 14.584492,3.126805 14.584492,5.285931 0,1.430514 -1.859278,1.464117 -4.448184,0.08039 -1.092383,-0.583857 -3.626906,-1.428642 -5.632274,-1.877298 l -3.646123,-0.815738 0,12.432179 c 0,7.460287 -0.343097,12.43218 -0.857911,12.43218 -0.514815,0 -0.857912,-4.971893 -0.857912,-12.43218 z M 31.465231,45.374074 c -1.568305,-2.885815 -2.211929,-3.104376 -9.141828,-3.104376 -5.581203,0 -7.365522,-0.3901 -7.099724,-1.552189 0.236883,-1.035669 2.738607,-1.673403 7.517914,-1.91645 6.279616,-0.319345 7.422784,-0.740434 9.270482,-3.414814 2.6787,-3.877179 4.822737,-3.86185 7.528031,0.05382 2.025624,2.931911 2.664725,3.104376 11.503812,3.104376 8.839086,0 9.478187,-0.172465 11.503811,-3.104376 2.710867,-3.92374 5.155525,-3.939362 7.84256,-0.05012 1.842098,2.666274 2.999923,3.100061 9.114499,3.414814 4.654174,0.239578 7.123466,0.881361 7.359368,1.912743 0.265798,1.162089 -1.518521,1.552189 -7.099723,1.552189 -6.929899,0 -7.573524,0.218561 -9.141829,3.104376 -1.065452,1.960523 -2.533442,3.089825 -3.984072,3.064885 -2.523295,-0.04338 -5.299678,-2.53388 -5.299678,-4.753968 0,-0.97635 -3.029265,-1.415293 -9.767312,-1.415293 -9.471776,0 -9.809834,0.09393 -11.172625,3.104376 -1.043485,2.30509 -2.157295,3.104376 -4.325958,3.104376 -2.093525,0 -3.398423,-0.879152 -4.607728,-3.104376 z m 6.670826,-1.173402 c 0.565849,-0.986853 0.902665,-3.082307 0.748481,-4.656565 -0.221573,-2.262316 -0.819821,-2.862287 -2.854069,-2.862287 -2.034247,0 -2.632496,0.599971 -2.854068,2.862287 -0.307159,3.136173 1.159362,6.450842 2.854068,6.450842 0.592226,0 1.53974,-0.807425 2.105588,-1.794277 z m 30.476615,-0.21907 c 1.672148,-2.420285 1.421206,-5.295189 -0.625005,-7.160336 -2.972575,-2.709538 -6.319879,3.396072 -4.040875,7.37071 1.350413,2.355152 2.942998,2.283347 4.66588,-0.210374 z"
     id="path3357"
     inkscape:connector-curvature="0" />
</svg>
