<?xml version="1.0" encoding="UTF-8" standalone="no"?>
<!-- Created with Inkscape (http://www.inkscape.org/) -->

<svg
   xmlns:dc="http://purl.org/dc/elements/1.1/"
   xmlns:cc="http://creativecommons.org/ns#"
   xmlns:rdf="http://www.w3.org/1999/02/22-rdf-syntax-ns#"
   xmlns:svg="http://www.w3.org/2000/svg"
   xmlns="http://www.w3.org/2000/svg"
   xmlns:sodipodi="http://sodipodi.sourceforge.net/DTD/sodipodi-0.dtd"
   xmlns:inkscape="http://www.inkscape.org/namespaces/inkscape"
   id="svg2"
   version="1.1"
   inkscape:version="0.91 r13725"
   width="100"
   height="100"
   viewBox="0 0 100 100"
   sodipodi:docname="diode-bridge.svg">
  <metadata
     id="metadata8">
    <rdf:RDF>
      <cc:Work
         rdf:about="">
        <dc:format>image/svg+xml</dc:format>
        <dc:type
           rdf:resource="http://purl.org/dc/dcmitype/StillImage" />
        <dc:title></dc:title>
      </cc:Work>
    </rdf:RDF>
  </metadata>
  <defs
     id="defs6" />
  <sodipodi:namedview
     pagecolor="#ffffff"
     bordercolor="#666666"
     borderopacity="1"
     objecttolerance="10"
     gridtolerance="10"
     guidetolerance="10"
     inkscape:pageopacity="0"
     inkscape:pageshadow="2"
     inkscape:window-width="913"
     inkscape:window-height="715"
     id="namedview4"
     showgrid="false"
     inkscape:zoom="2.0068027"
     inkscape:cx="28.961209"
     inkscape:cy="49.479195"
     inkscape:window-x="150"
     inkscape:window-y="75"
     inkscape:window-maximized="0"
     inkscape:current-layer="svg2" />
  <path
     style="fill:#000000"
     d="m 49.912852,77.855467 c 0,-1.289494 -0.350551,-2.534029 -0.779003,-2.765635 -0.428451,-0.231606 -0.779002,-0.950048 -0.779002,-1.596538 0,-1.578082 -8.217988,-8.649797 -8.911428,-7.668431 -0.874121,1.237071 -2.20447,0.842156 -1.7935,-0.532401 0.30165,-1.00892 -0.257215,-1.448144 -2.635654,-2.071419 -3.205168,-0.83992 -3.588076,-1.328266 -2.077466,-2.649522 0.735347,-0.643173 0.01757,-1.640904 -3.28415,-4.565085 -2.323841,-2.058115 -4.850603,-3.742028 -5.615029,-3.742028 -0.764426,0 -1.389866,-0.30661 -1.389866,-0.681356 0,-0.374746 -1.402205,-0.681356 -3.116011,-0.681356 -1.713806,0 -3.116011,-0.30661 -3.116011,-0.681356 0,-0.374745 1.402205,-0.681356 3.116011,-0.681356 1.713806,0 3.116011,-0.30661 3.116011,-0.681356 0,-0.374745 0.62544,-0.681355 1.389866,-0.681355 0.764426,0 3.291188,-1.683913 5.615029,-3.742028 3.301723,-2.924181 4.019497,-3.921912 3.28415,-4.565085 -1.51061,-1.321257 -1.127702,-1.809602 2.077466,-2.649523 2.378439,-0.623274 2.937304,-1.062499 2.635654,-2.071419 -0.41097,-1.374557 0.919379,-1.769471 1.7935,-0.532401 0.69344,0.981367 8.911428,-6.090348 8.911428,-7.668431 0,-0.64649 0.350551,-1.364931 0.779002,-1.596537 0.428452,-0.231606 0.779003,-1.476141 0.779003,-2.765635 0,-1.289494 0.350552,-2.344535 0.779003,-2.344535 0.428452,0 0.779003,1.208346 0.779003,2.685213 0,1.476866 0.350551,2.874707 0.779003,3.106313 0.428451,0.231606 0.779003,0.950047 0.779003,1.596537 0,1.578083 8.217988,8.649798 8.911427,7.668431 1.024193,-1.449454 2.662583,-0.722059 3.525661,1.565286 0.683256,1.81078 1.204055,2.237555 2.397421,1.9646 1.711567,-0.39148 2.006984,0.478438 0.584877,1.722286 -0.733562,0.641611 -0.09923,1.568206 2.891976,4.224407 2.107407,1.871386 4.437603,3.402521 5.178214,3.402521 0.74061,0 1.563217,0.30661 1.828015,0.681355 0.264798,0.374746 1.862966,0.681356 3.551487,0.681356 1.68852,0 3.070037,0.306611 3.070037,0.681356 0,0.374746 -1.381517,0.681356 -3.070037,0.681356 -1.688521,0 -3.286689,0.30661 -3.551487,0.681356 -0.264798,0.374746 -1.087405,0.681356 -1.828015,0.681356 -0.740611,0 -3.070807,1.531134 -5.178214,3.402521 -2.991204,2.6562 -3.625538,3.582795 -2.891976,4.224406 1.425633,1.246933 1.125147,2.113414 -0.59636,1.71966 -1.198738,-0.274184 -1.74628,0.157218 -2.493501,1.9646 -0.955764,2.311809 -2.418383,2.982726 -3.418098,1.567913 -0.693439,-0.981367 -8.911427,6.090348 -8.911427,7.66843 0,0.64649 -0.350552,1.364932 -0.779003,1.596538 -0.428452,0.231606 -0.779003,1.629446 -0.779003,3.106313 0,1.476867 -0.350551,2.685212 -0.779003,2.685212 -0.428451,0 -0.779003,-1.05504 -0.779003,-2.344534 z m 5.99618,-10.733957 c 3.861832,-3.335799 4.023835,-3.610863 2.814845,-4.779326 -1.212681,-1.172031 -1.110442,-1.299042 1.869944,-2.323022 2.455538,-0.843655 3.067357,-1.368861 2.766565,-2.374911 -0.436791,-1.460924 0.574357,-1.700661 1.981591,-0.469821 0.733562,0.641611 1.79295,0.08679 4.829818,-2.529471 2.139579,-1.843247 3.890144,-3.834325 3.890144,-4.424619 0,-0.590293 -1.750565,-2.581371 -3.890144,-4.424618 -3.036868,-2.61626 -4.096256,-3.171082 -4.829818,-2.529471 -1.422107,1.243848 -2.416695,0.985461 -1.969111,-0.511563 0.312073,-1.04378 -0.175864,-1.499297 -2.246152,-2.096908 -2.61515,-0.754892 -3.44679,-2.187913 -1.789611,-3.083725 1.076332,-0.581826 -6.926049,-7.794393 -8.647921,-7.794393 -0.67342,0 -2.866028,1.457774 -4.872464,3.239496 -2.892111,2.568208 -3.550101,3.56715 -3.175315,4.820683 0.379601,1.269645 0.192389,1.537539 -0.950167,1.359657 -1.030745,-0.160475 -1.627813,0.38878 -2.166359,1.992876 -0.739929,2.203931 -2.284366,2.891952 -3.291679,1.466388 -0.664575,-0.940519 -8.911427,6.057151 -8.911427,7.561578 0,1.504428 8.246852,8.502097 8.911427,7.561579 1.007313,-1.425565 2.55175,-0.737544 3.291679,1.466387 0.538546,1.604097 1.135614,2.153351 2.166359,1.992876 1.142556,-0.177882 1.329768,0.09001 0.950167,1.359657 -0.374786,1.253534 0.283204,2.252476 3.175315,4.820683 2.006436,1.781723 4.176046,3.239496 4.821357,3.239496 0.64531,0 3.017242,-1.592778 5.270957,-3.539508 z"
     id="path3357"
     inkscape:connector-curvature="0" />
</svg>
