<?xml version="1.0" encoding="UTF-8" standalone="no"?>
<!-- Created with Inkscape (http://www.inkscape.org/) -->

<svg
   xmlns:dc="http://purl.org/dc/elements/1.1/"
   xmlns:cc="http://creativecommons.org/ns#"
   xmlns:rdf="http://www.w3.org/1999/02/22-rdf-syntax-ns#"
   xmlns:svg="http://www.w3.org/2000/svg"
   xmlns="http://www.w3.org/2000/svg"
   xmlns:sodipodi="http://sodipodi.sourceforge.net/DTD/sodipodi-0.dtd"
   xmlns:inkscape="http://www.inkscape.org/namespaces/inkscape"
   id="svg2"
   version="1.1"
   inkscape:version="0.91 r13725"
   width="100"
   height="100"
   viewBox="0 0 100 100"
   sodipodi:docname="diode-thyristor.svg">
  <metadata
     id="metadata8">
    <rdf:RDF>
      <cc:Work
         rdf:about="">
        <dc:format>image/svg+xml</dc:format>
        <dc:type
           rdf:resource="http://purl.org/dc/dcmitype/StillImage" />
        <dc:title></dc:title>
      </cc:Work>
    </rdf:RDF>
  </metadata>
  <defs
     id="defs6" />
  <sodipodi:namedview
     pagecolor="#ffffff"
     bordercolor="#666666"
     borderopacity="1"
     objecttolerance="10"
     gridtolerance="10"
     guidetolerance="10"
     inkscape:pageopacity="0"
     inkscape:pageshadow="2"
     inkscape:window-width="849"
     inkscape:window-height="696"
     id="namedview4"
     showgrid="false"
     inkscape:zoom="2.1728801"
     inkscape:cx="4.0776949"
     inkscape:cy="-8.9130179"
     inkscape:window-x="240"
     inkscape:window-y="127"
     inkscape:window-maximized="0"
     inkscape:current-layer="svg2" />
  <path
     style="fill:#000000"
     d="M 45.343042,66.99976 C 37.348511,64.952167 30.589897,58.019524 30.589897,51.866734 l 0,-2.46404 -6.322776,0 c -8.087636,0 -8.287564,-1.52174 -0.242693,-1.847244 6.041691,-0.244454 6.083416,-0.262268 6.607767,-2.82129 0.928658,-4.532184 4.153505,-9.126221 8.184037,-11.658775 5.28343,-3.319804 12.757188,-3.899105 17.555761,-1.360772 4.570297,2.41758 7.492707,5.065683 9.124953,8.268452 0.76276,1.496675 1.556627,2.721226 1.764152,2.721226 0.207524,0 2.094614,-0.828651 4.193535,-1.841446 l 3.816218,-1.841445 0,-7.368858 c 0,-4.526048 0.33701,-7.368857 0.873565,-7.368857 0.559496,0 0.786816,2.935051 0.632278,8.163678 l -0.241288,8.163678 -4.425943,2.043906 c -2.949667,1.362158 -4.425944,2.549108 -4.425944,3.558526 0,1.355004 0.844,1.51462 8.00885,1.51462 4.77721,0 8.008851,0.337858 8.008851,0.8373 0,0.498699 -3.198282,0.837301 -7.908769,0.837301 l -7.90877,0 -0.993933,3.920409 c -0.546664,2.156224 -2.073794,5.274565 -3.393623,6.929645 -4.020124,5.041282 -12.502996,8.194136 -18.153083,6.747012 z m 7.350392,-4.237108 c 4.018737,-1.108518 8.15888,-4.575855 9.624977,-8.060844 1.690048,-4.017331 1.469058,-5.299114 -0.913611,-5.299114 -1.894962,0 -2.084352,0.359101 -2.318352,4.395826 -0.305487,5.269964 -1.834812,5.851979 -2.200122,0.837301 -0.142577,-1.95719 -0.413646,-3.558527 -0.602376,-3.558527 -0.188729,0 -3.196932,1.720788 -6.684897,3.823973 -3.487964,2.103184 -6.726036,3.588087 -7.195716,3.299786 -0.469678,-0.288303 -0.853961,-2.385875 -0.853961,-4.661273 l 0,-4.137086 -3.793665,0 c -2.482783,0 -3.787269,0.361656 -3.775152,1.046625 0.04281,2.419847 3.341686,8.041199 5.696122,9.706297 4.929497,3.486227 7.768227,4.054776 13.016753,2.607036 z M 41.549376,43.591007 c 0,-2.275398 0.312835,-4.329114 0.69519,-4.563814 0.382354,-0.2347 3.776913,1.413174 7.543463,3.661942 l 6.848275,4.088671 0.254627,-3.920683 c 0.330307,-5.085977 1.865983,-5.073146 2.196083,0.01834 0.247047,3.810476 0.320556,3.90954 2.252328,3.035355 1.771764,-0.801777 1.891395,-1.151538 1.060896,-3.101733 C 60.000791,37.174664 52.212962,32.737884 46.907,33.982486 c -6.38955,1.498775 -11.102112,5.836728 -12.431204,11.443026 -0.533931,2.252198 -0.462522,2.302576 3.263853,2.302576 l 3.809727,0 0,-4.137086 z"
     id="path3357"
     inkscape:connector-curvature="0" />
</svg>
