<?xml version="1.0" encoding="UTF-8" standalone="no"?>
<!-- Created with Inkscape (http://www.inkscape.org/) -->

<svg
   xmlns:dc="http://purl.org/dc/elements/1.1/"
   xmlns:cc="http://creativecommons.org/ns#"
   xmlns:rdf="http://www.w3.org/1999/02/22-rdf-syntax-ns#"
   xmlns:svg="http://www.w3.org/2000/svg"
   xmlns="http://www.w3.org/2000/svg"
   xmlns:sodipodi="http://sodipodi.sourceforge.net/DTD/sodipodi-0.dtd"
   xmlns:inkscape="http://www.inkscape.org/namespaces/inkscape"
   id="svg2"
   version="1.1"
   inkscape:version="0.91 r13725"
   width="100"
   height="100"
   viewBox="0 0 100 100"
   sodipodi:docname="diode-tunnel.svg">
  <metadata
     id="metadata8">
    <rdf:RDF>
      <cc:Work
         rdf:about="">
        <dc:format>image/svg+xml</dc:format>
        <dc:type
           rdf:resource="http://purl.org/dc/dcmitype/StillImage" />
        <dc:title></dc:title>
      </cc:Work>
    </rdf:RDF>
  </metadata>
  <defs
     id="defs6" />
  <sodipodi:namedview
     pagecolor="#ffffff"
     bordercolor="#666666"
     borderopacity="1"
     objecttolerance="10"
     gridtolerance="10"
     guidetolerance="10"
     inkscape:pageopacity="0"
     inkscape:pageshadow="2"
     inkscape:window-width="979"
     inkscape:window-height="870"
     id="namedview4"
     showgrid="false"
     inkscape:zoom="2.6197987"
     inkscape:cx="1.8601413"
     inkscape:cy="36.371201"
     inkscape:window-x="203"
     inkscape:window-y="96"
     inkscape:window-maximized="0"
     inkscape:current-layer="svg2" />
  <path
     style="fill:#000000"
     d="m 30.977334,59.958049 0,-6.285976 -7.038369,-0.419283 c -3.871103,-0.230605 -7.038369,-1.053028 -7.038369,-1.827606 0,-0.774579 3.167266,-1.597002 7.038369,-1.827607 l 7.038369,-0.419283 0,-5.566096 c 0,-3.061352 0.519414,-5.566095 1.154252,-5.566095 0.634838,0 4.676289,2.218111 8.980999,4.929135 4.304711,2.711024 8.09278,4.929135 8.41793,4.929135 0.325151,0 0.591183,-2.112487 0.591183,-4.694414 0,-5.915174 0.208664,-6.140545 5.033204,-5.436172 4.52358,0.660433 5.436007,3.088964 1.160561,3.088964 -2.252278,0 -2.815348,0.704162 -2.815348,3.520811 0,1.936446 0.26463,3.520811 0.588066,3.520811 0.323438,0 4.570954,-2.504351 9.438925,-5.565226 4.867972,-3.060874 9.164205,-5.17336 9.547185,-4.694414 0.38298,0.478946 0.696327,3.268544 0.696327,6.199107 l 0,5.328295 6.4753,0.422362 c 3.561414,0.232299 6.475299,1.056108 6.475299,1.830687 0,0.774578 -2.913885,1.598387 -6.475299,1.830686 l -6.4753,0.422362 0,5.328295 c 0,2.930562 -0.313347,5.720161 -0.696327,6.199107 -0.38298,0.478946 -4.679213,-1.633541 -9.547185,-4.694414 -4.867971,-3.060874 -9.115487,-5.565226 -9.438925,-5.565226 -0.323436,0 -0.588066,1.540287 -0.588066,3.422861 0,2.477407 0.699883,3.547167 2.533813,3.872891 3.828708,0.680018 2.491139,3.26668 -1.689209,3.26668 -3.416382,0 -3.683212,-0.351464 -4.009466,-5.281216 -0.192233,-2.904668 -0.583554,-5.281216 -0.869602,-5.281216 -0.286047,0 -4.562939,2.542057 -9.504202,5.649016 l -8.984115,5.649014 0,-6.285975 z"
     id="path3357"
     inkscape:connector-curvature="0" />
</svg>
