<?xml version="1.0" encoding="UTF-8" standalone="no"?>
<!-- Created with Inkscape (http://www.inkscape.org/) -->

<svg
   xmlns:dc="http://purl.org/dc/elements/1.1/"
   xmlns:cc="http://creativecommons.org/ns#"
   xmlns:rdf="http://www.w3.org/1999/02/22-rdf-syntax-ns#"
   xmlns:svg="http://www.w3.org/2000/svg"
   xmlns="http://www.w3.org/2000/svg"
   xmlns:sodipodi="http://sodipodi.sourceforge.net/DTD/sodipodi-0.dtd"
   xmlns:inkscape="http://www.inkscape.org/namespaces/inkscape"
   id="svg2"
   version="1.1"
   inkscape:version="0.91 r13725"
   width="100"
   height="100"
   viewBox="0 0 99.999999 100"
   sodipodi:docname="fuse.svg">
  <metadata
     id="metadata8">
    <rdf:RDF>
      <cc:Work
         rdf:about="">
        <dc:format>image/svg+xml</dc:format>
        <dc:type
           rdf:resource="http://purl.org/dc/dcmitype/StillImage" />
        <dc:title></dc:title>
      </cc:Work>
    </rdf:RDF>
  </metadata>
  <defs
     id="defs6" />
  <sodipodi:namedview
     pagecolor="#ffffff"
     bordercolor="#666666"
     borderopacity="1"
     objecttolerance="10"
     gridtolerance="10"
     guidetolerance="10"
     inkscape:pageopacity="0"
     inkscape:pageshadow="2"
     inkscape:window-width="949"
     inkscape:window-height="753"
     id="namedview4"
     showgrid="false"
     inkscape:zoom="3.7557078"
     inkscape:cx="24.069502"
     inkscape:cy="37.277645"
     inkscape:window-x="177"
     inkscape:window-y="70"
     inkscape:window-maximized="0"
     inkscape:current-layer="svg2" />
  <path
     style="fill:#000000"
     d="m 30.523404,55.377294 c 0,-5.212409 -0.431401,-5.573219 -7.420212,-6.206028 -4.081117,-0.369528 -7.420213,-1.687401 -7.420213,-2.928607 0,-1.241206 3.339096,-2.55908 7.420213,-2.928607 6.988811,-0.632809 7.420212,-0.993619 7.420212,-6.206029 l 0,-5.534158 18.402128,0 18.402127,0 0,5.641844 c 0,5.399682 0.31,5.641844 7.22234,5.641844 9.590484,0 9.176222,5.347012 -0.489541,6.318648 -6.256711,0.628946 -6.732799,1.067785 -6.732799,6.206029 l 0,5.529223 -18.402127,0 -18.402128,0 0,-5.534159 z M 36.459575,45.11429 c 0,-6.519464 -0.494682,-9.02695 -1.780851,-9.02695 -1.28617,0 -1.780851,2.507486 -1.780851,9.02695 0,6.519465 0.494681,9.02695 1.780851,9.02695 1.286169,0 1.780851,-2.507485 1.780851,-9.02695 z m 21.370212,0 0,-9.02695 -8.904255,0 -8.904255,0 0,9.02695 0,9.02695 8.904255,0 8.904255,0 0,-9.02695 z m 5.93617,0 c 0,-4.964823 -0.534255,-9.02695 -1.187234,-9.02695 -0.652979,0 -1.187234,4.062127 -1.187234,9.02695 0,4.964823 0.534255,9.02695 1.187234,9.02695 0.652979,0 1.187234,-4.062127 1.187234,-9.02695 z"
     id="path3357"
     inkscape:connector-curvature="0" />
</svg>
