<?xml version="1.0" encoding="UTF-8" standalone="no"?>
<!-- Created with Inkscape (http://www.inkscape.org/) -->

<svg
   xmlns:dc="http://purl.org/dc/elements/1.1/"
   xmlns:cc="http://creativecommons.org/ns#"
   xmlns:rdf="http://www.w3.org/1999/02/22-rdf-syntax-ns#"
   xmlns:svg="http://www.w3.org/2000/svg"
   xmlns="http://www.w3.org/2000/svg"
   xmlns:sodipodi="http://sodipodi.sourceforge.net/DTD/sodipodi-0.dtd"
   xmlns:inkscape="http://www.inkscape.org/namespaces/inkscape"
   id="svg2"
   version="1.1"
   inkscape:version="0.91 r13725"
   width="100"
   height="100"
   viewBox="0 0 100 100"
   sodipodi:docname="ground-chassis.svg">
  <metadata
     id="metadata8">
    <rdf:RDF>
      <cc:Work
         rdf:about="">
        <dc:format>image/svg+xml</dc:format>
        <dc:type
           rdf:resource="http://purl.org/dc/dcmitype/StillImage" />
        <dc:title></dc:title>
      </cc:Work>
    </rdf:RDF>
  </metadata>
  <defs
     id="defs6" />
  <sodipodi:namedview
     pagecolor="#ffffff"
     bordercolor="#666666"
     borderopacity="1"
     objecttolerance="10"
     gridtolerance="10"
     guidetolerance="10"
     inkscape:pageopacity="0"
     inkscape:pageshadow="2"
     inkscape:window-width="849"
     inkscape:window-height="670"
     id="namedview4"
     showgrid="false"
     inkscape:zoom="2.8095238"
     inkscape:cx="1.7729341"
     inkscape:cy="24.618811"
     inkscape:window-x="274"
     inkscape:window-y="125"
     inkscape:window-maximized="0"
     inkscape:current-layer="svg2" />
  <path
     style="fill:#000000"
     d="m 17.511647,65.002727 c -0.451817,-0.841212 1.49265,-5.603966 4.321036,-10.583898 l 5.142522,-9.054421 12.380772,-0.537595 12.380771,-0.537598 0,-9.125962 c 0,-5.01928 0.719838,-9.125963 1.59964,-9.125963 0.879801,0 1.599639,4.141525 1.599639,9.20339 l 0,9.20339 12.797115,0 c 14.757958,0 15.336932,0.902681 8.582785,13.381493 -5.306847,9.804816 -4.857834,9.297743 -6.928906,7.824876 -1.19425,-0.849305 -0.715266,-3.192276 1.493213,-7.304123 1.788306,-3.329547 3.251466,-6.577182 3.251466,-7.216967 0,-0.639784 -4.309997,-1.163246 -9.577769,-1.163246 -9.537319,0 -9.595655,0.03304 -13.812167,7.822882 -5.329774,9.84655 -4.877348,9.334715 -6.948974,7.861454 -1.194249,-0.849305 -0.715266,-3.192276 1.493214,-7.304123 1.788306,-3.329547 3.251465,-6.577182 3.251465,-7.216967 0,-0.639784 -4.336747,-1.163246 -9.637218,-1.163246 l -9.637216,0 -4.34798,8.283051 c -4.338519,8.265029 -5.850698,9.644477 -7.403408,6.753573 z"
     id="path3357"
     inkscape:connector-curvature="0" />
</svg>
