<?xml version="1.0" encoding="UTF-8" standalone="no"?>
<!-- Created with Inkscape (http://www.inkscape.org/) -->

<svg
   xmlns:dc="http://purl.org/dc/elements/1.1/"
   xmlns:cc="http://creativecommons.org/ns#"
   xmlns:rdf="http://www.w3.org/1999/02/22-rdf-syntax-ns#"
   xmlns:svg="http://www.w3.org/2000/svg"
   xmlns="http://www.w3.org/2000/svg"
   xmlns:sodipodi="http://sodipodi.sourceforge.net/DTD/sodipodi-0.dtd"
   xmlns:inkscape="http://www.inkscape.org/namespaces/inkscape"
   id="svg2"
   version="1.1"
   inkscape:version="0.91 r13725"
   width="100"
   height="100"
   viewBox="0 0 100 100"
   sodipodi:docname="hand-key.svg">
  <metadata
     id="metadata8">
    <rdf:RDF>
      <cc:Work
         rdf:about="">
        <dc:format>image/svg+xml</dc:format>
        <dc:type
           rdf:resource="http://purl.org/dc/dcmitype/StillImage" />
        <dc:title></dc:title>
      </cc:Work>
    </rdf:RDF>
  </metadata>
  <defs
     id="defs6" />
  <sodipodi:namedview
     pagecolor="#ffffff"
     bordercolor="#666666"
     borderopacity="1"
     objecttolerance="10"
     gridtolerance="10"
     guidetolerance="10"
     inkscape:pageopacity="0"
     inkscape:pageshadow="2"
     inkscape:window-width="640"
     inkscape:window-height="480"
     id="namedview4"
     showgrid="false"
     inkscape:zoom="2.1072294"
     inkscape:cx="10.652276"
     inkscape:cy="50.791346"
     inkscape:window-x="245"
     inkscape:window-y="139"
     inkscape:window-maximized="0"
     inkscape:current-layer="svg2" />
  <path
     style="fill:#000000"
     d="m 13.156908,63.232499 c 0.240367,-1.071982 2.808601,-1.714282 7.845665,-1.962156 l 7.488324,-0.368499 3.025477,-8.874709 c 1.664013,-4.881089 3.404094,-8.874708 3.866847,-8.874708 0.991261,0 6.904556,16.897021 6.904556,19.729514 0,1.666465 -2.10634,1.944215 -14.744104,1.944215 -11.410486,0 -14.663311,-0.360324 -14.386765,-1.593657 z M 67.108125,60.045186 C 66.371528,58.818071 65.631666,56.744222 65.463989,55.436634 65.220845,53.540546 61.62193,51.475529 47.688452,45.237232 37.138069,40.513613 30.215213,36.784002 30.211294,35.821607 c -0.0084,-2.053137 0.709027,-2.00727 5.198046,0.332344 2.03248,1.0593 3.797457,1.775269 3.92217,1.591044 0.124714,-0.184227 0.500586,-1.946643 0.835271,-3.916479 0.506142,-2.978959 0.300139,-3.700647 -1.22445,-4.28959 -1.008135,-0.389438 -1.832971,-1.563112 -1.832971,-2.608163 0,-1.287366 0.487054,-1.622698 1.510372,-1.039877 0.830704,0.47312 3.160992,1.514067 5.178417,2.313216 2.101856,0.832595 3.668045,2.215663 3.668045,3.239173 0,1.271653 -0.625508,1.554265 -2.171467,0.981096 -1.787876,-0.662862 -2.321493,-0.222181 -3.020743,2.494635 -0.467102,1.814843 -0.849276,3.466964 -0.849276,3.67138 0,0.204417 5.45239,2.817589 12.116421,5.807049 11.242592,5.043387 12.227838,5.286438 13.661304,3.370113 2.30254,-3.078143 5.758409,-2.576365 7.72779,1.122042 1.47931,2.778076 2.373869,3.187313 6.967198,3.187313 4.10904,0 5.269972,0.421284 5.269972,1.912388 0,1.48579 -1.146401,1.912388 -5.139186,1.912388 -4.33104,0 -5.478486,0.501211 -7.296861,3.187313 -2.517966,3.719536 -5.72315,4.121568 -7.623221,0.956194 z m 6.608921,-3.685652 c 0.806399,-3.104246 -0.185554,-6.468177 -2.128671,-7.218796 -1.799,-0.694947 -4.271581,2.016729 -4.271581,4.684635 0,4.321577 5.382325,6.452692 6.400252,2.534161 z"
     id="path3357"
     inkscape:connector-curvature="0" />
</svg>
