<?xml version="1.0" encoding="UTF-8" standalone="no"?>
<!-- Created with Inkscape (http://www.inkscape.org/) -->

<svg
   xmlns:dc="http://purl.org/dc/elements/1.1/"
   xmlns:cc="http://creativecommons.org/ns#"
   xmlns:rdf="http://www.w3.org/1999/02/22-rdf-syntax-ns#"
   xmlns:svg="http://www.w3.org/2000/svg"
   xmlns="http://www.w3.org/2000/svg"
   xmlns:sodipodi="http://sodipodi.sourceforge.net/DTD/sodipodi-0.dtd"
   xmlns:inkscape="http://www.inkscape.org/namespaces/inkscape"
   id="svg2"
   version="1.1"
   inkscape:version="0.91 r13725"
   width="100"
   height="100"
   viewBox="0 0 100 99.999999"
   sodipodi:docname="inductor-adjustable.svg">
  <metadata
     id="metadata8">
    <rdf:RDF>
      <cc:Work
         rdf:about="">
        <dc:format>image/svg+xml</dc:format>
        <dc:type
           rdf:resource="http://purl.org/dc/dcmitype/StillImage" />
        <dc:title></dc:title>
      </cc:Work>
    </rdf:RDF>
  </metadata>
  <defs
     id="defs6" />
  <sodipodi:namedview
     pagecolor="#ffffff"
     bordercolor="#666666"
     borderopacity="1"
     objecttolerance="10"
     gridtolerance="10"
     guidetolerance="10"
     inkscape:pageopacity="0"
     inkscape:pageshadow="2"
     inkscape:window-width="902"
     inkscape:window-height="758"
     id="namedview4"
     showgrid="false"
     inkscape:zoom="4.3081135"
     inkscape:cx="44.310005"
     inkscape:cy="58.802123"
     inkscape:window-x="292"
     inkscape:window-y="169"
     inkscape:window-maximized="0"
     inkscape:current-layer="svg2" />
  <path
     style="fill:#000000"
     d="m 23.171072,70.363861 c 0,-0.992971 1.925288,-3.170934 4.278417,-4.839914 4.22531,-2.996847 4.278418,-3.120882 4.278418,-9.992487 0,-7.838575 -2.239803,-12.509921 -5.998218,-12.509921 -3.939948,0 -5.773679,3.275924 -6.325547,11.30046 -0.627733,9.127658 -2.429639,8.692359 -2.37133,-0.572858 0.03325,-5.283271 0.556656,-7.374038 2.588659,-10.340502 3.259914,-4.759058 8.371228,-5.06892 11.371194,-0.689353 l 2.074782,3.028913 2.208502,-3.028913 c 2.948135,-4.043303 8.159238,-4.043303 10.928866,0 l 2.074782,3.028913 2.137433,-2.931443 c 1.236297,-1.695555 3.65958,-3.084012 5.747856,-3.293323 3.907859,-0.39169 14.048047,-7.867381 12.915049,-9.521413 -1.216056,-1.775285 1.96786,-3.593128 6.331721,-3.615069 l 4.227235,-0.02125 -3.246594,4.890038 c -1.785627,2.68952 -3.818016,4.569924 -4.516421,4.178674 -0.698404,-0.39125 -3.418529,0.878188 -6.044721,2.820974 -4.005862,2.963429 -4.587093,3.862688 -3.608842,5.583469 1.01272,1.781413 1.463262,1.643516 3.426247,-1.048675 3.224186,-4.421902 8.193413,-4.153783 11.46236,0.618462 2.032003,2.966464 2.55541,5.057231 2.58866,10.340502 0.05831,9.265217 -1.743598,9.700516 -2.37133,0.572858 -0.544229,-7.91346 -2.385672,-11.30046 -6.143829,-11.30046 -3.758157,0 -5.5996,3.387 -6.143829,11.30046 -0.652794,9.49207 -2.264446,9.594169 -2.912577,0.184514 -0.721411,-10.473527 -1.893833,-11.595226 -7.381676,-7.062313 -3.877371,3.202676 -4.542444,4.411895 -4.954004,9.007235 -0.544743,6.082408 -2.15003,6.908267 -2.852278,1.467386 l -0.47538,-3.68315 -10.933733,8.937592 c -6.013553,4.915677 -11.254614,8.950735 -11.646802,8.966797 -0.392189,0.01606 -0.71307,-0.783228 -0.71307,-1.776199 z M 46.322063,49.892025 c 1.28271,-1.652211 -2.941699,-6.870486 -5.561942,-6.870486 -3.64243,0 -6.179936,4.601129 -6.179936,11.205761 l 0,5.653811 5.466866,-4.474073 c 3.006777,-2.460739 5.830532,-4.942496 6.275012,-5.515013 z"
     id="path3357"
     inkscape:connector-curvature="0" />
</svg>
