<?xml version="1.0" encoding="UTF-8" standalone="no"?>
<!-- Created with Inkscape (http://www.inkscape.org/) -->

<svg
   xmlns:dc="http://purl.org/dc/elements/1.1/"
   xmlns:cc="http://creativecommons.org/ns#"
   xmlns:rdf="http://www.w3.org/1999/02/22-rdf-syntax-ns#"
   xmlns:svg="http://www.w3.org/2000/svg"
   xmlns="http://www.w3.org/2000/svg"
   xmlns:sodipodi="http://sodipodi.sourceforge.net/DTD/sodipodi-0.dtd"
   xmlns:inkscape="http://www.inkscape.org/namespaces/inkscape"
   id="svg2"
   version="1.1"
   inkscape:version="0.91 r13725"
   width="100"
   height="100"
   viewBox="0 0 100 99.999999"
   sodipodi:docname="inductor-iron-core.svg">
  <metadata
     id="metadata8">
    <rdf:RDF>
      <cc:Work
         rdf:about="">
        <dc:format>image/svg+xml</dc:format>
        <dc:type
           rdf:resource="http://purl.org/dc/dcmitype/StillImage" />
        <dc:title></dc:title>
      </cc:Work>
    </rdf:RDF>
  </metadata>
  <defs
     id="defs6" />
  <sodipodi:namedview
     pagecolor="#ffffff"
     bordercolor="#666666"
     borderopacity="1"
     objecttolerance="10"
     gridtolerance="10"
     guidetolerance="10"
     inkscape:pageopacity="0"
     inkscape:pageshadow="2"
     inkscape:window-width="907"
     inkscape:window-height="721"
     id="namedview4"
     showgrid="false"
     inkscape:zoom="1.6319444"
     inkscape:cx="33.137928"
     inkscape:cy="19.959677"
     inkscape:window-x="216"
     inkscape:window-y="150"
     inkscape:window-maximized="0"
     inkscape:current-layer="svg2" />
  <path
     style="fill:#000000"
     d="m 12.891688,59.887378 c 0.418591,-6.348294 1.044579,-8.354166 3.403548,-10.906106 3.550292,-3.840711 9.04925,-4.098716 12.498114,-0.586396 2.448019,2.49306 2.542913,2.49306 5.062981,0 3.288687,-3.253444 8.812265,-3.253444 12.006929,0 2.448019,2.49306 2.542913,2.49306 5.062981,0 3.287473,-3.252243 8.74151,-3.252243 12.028984,0 2.520068,2.49306 2.614962,2.49306 5.062981,0 2.770728,-2.821708 7.659068,-3.308546 10.953806,-1.09091 4.29974,2.894089 7.356691,20.018538 3.573586,20.018538 -1.179427,0 -1.600304,-1.548881 -1.600304,-5.889315 0,-7.209632 -2.663751,-11.889128 -6.767754,-11.889128 -4.713571,0 -7.101548,3.792207 -7.101548,11.277555 0,4.884055 -0.398011,6.500888 -1.600304,6.500888 -1.202294,0 -1.600304,-1.616833 -1.600304,-6.500888 0,-7.402819 -2.382603,-11.277555 -6.934651,-11.277555 -4.552048,0 -6.934651,3.874736 -6.934651,11.277555 0,4.884055 -0.398011,6.500888 -1.600304,6.500888 -1.179426,0 -1.600304,-1.548881 -1.600304,-5.889315 0,-7.209632 -2.663751,-11.889128 -6.767754,-11.889128 -4.713571,0 -7.101548,3.792207 -7.101548,11.277555 0,4.884055 -0.398011,6.500888 -1.600304,6.500888 -1.179426,0 -1.600304,-1.548881 -1.600304,-5.889315 0,-7.209632 -2.663751,-11.889128 -6.767754,-11.889128 -4.418249,0 -6.945431,3.723144 -7.314579,10.776122 -0.195486,3.734973 -0.896264,6.36038 -1.797439,6.733944 -1.181724,0.489863 -1.374482,-0.943024 -0.964104,-7.166749 z M 13.203385,41.83763 c -0.370135,-0.753205 -0.03827,-1.675777 0.737467,-2.050161 2.753455,-1.328854 69.671615,-0.01248 69.671615,1.370535 0,1.869767 -69.494594,2.540567 -70.409082,0.679626 z m -0.537731,-6.717588 c 0,-0.867811 12.624621,-1.341769 35.740124,-1.341769 23.115503,0 35.740124,0.473958 35.740124,1.341769 0,0.867811 -12.624621,1.341769 -35.740124,1.341769 -23.115503,0 -35.740124,-0.473958 -35.740124,-1.341769 z"
     id="path3357"
     inkscape:connector-curvature="0" />
</svg>
