<?xml version="1.0" encoding="UTF-8" standalone="no"?>
<!-- Created with Inkscape (http://www.inkscape.org/) -->

<svg
   xmlns:dc="http://purl.org/dc/elements/1.1/"
   xmlns:cc="http://creativecommons.org/ns#"
   xmlns:rdf="http://www.w3.org/1999/02/22-rdf-syntax-ns#"
   xmlns:svg="http://www.w3.org/2000/svg"
   xmlns="http://www.w3.org/2000/svg"
   xmlns:sodipodi="http://sodipodi.sourceforge.net/DTD/sodipodi-0.dtd"
   xmlns:inkscape="http://www.inkscape.org/namespaces/inkscape"
   id="svg2"
   version="1.1"
   inkscape:version="0.91 r13725"
   width="100"
   height="100"
   viewBox="0 0 100 99.999999"
   sodipodi:docname="lamp-neon.svg">
  <metadata
     id="metadata8">
    <rdf:RDF>
      <cc:Work
         rdf:about="">
        <dc:format>image/svg+xml</dc:format>
        <dc:type
           rdf:resource="http://purl.org/dc/dcmitype/StillImage" />
        <dc:title></dc:title>
      </cc:Work>
    </rdf:RDF>
  </metadata>
  <defs
     id="defs6" />
  <sodipodi:namedview
     pagecolor="#ffffff"
     bordercolor="#666666"
     borderopacity="1"
     objecttolerance="10"
     gridtolerance="10"
     guidetolerance="10"
     inkscape:pageopacity="0"
     inkscape:pageshadow="2"
     inkscape:window-width="640"
     inkscape:window-height="480"
     id="namedview4"
     showgrid="false"
     inkscape:zoom="1.9281046"
     inkscape:cx="13.637069"
     inkscape:cy="49.675868"
     inkscape:window-x="0"
     inkscape:window-y="24"
     inkscape:window-maximized="0"
     inkscape:current-layer="svg2" />
  <path
     style="fill:#000000"
     d="m 46.220415,73.351761 c -8.240023,-1.70146 -14.54733,-8.260333 -16.924193,-17.599215 -1.089365,-4.280197 -1.320913,-4.494915 -4.847237,-4.494915 -2.036772,0 -3.703223,-0.475933 -3.703223,-1.057628 0,-0.581694 1.737673,-1.057627 3.861495,-1.057627 3.6896,0 3.891949,-0.176553 4.545587,-3.966101 2.217528,-12.856395 16.278525,-21.451339 28.150628,-17.207393 7.003432,2.503532 14.21692,11.883754 14.21692,18.487293 0,2.518357 0.305058,2.686201 4.882176,2.686201 2.685197,0 4.882176,0.475933 4.882176,1.057627 0,0.581695 -2.14082,1.057628 -4.75738,1.057628 l -4.757379,0 -0.645973,4.375596 c -0.915685,6.202542 -5.071907,11.971071 -10.832625,15.034885 -6.210821,3.303199 -8.737118,3.785021 -14.070972,2.683649 z m 4.30662,-4.879779 c -4.212876,-1.121646 -5.912681,-5.62765 -3.222236,-8.541809 3.547693,-3.842688 9.110084,1.134581 6.705861,6.000455 -1.441725,2.91789 0.608624,3.059864 4.754142,0.329197 3.636006,-2.395051 6.249463,-6.006854 7.717138,-10.665101 1.43153,-4.543532 1.465147,-4.337093 -0.706276,-4.337093 -1.011443,0 -2.043022,0.845107 -2.292398,1.878016 -0.292936,1.213337 -1.531783,1.96702 -3.500288,2.129486 -3.934173,0.3247 -6.797136,-3.668632 -5.097027,-7.109461 1.175149,-2.378368 1.170693,-2.376152 5.304189,-2.638276 1.989903,-0.126188 2.964162,0.384405 3.287297,1.722821 0.455708,1.88753 4.137214,2.753974 4.137214,0.973694 0,-2.353305 -3.032081,-8.332377 -5.534526,-10.913735 -6.592381,-6.800265 -14.506796,-7.51228 -21.604008,-1.94359 -5.811797,4.560115 -9.213976,13.78579 -5.083827,13.78579 1.208657,0 1.953133,-0.705333 1.95356,-1.850847 9.08e-4,-2.436558 4.756023,-2.799995 7.078465,-0.541012 2.203247,2.143044 2.173116,4.781725 -0.07982,6.990143 -2.370629,2.323781 -6.999332,1.928021 -6.999332,-0.598452 0,-1.179492 -0.730635,-1.884577 -1.95287,-1.884577 -1.317686,0 -1.95287,0.705085 -1.95287,2.167776 0,6.872497 9.229093,15.835607 16.11118,15.646854 2.023912,-0.0555 2.32571,-0.241044 0.976435,-0.600279 z M 43.203771,50.200003 c 0,-1.163389 -0.633161,-2.115254 -1.407026,-2.115254 -1.724961,0 -2.827812,1.740474 -2.010497,3.172882 1.061864,1.860995 3.417523,1.131984 3.417523,-1.057628 z m 17.575834,-0.07755 c 0,-1.513573 -0.525826,-2.083123 -1.697548,-1.838707 -2.54531,0.530942 -2.829173,4.031507 -0.326919,4.031507 1.397376,0 2.024467,-0.679235 2.024467,-2.192804 z"
     id="path3357"
     inkscape:connector-curvature="0" />
</svg>
