<?xml version="1.0" encoding="UTF-8" standalone="no"?>
<!-- Created with Inkscape (http://www.inkscape.org/) -->

<svg
   xmlns:dc="http://purl.org/dc/elements/1.1/"
   xmlns:cc="http://creativecommons.org/ns#"
   xmlns:rdf="http://www.w3.org/1999/02/22-rdf-syntax-ns#"
   xmlns:svg="http://www.w3.org/2000/svg"
   xmlns="http://www.w3.org/2000/svg"
   xmlns:sodipodi="http://sodipodi.sourceforge.net/DTD/sodipodi-0.dtd"
   xmlns:inkscape="http://www.inkscape.org/namespaces/inkscape"
   id="svg2"
   version="1.1"
   inkscape:version="0.91 r13725"
   width="100"
   height="100"
   viewBox="0 0 99.999999 100"
   sodipodi:docname="logic-invert.svg">
  <metadata
     id="metadata8">
    <rdf:RDF>
      <cc:Work
         rdf:about="">
        <dc:format>image/svg+xml</dc:format>
        <dc:type
           rdf:resource="http://purl.org/dc/dcmitype/StillImage" />
        <dc:title></dc:title>
      </cc:Work>
    </rdf:RDF>
  </metadata>
  <defs
     id="defs6" />
  <sodipodi:namedview
     pagecolor="#ffffff"
     bordercolor="#666666"
     borderopacity="1"
     objecttolerance="10"
     gridtolerance="10"
     guidetolerance="10"
     inkscape:pageopacity="0"
     inkscape:pageshadow="2"
     inkscape:window-width="640"
     inkscape:window-height="480"
     id="namedview4"
     showgrid="false"
     inkscape:zoom="2.9373503"
     inkscape:cx="18.966157"
     inkscape:cy="44.36424"
     inkscape:window-x="168"
     inkscape:window-y="93"
     inkscape:window-maximized="0"
     inkscape:current-layer="svg2" />
  <path
     style="fill:#000000"
     d="m 34.193977,55.92187 0,-9.303418 -11.237355,0 c -9.200173,0 -11.237355,-0.562195 -11.237355,-3.10114 0,-2.538944 2.037182,-3.101139 11.237355,-3.101139 l 11.237355,0 0,-8.958846 c 0,-4.927367 0.32876,-9.533452 0.730579,-10.235745 0.401817,-0.702294 5.432133,2.850098 11.178481,7.894203 6.054181,5.314321 10.750743,8.314681 11.168027,7.134605 1.099017,-3.108003 6.020478,-2.425567 7.67778,1.064644 1.094501,2.304975 4.01668,3.101139 11.382192,3.101139 8.019981,0 9.909638,0.591352 9.909638,3.101139 0,2.509788 -1.889657,3.10114 -9.909638,3.10114 -7.365512,0 -10.287691,0.796163 -11.382192,3.101139 -1.657734,3.49112 -6.578869,4.172347 -7.678392,1.062913 -0.419859,-1.187355 -4.635346,1.401825 -10.098029,6.202279 C 34.990675,67.689765 34.193977,67.624515 34.193977,55.92187 Z m 11.780644,-8.109035 5.274806,-4.821052 -6.161966,-5.457484 -6.161966,-5.457486 0,10.371958 c 0,5.704577 0.399222,10.32992 0.88716,10.278539 0.487938,-0.05138 3.260822,-2.262896 6.161966,-4.914475 z"
     id="path3361"
     inkscape:connector-curvature="0" />
</svg>
