<?xml version="1.0" encoding="UTF-8" standalone="no"?>
<!-- Created with Inkscape (http://www.inkscape.org/) -->

<svg
   xmlns:dc="http://purl.org/dc/elements/1.1/"
   xmlns:cc="http://creativecommons.org/ns#"
   xmlns:rdf="http://www.w3.org/1999/02/22-rdf-syntax-ns#"
   xmlns:svg="http://www.w3.org/2000/svg"
   xmlns="http://www.w3.org/2000/svg"
   xmlns:sodipodi="http://sodipodi.sourceforge.net/DTD/sodipodi-0.dtd"
   xmlns:inkscape="http://www.inkscape.org/namespaces/inkscape"
   id="svg2"
   version="1.1"
   inkscape:version="0.91 r13725"
   width="100"
   height="100"
   viewBox="0 0 99.999999 100"
   sodipodi:docname="motor.svg">
  <metadata
     id="metadata8">
    <rdf:RDF>
      <cc:Work
         rdf:about="">
        <dc:format>image/svg+xml</dc:format>
        <dc:type
           rdf:resource="http://purl.org/dc/dcmitype/StillImage" />
        <dc:title></dc:title>
      </cc:Work>
    </rdf:RDF>
  </metadata>
  <defs
     id="defs6" />
  <sodipodi:namedview
     pagecolor="#ffffff"
     bordercolor="#666666"
     borderopacity="1"
     objecttolerance="10"
     gridtolerance="10"
     guidetolerance="10"
     inkscape:pageopacity="0"
     inkscape:pageshadow="2"
     inkscape:window-width="640"
     inkscape:window-height="480"
     id="namedview4"
     showgrid="false"
     inkscape:zoom="2.7812867"
     inkscape:cx="18.272101"
     inkscape:cy="52.248973"
     inkscape:window-x="211"
     inkscape:window-y="162"
     inkscape:window-maximized="0"
     inkscape:current-layer="svg2" />
  <path
     style="fill:#000000"
     d="M 41.140821,74.153182 C 31.622575,69.356552 26.403505,61.243194 26.309568,51.097109 26.098709,28.322209 53.323087,17.280521 68.469201,33.997966 c 5.339485,5.89343 7.041805,11.160747 6.299326,19.491376 -1.124099,12.612436 -10.088688,21.312875 -23.014652,22.336508 -4.840261,0.38331 -7.303669,-0.0049 -10.613054,-1.672668 z m 18.868642,-6.026814 c 6.11072,-3.325297 9.683245,-9.719117 9.683245,-17.330296 0,-14.827015 -14.407,-23.747821 -27.744094,-17.179126 -6.865883,3.381538 -10.325089,9.213046 -10.325089,17.405972 0,8.128848 3.429335,13.950544 10.237313,17.37903 6.132749,3.088443 12.134205,2.997312 18.148625,-0.27558 z M 41.71311,54.037394 c -0.746573,-1.889688 -0.990385,-2.017844 -1.04271,-0.548086 -0.142954,4.015389 -2.223154,1.707593 -2.223154,-2.46639 0,-5.44691 2.458641,-5.956363 3.96763,-0.82213 l 1.047063,3.562563 0.810551,-3.562563 c 0.845713,-3.717116 3.847395,-4.981217 3.904387,-1.64426 0.0312,1.826956 0.08506,1.826956 1.130968,0 1.673148,-2.922594 6.190979,-2.439687 7.649755,0.817677 1.012419,2.260673 0.885808,3.117618 -0.728803,4.93278 -2.375333,2.670375 -3.549827,2.743877 -6.114343,0.382646 -1.178876,-1.085428 -1.97034,-1.305589 -1.97034,-0.548087 0,2.067863 -2.148758,1.437453 -2.223153,-0.652236 -0.05233,-1.469758 -0.296137,-1.341602 -1.042711,0.548086 -0.535929,1.356515 -1.248085,2.46639 -1.58257,2.46639 -0.334485,0 -1.046641,-1.109875 -1.58257,-2.46639 z m 13.32252,-1.469137 c 0.808945,-2.144752 -0.06178,-3.737685 -2.043082,-3.737685 -1.938848,0 -3.042353,1.878878 -2.284149,3.889098 0.800956,2.123567 3.504852,2.028956 4.327231,-0.151413 z m 4.960211,-0.449166 c 0,-1.808686 -0.484844,-3.288519 -1.07743,-3.288519 -0.592586,0 -1.07743,-0.493278 -1.07743,-1.096174 0,-0.602895 1.818163,-1.080485 4.040362,-1.061311 3.590342,0.03098 3.830352,0.197055 2.154859,1.491062 -1.037026,0.80091 -1.885502,2.758333 -1.885502,4.349831 0,1.591497 -0.484843,2.893631 -1.077429,2.893631 -0.592587,0 -1.07743,-1.479834 -1.07743,-3.28852 z"
     id="path3357"
     inkscape:connector-curvature="0" />
</svg>
