<?xml version="1.0" encoding="UTF-8" standalone="no"?>
<!-- Created with Inkscape (http://www.inkscape.org/) -->

<svg
   xmlns:dc="http://purl.org/dc/elements/1.1/"
   xmlns:cc="http://creativecommons.org/ns#"
   xmlns:rdf="http://www.w3.org/1999/02/22-rdf-syntax-ns#"
   xmlns:svg="http://www.w3.org/2000/svg"
   xmlns="http://www.w3.org/2000/svg"
   xmlns:sodipodi="http://sodipodi.sourceforge.net/DTD/sodipodi-0.dtd"
   xmlns:inkscape="http://www.inkscape.org/namespaces/inkscape"
   id="svg2"
   version="1.1"
   inkscape:version="0.91 r13725"
   width="100"
   height="100"
   viewBox="0 0 100 100"
   sodipodi:docname="resistor-thermistor.svg">
  <metadata
     id="metadata8">
    <rdf:RDF>
      <cc:Work
         rdf:about="">
        <dc:format>image/svg+xml</dc:format>
        <dc:type
           rdf:resource="http://purl.org/dc/dcmitype/StillImage" />
        <dc:title></dc:title>
      </cc:Work>
    </rdf:RDF>
  </metadata>
  <defs
     id="defs6" />
  <sodipodi:namedview
     pagecolor="#ffffff"
     bordercolor="#666666"
     borderopacity="1"
     objecttolerance="10"
     gridtolerance="10"
     guidetolerance="10"
     inkscape:pageopacity="0"
     inkscape:pageshadow="2"
     inkscape:window-width="1038"
     inkscape:window-height="852"
     id="namedview4"
     showgrid="false"
     inkscape:zoom="3.1155303"
     inkscape:cx="21.212401"
     inkscape:cy="29.184304"
     inkscape:window-x="120"
     inkscape:window-y="74"
     inkscape:window-maximized="0"
     inkscape:current-layer="svg2" />
  <path
     style="fill:#000000"
     d="m 46.714284,73.479462 c 0,-1.84348 -0.222148,-4.18245 -0.493662,-5.19771 -0.271513,-1.01526 -0.0446,-2.78152 0.504255,-3.925013 0.887038,-1.848073 1.112024,-1.848073 2.02488,0 0.896345,1.814653 1.15926,1.770573 2.067134,-0.346514 1.297473,-3.025604 3.550242,-3.139883 4.365106,-0.221433 0.912635,3.26863 -0.162007,4.72611 -3.48468,4.72611 -2.293671,0 -2.966012,0.62839 -2.966012,2.77211 0,1.52467 0.45383,2.77212 1.008511,2.77212 0.55468,0 1.00851,0.62372 1.00851,1.38605 0,0.76233 -0.907659,1.38606 -2.017021,1.38606 -1.460958,0 -2.017021,-0.92404 -2.017021,-3.35178 z m -21.178723,-4.15224 c 0,-1.07788 2.929941,-4.2117 6.51098,-6.964031 3.581039,-2.752334 6.775011,-5.591385 7.097717,-6.309005 0.322705,-0.717619 -0.405418,-3.976984 -1.618052,-7.243035 -2.124531,-5.722109 -2.242303,-5.822781 -3.23534,-2.765591 -0.961288,2.959446 -1.544321,3.14576 -8.674843,2.772111 -9.433632,-0.494334 -10.098708,-3.02381 -0.941095,-3.579258 6.361535,-0.385853 6.766149,-0.615456 7.938309,-4.50468 1.790003,-5.939219 3.62495,-5.066378 6.661261,3.1686 l 2.679298,7.266705 2.588827,-7.266705 c 1.423854,-3.996687 3.164054,-7.266703 3.86711,-7.266703 0.703057,0 1.982339,1.871175 2.842848,4.158166 0.86051,2.286992 1.75847,4.158167 1.995467,4.158167 1.767536,0 5.640905,-3.674811 6.13682,-5.822229 0.333975,-1.446187 1.363815,-2.490406 2.288534,-2.320488 2.723145,0.500381 9.185857,-4.543939 8.951527,-6.986908 -0.420009,-4.378755 1.849076,-3.46258 3.797322,1.533221 1.973274,5.059979 1.561558,8.637826 -0.645011,5.605209 -0.849959,-1.168148 -1.812125,-1.068944 -3.765107,0.388199 -5.490571,4.096584 -5.481488,4.073351 -3.574034,9.142823 1.723668,4.581021 1.782146,4.61416 2.770496,1.569986 0.913716,-2.814293 1.713796,-3.109813 8.419376,-3.109813 5.914073,0 7.409715,0.41966 7.409715,2.079083 0,1.630779 -1.387114,2.079083 -6.432966,2.079083 -6.196906,0 -6.478953,0.152585 -7.686182,4.158166 -1.808097,5.99926 -3.634666,5.149185 -6.679363,-3.108537 l -2.679298,-7.266705 -2.588826,7.266705 c -2.788406,7.826914 -4.166469,8.814135 -6.334821,4.538159 -1.334112,-2.630858 -1.816196,-2.38274 -13.465315,6.930278 -6.644917,5.312347 -12.431246,9.658817 -12.85851,9.658817 -0.427264,0 -0.776844,-0.8819 -0.776844,-1.95979 z M 48.144567,49.654864 c 1.709552,-0.901603 2.15058,-4.067602 0.73421,-5.270666 -0.473571,-0.402251 -1.3715,0.808388 -1.995399,2.69031 -1.224977,3.695004 -1.148604,3.851259 1.261189,2.580356 z"
     id="path3361"
     inkscape:connector-curvature="0" />
</svg>
