<?xml version="1.0" encoding="UTF-8" standalone="no"?>
<svg
   xmlns:dc="http://purl.org/dc/elements/1.1/"
   xmlns:cc="http://creativecommons.org/ns#"
   xmlns:rdf="http://www.w3.org/1999/02/22-rdf-syntax-ns#"
   xmlns:svg="http://www.w3.org/2000/svg"
   xmlns="http://www.w3.org/2000/svg"
   viewBox="0 0 99.999999 100"
   height="100"
   width="100"
   version="1.1"
   id="svg2">
  <metadata
     id="metadata8">
    <rdf:RDF>
      <cc:Work
         rdf:about="">
        <dc:format>image/svg+xml</dc:format>
        <dc:type
           rdf:resource="http://purl.org/dc/dcmitype/StillImage" />
        <dc:title></dc:title>
      </cc:Work>
    </rdf:RDF>
  </metadata>
  <defs
     id="defs6" />
  <path
     id="path3344"
     d="m 18.62553,72.103303 c 0,-0.752398 3.774256,-4.726101 8.387234,-8.83045 4.612979,-4.104349 8.387234,-7.853253 8.387234,-8.330899 0,-0.477643 -0.885963,-3.160866 -1.968805,-5.962713 l -1.968806,-5.094269 -1.771867,3.570671 c -1.584663,3.193416 -2.674218,3.538035 -10.312501,3.261765 l -8.540634,-0.308906 7.563897,-0.571816 c 7.186642,-0.543297 7.686521,-0.849909 10.02251,-6.147499 2.861919,-6.490309 4.796158,-5.509506 7.034944,3.567236 0.962354,3.901687 1.916297,5.317273 3.154725,4.681395 0.976378,-0.501326 1.989767,-0.911503 2.251975,-0.911503 0.262206,0 1.576135,-2.883475 2.91984,-6.407724 2.105665,-5.522704 2.741137,-6.158676 4.600956,-4.60457 1.77737,1.485211 3.252308,0.751067 8.364837,-4.163552 3.413841,-3.281688 6.206982,-6.883184 6.206982,-8.003326 0,-2.18323 10.471962,-8.233249 11.611567,-6.708409 1.150798,1.53982 -6.101922,12.096832 -8.017038,11.669548 -2.055117,-0.458519 -15.576291,11.16716 -15.576291,13.392695 0,2.294485 2.694888,9.634977 3.537252,9.634977 0.415937,0 2.21066,-3.967952 3.988274,-8.817672 1.777613,-4.84972 3.66474,-8.817673 4.193616,-8.817673 0.528877,0 2.492282,4.148314 4.363124,9.218476 3.174399,8.602925 3.483316,8.977609 4.626317,5.611246 1.129101,-3.325418 1.935929,-3.582699 10.327553,-3.293224 l 9.102768,0.314007 -7.841681,0.553347 c -7.539397,0.532017 -7.927005,0.765342 -10.055087,6.052771 -1.217373,3.024683 -2.686278,5.108378 -3.264233,4.630434 -0.577955,-0.477943 -2.407719,-4.451866 -4.066142,-8.830937 -1.658422,-4.379071 -3.426559,-7.621866 -3.929191,-7.206211 -0.502633,0.415655 -2.193141,4.410311 -3.756684,8.877012 -1.563544,4.466703 -3.18238,8.121277 -3.597415,8.121277 -0.415034,0 -1.942159,-3.270635 -3.393612,-7.268077 -2.33108,-6.420026 -2.916712,-7.06921 -5.019058,-5.563719 -1.309031,0.937395 -3.262976,4.027669 -4.342101,6.867272 -2.592653,6.822294 -2.808205,7.057676 -4.033608,4.404679 -0.841376,-1.821582 -2.714446,-0.785752 -9.5059,5.256872 -8.836343,7.862045 -9.684951,8.40157 -9.684951,6.157469 z"
     style="fill:#000000" />
</svg>
