<?xml version="1.0" encoding="UTF-8" standalone="no"?>
<!-- Created with Inkscape (http://www.inkscape.org/) -->

<svg
   xmlns:dc="http://purl.org/dc/elements/1.1/"
   xmlns:cc="http://creativecommons.org/ns#"
   xmlns:rdf="http://www.w3.org/1999/02/22-rdf-syntax-ns#"
   xmlns:svg="http://www.w3.org/2000/svg"
   xmlns="http://www.w3.org/2000/svg"
   xmlns:sodipodi="http://sodipodi.sourceforge.net/DTD/sodipodi-0.dtd"
   xmlns:inkscape="http://www.inkscape.org/namespaces/inkscape"
   id="svg2"
   version="1.1"
   inkscape:version="0.91 r13725"
   width="100"
   height="100"
   viewBox="0 0 100 100"
   sodipodi:docname="switch-thermal.svg">
  <metadata
     id="metadata8">
    <rdf:RDF>
      <cc:Work
         rdf:about="">
        <dc:format>image/svg+xml</dc:format>
        <dc:type
           rdf:resource="http://purl.org/dc/dcmitype/StillImage" />
        <dc:title></dc:title>
      </cc:Work>
    </rdf:RDF>
  </metadata>
  <defs
     id="defs6" />
  <sodipodi:namedview
     pagecolor="#ffffff"
     bordercolor="#666666"
     borderopacity="1"
     objecttolerance="10"
     gridtolerance="10"
     guidetolerance="10"
     inkscape:pageopacity="0"
     inkscape:pageshadow="2"
     inkscape:window-width="640"
     inkscape:window-height="480"
     id="namedview4"
     showgrid="false"
     inkscape:zoom="1.4676617"
     inkscape:cx="7.3515446"
     inkscape:cy="4.964607"
     inkscape:window-x="228"
     inkscape:window-y="143"
     inkscape:window-maximized="0"
     inkscape:current-layer="svg2" />
  <path
     style="fill:#000000"
     d="m 53.608477,71.291526 0,-7.779661 5.076006,0 5.076007,0 0,-3.661017 0,-3.661018 -5.047358,0 -5.047359,0 -0.282448,-12.582642 -0.282449,-12.582642 -3.986078,0.310743 c -5.439019,0.42401 -8.703939,1.658571 -8.703939,3.29121 0,0.749833 -0.883647,1.789688 -1.963662,2.310789 -7.514563,3.625737 -14.166322,-4.35752 -7.543842,-9.053911 3.436778,-2.437222 4.992,-2.390076 7.909013,0.239756 l 2.370024,2.136693 15.096054,-2.108073 c 21.190774,-2.959163 20.194762,-3.062625 20.445134,2.123761 0.2423,5.019198 -1.73871,7.609231 -5.81999,7.609231 -3.879658,0 -6.135867,-1.854401 -6.402796,-5.262522 -0.244864,-3.126391 -1.567229,-3.608457 -6.577712,-2.397895 -2.218927,0.536106 -2.284203,0.888842 -2.284203,12.343435 l 0,11.791559 5.63205,0 5.632051,0 -0.302244,5.720339 -0.302243,5.720339 -5.329807,0.276645 -5.329807,0.276644 0,6.35895 c 0,3.629129 -0.435814,6.358949 -1.015201,6.358949 -0.597177,0 -1.015201,-3.20339 -1.015201,-7.779662 z M 37.31888,34.731732 c 0.669591,-0.727377 1.068159,-2.271869 0.885707,-3.432203 -0.457098,-2.906995 -5.311534,-3.464132 -6.897977,-0.791672 -2.296297,3.86825 2.948001,7.552593 6.01227,4.223875 z m 36.064216,-0.161469 c 1.978721,-1.783914 1.68177,-3.902913 -0.739595,-5.277653 -3.517568,-1.997113 -7.478569,2.503136 -4.781731,5.432713 1.597999,1.735907 3.482569,1.682981 5.521326,-0.15506 z"
     id="path3357"
     inkscape:connector-curvature="0" />
</svg>
