<?xml version="1.0" encoding="UTF-8" standalone="no"?>
<!-- Created with Inkscape (http://www.inkscape.org/) -->

<svg
   xmlns:dc="http://purl.org/dc/elements/1.1/"
   xmlns:cc="http://creativecommons.org/ns#"
   xmlns:rdf="http://www.w3.org/1999/02/22-rdf-syntax-ns#"
   xmlns:svg="http://www.w3.org/2000/svg"
   xmlns="http://www.w3.org/2000/svg"
   xmlns:sodipodi="http://sodipodi.sourceforge.net/DTD/sodipodi-0.dtd"
   xmlns:inkscape="http://www.inkscape.org/namespaces/inkscape"
   id="svg2"
   version="1.1"
   inkscape:version="0.91 r13725"
   width="100"
   height="100"
   viewBox="0 0 100 99.999999"
   sodipodi:docname="switch-multipoint.svg">
  <metadata
     id="metadata8">
    <rdf:RDF>
      <cc:Work
         rdf:about="">
        <dc:format>image/svg+xml</dc:format>
        <dc:type
           rdf:resource="http://purl.org/dc/dcmitype/StillImage" />
        <dc:title></dc:title>
      </cc:Work>
    </rdf:RDF>
  </metadata>
  <defs
     id="defs6" />
  <sodipodi:namedview
     pagecolor="#ffffff"
     bordercolor="#666666"
     borderopacity="1"
     objecttolerance="10"
     gridtolerance="10"
     guidetolerance="10"
     inkscape:pageopacity="0"
     inkscape:pageshadow="2"
     inkscape:window-width="640"
     inkscape:window-height="480"
     id="namedview4"
     showgrid="false"
     inkscape:zoom="2.2073704"
     inkscape:cx="-6.9820996"
     inkscape:cy="49.096732"
     inkscape:window-x="205"
     inkscape:window-y="94"
     inkscape:window-maximized="0"
     inkscape:current-layer="svg2" />
  <path
     style="fill:#000000"
     d="m 45.90418,77.19725 c -4.343349,-3.220592 -1.090911,-11.255623 4.313169,-10.655529 2.190291,0.243219 3.602414,-0.759232 8.881009,-6.304536 3.452132,-3.626559 6.109122,-7.055789 5.90442,-7.620514 -0.204702,-0.564724 1.169442,-2.03542 3.053654,-3.268213 2.925665,-1.914187 3.355464,-2.613955 2.943814,-4.792897 -1.003062,-5.309399 5.773777,-8.609771 9.524893,-4.638694 2.405071,2.546102 2.247606,5.267833 -0.471295,8.146167 -1.72478,1.825919 -2.831707,2.255611 -4.694742,1.822426 -2.10994,-0.490595 -2.665874,-0.118546 -4.13335,2.76618 -0.932538,1.833159 -2.346121,3.333015 -3.141295,3.333015 -0.795175,0 -4.099031,2.870935 -7.341903,6.379857 -4.981884,5.390604 -5.889555,6.879001 -5.853725,9.598926 0.02959,2.2457 -0.572427,3.746124 -1.990927,4.962111 -2.483831,2.129224 -4.388824,2.203231 -6.993722,0.271701 z m 5.216902,-1.397407 c 2.243863,-1.271296 2.247522,-5.276268 0.006,-6.546249 -3.742763,-2.120523 -6.894359,2.344872 -4.024422,5.702074 1.817099,2.125611 1.773025,2.116352 4.018439,0.844175 z M 79.454264,44.561785 c 0.321783,-2.930506 -1.746559,-5.025582 -4.160666,-4.214444 -2.220875,0.746212 -2.77237,2.298682 -1.800225,5.067673 1.129696,3.217745 5.583888,2.580182 5.960891,-0.853229 z m -60.309856,4.313314 c -2.408123,-1.803085 -2.750397,-7.092986 -0.605836,-9.363302 1.894359,-2.005442 6.020385,-1.877338 7.833149,0.243202 1.742778,2.038672 1.954541,7.072674 0.356583,8.476628 -2.16209,1.899595 -5.525174,2.184944 -7.583896,0.643472 z m 5.847909,-2.531117 c 2.518814,-2.666513 0.06238,-7.115429 -3.304167,-5.984273 -0.980537,0.329459 -2.037422,1.448319 -2.348633,2.486354 -1.068501,3.563958 3.133987,6.164433 5.6528,3.497919 z m 11.355295,-8.472484 c -4.175168,-3.476767 -2.040929,-10.241762 3.231098,-10.241762 4.407747,0 6.96005,4.316132 4.99126,8.440586 -1.580482,3.310981 -5.403562,4.14846 -8.222358,1.801176 z m 5.608107,-1.924319 c 2.502551,-2.649298 0.06807,-7.117342 -3.267357,-5.996641 -2.25013,0.75604 -3.043371,3.000474 -1.87633,5.308979 1.038825,2.054886 3.536745,2.388833 5.143687,0.687662 z m 13.987367,1.885715 c -2.523358,-2.101264 -2.820738,-5.067122 -0.812424,-8.102526 1.768744,-2.673313 6.004685,-2.778974 8.431075,-0.210304 4.914288,5.202456 -2.127286,12.885629 -7.618651,8.31283 z m 6.547776,-3.667913 c 0.321783,-2.930506 -1.746559,-5.025581 -4.160666,-4.214443 -4.05906,1.363839 -2.743942,7.469889 1.497144,6.951192 1.82184,-0.222816 2.459414,-0.877918 2.663522,-2.736749 z"
     id="path3357"
     inkscape:connector-curvature="0" />
</svg>
