<?xml version="1.0" encoding="UTF-8" standalone="no"?>
<!-- Created with Inkscape (http://www.inkscape.org/) -->

<svg
   xmlns:dc="http://purl.org/dc/elements/1.1/"
   xmlns:cc="http://creativecommons.org/ns#"
   xmlns:rdf="http://www.w3.org/1999/02/22-rdf-syntax-ns#"
   xmlns:svg="http://www.w3.org/2000/svg"
   xmlns="http://www.w3.org/2000/svg"
   xmlns:sodipodi="http://sodipodi.sourceforge.net/DTD/sodipodi-0.dtd"
   xmlns:inkscape="http://www.inkscape.org/namespaces/inkscape"
   id="svg2"
   version="1.1"
   inkscape:version="0.91 r13725"
   width="100"
   height="100"
   viewBox="0 0 99.999999 99.999998"
   sodipodi:docname="switch-momentary.svg">
  <metadata
     id="metadata8">
    <rdf:RDF>
      <cc:Work
         rdf:about="">
        <dc:format>image/svg+xml</dc:format>
        <dc:type
           rdf:resource="http://purl.org/dc/dcmitype/StillImage" />
        <dc:title></dc:title>
      </cc:Work>
    </rdf:RDF>
  </metadata>
  <defs
     id="defs6" />
  <sodipodi:namedview
     pagecolor="#ffffff"
     bordercolor="#666666"
     borderopacity="1"
     objecttolerance="10"
     gridtolerance="10"
     guidetolerance="10"
     inkscape:pageopacity="0"
     inkscape:pageshadow="2"
     inkscape:window-width="640"
     inkscape:window-height="480"
     id="namedview4"
     showgrid="false"
     inkscape:zoom="3.1781167"
     inkscape:cx="22.742648"
     inkscape:cy="49.965511"
     inkscape:window-x="246"
     inkscape:window-y="100"
     inkscape:window-maximized="0"
     inkscape:current-layer="svg2" />
  <path
     style="fill:#000000"
     d="M 19.418105,55.154653 C 18.969643,41.25482 26.483647,35.330206 33.152169,44.325668 c 3.622858,4.887034 3.921771,6.76516 1.891253,11.883127 -1.292899,3.258785 -0.87534,3.476685 6.66234,3.476685 l 8.04169,0 0,-16.176822 c 0,-9.586265 0.542857,-16.176823 1.332468,-16.176823 0.789611,0 1.332468,6.590558 1.332468,16.176823 l 0,16.176822 7.727247,0 7.727249,0 -0.529214,-6.114894 c -0.386884,-4.470316 0.222619,-7.129078 2.266261,-9.885836 3.331512,-4.494022 6.466444,-4.778082 10.515076,-0.952785 2.471808,2.335457 2.94285,4.336595 2.750087,11.683261 l -0.232604,8.865104 -31.47811,0 -31.47811,0 -0.262165,-8.125677 z m 11.613927,1.933624 c 2.754617,-4.477295 1.177585,-10.813278 -2.847565,-11.440562 -4.825713,-0.752044 -7.120578,4.696727 -4.281214,10.165023 2.335883,4.498647 4.867138,4.95156 7.128779,1.275539 z m 47.253701,0.231618 c 2.830567,-2.791992 2.396098,-8.122072 -0.88957,-10.913253 -4.616864,-3.922037 -9.815741,4.91579 -6.276099,10.669048 1.991023,3.236166 4.060855,3.306706 7.165669,0.244205 z"
     id="path3357"
     inkscape:connector-curvature="0" />
</svg>
