<?xml version="1.0" encoding="UTF-8" standalone="no"?>
<!-- Created with Inkscape (http://www.inkscape.org/) -->

<svg
   xmlns:dc="http://purl.org/dc/elements/1.1/"
   xmlns:cc="http://creativecommons.org/ns#"
   xmlns:rdf="http://www.w3.org/1999/02/22-rdf-syntax-ns#"
   xmlns:svg="http://www.w3.org/2000/svg"
   xmlns="http://www.w3.org/2000/svg"
   xmlns:sodipodi="http://sodipodi.sourceforge.net/DTD/sodipodi-0.dtd"
   xmlns:inkscape="http://www.inkscape.org/namespaces/inkscape"
   id="svg2"
   version="1.1"
   inkscape:version="0.91 r13725"
   width="100"
   height="100"
   viewBox="0 0 99.999999 99.999999"
   sodipodi:docname="transistors-pnp.svg">
  <metadata
     id="metadata8">
    <rdf:RDF>
      <cc:Work
         rdf:about="">
        <dc:format>image/svg+xml</dc:format>
        <dc:type
           rdf:resource="http://purl.org/dc/dcmitype/StillImage" />
        <dc:title></dc:title>
      </cc:Work>
    </rdf:RDF>
  </metadata>
  <defs
     id="defs6" />
  <sodipodi:namedview
     pagecolor="#ffffff"
     bordercolor="#666666"
     borderopacity="1"
     objecttolerance="10"
     gridtolerance="10"
     guidetolerance="10"
     inkscape:pageopacity="0"
     inkscape:pageshadow="2"
     inkscape:window-width="640"
     inkscape:window-height="480"
     id="namedview4"
     showgrid="false"
     inkscape:zoom="1.671251"
     inkscape:cx="-0.7644344"
     inkscape:cy="33.154239"
     inkscape:window-x="291"
     inkscape:window-y="152"
     inkscape:window-maximized="0"
     inkscape:current-layer="svg2" />
  <path
     style="fill:#000000"
     d="m 68.963791,70.664186 c 0,-2.389315 0.01001,-2.399599 2.25,-2.3101 1.809861,0.07231 1.927232,0.138794 0.6,0.339853 -1.894483,0.286991 -2.250233,1.370247 -0.45,1.370247 0.66,0 1.2,0.27 1.2,0.6 0,0.33 -0.54,0.6 -1.2,0.6 -1.800233,0 -1.444483,1.083257 0.45,1.370248 1.327232,0.201059 1.209861,0.26754 -0.6,0.339853 -2.239983,0.0895 -2.25,0.07921 -2.25,-2.310101 z M 46.897942,68.61374 C 40.277528,66.466205 35.44066,61.008403 34.402127,54.513773 l -0.391704,-2.449586 -4.123315,0 c -2.348877,0 -4.123315,-0.258206 -4.123315,-0.6 0,-0.341934 1.777741,-0.6 4.133225,-0.6 l 4.133225,0 0.41419,-2.25 c 1.633225,-8.872159 8.439945,-14.555184 17.419359,-14.543664 3.197933,0.0041 4.958719,0.358606 7.380048,1.485845 2.605609,1.213029 3.386458,1.351553 4.322713,0.766851 1.471821,-0.919167 2.430432,-0.0059 1.05188,1.002087 -0.980026,0.716613 -0.966905,0.832194 0.215795,1.900943 0.692596,0.625866 1.961635,2.487938 2.820086,4.137938 1.323382,2.543628 1.56082,3.775832 1.56082,8.1 0,4.324168 -0.237438,5.556372 -1.56082,8.1 -0.858451,1.65 -2.12749,3.512072 -2.820086,4.137938 -1.1827,1.068749 -1.195821,1.18433 -0.215795,1.900943 1.365004,0.998115 0.522784,1.812908 -1.117418,1.081029 -0.95224,-0.424902 -1.977195,-0.227543 -4.055746,0.780946 -3.576597,1.735323 -9.162408,2.2467 -12.547327,1.148697 z m 9.59417,-2.775116 c 2.934955,-0.815123 3.133682,-1.30214 1.025138,-2.512278 -1.738008,-0.997479 -1.759243,-0.991382 -2.668113,0.766179 -0.503889,0.974414 -1.246728,1.768458 -1.650753,1.764542 -0.404026,-0.0039 -1.65418,-1.691415 -2.77812,-3.749999 -2.857811,-5.234305 -4.256472,-6.069886 -4.256472,-2.542881 0,1.155 -0.258643,2.1 -0.574762,2.1 -0.316118,0 -0.653618,-2.0925 -0.75,-4.65 l -0.175238,-4.65 -3.9,0 -3.9,0 0.198571,1.692971 c 0.552692,4.712146 4.638345,9.780976 9.176429,11.38466 3.10865,1.098546 7.161828,1.255404 10.25332,0.396806 z m 7.083633,-4.886157 c 2.779596,-3.837121 3.898496,-8.354327 3.030294,-12.233859 -0.715565,-3.197485 -3.637852,-8.294106 -5.070975,-8.844046 -0.43512,-0.166971 -4.069143,1.494888 -8.075608,3.693021 l -7.284481,3.996604 -0.0056,3.977208 c -0.0054,3.850194 0.05155,4.000875 1.783608,4.718318 1.073219,0.444541 3.474227,0.645898 6,0.503179 4.586928,-0.259185 5.17488,0.257871 3.31411,2.914492 -0.84069,1.200253 -0.775113,1.355375 1.05,2.483797 2.765372,1.709762 3.220251,1.605206 5.258644,-1.208714 z M 44.963792,46.064187 c 0,-2.8 0.25,-4.8 0.6,-4.8 0.33,0 0.6,1.058472 0.6,2.352159 l 0,2.352159 6.619563,-3.675142 c 6.458119,-3.585508 6.582987,-3.694305 5.119862,-4.460914 -2.353116,-1.232922 -6.62338,-1.5903 -9.711342,-0.812743 -5.580485,1.405183 -9.65314,5.622369 -10.933699,11.321719 l -0.566827,2.522762 4.136221,0 4.136222,0 0,-4.8 z m -26.999999,5.360147 c 0,-2.307683 0.08938,-2.429569 1.65,-2.25 1.4325,0.164827 1.674547,0.486443 1.836219,2.439853 0.177978,2.150428 0.104959,2.25 -1.65,2.25 -1.747255,0 -1.836219,-0.118211 -1.836219,-2.439853 z m 2.7,1.239853 c 0.203951,-0.33 -0.185115,-0.6 -0.86459,-0.6 -0.679476,0 -1.23541,0.27 -1.23541,0.6 0,0.33 0.389065,0.6 0.86459,0.6 0.475524,0 1.031458,-0.27 1.23541,-0.6 z M 20.057744,50.2544 c -0.207278,-0.335383 -0.628212,-0.454448 -0.93541,-0.26459 -0.832226,0.514344 -0.677047,0.874377 0.376869,0.874377 0.514475,0 0.765819,-0.274404 0.558541,-0.609787 z m 49.64904,-13.88722 c -1.833432,-1.833432 -0.149948,-5.16693 2.228215,-4.412131 1.717186,0.545014 1.544992,1.611363 -0.189887,1.175936 -0.930065,-0.233432 -1.530892,-0.06364 -1.744488,0.492979 -0.540728,1.409116 0.472647,2.413296 1.959248,1.941467 0.990193,-0.314274 1.275067,-0.212314 1.07791,0.385793 -0.358329,1.087036 -2.404414,1.34254 -3.330998,0.415956 z"
     id="path3357"
     inkscape:connector-curvature="0"
     inkscape:transform-center-x="-1.1967083"
     inkscape:transform-center-y="-16.753917" />
</svg>
