<?xml version="1.0" encoding="UTF-8" standalone="no"?>
<!-- Created with Inkscape (http://www.inkscape.org/) -->

<svg
   xmlns:dc="http://purl.org/dc/elements/1.1/"
   xmlns:cc="http://creativecommons.org/ns#"
   xmlns:rdf="http://www.w3.org/1999/02/22-rdf-syntax-ns#"
   xmlns:svg="http://www.w3.org/2000/svg"
   xmlns="http://www.w3.org/2000/svg"
   xmlns:sodipodi="http://sodipodi.sourceforge.net/DTD/sodipodi-0.dtd"
   xmlns:inkscape="http://www.inkscape.org/namespaces/inkscape"
   id="svg2"
   version="1.1"
   inkscape:version="0.91 r13725"
   width="100"
   height="100"
   viewBox="0 0 100 100"
   sodipodi:docname="transistors-p-channel.svg">
  <metadata
     id="metadata8">
    <rdf:RDF>
      <cc:Work
         rdf:about="">
        <dc:format>image/svg+xml</dc:format>
        <dc:type
           rdf:resource="http://purl.org/dc/dcmitype/StillImage" />
        <dc:title></dc:title>
      </cc:Work>
    </rdf:RDF>
  </metadata>
  <defs
     id="defs6" />
  <sodipodi:namedview
     pagecolor="#ffffff"
     bordercolor="#666666"
     borderopacity="1"
     objecttolerance="10"
     gridtolerance="10"
     guidetolerance="10"
     inkscape:pageopacity="0"
     inkscape:pageshadow="2"
     inkscape:window-width="909"
     inkscape:window-height="781"
     id="namedview4"
     showgrid="false"
     inkscape:zoom="4.8099414"
     inkscape:cx="34.200001"
     inkscape:cy="46.548329"
     inkscape:window-x="200"
     inkscape:window-y="116"
     inkscape:window-maximized="0"
     inkscape:current-layer="svg2" />
  <path
     style="fill:#000000"
     d="M 41.42493,70.871298 C 35.212293,68.394897 30.583044,63.38481 28.559009,56.946928 27.244597,52.766156 27.224546,45.756584 28.515255,41.651203 l 0.9955,-3.166402 -4.073007,0 c -2.259411,0 -4.073007,-0.341736 -4.073007,-0.767477 0,-0.432967 1.938284,-0.767477 4.447069,-0.767477 4.277882,0 4.535989,-0.110454 6.784352,-2.903294 1.285507,-1.596812 3.823649,-3.755342 5.640317,-4.796732 2.795543,-1.602524 4.248714,-1.891415 9.458049,-1.880267 7.250563,0.01552 10.254993,1.413037 14.870302,6.916972 l 2.876887,3.430798 5.317134,0 c 3.08883,0 5.317135,0.321635 5.317135,0.767477 0,0.442073 -2.13226,0.767478 -5.028998,0.767478 l -5.028998,0 0.925655,4.00464 c 1.159545,5.016519 1.159545,6.928607 0,11.945126 l -0.925655,4.004641 5.028998,0 c 2.896738,0 5.028998,0.325405 5.028998,0.767477 0,0.443629 -2.170609,0.767477 -5.144046,0.767477 l -5.144046,0 -3.686496,4.137068 c -5.626893,6.314624 -13.872907,8.704538 -20.676468,5.99259 z M 52.768696,67.66664 c 2.762896,-0.889235 7.317975,-4.290654 7.857023,-5.867084 0.3197,-0.934949 -0.639117,-1.079536 -5.932988,-0.894673 l -6.314313,0.220496 -0.213109,2.894109 c -0.11721,1.59176 -0.501899,2.693812 -0.854863,2.449006 -0.352965,-0.244806 -0.6437,-4.13739 -0.646078,-8.650188 l -0.0043,-8.205085 -2.046489,-1.306837 c -2.040358,-1.302921 -2.049616,-1.300048 -3.090745,0.959347 -0.574342,1.246401 -1.340237,2.266183 -1.701988,2.266183 -0.361752,0 -1.72297,-2.373818 -3.024929,-5.27515 -2.730846,-6.085516 -4.186376,-7.226549 -5.245093,-4.111787 -5.138775,15.118354 7.248159,30.017811 21.217896,25.521663 z M 63.458908,56.545166 c 0.545016,-1.463836 0.990939,-4.755894 0.990939,-7.315684 0,-2.55979 -0.445923,-5.851848 -0.990939,-7.315684 l -0.99094,-2.661519 -7.215747,0 -7.215748,0 0,9.977203 0,9.977204 7.215748,0 7.215747,0 0.99094,-2.66152 z M 47.333177,32.344984 c 0.33915,0 0.713072,1.122435 0.830939,2.494301 l 0.214302,2.494301 6.471114,0.222824 6.471113,0.222825 -1.683879,-2.024338 c -5.756429,-6.920303 -16.547403,-7.402082 -23.419073,-1.045578 -4.419305,4.087991 -3.338793,5.310437 4.693863,5.310437 2.790285,0 5.073246,0.189833 5.073246,0.421851 0,0.232019 -0.4835,1.471113 -1.074445,2.753544 -0.998582,2.167062 -0.98651,2.40401 0.170973,3.355948 1.179309,0.969888 1.255762,0.620035 1.440314,-6.590929 0.107194,-4.188353 0.472383,-7.615186 0.811533,-7.615186 z m 32.618189,30.954913 c -0.25076,-0.281408 -0.455927,-1.835549 -0.455927,-3.453647 0,-2.607509 0.189796,-2.941996 1.669363,-2.941996 2.453006,0 3.862354,3.701316 2.264793,5.947948 -0.731784,1.029107 -2.730855,1.286414 -3.478229,0.447695 z m 2.963526,-1.79078 c 0,-0.422112 -0.461626,-0.767477 -1.025836,-0.767477 -0.56421,0 -1.025836,0.345365 -1.025836,0.767477 0,0.422113 0.461626,0.767478 1.025836,0.767478 0.56421,0 1.025836,-0.345365 1.025836,-0.767478 z m -0.555661,-2.826706 c -0.49368,-0.221702 -1.083536,-0.194435 -1.310793,0.06059 -0.227248,0.255026 0.176677,0.436419 0.897607,0.403094 0.796698,-0.03682 0.958746,-0.218686 0.413186,-0.463684 z m 3.975114,2.872001 c 0,-1.291249 -0.345433,-2.347726 -0.767626,-2.347726 -0.530364,0 -0.504479,-0.355831 0.08373,-1.151216 0.468253,-0.633169 1.121437,-1.151216 1.451517,-1.151216 0.833532,0 0.757279,5.940252 -0.08374,6.523556 -0.398995,0.276733 -0.68389,-0.503681 -0.68389,-1.873398 z m -72.4924,-23.069611 c 0,-2.975423 0.06841,-3.066369 2.222644,-2.954916 2.068722,0.10703 2.092403,0.137135 0.341946,0.434716 -1.034385,0.175849 -1.880699,0.642149 -1.880699,1.036223 0,0.394075 0.846314,0.750926 1.880699,0.793002 l 1.880699,0.0765 -1.709727,0.533707 c -2.075542,0.6479 -2.014237,1.820649 0.130612,2.498564 1.345931,0.425404 1.250903,0.510402 -0.64353,0.575608 -2.148519,0.07395 -2.222644,-0.02588 -2.222644,-2.993407 z m 65.653494,0 c 0,-3.110888 0.03949,-3.162887 2.222644,-2.926665 2.043417,0.221103 2.222645,0.457098 2.222645,2.926665 0,2.469568 -0.179228,2.705563 -2.222645,2.926666 -2.183153,0.236222 -2.222644,0.184223 -2.222644,-2.926666 z m 3.077508,0.767478 c -0.232469,-0.422113 -0.712259,-0.767478 -1.0662,-0.767478 -0.35394,0 -0.643527,0.345365 -0.643527,0.767478 0,0.422112 0.47979,0.767477 1.066199,0.767477 0.586409,0 0.875996,-0.345365 0.643528,-0.767477 z m 0.341945,-2.302432 c 0,-0.422112 -0.461626,-0.767477 -1.025836,-0.767477 -0.56421,0 -1.025836,0.345365 -1.025836,0.767477 0,0.422113 0.461626,0.767477 1.025836,0.767477 0.56421,0 1.025836,-0.345364 1.025836,-0.767477 z m 1.784065,3.512988 c 0.205352,-0.600532 0.81119,-1.280422 1.346321,-1.510867 0.535124,-0.230446 0.972957,-0.947879 0.972957,-1.594295 0,-1.412978 -1.114222,-1.563485 -1.598744,-0.215957 -0.20607,0.573107 -0.366682,0.418612 -0.398934,-0.383738 -0.03768,-0.937131 0.462782,-1.343085 1.655733,-1.343085 2.004839,0 2.364695,2.271949 0.617587,3.899138 -0.991682,0.923612 -0.975953,1.068486 0.170973,1.574986 0.944514,0.41711 0.707902,0.571415 -0.938072,0.611751 -1.634088,0.04005 -2.104988,-0.227358 -1.827821,-1.037933 z"
     id="path3357"
     inkscape:connector-curvature="0" />
</svg>
